G04*
G04 #@! TF.GenerationSoftware,Altium Limited,CircuitStudio,1.5.2 (30)*
G04*
G04 Layer_Physical_Order=3*
G04 Layer_Color=56745*
%FSLAX25Y25*%
%MOIN*%
G70*
G01*
G75*
%ADD27C,0.01000*%
%ADD29C,0.01600*%
%ADD34C,0.07874*%
%ADD35C,0.06299*%
%ADD37C,0.09449*%
%ADD38C,0.06024*%
%ADD40R,0.06299X0.06299*%
%ADD42C,0.02362*%
G36*
X328617Y112500D02*
X312163D01*
X318581Y118919D01*
X318913Y119415D01*
X319029Y120000D01*
Y172500D01*
X318913Y173085D01*
X318581Y173581D01*
X309234Y182928D01*
X310000Y182776D01*
X310851Y182946D01*
X311573Y183428D01*
X312055Y184149D01*
X312224Y185000D01*
X312055Y185851D01*
X311573Y186573D01*
X310851Y187055D01*
X310000Y187224D01*
X309149Y187055D01*
X308428Y186573D01*
X307945Y185851D01*
X307776Y185000D01*
X307928Y184234D01*
X306081Y186081D01*
X305585Y186413D01*
X305000Y186529D01*
X301601D01*
X301572Y186573D01*
X300851Y187055D01*
X300000Y187224D01*
X299149Y187055D01*
X298428Y186573D01*
X297945Y185851D01*
X297776Y185000D01*
X297945Y184149D01*
X298428Y183428D01*
X299149Y182946D01*
X300000Y182776D01*
X300851Y182946D01*
X301572Y183428D01*
X301601Y183471D01*
X304366D01*
X315971Y171867D01*
Y120633D01*
X308919Y113581D01*
X308587Y113085D01*
X308471Y112500D01*
X270000D01*
Y122098D01*
X270000Y122299D01*
X270000Y122299D01*
X270000Y122300D01*
X270006Y122309D01*
X270140Y122631D01*
X270142Y122642D01*
X270142Y122642D01*
X270142Y122642D01*
X270284Y122784D01*
X270284Y122784D01*
X270284Y122784D01*
X276903Y129403D01*
X276903Y129403D01*
X277500Y130000D01*
Y166136D01*
X277528Y166277D01*
Y166277D01*
X277528Y166279D01*
X277528Y166279D01*
X277533Y166304D01*
X277533Y166304D01*
X284919Y158919D01*
X285415Y158587D01*
X286000Y158471D01*
X295000D01*
X295585Y158587D01*
X296081Y158919D01*
X306160Y168997D01*
X306492Y169493D01*
X306608Y170079D01*
Y171193D01*
X307102Y171397D01*
X307940Y172040D01*
X308583Y172878D01*
X308987Y173854D01*
X309125Y174902D01*
X308987Y175949D01*
X308583Y176925D01*
X307940Y177763D01*
X307102Y178406D01*
X306126Y178810D01*
X305079Y178948D01*
X304031Y178810D01*
X303056Y178406D01*
X302218Y177763D01*
X301574Y176925D01*
X301170Y175949D01*
X301032Y174902D01*
X301170Y173854D01*
X301574Y172878D01*
X302218Y172040D01*
X303056Y171397D01*
X303549Y171193D01*
Y170712D01*
X294367Y161529D01*
X286633D01*
X270000Y178163D01*
Y187299D01*
Y187299D01*
X270000Y187299D01*
X270017Y187324D01*
Y187324D01*
X270073Y187380D01*
X270092Y187408D01*
X270120Y187427D01*
X270176Y187483D01*
X270176Y187483D01*
X270176Y187483D01*
D01*
X270177Y187484D01*
X270201Y187500D01*
X270201Y187500D01*
X270201D01*
X270402Y187500D01*
X270402Y187500D01*
X328617D01*
Y112500D01*
D02*
G37*
G36*
Y32500D02*
X270402D01*
X270402Y32500D01*
X270402D01*
X270401Y32500D01*
X270203D01*
X270201Y32501D01*
X270199Y32501D01*
X270189Y32508D01*
X270188Y32508D01*
X270188Y32509D01*
X270176Y32517D01*
X270120Y32572D01*
X270107Y32581D01*
X270104Y32584D01*
X270086Y32605D01*
X270080Y32610D01*
X270073Y32620D01*
X270073Y32620D01*
X270070Y32621D01*
X270069Y32623D01*
X270068Y32624D01*
X270067Y32626D01*
X270066Y32627D01*
X270064Y32633D01*
X270063Y32634D01*
X270011Y32684D01*
X270000Y32701D01*
X270000Y32901D01*
X270000Y32902D01*
Y42090D01*
X270000Y42091D01*
Y42098D01*
X270000Y42100D01*
X270000Y42292D01*
X270003Y42303D01*
X270006Y42309D01*
X270135Y42620D01*
X270138Y42634D01*
X270138Y42634D01*
X270138Y42634D01*
X270139Y42635D01*
X270140Y42638D01*
X270140Y42638D01*
X270141Y42639D01*
X270142Y42642D01*
X270142Y42642D01*
X270142Y42642D01*
X270284Y42784D01*
X270284Y42784D01*
X270284Y42784D01*
X273593Y46093D01*
X273593Y46093D01*
X276903Y49403D01*
X276903Y49403D01*
X277500Y50000D01*
Y84935D01*
X277500Y84936D01*
Y84936D01*
D01*
X277500Y85135D01*
X277532Y85294D01*
X277546Y85316D01*
X277669Y85436D01*
X277671Y85441D01*
X277675Y85446D01*
X277682Y85455D01*
X277690Y85476D01*
X277777Y85603D01*
X277856Y85786D01*
X277862Y85796D01*
X277863Y85796D01*
X277864Y85797D01*
X277864Y85798D01*
X277864Y85799D01*
X277864Y85799D01*
X277864Y85799D01*
X277934Y85903D01*
X277934Y85903D01*
X284919Y78919D01*
X285415Y78587D01*
X286000Y78471D01*
X295000D01*
X295585Y78587D01*
X296081Y78919D01*
X306160Y88997D01*
X306492Y89494D01*
X306608Y90079D01*
Y91193D01*
X307102Y91397D01*
X307940Y92040D01*
X308583Y92878D01*
X308987Y93854D01*
X309125Y94902D01*
X308987Y95949D01*
X308583Y96925D01*
X307940Y97763D01*
X307102Y98406D01*
X306126Y98810D01*
X305079Y98948D01*
X304031Y98810D01*
X303056Y98406D01*
X302218Y97763D01*
X301574Y96925D01*
X301170Y95949D01*
X301032Y94902D01*
X301170Y93854D01*
X301574Y92878D01*
X302218Y92040D01*
X303056Y91397D01*
X303549Y91193D01*
Y90712D01*
X294367Y81529D01*
X286633D01*
X270000Y98163D01*
Y107500D01*
X308471D01*
Y106601D01*
X308428Y106572D01*
X307945Y105851D01*
X307776Y105000D01*
X307945Y104149D01*
X308428Y103428D01*
X309149Y102945D01*
X310000Y102776D01*
X310051Y102786D01*
X318471Y94367D01*
Y93692D01*
X309841Y102322D01*
X309345Y102653D01*
X308760Y102770D01*
X299393D01*
X299235Y102928D01*
X300000Y102776D01*
X300851Y102945D01*
X301572Y103428D01*
X302055Y104149D01*
X302224Y105000D01*
X302055Y105851D01*
X301572Y106572D01*
X300851Y107054D01*
X300000Y107224D01*
X299149Y107054D01*
X298428Y106572D01*
X297945Y105851D01*
X297776Y105000D01*
X297928Y104235D01*
X296081Y106081D01*
X295585Y106413D01*
X295000Y106529D01*
X291601D01*
X291572Y106572D01*
X290851Y107054D01*
X290000Y107224D01*
X289149Y107054D01*
X288427Y106572D01*
X287945Y105851D01*
X287776Y105000D01*
X287945Y104149D01*
X288427Y103428D01*
X289149Y102945D01*
X290000Y102776D01*
X290851Y102945D01*
X291572Y103428D01*
X291601Y103471D01*
X294367D01*
X297678Y100159D01*
X298175Y99827D01*
X298760Y99711D01*
X308126D01*
X315971Y91867D01*
Y38133D01*
X315051Y37214D01*
X315000Y37224D01*
X314149Y37055D01*
X313427Y36573D01*
X312945Y35851D01*
X312776Y35000D01*
X312945Y34149D01*
X313427Y33428D01*
X314149Y32945D01*
X315000Y32776D01*
X315851Y32945D01*
X316572Y33428D01*
X317055Y34149D01*
X317224Y35000D01*
X317214Y35051D01*
X318581Y36419D01*
X318913Y36915D01*
X318932Y37012D01*
X319029Y37500D01*
Y38808D01*
X322786Y35051D01*
X322776Y35000D01*
X322945Y34149D01*
X323428Y33428D01*
X324149Y32945D01*
X325000Y32776D01*
X325851Y32945D01*
X326572Y33428D01*
X327055Y34149D01*
X327224Y35000D01*
X327055Y35851D01*
X326572Y36573D01*
X325851Y37055D01*
X325000Y37224D01*
X324949Y37214D01*
X321529Y40633D01*
Y95000D01*
X321413Y95585D01*
X321081Y96081D01*
X312214Y104949D01*
X312224Y105000D01*
X312055Y105851D01*
X311573Y106572D01*
X311529Y106601D01*
Y107500D01*
X328617D01*
Y32500D01*
D02*
G37*
G36*
X324339Y214274D02*
X325740Y213694D01*
X326943Y212770D01*
X327867Y211567D01*
X328447Y210165D01*
X328629Y208786D01*
X328617Y208661D01*
Y189539D01*
X270402D01*
X270402Y189539D01*
X270402Y189539D01*
X270201Y189539D01*
X270004Y189500D01*
X269803Y189500D01*
X269684Y189451D01*
X269556Y189435D01*
X269492Y189398D01*
X269421Y189384D01*
X269396Y189367D01*
X269396Y189367D01*
X269395Y189367D01*
X269395D01*
X269253Y189272D01*
X269068Y189195D01*
X269044Y189179D01*
X269042Y189178D01*
X269041Y189178D01*
X269040Y189177D01*
X268985Y189121D01*
X268959Y189104D01*
X268935Y189081D01*
X268865Y189041D01*
X268861Y189036D01*
X268840Y189024D01*
X268795Y188966D01*
X268734Y188925D01*
X268678Y188869D01*
X268659Y188841D01*
X268631Y188822D01*
X268575Y188766D01*
X268482Y188628D01*
X268396Y188541D01*
X268396Y188541D01*
X268377Y188513D01*
X268377Y188513D01*
X268321Y188457D01*
X268304Y188432D01*
X268228Y188247D01*
X268133Y188104D01*
Y188104D01*
X268116Y188080D01*
X268077Y187882D01*
X268000Y187697D01*
X268000Y187496D01*
X267961Y187299D01*
Y180855D01*
X267499Y180664D01*
X267081Y181081D01*
X266585Y181413D01*
X266000Y181529D01*
X246601D01*
X246572Y181572D01*
X245851Y182054D01*
X245500Y182124D01*
Y180000D01*
Y177876D01*
X245851Y177945D01*
X246572Y178428D01*
X246601Y178471D01*
X265367D01*
X275758Y168079D01*
X275824Y168012D01*
X275838Y167437D01*
X275761Y167251D01*
X275649Y167084D01*
X275649Y167082D01*
X275648Y167080D01*
X275648Y167080D01*
X275641Y167045D01*
X275635Y167036D01*
X275635Y167036D01*
X275605Y166874D01*
X275533Y166701D01*
X275529Y166679D01*
X275529Y166679D01*
X275528Y166677D01*
Y166677D01*
X275528Y166677D01*
Y166676D01*
X275528Y166675D01*
X275500Y166534D01*
X275500Y166333D01*
X275489Y166277D01*
Y166277D01*
X275461Y166136D01*
Y130845D01*
X275461Y130845D01*
X268842Y124226D01*
X268842Y124226D01*
X268700Y124084D01*
X268698Y124081D01*
X268695Y124079D01*
X268586Y123914D01*
X268447Y123775D01*
X268446Y123774D01*
X268445Y123773D01*
X268445Y123773D01*
X268369Y123589D01*
X268258Y123423D01*
X268257Y123419D01*
X268255Y123416D01*
X268255Y123416D01*
X268253Y123405D01*
X268123Y123089D01*
X268122Y123088D01*
X268116Y123079D01*
X268114Y123070D01*
X268109Y123062D01*
X268109Y123061D01*
X268075Y122882D01*
X268004Y122713D01*
X268003Y122713D01*
X268003Y122705D01*
X268001Y122698D01*
X268000Y122498D01*
X267961Y122299D01*
X267961Y122098D01*
X267961Y122098D01*
X267961Y122098D01*
Y112500D01*
Y107500D01*
Y100855D01*
X267499Y100664D01*
X267081Y101081D01*
X266585Y101413D01*
X266000Y101529D01*
X246601D01*
X246572Y101573D01*
X245851Y102055D01*
X245500Y102124D01*
Y100000D01*
Y97876D01*
X245851Y97945D01*
X246572Y98427D01*
X246601Y98471D01*
X265367D01*
X276145Y87692D01*
X276237Y87559D01*
X276238Y87036D01*
X276169Y86932D01*
X276168Y86930D01*
X276167Y86930D01*
X276165Y86926D01*
X276165Y86926D01*
X276164Y86925D01*
X276161Y86919D01*
X276113Y86804D01*
X276041Y86711D01*
X276024Y86652D01*
X276009Y86630D01*
X276008Y86628D01*
X275981Y86589D01*
X275969Y86559D01*
X275838Y86428D01*
X275829Y86408D01*
X275813Y86391D01*
X275799Y86369D01*
X275747Y86229D01*
X275671Y86119D01*
X275634Y85941D01*
X275616Y85915D01*
X275609Y85878D01*
X275533Y85694D01*
X275501Y85534D01*
X275500Y85333D01*
X275500Y85332D01*
X275500Y85331D01*
Y85329D01*
X275461Y85135D01*
X275461Y84936D01*
X275461Y84935D01*
Y50845D01*
X275461Y50845D01*
X272151Y47535D01*
X272151Y47535D01*
X268842Y44226D01*
X268842Y44226D01*
X268700Y44084D01*
X268700Y44084D01*
X268700Y44084D01*
X268700Y44084D01*
X268699Y44082D01*
X268697Y44081D01*
X268679Y44054D01*
X268658Y44040D01*
X268570Y43899D01*
X268448Y43777D01*
X268444Y43769D01*
X268443Y43767D01*
X268443Y43767D01*
X268442Y43766D01*
X268442Y43765D01*
X268431Y43740D01*
X268411Y43719D01*
X268411Y43719D01*
X268403Y43698D01*
X268390Y43683D01*
X268390Y43683D01*
X268340Y43546D01*
X268258Y43422D01*
X268258Y43422D01*
X268257Y43421D01*
X268256Y43418D01*
X268256Y43418D01*
X268256Y43418D01*
X268255Y43416D01*
X268255Y43416D01*
X268254Y43414D01*
X268251Y43401D01*
X268251Y43401D01*
X268240Y43374D01*
X268235Y43366D01*
X268235Y43365D01*
X268234Y43358D01*
X268123Y43089D01*
X268120Y43078D01*
X268116Y43072D01*
X268081Y42893D01*
X268005Y42713D01*
X268003Y42702D01*
Y42701D01*
X268003Y42701D01*
Y42680D01*
X268002Y42501D01*
X268000Y42498D01*
X268000Y42496D01*
Y42487D01*
X267961Y42292D01*
X267961Y42100D01*
X267961Y42100D01*
X267961Y42098D01*
Y42091D01*
X267961Y42090D01*
Y32902D01*
X267961Y32901D01*
X267961Y32901D01*
X267961Y32701D01*
X268000Y32506D01*
Y32506D01*
X268000Y32505D01*
X268000Y32504D01*
X268000Y32304D01*
X268077Y32118D01*
X268116Y31920D01*
X268134Y31893D01*
X268137Y31880D01*
X268233Y31741D01*
X268304Y31569D01*
X268315Y31553D01*
X268370Y31497D01*
X268374Y31489D01*
X268381Y31481D01*
X268381Y31481D01*
X268382Y31480D01*
X268383Y31479D01*
X268383Y31478D01*
X268385Y31476D01*
X268410Y31450D01*
X268411Y31449D01*
X268473Y31387D01*
X268510Y31332D01*
X268546Y31269D01*
X268563Y31248D01*
X268580Y31235D01*
X268588Y31224D01*
X268617Y31195D01*
X268627Y31181D01*
X268629Y31179D01*
X268630Y31179D01*
X268631Y31176D01*
X268640Y31171D01*
X268642Y31168D01*
X268648Y31164D01*
X268662Y31142D01*
X268665Y31139D01*
X268678Y31130D01*
X268678Y31130D01*
X268734Y31075D01*
X268746Y31067D01*
X268746Y31066D01*
X268804Y31028D01*
X268829Y30999D01*
X268835Y30994D01*
X268896Y30964D01*
X268974Y30886D01*
X268987Y30877D01*
X269043Y30821D01*
X269055Y30813D01*
X269056Y30813D01*
X269057Y30812D01*
X269067Y30805D01*
X269070Y30804D01*
X269071Y30803D01*
X269251Y30729D01*
X269404Y30626D01*
X269404Y30626D01*
X269406Y30625D01*
X269408Y30624D01*
X269408Y30624D01*
X269419Y30617D01*
X269421Y30617D01*
X269618Y30577D01*
X269802Y30501D01*
X269804D01*
X269807Y30500D01*
X269809Y30499D01*
X270008Y30500D01*
X270203Y30461D01*
X270401D01*
X270402Y30461D01*
X270402D01*
X270402Y30461D01*
X328617D01*
Y11811D01*
X328617Y11811D01*
X328617Y11811D01*
X328582Y11326D01*
X328447Y10307D01*
X327867Y8906D01*
X326943Y7702D01*
X325740Y6779D01*
X324339Y6198D01*
X323320Y6064D01*
X322835Y6029D01*
Y6029D01*
X253375D01*
X253131Y6465D01*
X253928Y7766D01*
X254723Y9686D01*
X255208Y11708D01*
X255371Y13780D01*
X255208Y15852D01*
X254723Y17873D01*
X253928Y19793D01*
X252842Y21565D01*
X251492Y23146D01*
X249911Y24495D01*
X248139Y25581D01*
X246219Y26377D01*
X244198Y26862D01*
X242126Y27025D01*
X240054Y26862D01*
X238033Y26377D01*
X236113Y25581D01*
X234340Y24495D01*
X232760Y23146D01*
X231410Y21565D01*
X230324Y19793D01*
X229529Y17873D01*
X229044Y15852D01*
X228880Y13780D01*
X229044Y11708D01*
X229529Y9686D01*
X230324Y7766D01*
X231121Y6465D01*
X230877Y6029D01*
X25028D01*
X24784Y6465D01*
X25581Y7766D01*
X26377Y9686D01*
X26862Y11708D01*
X27025Y13780D01*
X26862Y15852D01*
X26377Y17873D01*
X25581Y19793D01*
X24495Y21565D01*
X23146Y23146D01*
X21565Y24495D01*
X19793Y25581D01*
X17873Y26377D01*
X15852Y26862D01*
X13780Y27025D01*
X11708Y26862D01*
X9686Y26377D01*
X7766Y25581D01*
X6465Y24784D01*
X6029Y25028D01*
Y195444D01*
X6465Y195688D01*
X7766Y194891D01*
X9686Y194096D01*
X11708Y193610D01*
X13780Y193447D01*
X15852Y193610D01*
X17873Y194096D01*
X19793Y194891D01*
X21565Y195977D01*
X23146Y197327D01*
X24495Y198907D01*
X25581Y200680D01*
X26377Y202600D01*
X26862Y204621D01*
X27025Y206693D01*
X26862Y208765D01*
X26377Y210786D01*
X25581Y212706D01*
X24784Y214007D01*
X25028Y214443D01*
X230877D01*
X231121Y214007D01*
X230324Y212706D01*
X229529Y210786D01*
X229044Y208765D01*
X228880Y206693D01*
X229044Y204621D01*
X229529Y202600D01*
X230324Y200680D01*
X231410Y198907D01*
X232760Y197327D01*
X234340Y195977D01*
X236113Y194891D01*
X238033Y194096D01*
X240054Y193610D01*
X242126Y193447D01*
X244198Y193610D01*
X246219Y194096D01*
X248139Y194891D01*
X249911Y195977D01*
X251492Y197327D01*
X252842Y198907D01*
X253928Y200680D01*
X254723Y202600D01*
X255208Y204621D01*
X255371Y206693D01*
X255208Y208765D01*
X254723Y210786D01*
X253928Y212706D01*
X253131Y214007D01*
X253375Y214443D01*
X322835D01*
X322959Y214456D01*
X324339Y214274D01*
D02*
G37*
%LPC*%
G36*
X164500Y79500D02*
X162876D01*
X162945Y79149D01*
X163427Y78427D01*
X164149Y77946D01*
X164500Y77876D01*
Y79500D01*
D02*
G37*
G36*
X167124D02*
X165500D01*
Y77876D01*
X165851Y77946D01*
X166572Y78427D01*
X167054Y79149D01*
X167124Y79500D01*
D02*
G37*
G36*
X266772Y86304D02*
X265787Y86175D01*
X264869Y85795D01*
X264082Y85190D01*
X263477Y84402D01*
X263097Y83485D01*
X262967Y82500D01*
X263097Y81515D01*
X263477Y80598D01*
X264082Y79810D01*
X264869Y79206D01*
X265787Y78825D01*
X266772Y78696D01*
X267756Y78825D01*
X268674Y79206D01*
X269462Y79810D01*
X270066Y80598D01*
X270446Y81515D01*
X270576Y82500D01*
X270446Y83485D01*
X270066Y84402D01*
X269462Y85190D01*
X268674Y85795D01*
X267756Y86175D01*
X266772Y86304D01*
D02*
G37*
G36*
X20000Y84185D02*
X18917Y84043D01*
X17907Y83625D01*
X17041Y82960D01*
X16375Y82093D01*
X15957Y81083D01*
X15815Y80000D01*
X15957Y78917D01*
X16375Y77907D01*
X17041Y77040D01*
X17907Y76375D01*
X18917Y75957D01*
X20000Y75815D01*
X21083Y75957D01*
X22093Y76375D01*
X22960Y77040D01*
X23625Y77907D01*
X24043Y78917D01*
X24185Y80000D01*
X24043Y81083D01*
X23625Y82093D01*
X22960Y82960D01*
X22093Y83625D01*
X21083Y84043D01*
X20000Y84185D01*
D02*
G37*
G36*
X145000Y82224D02*
X144149Y82055D01*
X143428Y81573D01*
X142946Y80851D01*
X142776Y80000D01*
X142946Y79149D01*
X143428Y78427D01*
X144149Y77946D01*
X145000Y77776D01*
X145851Y77946D01*
X146572Y78427D01*
X147055Y79149D01*
X147224Y80000D01*
X147055Y80851D01*
X146572Y81573D01*
X145851Y82055D01*
X145000Y82224D01*
D02*
G37*
G36*
X150000D02*
X149149Y82055D01*
X148427Y81573D01*
X147945Y80851D01*
X147776Y80000D01*
X147945Y79149D01*
X148427Y78427D01*
X149149Y77946D01*
X150000Y77776D01*
X150851Y77946D01*
X151573Y78427D01*
X152055Y79149D01*
X152224Y80000D01*
X152055Y80851D01*
X151573Y81573D01*
X150851Y82055D01*
X150000Y82224D01*
D02*
G37*
G36*
X311063Y88948D02*
X310016Y88810D01*
X309040Y88406D01*
X308202Y87763D01*
X307559Y86925D01*
X307154Y85949D01*
X307017Y84902D01*
X307154Y83854D01*
X307559Y82878D01*
X308202Y82040D01*
X309040Y81397D01*
X310016Y80993D01*
X311063Y80855D01*
X312110Y80993D01*
X313086Y81397D01*
X313924Y82040D01*
X314567Y82878D01*
X314971Y83854D01*
X315109Y84902D01*
X314971Y85949D01*
X314567Y86925D01*
X313924Y87763D01*
X313086Y88406D01*
X312110Y88810D01*
X311063Y88948D01*
D02*
G37*
G36*
X65000Y87224D02*
X64149Y87055D01*
X63428Y86572D01*
X62945Y85851D01*
X62776Y85000D01*
X62945Y84149D01*
X63428Y83428D01*
X64149Y82946D01*
X65000Y82776D01*
X65851Y82946D01*
X66572Y83428D01*
X67054Y84149D01*
X67224Y85000D01*
X67054Y85851D01*
X66572Y86572D01*
X65851Y87055D01*
X65000Y87224D01*
D02*
G37*
G36*
X145000D02*
X144149Y87055D01*
X143428Y86572D01*
X142946Y85851D01*
X142776Y85000D01*
X142946Y84149D01*
X143428Y83428D01*
X144149Y82946D01*
X145000Y82776D01*
X145851Y82946D01*
X146572Y83428D01*
X147055Y84149D01*
X147224Y85000D01*
X147055Y85851D01*
X146572Y86572D01*
X145851Y87055D01*
X145000Y87224D01*
D02*
G37*
G36*
X172603Y84724D02*
X171752Y84554D01*
X171031Y84073D01*
X170549Y83351D01*
X170379Y82500D01*
X170549Y81649D01*
X171031Y80927D01*
X171752Y80445D01*
X172603Y80276D01*
X173454Y80445D01*
X174176Y80927D01*
X174658Y81649D01*
X174827Y82500D01*
X174658Y83351D01*
X174176Y84073D01*
X173454Y84554D01*
X172603Y84724D01*
D02*
G37*
G36*
X164500Y82124D02*
X164149Y82055D01*
X163427Y81573D01*
X162945Y80851D01*
X162876Y80500D01*
X164500D01*
Y82124D01*
D02*
G37*
G36*
X165500D02*
Y80500D01*
X167124D01*
X167054Y80851D01*
X166572Y81573D01*
X165851Y82055D01*
X165500Y82124D01*
D02*
G37*
G36*
X225000Y79724D02*
X224149Y79554D01*
X223428Y79072D01*
X222945Y78351D01*
X222776Y77500D01*
X222945Y76649D01*
X223428Y75928D01*
X224149Y75445D01*
X225000Y75276D01*
X225851Y75445D01*
X226572Y75928D01*
X227055Y76649D01*
X227224Y77500D01*
X227055Y78351D01*
X226572Y79072D01*
X225851Y79554D01*
X225000Y79724D01*
D02*
G37*
G36*
X240000Y74724D02*
X239149Y74555D01*
X238427Y74072D01*
X237945Y73351D01*
X237776Y72500D01*
X237945Y71649D01*
X238427Y70928D01*
X239149Y70446D01*
X240000Y70276D01*
X240851Y70446D01*
X241572Y70928D01*
X242055Y71649D01*
X242224Y72500D01*
X242055Y73351D01*
X241572Y74072D01*
X240851Y74555D01*
X240000Y74724D01*
D02*
G37*
G36*
X192000Y72000D02*
X190376D01*
X190445Y71649D01*
X190928Y70928D01*
X191649Y70446D01*
X192000Y70376D01*
Y72000D01*
D02*
G37*
G36*
X194624D02*
X193000D01*
Y70376D01*
X193351Y70446D01*
X194072Y70928D01*
X194554Y71649D01*
X194624Y72000D01*
D02*
G37*
G36*
X20000Y74185D02*
X18917Y74043D01*
X17907Y73625D01*
X17041Y72960D01*
X16375Y72093D01*
X15957Y71083D01*
X15815Y70000D01*
X15957Y68917D01*
X16375Y67907D01*
X17041Y67040D01*
X17907Y66375D01*
X18917Y65957D01*
X20000Y65815D01*
X21083Y65957D01*
X22093Y66375D01*
X22960Y67040D01*
X23625Y67907D01*
X24043Y68917D01*
X24185Y70000D01*
X24043Y71083D01*
X23625Y72093D01*
X22960Y72960D01*
X22093Y73625D01*
X21083Y74043D01*
X20000Y74185D01*
D02*
G37*
G36*
X266772Y76304D02*
X265787Y76175D01*
X264869Y75795D01*
X264082Y75190D01*
X263477Y74402D01*
X263097Y73485D01*
X262967Y72500D01*
X263097Y71515D01*
X263477Y70598D01*
X264082Y69810D01*
X264869Y69205D01*
X265787Y68825D01*
X266772Y68696D01*
X267756Y68825D01*
X268674Y69205D01*
X269462Y69810D01*
X270066Y70598D01*
X270446Y71515D01*
X270576Y72500D01*
X270446Y73485D01*
X270066Y74402D01*
X269462Y75190D01*
X268674Y75795D01*
X267756Y76175D01*
X266772Y76304D01*
D02*
G37*
G36*
X160000Y74724D02*
X159149Y74555D01*
X158428Y74072D01*
X157946Y73351D01*
X157776Y72500D01*
X157946Y71649D01*
X158428Y70928D01*
X159149Y70446D01*
X160000Y70276D01*
X160851Y70446D01*
X161573Y70928D01*
X162055Y71649D01*
X162224Y72500D01*
X162055Y73351D01*
X161573Y74072D01*
X160851Y74555D01*
X160000Y74724D01*
D02*
G37*
G36*
X193000Y74624D02*
Y73000D01*
X194624D01*
X194554Y73351D01*
X194072Y74072D01*
X193351Y74555D01*
X193000Y74624D01*
D02*
G37*
G36*
X256772Y81304D02*
X255787Y81175D01*
X254870Y80795D01*
X254082Y80190D01*
X253477Y79402D01*
X253097Y78485D01*
X252968Y77500D01*
X253097Y76515D01*
X253477Y75598D01*
X254082Y74810D01*
X254870Y74205D01*
X255787Y73825D01*
X256772Y73696D01*
X257756Y73825D01*
X258674Y74205D01*
X259462Y74810D01*
X260066Y75598D01*
X260446Y76515D01*
X260576Y77500D01*
X260446Y78485D01*
X260066Y79402D01*
X259462Y80190D01*
X258674Y80795D01*
X257756Y81175D01*
X256772Y81304D01*
D02*
G37*
G36*
X210000Y79724D02*
X209149Y79554D01*
X208428Y79072D01*
X207945Y78351D01*
X207776Y77500D01*
X207945Y76649D01*
X208428Y75928D01*
X209149Y75445D01*
X210000Y75276D01*
X210851Y75445D01*
X211573Y75928D01*
X212055Y76649D01*
X212224Y77500D01*
X212055Y78351D01*
X211573Y79072D01*
X210851Y79554D01*
X210000Y79724D01*
D02*
G37*
G36*
X50000Y77224D02*
X49149Y77055D01*
X48428Y76573D01*
X47945Y75851D01*
X47776Y75000D01*
X47945Y74149D01*
X48428Y73427D01*
X49149Y72945D01*
X50000Y72776D01*
X50851Y72945D01*
X51573Y73427D01*
X52055Y74149D01*
X52224Y75000D01*
X52055Y75851D01*
X51573Y76573D01*
X50851Y77055D01*
X50000Y77224D01*
D02*
G37*
G36*
X135000Y108224D02*
X134149Y108054D01*
X133428Y107572D01*
X132946Y106851D01*
X132776Y106000D01*
X132946Y105149D01*
X133428Y104428D01*
X133471Y104399D01*
Y76601D01*
X133428Y76573D01*
X132946Y75851D01*
X132776Y75000D01*
X132946Y74149D01*
X133428Y73427D01*
X134149Y72945D01*
X135000Y72776D01*
X135851Y72945D01*
X136573Y73427D01*
X137055Y74149D01*
X137224Y75000D01*
X137055Y75851D01*
X136573Y76573D01*
X136529Y76601D01*
Y104399D01*
X136573Y104428D01*
X137055Y105149D01*
X137224Y106000D01*
X137055Y106851D01*
X136573Y107572D01*
X135851Y108054D01*
X135000Y108224D01*
D02*
G37*
G36*
X192000Y74624D02*
X191649Y74555D01*
X190928Y74072D01*
X190445Y73351D01*
X190376Y73000D01*
X192000D01*
Y74624D01*
D02*
G37*
G36*
X49500Y84500D02*
X47876D01*
X47945Y84149D01*
X48428Y83428D01*
X49149Y82946D01*
X49500Y82876D01*
Y84500D01*
D02*
G37*
G36*
X99500Y97124D02*
X99149Y97054D01*
X98427Y96573D01*
X97945Y95851D01*
X97876Y95500D01*
X99500D01*
Y97124D01*
D02*
G37*
G36*
X100500D02*
Y95500D01*
X102124D01*
X102055Y95851D01*
X101573Y96573D01*
X100851Y97054D01*
X100500Y97124D01*
D02*
G37*
G36*
X20000Y104185D02*
X18917Y104043D01*
X17907Y103625D01*
X17041Y102960D01*
X16375Y102093D01*
X15957Y101083D01*
X15815Y100000D01*
X15957Y98917D01*
X16375Y97907D01*
X17041Y97040D01*
X17907Y96375D01*
X18917Y95957D01*
X20000Y95815D01*
X21083Y95957D01*
X22093Y96375D01*
X22960Y97040D01*
X23625Y97907D01*
X24043Y98917D01*
X24185Y100000D01*
X24043Y101083D01*
X23625Y102093D01*
X22960Y102960D01*
X22093Y103625D01*
X21083Y104043D01*
X20000Y104185D01*
D02*
G37*
G36*
X278514Y99754D02*
X274154D01*
X274187Y99510D01*
X274763Y98117D01*
X275681Y96921D01*
X276877Y96004D01*
X278269Y95427D01*
X278514Y95395D01*
Y99754D01*
D02*
G37*
G36*
X285373D02*
X281014D01*
Y95395D01*
X281258Y95427D01*
X282651Y96004D01*
X283846Y96921D01*
X284764Y98117D01*
X285341Y99510D01*
X285373Y99754D01*
D02*
G37*
G36*
X74500Y97124D02*
X74149Y97054D01*
X73427Y96573D01*
X72945Y95851D01*
X72876Y95500D01*
X74500D01*
Y97124D01*
D02*
G37*
G36*
X244500Y102124D02*
X244149Y102055D01*
X243427Y101573D01*
X242945Y100851D01*
X242876Y100500D01*
X244500D01*
Y102124D01*
D02*
G37*
G36*
X278514Y106613D02*
X278269Y106581D01*
X276877Y106004D01*
X275681Y105087D01*
X274763Y103891D01*
X274187Y102498D01*
X274154Y102254D01*
X278514D01*
Y106613D01*
D02*
G37*
G36*
X281014D02*
Y102254D01*
X285373D01*
X285341Y102498D01*
X284764Y103891D01*
X283846Y105087D01*
X282651Y106004D01*
X281258Y106581D01*
X281014Y106613D01*
D02*
G37*
G36*
X50000Y104185D02*
X48917Y104043D01*
X47907Y103625D01*
X47041Y102960D01*
X46375Y102093D01*
X45957Y101083D01*
X45815Y100000D01*
X45957Y98917D01*
X46375Y97907D01*
X47041Y97040D01*
X47907Y96375D01*
X48917Y95957D01*
X50000Y95815D01*
X51083Y95957D01*
X52093Y96375D01*
X52960Y97040D01*
X53625Y97907D01*
X54043Y98917D01*
X54185Y100000D01*
X54043Y101083D01*
X53625Y102093D01*
X52960Y102960D01*
X52093Y103625D01*
X51083Y104043D01*
X50000Y104185D01*
D02*
G37*
G36*
X210000Y102224D02*
X209149Y102055D01*
X208428Y101573D01*
X207945Y100851D01*
X207776Y100000D01*
X207945Y99149D01*
X208428Y98427D01*
X209149Y97945D01*
X210000Y97776D01*
X210851Y97945D01*
X211573Y98427D01*
X212055Y99149D01*
X212224Y100000D01*
X212055Y100851D01*
X211573Y101573D01*
X210851Y102055D01*
X210000Y102224D01*
D02*
G37*
G36*
X244500Y99500D02*
X242876D01*
X242945Y99149D01*
X243427Y98427D01*
X244149Y97945D01*
X244500Y97876D01*
Y99500D01*
D02*
G37*
G36*
X102124Y94500D02*
X100500D01*
Y92876D01*
X100851Y92945D01*
X101573Y93427D01*
X102055Y94149D01*
X102124Y94500D01*
D02*
G37*
G36*
X197500Y89724D02*
X196649Y89555D01*
X195928Y89073D01*
X195446Y88351D01*
X195276Y87500D01*
X195446Y86649D01*
X195928Y85927D01*
X196649Y85445D01*
X197500Y85276D01*
X198351Y85445D01*
X199073Y85927D01*
X199555Y86649D01*
X199724Y87500D01*
X199555Y88351D01*
X199073Y89073D01*
X198351Y89555D01*
X197500Y89724D01*
D02*
G37*
G36*
X49500Y87124D02*
X49149Y87055D01*
X48428Y86572D01*
X47945Y85851D01*
X47876Y85500D01*
X49500D01*
Y87124D01*
D02*
G37*
G36*
X50500D02*
Y85500D01*
X52124D01*
X52055Y85851D01*
X51573Y86572D01*
X50851Y87055D01*
X50500Y87124D01*
D02*
G37*
G36*
X52124Y84500D02*
X50500D01*
Y82876D01*
X50851Y82946D01*
X51573Y83428D01*
X52055Y84149D01*
X52124Y84500D01*
D02*
G37*
G36*
X256772Y91304D02*
X255787Y91175D01*
X254870Y90794D01*
X254082Y90190D01*
X253477Y89402D01*
X253097Y88485D01*
X252968Y87500D01*
X253097Y86515D01*
X253477Y85598D01*
X254082Y84810D01*
X254870Y84206D01*
X255787Y83825D01*
X256772Y83696D01*
X257756Y83825D01*
X258674Y84206D01*
X259462Y84810D01*
X260066Y85598D01*
X260446Y86515D01*
X260576Y87500D01*
X260446Y88485D01*
X260066Y89402D01*
X259462Y90190D01*
X258674Y90794D01*
X257756Y91175D01*
X256772Y91304D01*
D02*
G37*
G36*
X291772Y99933D02*
X290321Y99791D01*
X288927Y99368D01*
X287642Y98681D01*
X286515Y97756D01*
X285591Y96630D01*
X284904Y95345D01*
X284481Y93950D01*
X284338Y92500D01*
X284481Y91050D01*
X284904Y89655D01*
X285591Y88370D01*
X286515Y87244D01*
X287642Y86319D01*
X288927Y85632D01*
X290321Y85209D01*
X291772Y85067D01*
X293222Y85209D01*
X294616Y85632D01*
X295901Y86319D01*
X297028Y87244D01*
X297952Y88370D01*
X298639Y89655D01*
X299062Y91050D01*
X299205Y92500D01*
X299062Y93950D01*
X298639Y95345D01*
X297952Y96630D01*
X297028Y97756D01*
X295901Y98681D01*
X294616Y99368D01*
X293222Y99791D01*
X291772Y99933D01*
D02*
G37*
G36*
X240000Y97224D02*
X239149Y97054D01*
X238427Y96573D01*
X237945Y95851D01*
X237776Y95000D01*
X237945Y94149D01*
X238427Y93427D01*
X239149Y92945D01*
X240000Y92776D01*
X240851Y92945D01*
X241572Y93427D01*
X242055Y94149D01*
X242224Y95000D01*
X242055Y95851D01*
X241572Y96573D01*
X240851Y97054D01*
X240000Y97224D01*
D02*
G37*
G36*
X74500Y94500D02*
X72876D01*
X72945Y94149D01*
X73427Y93427D01*
X74149Y92945D01*
X74500Y92876D01*
Y94500D01*
D02*
G37*
G36*
X99500D02*
X97876D01*
X97945Y94149D01*
X98427Y93427D01*
X99149Y92945D01*
X99500Y92876D01*
Y94500D01*
D02*
G37*
G36*
X20000Y94185D02*
X18917Y94043D01*
X17907Y93625D01*
X17041Y92959D01*
X16375Y92093D01*
X15957Y91083D01*
X15815Y90000D01*
X15957Y88917D01*
X16375Y87907D01*
X17041Y87041D01*
X17907Y86375D01*
X18917Y85957D01*
X20000Y85815D01*
X21083Y85957D01*
X22093Y86375D01*
X22960Y87041D01*
X23625Y87907D01*
X24043Y88917D01*
X24185Y90000D01*
X24043Y91083D01*
X23625Y92093D01*
X22960Y92959D01*
X22093Y93625D01*
X21083Y94043D01*
X20000Y94185D01*
D02*
G37*
G36*
X172500Y94724D02*
X171649Y94555D01*
X170928Y94073D01*
X170446Y93351D01*
X170276Y92500D01*
X170446Y91649D01*
X170928Y90927D01*
X171649Y90446D01*
X172500Y90276D01*
X173351Y90446D01*
X174073Y90927D01*
X174555Y91649D01*
X174724Y92500D01*
X174555Y93351D01*
X174073Y94073D01*
X173351Y94555D01*
X172500Y94724D01*
D02*
G37*
G36*
X110000Y97224D02*
X109149Y97054D01*
X108428Y96573D01*
X107946Y95851D01*
X107776Y95000D01*
X107946Y94149D01*
X108428Y93427D01*
X109149Y92945D01*
X110000Y92776D01*
X110851Y92945D01*
X111573Y93427D01*
X112055Y94149D01*
X112224Y95000D01*
X112055Y95851D01*
X111573Y96573D01*
X110851Y97054D01*
X110000Y97224D01*
D02*
G37*
G36*
X125500Y67124D02*
Y65500D01*
X127124D01*
X127055Y65851D01*
X126573Y66572D01*
X125851Y67054D01*
X125500Y67124D01*
D02*
G37*
G36*
X181000Y34054D02*
Y31000D01*
X184054D01*
X184043Y31083D01*
X183625Y32093D01*
X182959Y32959D01*
X182093Y33625D01*
X181083Y34043D01*
X181000Y34054D01*
D02*
G37*
G36*
X300000Y37224D02*
X299149Y37055D01*
X298428Y36573D01*
X297945Y35851D01*
X297776Y35000D01*
X297945Y34149D01*
X298428Y33428D01*
X299149Y32945D01*
X300000Y32776D01*
X300851Y32945D01*
X301572Y33428D01*
X302055Y34149D01*
X302224Y35000D01*
X302055Y35851D01*
X301572Y36573D01*
X300851Y37055D01*
X300000Y37224D01*
D02*
G37*
G36*
X278514Y37746D02*
X274154D01*
X274187Y37502D01*
X274763Y36109D01*
X275681Y34913D01*
X276877Y33996D01*
X278269Y33419D01*
X278514Y33387D01*
Y37746D01*
D02*
G37*
G36*
X179000Y29000D02*
X175946D01*
X175957Y28917D01*
X176375Y27907D01*
X177041Y27040D01*
X177907Y26375D01*
X178917Y25957D01*
X179000Y25946D01*
Y29000D01*
D02*
G37*
G36*
X184054D02*
X181000D01*
Y25946D01*
X181083Y25957D01*
X182093Y26375D01*
X182959Y27040D01*
X183625Y27907D01*
X184043Y28917D01*
X184054Y29000D01*
D02*
G37*
G36*
X179000Y34054D02*
X178917Y34043D01*
X177907Y33625D01*
X177041Y32959D01*
X176375Y32093D01*
X175957Y31083D01*
X175946Y31000D01*
X179000D01*
Y34054D01*
D02*
G37*
G36*
X291772Y54933D02*
X290321Y54791D01*
X288927Y54368D01*
X287642Y53681D01*
X286515Y52756D01*
X285591Y51630D01*
X284904Y50345D01*
X284481Y48950D01*
X284338Y47500D01*
X284481Y46050D01*
X284904Y44655D01*
X285591Y43370D01*
X286515Y42244D01*
X287642Y41319D01*
X288927Y40632D01*
X290321Y40209D01*
X291772Y40067D01*
X293222Y40209D01*
X294616Y40632D01*
X295901Y41319D01*
X297028Y42244D01*
X297952Y43370D01*
X298639Y44655D01*
X299062Y46050D01*
X299205Y47500D01*
X299062Y48950D01*
X298639Y50345D01*
X297952Y51630D01*
X297028Y52756D01*
X295901Y53681D01*
X294616Y54368D01*
X293222Y54791D01*
X291772Y54933D01*
D02*
G37*
G36*
X278514Y44605D02*
X278269Y44573D01*
X276877Y43996D01*
X275681Y43079D01*
X274763Y41883D01*
X274187Y40490D01*
X274154Y40246D01*
X278514D01*
Y44605D01*
D02*
G37*
G36*
X281014D02*
Y40246D01*
X285373D01*
X285341Y40490D01*
X284764Y41883D01*
X283846Y43079D01*
X282651Y43996D01*
X281258Y44573D01*
X281014Y44605D01*
D02*
G37*
G36*
X285373Y37746D02*
X281014D01*
Y33387D01*
X281258Y33419D01*
X282651Y33996D01*
X283846Y34913D01*
X284764Y36109D01*
X285341Y37502D01*
X285373Y37746D01*
D02*
G37*
G36*
X64500Y39500D02*
X62876D01*
X62945Y39149D01*
X63428Y38427D01*
X64149Y37945D01*
X64500Y37876D01*
Y39500D01*
D02*
G37*
G36*
X67124D02*
X65500D01*
Y37876D01*
X65851Y37945D01*
X66572Y38427D01*
X67054Y39149D01*
X67124Y39500D01*
D02*
G37*
G36*
X210000Y34185D02*
X208917Y34043D01*
X207907Y33625D01*
X207041Y32959D01*
X206375Y32093D01*
X205957Y31083D01*
X205815Y30000D01*
X205957Y28917D01*
X206375Y27907D01*
X207041Y27040D01*
X207907Y26375D01*
X208917Y25957D01*
X210000Y25815D01*
X211083Y25957D01*
X212093Y26375D01*
X212960Y27040D01*
X213625Y27907D01*
X214043Y28917D01*
X214185Y30000D01*
X214043Y31083D01*
X213625Y32093D01*
X212960Y32959D01*
X212093Y33625D01*
X211083Y34043D01*
X210000Y34185D01*
D02*
G37*
G36*
Y24185D02*
X208917Y24043D01*
X207907Y23625D01*
X207041Y22960D01*
X206375Y22093D01*
X205957Y21083D01*
X205815Y20000D01*
X205957Y18917D01*
X206375Y17907D01*
X207041Y17041D01*
X207907Y16375D01*
X208917Y15957D01*
X210000Y15815D01*
X211083Y15957D01*
X212093Y16375D01*
X212960Y17041D01*
X213625Y17907D01*
X214043Y18917D01*
X214185Y20000D01*
X214043Y21083D01*
X213625Y22093D01*
X212960Y22960D01*
X212093Y23625D01*
X211083Y24043D01*
X210000Y24185D01*
D02*
G37*
G36*
X104150Y24150D02*
X95850D01*
Y15850D01*
X104150D01*
Y24150D01*
D02*
G37*
G36*
X179000Y19000D02*
X175946D01*
X175957Y18917D01*
X176375Y17907D01*
X177041Y17041D01*
X177907Y16375D01*
X178917Y15957D01*
X179000Y15946D01*
Y19000D01*
D02*
G37*
G36*
X110000Y24185D02*
X108917Y24043D01*
X107907Y23625D01*
X107041Y22960D01*
X106375Y22093D01*
X105957Y21083D01*
X105815Y20000D01*
X105957Y18917D01*
X106375Y17907D01*
X107041Y17041D01*
X107907Y16375D01*
X108917Y15957D01*
X110000Y15815D01*
X111083Y15957D01*
X112093Y16375D01*
X112960Y17041D01*
X113625Y17907D01*
X114043Y18917D01*
X114185Y20000D01*
X114043Y21083D01*
X113625Y22093D01*
X112960Y22960D01*
X112093Y23625D01*
X111083Y24043D01*
X110000Y24185D01*
D02*
G37*
G36*
X160000D02*
X158917Y24043D01*
X157907Y23625D01*
X157041Y22960D01*
X156375Y22093D01*
X155957Y21083D01*
X155815Y20000D01*
X155957Y18917D01*
X156375Y17907D01*
X157041Y17041D01*
X157907Y16375D01*
X158917Y15957D01*
X160000Y15815D01*
X161083Y15957D01*
X162093Y16375D01*
X162960Y17041D01*
X163625Y17907D01*
X164043Y18917D01*
X164185Y20000D01*
X164043Y21083D01*
X163625Y22093D01*
X162960Y22960D01*
X162093Y23625D01*
X161083Y24043D01*
X160000Y24185D01*
D02*
G37*
G36*
X190000D02*
X188917Y24043D01*
X187907Y23625D01*
X187040Y22960D01*
X186375Y22093D01*
X185957Y21083D01*
X185815Y20000D01*
X185957Y18917D01*
X186375Y17907D01*
X187040Y17041D01*
X187907Y16375D01*
X188917Y15957D01*
X190000Y15815D01*
X191083Y15957D01*
X192093Y16375D01*
X192959Y17041D01*
X193625Y17907D01*
X194043Y18917D01*
X194185Y20000D01*
X194043Y21083D01*
X193625Y22093D01*
X192959Y22960D01*
X192093Y23625D01*
X191083Y24043D01*
X190000Y24185D01*
D02*
G37*
G36*
X181000Y24054D02*
Y21000D01*
X184054D01*
X184043Y21083D01*
X183625Y22093D01*
X182959Y22960D01*
X182093Y23625D01*
X181083Y24043D01*
X181000Y24054D01*
D02*
G37*
G36*
X100000Y34185D02*
X98917Y34043D01*
X97907Y33625D01*
X97040Y32959D01*
X96375Y32093D01*
X95957Y31083D01*
X95815Y30000D01*
X95957Y28917D01*
X96375Y27907D01*
X97040Y27040D01*
X97907Y26375D01*
X98917Y25957D01*
X100000Y25815D01*
X101083Y25957D01*
X102093Y26375D01*
X102960Y27040D01*
X103625Y27907D01*
X104043Y28917D01*
X104185Y30000D01*
X104043Y31083D01*
X103625Y32093D01*
X102960Y32959D01*
X102093Y33625D01*
X101083Y34043D01*
X100000Y34185D01*
D02*
G37*
G36*
X190000D02*
X188917Y34043D01*
X187907Y33625D01*
X187040Y32959D01*
X186375Y32093D01*
X185957Y31083D01*
X185815Y30000D01*
X185957Y28917D01*
X186375Y27907D01*
X187040Y27040D01*
X187907Y26375D01*
X188917Y25957D01*
X190000Y25815D01*
X191083Y25957D01*
X192093Y26375D01*
X192959Y27040D01*
X193625Y27907D01*
X194043Y28917D01*
X194185Y30000D01*
X194043Y31083D01*
X193625Y32093D01*
X192959Y32959D01*
X192093Y33625D01*
X191083Y34043D01*
X190000Y34185D01*
D02*
G37*
G36*
X184054Y19000D02*
X181000D01*
Y15946D01*
X181083Y15957D01*
X182093Y16375D01*
X182959Y17041D01*
X183625Y17907D01*
X184043Y18917D01*
X184054Y19000D01*
D02*
G37*
G36*
X65000Y22224D02*
X64149Y22055D01*
X63428Y21573D01*
X62945Y20851D01*
X62776Y20000D01*
X62945Y19149D01*
X63428Y18428D01*
X64149Y17945D01*
X65000Y17776D01*
X65851Y17945D01*
X66572Y18428D01*
X67054Y19149D01*
X67224Y20000D01*
X67054Y20851D01*
X66572Y21573D01*
X65851Y22055D01*
X65000Y22224D01*
D02*
G37*
G36*
X179000Y24054D02*
X178917Y24043D01*
X177907Y23625D01*
X177041Y22960D01*
X176375Y22093D01*
X175957Y21083D01*
X175946Y21000D01*
X179000D01*
Y24054D01*
D02*
G37*
G36*
X64500Y42124D02*
X64149Y42055D01*
X63428Y41572D01*
X62945Y40851D01*
X62876Y40500D01*
X64500D01*
Y42124D01*
D02*
G37*
G36*
X125000Y62224D02*
X124149Y62055D01*
X123427Y61572D01*
X122945Y60851D01*
X122776Y60000D01*
X122945Y59149D01*
X123427Y58428D01*
X124149Y57946D01*
X125000Y57776D01*
X125851Y57946D01*
X126573Y58428D01*
X127055Y59149D01*
X127224Y60000D01*
X127055Y60851D01*
X126573Y61572D01*
X125851Y62055D01*
X125000Y62224D01*
D02*
G37*
G36*
X210000D02*
X209149Y62055D01*
X208428Y61572D01*
X207945Y60851D01*
X207776Y60000D01*
X207945Y59149D01*
X208428Y58428D01*
X209149Y57946D01*
X210000Y57776D01*
X210851Y57946D01*
X211573Y58428D01*
X212055Y59149D01*
X212224Y60000D01*
X212055Y60851D01*
X211573Y61572D01*
X210851Y62055D01*
X210000Y62224D01*
D02*
G37*
G36*
X240000D02*
X239149Y62055D01*
X238427Y61572D01*
X237945Y60851D01*
X237776Y60000D01*
X237945Y59149D01*
X238427Y58428D01*
X239149Y57946D01*
X240000Y57776D01*
X240851Y57946D01*
X241572Y58428D01*
X242055Y59149D01*
X242224Y60000D01*
X242055Y60851D01*
X241572Y61572D01*
X240851Y62055D01*
X240000Y62224D01*
D02*
G37*
G36*
X144500Y57124D02*
X144149Y57055D01*
X143428Y56573D01*
X142946Y55851D01*
X142876Y55500D01*
X144500D01*
Y57124D01*
D02*
G37*
G36*
X145500D02*
Y55500D01*
X147124D01*
X147055Y55851D01*
X146572Y56573D01*
X145851Y57055D01*
X145500Y57124D01*
D02*
G37*
G36*
X20000Y64185D02*
X18917Y64043D01*
X17907Y63625D01*
X17041Y62959D01*
X16375Y62093D01*
X15957Y61083D01*
X15815Y60000D01*
X15957Y58917D01*
X16375Y57907D01*
X17041Y57041D01*
X17907Y56375D01*
X18917Y55957D01*
X20000Y55815D01*
X21083Y55957D01*
X22093Y56375D01*
X22960Y57041D01*
X23625Y57907D01*
X24043Y58917D01*
X24185Y60000D01*
X24043Y61083D01*
X23625Y62093D01*
X22960Y62959D01*
X22093Y63625D01*
X21083Y64043D01*
X20000Y64185D01*
D02*
G37*
G36*
X127124Y64500D02*
X125500D01*
Y62876D01*
X125851Y62945D01*
X126573Y63428D01*
X127055Y64149D01*
X127124Y64500D01*
D02*
G37*
G36*
X256772Y71304D02*
X255787Y71175D01*
X254870Y70794D01*
X254082Y70190D01*
X253477Y69402D01*
X253097Y68485D01*
X252968Y67500D01*
X253097Y66515D01*
X253477Y65598D01*
X254082Y64810D01*
X254870Y64205D01*
X255787Y63825D01*
X256772Y63696D01*
X257756Y63825D01*
X258674Y64205D01*
X259462Y64810D01*
X260066Y65598D01*
X260446Y66515D01*
X260576Y67500D01*
X260446Y68485D01*
X260066Y69402D01*
X259462Y70190D01*
X258674Y70794D01*
X257756Y71175D01*
X256772Y71304D01*
D02*
G37*
G36*
X124500Y67124D02*
X124149Y67054D01*
X123427Y66572D01*
X122945Y65851D01*
X122876Y65500D01*
X124500D01*
Y67124D01*
D02*
G37*
G36*
X266772Y66304D02*
X265787Y66175D01*
X264869Y65794D01*
X264082Y65190D01*
X263477Y64402D01*
X263097Y63485D01*
X262967Y62500D01*
X263097Y61515D01*
X263477Y60598D01*
X264082Y59810D01*
X264869Y59206D01*
X265787Y58825D01*
X266772Y58696D01*
X267756Y58825D01*
X268674Y59206D01*
X269462Y59810D01*
X270066Y60598D01*
X270446Y61515D01*
X270576Y62500D01*
X270446Y63485D01*
X270066Y64402D01*
X269462Y65190D01*
X268674Y65794D01*
X267756Y66175D01*
X266772Y66304D01*
D02*
G37*
G36*
X50000Y67224D02*
X49149Y67054D01*
X48428Y66572D01*
X47945Y65851D01*
X47776Y65000D01*
X47945Y64149D01*
X48428Y63428D01*
X49149Y62945D01*
X50000Y62776D01*
X50851Y62945D01*
X51573Y63428D01*
X52055Y64149D01*
X52224Y65000D01*
X52055Y65851D01*
X51573Y66572D01*
X50851Y67054D01*
X50000Y67224D01*
D02*
G37*
G36*
X124500Y64500D02*
X122876D01*
X122945Y64149D01*
X123427Y63428D01*
X124149Y62945D01*
X124500Y62876D01*
Y64500D01*
D02*
G37*
G36*
X256772Y61304D02*
X255787Y61175D01*
X254870Y60795D01*
X254082Y60190D01*
X253477Y59402D01*
X253097Y58485D01*
X252968Y57500D01*
X253097Y56515D01*
X253477Y55598D01*
X254082Y54810D01*
X254870Y54206D01*
X255787Y53825D01*
X256772Y53696D01*
X257756Y53825D01*
X258674Y54206D01*
X259462Y54810D01*
X260066Y55598D01*
X260446Y56515D01*
X260576Y57500D01*
X260446Y58485D01*
X260066Y59402D01*
X259462Y60190D01*
X258674Y60795D01*
X257756Y61175D01*
X256772Y61304D01*
D02*
G37*
G36*
X90000Y52224D02*
X89149Y52055D01*
X88428Y51573D01*
X87945Y50851D01*
X87776Y50000D01*
X87945Y49149D01*
X88428Y48428D01*
X89149Y47945D01*
X90000Y47776D01*
X90851Y47945D01*
X91572Y48428D01*
X92054Y49149D01*
X92224Y50000D01*
X92054Y50851D01*
X91572Y51573D01*
X90851Y52055D01*
X90000Y52224D01*
D02*
G37*
G36*
X155000D02*
X154149Y52055D01*
X153428Y51573D01*
X152945Y50851D01*
X152776Y50000D01*
X152945Y49149D01*
X153428Y48428D01*
X154149Y47945D01*
X155000Y47776D01*
X155851Y47945D01*
X156572Y48428D01*
X157054Y49149D01*
X157224Y50000D01*
X157054Y50851D01*
X156572Y51573D01*
X155851Y52055D01*
X155000Y52224D01*
D02*
G37*
G36*
X266772Y56304D02*
X265787Y56175D01*
X264869Y55795D01*
X264082Y55190D01*
X263477Y54402D01*
X263097Y53485D01*
X262967Y52500D01*
X263097Y51515D01*
X263477Y50598D01*
X264082Y49810D01*
X264869Y49205D01*
X265787Y48825D01*
X266772Y48696D01*
X267756Y48825D01*
X268674Y49205D01*
X269462Y49810D01*
X270066Y50598D01*
X270446Y51515D01*
X270576Y52500D01*
X270446Y53485D01*
X270066Y54402D01*
X269462Y55190D01*
X268674Y55795D01*
X267756Y56175D01*
X266772Y56304D01*
D02*
G37*
G36*
X65500Y42124D02*
Y40500D01*
X67124D01*
X67054Y40851D01*
X66572Y41572D01*
X65851Y42055D01*
X65500Y42124D01*
D02*
G37*
G36*
X311063Y49145D02*
X310016Y49007D01*
X309040Y48603D01*
X308202Y47960D01*
X307559Y47122D01*
X307154Y46146D01*
X307017Y45098D01*
X307154Y44051D01*
X307559Y43075D01*
X308202Y42237D01*
X309040Y41594D01*
X310016Y41190D01*
X311063Y41052D01*
X312110Y41190D01*
X313086Y41594D01*
X313924Y42237D01*
X314567Y43075D01*
X314971Y44051D01*
X315109Y45098D01*
X314971Y46146D01*
X314567Y47122D01*
X313924Y47960D01*
X313086Y48603D01*
X312110Y49007D01*
X311063Y49145D01*
D02*
G37*
G36*
X90000Y47224D02*
X89149Y47055D01*
X88428Y46573D01*
X87945Y45851D01*
X87776Y45000D01*
X87945Y44149D01*
X88428Y43428D01*
X89149Y42945D01*
X90000Y42776D01*
X90851Y42945D01*
X91572Y43428D01*
X92054Y44149D01*
X92224Y45000D01*
X92054Y45851D01*
X91572Y46573D01*
X90851Y47055D01*
X90000Y47224D01*
D02*
G37*
G36*
X165000Y57224D02*
X164149Y57055D01*
X163427Y56573D01*
X162945Y55851D01*
X162776Y55000D01*
X162945Y54149D01*
X163427Y53427D01*
X164149Y52946D01*
X165000Y52776D01*
X165851Y52946D01*
X166572Y53427D01*
X167054Y54149D01*
X167224Y55000D01*
X167054Y55851D01*
X166572Y56573D01*
X165851Y57055D01*
X165000Y57224D01*
D02*
G37*
G36*
X144500Y54500D02*
X142876D01*
X142946Y54149D01*
X143428Y53427D01*
X144149Y52946D01*
X144500Y52876D01*
Y54500D01*
D02*
G37*
G36*
X147124D02*
X145500D01*
Y52876D01*
X145851Y52946D01*
X146572Y53427D01*
X147055Y54149D01*
X147124Y54500D01*
D02*
G37*
G36*
X305079Y59145D02*
X304031Y59007D01*
X303056Y58603D01*
X302218Y57960D01*
X301574Y57122D01*
X301170Y56146D01*
X301032Y55098D01*
X301170Y54051D01*
X301574Y53075D01*
X302218Y52237D01*
X303056Y51594D01*
X304031Y51190D01*
X305079Y51052D01*
X306126Y51190D01*
X307102Y51594D01*
X307940Y52237D01*
X308583Y53075D01*
X308987Y54051D01*
X309125Y55098D01*
X308987Y56146D01*
X308583Y57122D01*
X307940Y57960D01*
X307102Y58603D01*
X306126Y59007D01*
X305079Y59145D01*
D02*
G37*
G36*
X50000Y57224D02*
X49149Y57055D01*
X48428Y56573D01*
X47945Y55851D01*
X47776Y55000D01*
X47945Y54149D01*
X48428Y53427D01*
X49149Y52946D01*
X50000Y52776D01*
X50851Y52946D01*
X51573Y53427D01*
X52055Y54149D01*
X52224Y55000D01*
X52055Y55851D01*
X51573Y56573D01*
X50851Y57055D01*
X50000Y57224D01*
D02*
G37*
G36*
X90000D02*
X89149Y57055D01*
X88428Y56573D01*
X87945Y55851D01*
X87776Y55000D01*
X87945Y54149D01*
X88428Y53427D01*
X89149Y52946D01*
X90000Y52776D01*
X90851Y52946D01*
X91572Y53427D01*
X92054Y54149D01*
X92224Y55000D01*
X92054Y55851D01*
X91572Y56573D01*
X90851Y57055D01*
X90000Y57224D01*
D02*
G37*
G36*
X54054Y159000D02*
X51000D01*
Y155946D01*
X51083Y155957D01*
X52093Y156375D01*
X52960Y157041D01*
X53625Y157907D01*
X54043Y158917D01*
X54054Y159000D01*
D02*
G37*
G36*
X110000Y162224D02*
X109149Y162055D01*
X108428Y161573D01*
X107946Y160851D01*
X107776Y160000D01*
X107946Y159149D01*
X108428Y158428D01*
X109149Y157946D01*
X110000Y157776D01*
X110851Y157946D01*
X111573Y158428D01*
X112055Y159149D01*
X112224Y160000D01*
X112055Y160851D01*
X111573Y161573D01*
X110851Y162055D01*
X110000Y162224D01*
D02*
G37*
G36*
X119500Y159500D02*
X117876D01*
X117946Y159149D01*
X118428Y158428D01*
X119149Y157946D01*
X119500Y157876D01*
Y159500D01*
D02*
G37*
G36*
X20000Y164185D02*
X18917Y164043D01*
X17907Y163625D01*
X17041Y162960D01*
X16375Y162093D01*
X15957Y161083D01*
X15815Y160000D01*
X15957Y158917D01*
X16375Y157907D01*
X17041Y157041D01*
X17907Y156375D01*
X18917Y155957D01*
X20000Y155815D01*
X21083Y155957D01*
X22093Y156375D01*
X22960Y157041D01*
X23625Y157907D01*
X24043Y158917D01*
X24185Y160000D01*
X24043Y161083D01*
X23625Y162093D01*
X22960Y162960D01*
X22093Y163625D01*
X21083Y164043D01*
X20000Y164185D01*
D02*
G37*
G36*
X70000D02*
X68917Y164043D01*
X67907Y163625D01*
X67040Y162960D01*
X66375Y162093D01*
X65957Y161083D01*
X65815Y160000D01*
X65957Y158917D01*
X66375Y157907D01*
X67040Y157041D01*
X67907Y156375D01*
X68917Y155957D01*
X70000Y155815D01*
X71083Y155957D01*
X72093Y156375D01*
X72960Y157041D01*
X73625Y157907D01*
X74043Y158917D01*
X74185Y160000D01*
X74043Y161083D01*
X73625Y162093D01*
X72960Y162960D01*
X72093Y163625D01*
X71083Y164043D01*
X70000Y164185D01*
D02*
G37*
G36*
X49000Y159000D02*
X45946D01*
X45957Y158917D01*
X46375Y157907D01*
X47041Y157041D01*
X47907Y156375D01*
X48917Y155957D01*
X49000Y155946D01*
Y159000D01*
D02*
G37*
G36*
X266772Y166304D02*
X265787Y166175D01*
X264869Y165795D01*
X264082Y165190D01*
X263477Y164402D01*
X263097Y163485D01*
X262967Y162500D01*
X263097Y161515D01*
X263477Y160598D01*
X264082Y159810D01*
X264869Y159205D01*
X265787Y158825D01*
X266772Y158696D01*
X267756Y158825D01*
X268674Y159205D01*
X269462Y159810D01*
X270066Y160598D01*
X270446Y161515D01*
X270576Y162500D01*
X270446Y163485D01*
X270066Y164402D01*
X269462Y165190D01*
X268674Y165795D01*
X267756Y166175D01*
X266772Y166304D01*
D02*
G37*
G36*
X119500Y162124D02*
X119149Y162055D01*
X118428Y161573D01*
X117946Y160851D01*
X117876Y160500D01*
X119500D01*
Y162124D01*
D02*
G37*
G36*
X120500D02*
Y160500D01*
X122124D01*
X122055Y160851D01*
X121572Y161573D01*
X120851Y162055D01*
X120500Y162124D01*
D02*
G37*
G36*
X122124Y159500D02*
X120500D01*
Y157876D01*
X120851Y157946D01*
X121572Y158428D01*
X122055Y159149D01*
X122124Y159500D01*
D02*
G37*
G36*
X197000Y159624D02*
X196649Y159555D01*
X195928Y159072D01*
X195446Y158351D01*
X195376Y158000D01*
X197000D01*
Y159624D01*
D02*
G37*
G36*
X198000D02*
Y158000D01*
X199624D01*
X199555Y158351D01*
X199073Y159072D01*
X198351Y159555D01*
X198000Y159624D01*
D02*
G37*
G36*
X145500Y157124D02*
Y155500D01*
X147124D01*
X147055Y155851D01*
X146572Y156572D01*
X145851Y157054D01*
X145500Y157124D01*
D02*
G37*
G36*
X144500Y154500D02*
X142876D01*
X142946Y154149D01*
X143428Y153428D01*
X144149Y152945D01*
X144500Y152876D01*
Y154500D01*
D02*
G37*
G36*
X147124D02*
X145500D01*
Y152876D01*
X145851Y152945D01*
X146572Y153428D01*
X147055Y154149D01*
X147124Y154500D01*
D02*
G37*
G36*
X256772Y161304D02*
X255787Y161175D01*
X254870Y160794D01*
X254082Y160190D01*
X253477Y159402D01*
X253097Y158485D01*
X252968Y157500D01*
X253097Y156515D01*
X253477Y155598D01*
X254082Y154810D01*
X254870Y154206D01*
X255787Y153825D01*
X256772Y153696D01*
X257756Y153825D01*
X258674Y154206D01*
X259462Y154810D01*
X260066Y155598D01*
X260446Y156515D01*
X260576Y157500D01*
X260446Y158485D01*
X260066Y159402D01*
X259462Y160190D01*
X258674Y160794D01*
X257756Y161175D01*
X256772Y161304D01*
D02*
G37*
G36*
X150000Y152224D02*
X149149Y152055D01*
X148427Y151573D01*
X147945Y150851D01*
X147776Y150000D01*
X147945Y149149D01*
X148427Y148427D01*
X149149Y147945D01*
X150000Y147776D01*
X150851Y147945D01*
X151573Y148427D01*
X152055Y149149D01*
X152224Y150000D01*
X152055Y150851D01*
X151573Y151573D01*
X150851Y152055D01*
X150000Y152224D01*
D02*
G37*
G36*
X197500D02*
X196649Y152055D01*
X195928Y151573D01*
X195446Y150851D01*
X195276Y150000D01*
X195446Y149149D01*
X195928Y148427D01*
X196649Y147945D01*
X197500Y147776D01*
X198351Y147945D01*
X199073Y148427D01*
X199555Y149149D01*
X199724Y150000D01*
X199555Y150851D01*
X199073Y151573D01*
X198351Y152055D01*
X197500Y152224D01*
D02*
G37*
G36*
X266772Y156304D02*
X265787Y156175D01*
X264869Y155795D01*
X264082Y155190D01*
X263477Y154402D01*
X263097Y153485D01*
X262967Y152500D01*
X263097Y151515D01*
X263477Y150598D01*
X264082Y149810D01*
X264869Y149206D01*
X265787Y148825D01*
X266772Y148696D01*
X267756Y148825D01*
X268674Y149206D01*
X269462Y149810D01*
X270066Y150598D01*
X270446Y151515D01*
X270576Y152500D01*
X270446Y153485D01*
X270066Y154402D01*
X269462Y155190D01*
X268674Y155795D01*
X267756Y156175D01*
X266772Y156304D01*
D02*
G37*
G36*
X197000Y157000D02*
X195376D01*
X195446Y156649D01*
X195928Y155928D01*
X196649Y155446D01*
X197000Y155376D01*
Y157000D01*
D02*
G37*
G36*
X199624D02*
X198000D01*
Y155376D01*
X198351Y155446D01*
X199073Y155928D01*
X199555Y156649D01*
X199624Y157000D01*
D02*
G37*
G36*
X144500Y157124D02*
X144149Y157054D01*
X143428Y156572D01*
X142946Y155851D01*
X142876Y155500D01*
X144500D01*
Y157124D01*
D02*
G37*
G36*
X172500Y159724D02*
X171649Y159555D01*
X170928Y159072D01*
X170446Y158351D01*
X170276Y157500D01*
X170446Y156649D01*
X170928Y155928D01*
X171649Y155446D01*
X172500Y155276D01*
X173351Y155446D01*
X174073Y155928D01*
X174555Y156649D01*
X174724Y157500D01*
X174555Y158351D01*
X174073Y159072D01*
X173351Y159555D01*
X172500Y159724D01*
D02*
G37*
G36*
X210000D02*
X209149Y159555D01*
X208428Y159072D01*
X207945Y158351D01*
X207776Y157500D01*
X207945Y156649D01*
X208428Y155928D01*
X209149Y155446D01*
X210000Y155276D01*
X210851Y155446D01*
X211573Y155928D01*
X212055Y156649D01*
X212224Y157500D01*
X212055Y158351D01*
X211573Y159072D01*
X210851Y159555D01*
X210000Y159724D01*
D02*
G37*
G36*
X240000D02*
X239149Y159555D01*
X238427Y159072D01*
X237945Y158351D01*
X237776Y157500D01*
X237945Y156649D01*
X238427Y155928D01*
X239149Y155446D01*
X240000Y155276D01*
X240851Y155446D01*
X241572Y155928D01*
X242055Y156649D01*
X242224Y157500D01*
X242055Y158351D01*
X241572Y159072D01*
X240851Y159555D01*
X240000Y159724D01*
D02*
G37*
G36*
X311063Y168948D02*
X310016Y168810D01*
X309040Y168406D01*
X308202Y167763D01*
X307559Y166925D01*
X307154Y165949D01*
X307017Y164902D01*
X307154Y163854D01*
X307559Y162878D01*
X308202Y162040D01*
X309040Y161397D01*
X310016Y160993D01*
X311063Y160855D01*
X312110Y160993D01*
X313086Y161397D01*
X313924Y162040D01*
X314567Y162878D01*
X314971Y163854D01*
X315109Y164902D01*
X314971Y165949D01*
X314567Y166925D01*
X313924Y167763D01*
X313086Y168406D01*
X312110Y168810D01*
X311063Y168948D01*
D02*
G37*
G36*
X278514Y186613D02*
X278269Y186581D01*
X276877Y186004D01*
X275681Y185087D01*
X274763Y183891D01*
X274187Y182498D01*
X274154Y182254D01*
X278514D01*
Y186613D01*
D02*
G37*
G36*
X281014D02*
Y182254D01*
X285373D01*
X285341Y182498D01*
X284764Y183891D01*
X283846Y185087D01*
X282651Y186004D01*
X281258Y186581D01*
X281014Y186613D01*
D02*
G37*
G36*
X260000Y187224D02*
X259149Y187055D01*
X258428Y186573D01*
X257945Y185851D01*
X257776Y185000D01*
X257945Y184149D01*
X258428Y183428D01*
X259149Y182946D01*
X260000Y182776D01*
X260851Y182946D01*
X261573Y183428D01*
X262055Y184149D01*
X262224Y185000D01*
X262055Y185851D01*
X261573Y186573D01*
X260851Y187055D01*
X260000Y187224D01*
D02*
G37*
G36*
X187500Y182224D02*
X186649Y182054D01*
X185927Y181572D01*
X185445Y180851D01*
X185276Y180000D01*
X185445Y179149D01*
X185927Y178428D01*
X186649Y177945D01*
X187500Y177776D01*
X188351Y177945D01*
X189073Y178428D01*
X189555Y179149D01*
X189724Y180000D01*
X189555Y180851D01*
X189073Y181572D01*
X188351Y182054D01*
X187500Y182224D01*
D02*
G37*
G36*
X244500Y179500D02*
X242876D01*
X242945Y179149D01*
X243427Y178428D01*
X244149Y177945D01*
X244500Y177876D01*
Y179500D01*
D02*
G37*
G36*
Y182124D02*
X244149Y182054D01*
X243427Y181572D01*
X242945Y180851D01*
X242876Y180500D01*
X244500D01*
Y182124D01*
D02*
G37*
G36*
X79500Y192124D02*
X79149Y192054D01*
X78427Y191572D01*
X77945Y190851D01*
X77876Y190500D01*
X79500D01*
Y192124D01*
D02*
G37*
G36*
X80500D02*
Y190500D01*
X82124D01*
X82055Y190851D01*
X81573Y191572D01*
X80851Y192054D01*
X80500Y192124D01*
D02*
G37*
G36*
X260000Y197224D02*
X259149Y197055D01*
X258428Y196572D01*
X257945Y195851D01*
X257776Y195000D01*
X257945Y194149D01*
X258428Y193428D01*
X259149Y192946D01*
X260000Y192776D01*
X260851Y192946D01*
X261573Y193428D01*
X262055Y194149D01*
X262224Y195000D01*
X262055Y195851D01*
X261573Y196572D01*
X260851Y197055D01*
X260000Y197224D01*
D02*
G37*
G36*
X70000Y204185D02*
X68917Y204043D01*
X67907Y203625D01*
X67040Y202959D01*
X66375Y202093D01*
X65957Y201083D01*
X65815Y200000D01*
X65957Y198917D01*
X66375Y197907D01*
X67040Y197040D01*
X67907Y196375D01*
X68917Y195957D01*
X70000Y195815D01*
X71083Y195957D01*
X72093Y196375D01*
X72960Y197040D01*
X73625Y197907D01*
X74043Y198917D01*
X74185Y200000D01*
X74043Y201083D01*
X73625Y202093D01*
X72960Y202959D01*
X72093Y203625D01*
X71083Y204043D01*
X70000Y204185D01*
D02*
G37*
G36*
X79500Y189500D02*
X77876D01*
X77945Y189149D01*
X78427Y188427D01*
X79149Y187945D01*
X79500Y187876D01*
Y189500D01*
D02*
G37*
G36*
X82124D02*
X80500D01*
Y187876D01*
X80851Y187945D01*
X81573Y188427D01*
X82055Y189149D01*
X82124Y189500D01*
D02*
G37*
G36*
X112500Y182224D02*
X111649Y182054D01*
X110927Y181572D01*
X110445Y180851D01*
X110276Y180000D01*
X110445Y179149D01*
X110927Y178428D01*
X111649Y177945D01*
X112500Y177776D01*
X113351Y177945D01*
X114073Y178428D01*
X114555Y179149D01*
X114724Y180000D01*
X114555Y180851D01*
X114073Y181572D01*
X113351Y182054D01*
X112500Y182224D01*
D02*
G37*
G36*
X256772Y171304D02*
X255787Y171175D01*
X254870Y170794D01*
X254082Y170190D01*
X253477Y169402D01*
X253097Y168485D01*
X252968Y167500D01*
X253097Y166515D01*
X253477Y165598D01*
X254082Y164810D01*
X254870Y164206D01*
X255787Y163825D01*
X256772Y163696D01*
X257756Y163825D01*
X258674Y164206D01*
X259462Y164810D01*
X260066Y165598D01*
X260446Y166515D01*
X260576Y167500D01*
X260446Y168485D01*
X260066Y169402D01*
X259462Y170190D01*
X258674Y170794D01*
X257756Y171175D01*
X256772Y171304D01*
D02*
G37*
G36*
X291772Y179933D02*
X290321Y179791D01*
X288927Y179368D01*
X287642Y178681D01*
X286515Y177756D01*
X285591Y176630D01*
X284904Y175345D01*
X284481Y173950D01*
X284338Y172500D01*
X284481Y171050D01*
X284904Y169655D01*
X285591Y168370D01*
X286515Y167244D01*
X287642Y166319D01*
X288927Y165632D01*
X290321Y165209D01*
X291772Y165067D01*
X293222Y165209D01*
X294616Y165632D01*
X295901Y166319D01*
X297028Y167244D01*
X297952Y168370D01*
X298639Y169655D01*
X299062Y171050D01*
X299205Y172500D01*
X299062Y173950D01*
X298639Y175345D01*
X297952Y176630D01*
X297028Y177756D01*
X295901Y178681D01*
X294616Y179368D01*
X293222Y179791D01*
X291772Y179933D01*
D02*
G37*
G36*
X95000Y172224D02*
X94149Y172055D01*
X93427Y171572D01*
X92945Y170851D01*
X92776Y170000D01*
X92945Y169149D01*
X93427Y168428D01*
X94149Y167946D01*
X95000Y167776D01*
X95851Y167946D01*
X96573Y168428D01*
X97054Y169149D01*
X97224Y170000D01*
X97054Y170851D01*
X96573Y171572D01*
X95851Y172055D01*
X95000Y172224D01*
D02*
G37*
G36*
X49000Y164054D02*
X48917Y164043D01*
X47907Y163625D01*
X47041Y162960D01*
X46375Y162093D01*
X45957Y161083D01*
X45946Y161000D01*
X49000D01*
Y164054D01*
D02*
G37*
G36*
X51000D02*
Y161000D01*
X54054D01*
X54043Y161083D01*
X53625Y162093D01*
X52960Y162960D01*
X52093Y163625D01*
X51083Y164043D01*
X51000Y164054D01*
D02*
G37*
G36*
X135000Y167224D02*
X134149Y167054D01*
X133428Y166572D01*
X132946Y165851D01*
X132776Y165000D01*
X132946Y164149D01*
X133428Y163427D01*
X134149Y162945D01*
X135000Y162776D01*
X135851Y162945D01*
X136573Y163427D01*
X137055Y164149D01*
X137224Y165000D01*
X137055Y165851D01*
X136573Y166572D01*
X135851Y167054D01*
X135000Y167224D01*
D02*
G37*
G36*
X285373Y179754D02*
X281014D01*
Y175395D01*
X281258Y175427D01*
X282651Y176004D01*
X283846Y176921D01*
X284764Y178117D01*
X285341Y179510D01*
X285373Y179754D01*
D02*
G37*
G36*
X20000Y184185D02*
X18917Y184043D01*
X17907Y183625D01*
X17041Y182959D01*
X16375Y182093D01*
X15957Y181083D01*
X15815Y180000D01*
X15957Y178917D01*
X16191Y178353D01*
X11418Y173581D01*
X11087Y173085D01*
X10971Y172500D01*
X10971Y57500D01*
X11087Y56915D01*
X11419Y56419D01*
X15850Y51987D01*
Y45850D01*
X24150D01*
Y54150D01*
X18013D01*
X14029Y58134D01*
X14029Y171867D01*
X18353Y176190D01*
X18917Y175957D01*
X20000Y175815D01*
X21083Y175957D01*
X22093Y176375D01*
X22960Y177041D01*
X23625Y177907D01*
X24043Y178917D01*
X24185Y180000D01*
X24043Y181083D01*
X23625Y182093D01*
X22960Y182959D01*
X22093Y183625D01*
X21083Y184043D01*
X20000Y184185D01*
D02*
G37*
G36*
X50000Y182224D02*
X49149Y182054D01*
X48428Y181572D01*
X47945Y180851D01*
X47776Y180000D01*
X47945Y179149D01*
X48428Y178428D01*
X49149Y177945D01*
X50000Y177776D01*
X50851Y177945D01*
X51573Y178428D01*
X52055Y179149D01*
X52224Y180000D01*
X52055Y180851D01*
X51573Y181572D01*
X50851Y182054D01*
X50000Y182224D01*
D02*
G37*
G36*
X135000Y172224D02*
X134149Y172055D01*
X133428Y171572D01*
X132946Y170851D01*
X132776Y170000D01*
X132946Y169149D01*
X133428Y168428D01*
X134149Y167946D01*
X135000Y167776D01*
X135851Y167946D01*
X136573Y168428D01*
X137055Y169149D01*
X137224Y170000D01*
X137055Y170851D01*
X136573Y171572D01*
X135851Y172055D01*
X135000Y172224D01*
D02*
G37*
G36*
X182500Y202500D02*
X117500D01*
Y177500D01*
X118984D01*
X119033Y177368D01*
X119067Y177000D01*
X118428Y176573D01*
X117946Y175851D01*
X117776Y175000D01*
X117946Y174149D01*
X118428Y173427D01*
X119149Y172945D01*
X120000Y172776D01*
X120851Y172945D01*
X121572Y173427D01*
X122055Y174149D01*
X122224Y175000D01*
X122055Y175851D01*
X121572Y176573D01*
X120933Y177000D01*
X120967Y177368D01*
X121016Y177500D01*
X182500D01*
Y202500D01*
D02*
G37*
G36*
X278514Y179754D02*
X274154D01*
X274187Y179510D01*
X274763Y178117D01*
X275681Y176921D01*
X276877Y176004D01*
X278269Y175427D01*
X278514Y175395D01*
Y179754D01*
D02*
G37*
G36*
X145000Y167224D02*
X144149Y167054D01*
X143428Y166572D01*
X142946Y165851D01*
X142868Y165464D01*
X134372Y156967D01*
X133974Y156372D01*
X133834Y155669D01*
Y139331D01*
X133974Y138628D01*
X134372Y138033D01*
X138702Y133702D01*
X139298Y133304D01*
X140000Y133165D01*
X148821D01*
X149149Y132946D01*
X150000Y132776D01*
X150851Y132946D01*
X151573Y133428D01*
X152055Y134149D01*
X152224Y135000D01*
X152055Y135851D01*
X151573Y136573D01*
X150851Y137055D01*
X150000Y137224D01*
X149149Y137055D01*
X148821Y136835D01*
X140760D01*
X137504Y140091D01*
Y148977D01*
X137582Y149007D01*
X138005Y149060D01*
X138427Y148427D01*
X139149Y147945D01*
X140000Y147776D01*
X140851Y147945D01*
X141572Y148427D01*
X142054Y149149D01*
X142224Y150000D01*
X142054Y150851D01*
X141572Y151573D01*
X140851Y152055D01*
X140000Y152224D01*
X139149Y152055D01*
X138427Y151573D01*
X138005Y150940D01*
X137582Y150993D01*
X137504Y151023D01*
Y154909D01*
X145464Y162868D01*
X145851Y162945D01*
X146572Y163427D01*
X147055Y164149D01*
X147224Y165000D01*
X147055Y165851D01*
X146572Y166572D01*
X145851Y167054D01*
X145000Y167224D01*
D02*
G37*
G36*
X278514Y117746D02*
X274154D01*
X274187Y117502D01*
X274763Y116109D01*
X275681Y114913D01*
X276877Y113996D01*
X278269Y113419D01*
X278514Y113387D01*
Y117746D01*
D02*
G37*
G36*
X285373D02*
X281014D01*
Y113387D01*
X281258Y113419D01*
X282651Y113996D01*
X283846Y114913D01*
X284764Y116109D01*
X285341Y117502D01*
X285373Y117746D01*
D02*
G37*
G36*
X172397Y119724D02*
X171546Y119554D01*
X170824Y119072D01*
X170342Y118351D01*
X170173Y117500D01*
X170342Y116649D01*
X170824Y115928D01*
X171546Y115445D01*
X172397Y115276D01*
X173248Y115445D01*
X173969Y115928D01*
X174451Y116649D01*
X174621Y117500D01*
X174451Y118351D01*
X173969Y119072D01*
X173248Y119554D01*
X172397Y119724D01*
D02*
G37*
G36*
X190000Y117224D02*
X189149Y117054D01*
X188427Y116572D01*
X187945Y115851D01*
X187776Y115000D01*
X187945Y114149D01*
X188427Y113427D01*
X189149Y112945D01*
X190000Y112776D01*
X190851Y112945D01*
X191572Y113427D01*
X192054Y114149D01*
X192224Y115000D01*
X192054Y115851D01*
X191572Y116572D01*
X190851Y117054D01*
X190000Y117224D01*
D02*
G37*
G36*
X260000D02*
X259149Y117054D01*
X258428Y116572D01*
X257945Y115851D01*
X257776Y115000D01*
X257945Y114149D01*
X258428Y113427D01*
X259149Y112945D01*
X260000Y112776D01*
X260851Y112945D01*
X261573Y113427D01*
X262055Y114149D01*
X262224Y115000D01*
X262055Y115851D01*
X261573Y116572D01*
X260851Y117054D01*
X260000Y117224D01*
D02*
G37*
G36*
X300000D02*
X299149Y117054D01*
X298428Y116572D01*
X297945Y115851D01*
X297776Y115000D01*
X297945Y114149D01*
X298428Y113427D01*
X299149Y112945D01*
X300000Y112776D01*
X300851Y112945D01*
X301572Y113427D01*
X302055Y114149D01*
X302224Y115000D01*
X302055Y115851D01*
X301572Y116572D01*
X300851Y117054D01*
X300000Y117224D01*
D02*
G37*
G36*
X291772Y134933D02*
X290321Y134791D01*
X288927Y134368D01*
X287642Y133681D01*
X286515Y132756D01*
X285591Y131630D01*
X284904Y130345D01*
X284481Y128950D01*
X284338Y127500D01*
X284481Y126050D01*
X284904Y124655D01*
X285591Y123370D01*
X286515Y122244D01*
X287642Y121319D01*
X288927Y120632D01*
X290321Y120209D01*
X291772Y120067D01*
X293222Y120209D01*
X294616Y120632D01*
X295901Y121319D01*
X297028Y122244D01*
X297952Y123370D01*
X298639Y124655D01*
X299062Y126050D01*
X299205Y127500D01*
X299062Y128950D01*
X298639Y130345D01*
X297952Y131630D01*
X297028Y132756D01*
X295901Y133681D01*
X294616Y134368D01*
X293222Y134791D01*
X291772Y134933D01*
D02*
G37*
G36*
X278514Y124605D02*
X278269Y124573D01*
X276877Y123996D01*
X275681Y123079D01*
X274763Y121883D01*
X274187Y120490D01*
X274154Y120246D01*
X278514D01*
Y124605D01*
D02*
G37*
G36*
X281014D02*
Y120246D01*
X285373D01*
X285341Y120490D01*
X284764Y121883D01*
X283846Y123079D01*
X282651Y123996D01*
X281258Y124573D01*
X281014Y124605D01*
D02*
G37*
G36*
X20000Y124185D02*
X18917Y124043D01*
X17907Y123625D01*
X17041Y122959D01*
X16375Y122093D01*
X15957Y121083D01*
X15815Y120000D01*
X15957Y118917D01*
X16375Y117907D01*
X17041Y117041D01*
X17907Y116375D01*
X18917Y115957D01*
X20000Y115815D01*
X21083Y115957D01*
X22093Y116375D01*
X22960Y117041D01*
X23625Y117907D01*
X24043Y118917D01*
X24185Y120000D01*
X24043Y121083D01*
X23625Y122093D01*
X22960Y122959D01*
X22093Y123625D01*
X21083Y124043D01*
X20000Y124185D01*
D02*
G37*
G36*
X50000D02*
X48917Y124043D01*
X47907Y123625D01*
X47041Y122959D01*
X46375Y122093D01*
X45957Y121083D01*
X45815Y120000D01*
X45957Y118917D01*
X46375Y117907D01*
X47041Y117041D01*
X47907Y116375D01*
X48917Y115957D01*
X50000Y115815D01*
X51083Y115957D01*
X52093Y116375D01*
X52960Y117041D01*
X53625Y117907D01*
X54043Y118917D01*
X54185Y120000D01*
X54043Y121083D01*
X53625Y122093D01*
X52960Y122959D01*
X52093Y123625D01*
X51083Y124043D01*
X50000Y124185D01*
D02*
G37*
G36*
X155000Y122224D02*
X154149Y122055D01*
X153428Y121572D01*
X152945Y120851D01*
X152776Y120000D01*
X152945Y119149D01*
X153428Y118428D01*
X154149Y117946D01*
X155000Y117776D01*
X155851Y117946D01*
X156572Y118428D01*
X157054Y119149D01*
X157224Y120000D01*
X157054Y120851D01*
X156572Y121572D01*
X155851Y122055D01*
X155000Y122224D01*
D02*
G37*
G36*
X225500Y112124D02*
Y110500D01*
X227124D01*
X227055Y110851D01*
X226572Y111573D01*
X225851Y112055D01*
X225500Y112124D01*
D02*
G37*
G36*
X130000Y108224D02*
X129149Y108054D01*
X128428Y107572D01*
X127945Y106851D01*
X127776Y106000D01*
X127945Y105149D01*
X128428Y104428D01*
X129149Y103946D01*
X130000Y103776D01*
X130851Y103946D01*
X131572Y104428D01*
X132054Y105149D01*
X132224Y106000D01*
X132054Y106851D01*
X131572Y107572D01*
X130851Y108054D01*
X130000Y108224D01*
D02*
G37*
G36*
X150000D02*
X149149Y108054D01*
X148427Y107572D01*
X147945Y106851D01*
X147776Y106000D01*
X147945Y105149D01*
X148427Y104428D01*
X149149Y103946D01*
X150000Y103776D01*
X150851Y103946D01*
X151573Y104428D01*
X152055Y105149D01*
X152224Y106000D01*
X152055Y106851D01*
X151573Y107572D01*
X150851Y108054D01*
X150000Y108224D01*
D02*
G37*
G36*
X20000Y114185D02*
X18917Y114043D01*
X17907Y113625D01*
X17041Y112960D01*
X16375Y112093D01*
X15957Y111083D01*
X15815Y110000D01*
X15957Y108917D01*
X16375Y107907D01*
X17041Y107041D01*
X17907Y106375D01*
X18917Y105957D01*
X20000Y105815D01*
X21083Y105957D01*
X22093Y106375D01*
X22960Y107041D01*
X23625Y107907D01*
X24043Y108917D01*
X24185Y110000D01*
X24043Y111083D01*
X23625Y112093D01*
X22960Y112960D01*
X22093Y113625D01*
X21083Y114043D01*
X20000Y114185D01*
D02*
G37*
G36*
X260000Y107224D02*
X259149Y107054D01*
X258428Y106572D01*
X257945Y105851D01*
X257776Y105000D01*
X257945Y104149D01*
X258428Y103428D01*
X259149Y102945D01*
X260000Y102776D01*
X260851Y102945D01*
X261573Y103428D01*
X262055Y104149D01*
X262224Y105000D01*
X262055Y105851D01*
X261573Y106572D01*
X260851Y107054D01*
X260000Y107224D01*
D02*
G37*
G36*
X80000Y204185D02*
X78917Y204043D01*
X77907Y203625D01*
X77040Y202959D01*
X76375Y202093D01*
X75957Y201083D01*
X75815Y200000D01*
X75957Y198917D01*
X76375Y197907D01*
X77040Y197040D01*
X77907Y196375D01*
X78917Y195957D01*
X80000Y195815D01*
X81083Y195957D01*
X82093Y196375D01*
X82960Y197040D01*
X83625Y197907D01*
X84043Y198917D01*
X84185Y200000D01*
X84043Y201083D01*
X83625Y202093D01*
X82960Y202959D01*
X82093Y203625D01*
X81083Y204043D01*
X80000Y204185D01*
D02*
G37*
G36*
X125000Y108224D02*
X124149Y108054D01*
X123427Y107572D01*
X122945Y106851D01*
X122776Y106000D01*
X122945Y105149D01*
X123427Y104428D01*
X124149Y103946D01*
X125000Y103776D01*
X125851Y103946D01*
X126573Y104428D01*
X127055Y105149D01*
X127224Y106000D01*
X127055Y106851D01*
X126573Y107572D01*
X125851Y108054D01*
X125000Y108224D01*
D02*
G37*
G36*
X224500Y109500D02*
X222876D01*
X222945Y109149D01*
X223428Y108428D01*
X224149Y107946D01*
X224500Y107876D01*
Y109500D01*
D02*
G37*
G36*
X227124D02*
X225500D01*
Y107876D01*
X225851Y107946D01*
X226572Y108428D01*
X227055Y109149D01*
X227124Y109500D01*
D02*
G37*
G36*
X224500Y112124D02*
X224149Y112055D01*
X223428Y111573D01*
X222945Y110851D01*
X222876Y110500D01*
X224500D01*
Y112124D01*
D02*
G37*
G36*
X155000Y112224D02*
X154149Y112055D01*
X153428Y111573D01*
X152945Y110851D01*
X152776Y110000D01*
X152945Y109149D01*
X153428Y108428D01*
X154149Y107946D01*
X155000Y107776D01*
X155851Y107946D01*
X156572Y108428D01*
X157054Y109149D01*
X157224Y110000D01*
X157054Y110851D01*
X156572Y111573D01*
X155851Y112055D01*
X155000Y112224D01*
D02*
G37*
G36*
X190000D02*
X189149Y112055D01*
X188427Y111573D01*
X187945Y110851D01*
X187776Y110000D01*
X187945Y109149D01*
X188427Y108428D01*
X189149Y107946D01*
X190000Y107776D01*
X190851Y107946D01*
X191572Y108428D01*
X192054Y109149D01*
X192224Y110000D01*
X192054Y110851D01*
X191572Y111573D01*
X190851Y112055D01*
X190000Y112224D01*
D02*
G37*
G36*
X245000D02*
X244149Y112055D01*
X243427Y111573D01*
X242945Y110851D01*
X242776Y110000D01*
X242945Y109149D01*
X243427Y108428D01*
X244149Y107946D01*
X245000Y107776D01*
X245851Y107946D01*
X246572Y108428D01*
X247055Y109149D01*
X247224Y110000D01*
X247055Y110851D01*
X246572Y111573D01*
X245851Y112055D01*
X245000Y112224D01*
D02*
G37*
G36*
X210000Y124724D02*
X209149Y124555D01*
X208428Y124073D01*
X207945Y123351D01*
X207776Y122500D01*
X207945Y121649D01*
X208428Y120928D01*
X209149Y120446D01*
X210000Y120276D01*
X210851Y120446D01*
X211573Y120928D01*
X212055Y121649D01*
X212224Y122500D01*
X212055Y123351D01*
X211573Y124073D01*
X210851Y124555D01*
X210000Y124724D01*
D02*
G37*
G36*
X92124Y139500D02*
X90500D01*
Y137876D01*
X90851Y137945D01*
X91572Y138427D01*
X92054Y139149D01*
X92124Y139500D01*
D02*
G37*
G36*
X266772Y146304D02*
X265787Y146175D01*
X264869Y145794D01*
X264082Y145190D01*
X263477Y144402D01*
X263097Y143485D01*
X262967Y142500D01*
X263097Y141515D01*
X263477Y140598D01*
X264082Y139810D01*
X264869Y139206D01*
X265787Y138825D01*
X266772Y138696D01*
X267756Y138825D01*
X268674Y139206D01*
X269462Y139810D01*
X270066Y140598D01*
X270446Y141515D01*
X270576Y142500D01*
X270446Y143485D01*
X270066Y144402D01*
X269462Y145190D01*
X268674Y145794D01*
X267756Y146175D01*
X266772Y146304D01*
D02*
G37*
G36*
X89500Y142124D02*
X89149Y142054D01*
X88428Y141572D01*
X87945Y140851D01*
X87876Y140500D01*
X89500D01*
Y142124D01*
D02*
G37*
G36*
X210000Y142224D02*
X209149Y142054D01*
X208428Y141572D01*
X207945Y140851D01*
X207776Y140000D01*
X207945Y139149D01*
X208428Y138427D01*
X209149Y137945D01*
X210000Y137776D01*
X210851Y137945D01*
X211573Y138427D01*
X212055Y139149D01*
X212224Y140000D01*
X212055Y140851D01*
X211573Y141572D01*
X210851Y142054D01*
X210000Y142224D01*
D02*
G37*
G36*
X225000D02*
X224149Y142054D01*
X223428Y141572D01*
X222945Y140851D01*
X222776Y140000D01*
X222945Y139149D01*
X223428Y138427D01*
X224149Y137945D01*
X225000Y137776D01*
X225851Y137945D01*
X226572Y138427D01*
X227055Y139149D01*
X227224Y140000D01*
X227055Y140851D01*
X226572Y141572D01*
X225851Y142054D01*
X225000Y142224D01*
D02*
G37*
G36*
X89500Y139500D02*
X87876D01*
X87945Y139149D01*
X88428Y138427D01*
X89149Y137945D01*
X89500Y137876D01*
Y139500D01*
D02*
G37*
G36*
X20000Y154185D02*
X18917Y154043D01*
X17907Y153625D01*
X17041Y152960D01*
X16375Y152093D01*
X15957Y151083D01*
X15815Y150000D01*
X15957Y148917D01*
X16375Y147907D01*
X17041Y147040D01*
X17907Y146375D01*
X18917Y145957D01*
X20000Y145815D01*
X21083Y145957D01*
X22093Y146375D01*
X22960Y147040D01*
X23625Y147907D01*
X24043Y148917D01*
X24185Y150000D01*
X24043Y151083D01*
X23625Y152093D01*
X22960Y152960D01*
X22093Y153625D01*
X21083Y154043D01*
X20000Y154185D01*
D02*
G37*
G36*
X110000Y152224D02*
X109149Y152055D01*
X108428Y151573D01*
X107946Y150851D01*
X107776Y150000D01*
X107786Y149949D01*
X105000Y147163D01*
X102214Y149949D01*
X102224Y150000D01*
X102055Y150851D01*
X101573Y151573D01*
X100851Y152055D01*
X100000Y152224D01*
X99149Y152055D01*
X98427Y151573D01*
X97945Y150851D01*
X97776Y150000D01*
X97945Y149149D01*
X98427Y148427D01*
X99149Y147945D01*
X100000Y147776D01*
X100051Y147786D01*
X102646Y145191D01*
Y130440D01*
X102146Y130391D01*
X102055Y130851D01*
X101573Y131572D01*
X100851Y132054D01*
X100000Y132224D01*
X99149Y132054D01*
X98427Y131572D01*
X98399Y131529D01*
X95000D01*
X94415Y131413D01*
X93919Y131081D01*
X92659Y129822D01*
X92208Y130078D01*
X92054Y130851D01*
X91572Y131572D01*
X90851Y132054D01*
X90000Y132224D01*
X89149Y132054D01*
X88428Y131572D01*
X87945Y130851D01*
X87835Y130298D01*
X87689Y130223D01*
X87125Y130498D01*
X87055Y130851D01*
X86572Y131572D01*
X85851Y132054D01*
X85000Y132224D01*
X84149Y132054D01*
X83428Y131572D01*
X82946Y130851D01*
X82776Y130000D01*
X82946Y129149D01*
X83428Y128428D01*
X84149Y127945D01*
X84922Y127792D01*
X85178Y127340D01*
X79672Y121835D01*
X79211Y122027D01*
Y127048D01*
X79949Y127786D01*
X80000Y127776D01*
X80851Y127945D01*
X81573Y128428D01*
X82055Y129149D01*
X82224Y130000D01*
X82055Y130851D01*
X81573Y131572D01*
X80851Y132054D01*
X80000Y132224D01*
X79149Y132054D01*
X78427Y131572D01*
X77946Y130851D01*
X77835Y130298D01*
X77689Y130223D01*
X77125Y130498D01*
X77055Y130851D01*
X76573Y131572D01*
X75851Y132054D01*
X75000Y132224D01*
X74149Y132054D01*
X73427Y131572D01*
X72945Y130851D01*
X72776Y130000D01*
X72945Y129149D01*
X73427Y128428D01*
X74149Y127945D01*
X75000Y127776D01*
X75688Y127913D01*
X75887Y127814D01*
X76058Y127669D01*
X76152Y127545D01*
Y97409D01*
X75652Y97094D01*
X75500Y97124D01*
Y95000D01*
Y92876D01*
X75652Y92906D01*
X76152Y92591D01*
Y87409D01*
X75652Y87094D01*
X75000Y87224D01*
X74149Y87055D01*
X73427Y86572D01*
X72945Y85851D01*
X72776Y85000D01*
X72945Y84149D01*
X73427Y83428D01*
X74149Y82946D01*
X75000Y82776D01*
X75652Y82906D01*
X76152Y82591D01*
Y77319D01*
X76268Y76734D01*
X76600Y76237D01*
X113471Y39366D01*
Y33071D01*
X112997Y32910D01*
X112960Y32959D01*
X112093Y33625D01*
X111083Y34043D01*
X110000Y34185D01*
X108917Y34043D01*
X107907Y33625D01*
X107041Y32959D01*
X106375Y32093D01*
X105957Y31083D01*
X105815Y30000D01*
X105957Y28917D01*
X106375Y27907D01*
X107041Y27040D01*
X107907Y26375D01*
X108917Y25957D01*
X110000Y25815D01*
X111083Y25957D01*
X112093Y26375D01*
X112960Y27040D01*
X112997Y27090D01*
X113471Y26929D01*
Y25000D01*
X113587Y24415D01*
X113919Y23919D01*
X116191Y21647D01*
X115957Y21083D01*
X115815Y20000D01*
X115957Y18917D01*
X116375Y17907D01*
X117041Y17041D01*
X117907Y16375D01*
X118917Y15957D01*
X120000Y15815D01*
X121083Y15957D01*
X122093Y16375D01*
X122959Y17041D01*
X123625Y17907D01*
X124043Y18917D01*
X124185Y20000D01*
X124043Y21083D01*
X123625Y22093D01*
X122959Y22960D01*
X122093Y23625D01*
X121083Y24043D01*
X120000Y24185D01*
X118917Y24043D01*
X118353Y23810D01*
X116529Y25633D01*
Y26929D01*
X117003Y27090D01*
X117041Y27040D01*
X117907Y26375D01*
X118917Y25957D01*
X120000Y25815D01*
X121083Y25957D01*
X122093Y26375D01*
X122947Y27031D01*
X123131Y27005D01*
X123447Y26898D01*
Y25024D01*
X123563Y24439D01*
X123895Y23943D01*
X126190Y21647D01*
X125957Y21083D01*
X125815Y20000D01*
X125957Y18917D01*
X126375Y17907D01*
X127041Y17041D01*
X127907Y16375D01*
X128917Y15957D01*
X130000Y15815D01*
X131083Y15957D01*
X132093Y16375D01*
X132959Y17041D01*
X133625Y17907D01*
X134043Y18917D01*
X134185Y20000D01*
X134043Y21083D01*
X133625Y22093D01*
X132959Y22960D01*
X132093Y23625D01*
X131083Y24043D01*
X130000Y24185D01*
X128917Y24043D01*
X128353Y23810D01*
X126505Y25657D01*
Y26960D01*
X126979Y27121D01*
X127041Y27040D01*
X127907Y26375D01*
X128917Y25957D01*
X130000Y25815D01*
X131083Y25957D01*
X132093Y26375D01*
X132620Y26780D01*
X133120Y26533D01*
Y25350D01*
X133237Y24765D01*
X133568Y24269D01*
X136190Y21647D01*
X135957Y21083D01*
X135815Y20000D01*
X135957Y18917D01*
X136375Y17907D01*
X137040Y17041D01*
X137907Y16375D01*
X138917Y15957D01*
X140000Y15815D01*
X141083Y15957D01*
X142093Y16375D01*
X142959Y17041D01*
X143625Y17907D01*
X144043Y18917D01*
X144185Y20000D01*
X144043Y21083D01*
X143625Y22093D01*
X142959Y22960D01*
X142093Y23625D01*
X141083Y24043D01*
X140000Y24185D01*
X138917Y24043D01*
X138353Y23810D01*
X136179Y25984D01*
Y27342D01*
X136679Y27512D01*
X137040Y27040D01*
X137907Y26375D01*
X138917Y25957D01*
X140000Y25815D01*
X141083Y25957D01*
X142093Y26375D01*
X142959Y27040D01*
X142997Y27090D01*
X143471Y26929D01*
Y25000D01*
X143587Y24415D01*
X143919Y23919D01*
X146191Y21647D01*
X145957Y21083D01*
X145815Y20000D01*
X145957Y18917D01*
X146375Y17907D01*
X147040Y17041D01*
X147907Y16375D01*
X148917Y15957D01*
X150000Y15815D01*
X151083Y15957D01*
X152093Y16375D01*
X152960Y17041D01*
X153625Y17907D01*
X154043Y18917D01*
X154185Y20000D01*
X154043Y21083D01*
X153625Y22093D01*
X152960Y22960D01*
X152093Y23625D01*
X151083Y24043D01*
X150000Y24185D01*
X148917Y24043D01*
X148353Y23810D01*
X146529Y25633D01*
Y26929D01*
X147003Y27090D01*
X147040Y27040D01*
X147907Y26375D01*
X148917Y25957D01*
X150000Y25815D01*
X151083Y25957D01*
X152093Y26375D01*
X152960Y27040D01*
X153625Y27907D01*
X154043Y28917D01*
X154185Y30000D01*
X154043Y31083D01*
X153625Y32093D01*
X152960Y32959D01*
X152093Y33625D01*
X151083Y34043D01*
X150000Y34185D01*
X148917Y34043D01*
X147907Y33625D01*
X147040Y32959D01*
X146967Y32864D01*
X146432Y32988D01*
X146413Y33085D01*
X146081Y33582D01*
X111529Y68134D01*
Y73399D01*
X111573Y73427D01*
X112055Y74149D01*
X112224Y75000D01*
X112055Y75851D01*
X111573Y76573D01*
X110851Y77055D01*
X110078Y77208D01*
X109822Y77659D01*
X112340Y80178D01*
X112792Y79922D01*
X112945Y79149D01*
X113427Y78427D01*
X114149Y77946D01*
X115000Y77776D01*
X115851Y77946D01*
X116572Y78427D01*
X116601Y78471D01*
X118545D01*
X133097Y63919D01*
X133593Y63587D01*
X134179Y63471D01*
X145966D01*
X163471Y45967D01*
Y33071D01*
X162997Y32910D01*
X162960Y32959D01*
X162093Y33625D01*
X161083Y34043D01*
X160000Y34185D01*
X158917Y34043D01*
X157907Y33625D01*
X157041Y32959D01*
X156375Y32093D01*
X155957Y31083D01*
X155815Y30000D01*
X155957Y28917D01*
X156375Y27907D01*
X157041Y27040D01*
X157907Y26375D01*
X158917Y25957D01*
X160000Y25815D01*
X161083Y25957D01*
X162093Y26375D01*
X162960Y27040D01*
X162997Y27090D01*
X163471Y26929D01*
Y25000D01*
X163587Y24415D01*
X163919Y23919D01*
X166191Y21647D01*
X165957Y21083D01*
X165815Y20000D01*
X165957Y18917D01*
X166375Y17907D01*
X167041Y17041D01*
X167907Y16375D01*
X168917Y15957D01*
X170000Y15815D01*
X171083Y15957D01*
X172093Y16375D01*
X172959Y17041D01*
X173625Y17907D01*
X174043Y18917D01*
X174185Y20000D01*
X174043Y21083D01*
X173625Y22093D01*
X172959Y22960D01*
X172093Y23625D01*
X171083Y24043D01*
X170000Y24185D01*
X168917Y24043D01*
X168353Y23810D01*
X166529Y25633D01*
Y26929D01*
X167003Y27090D01*
X167041Y27040D01*
X167907Y26375D01*
X168917Y25957D01*
X170000Y25815D01*
X171083Y25957D01*
X172093Y26375D01*
X172959Y27040D01*
X173625Y27907D01*
X174043Y28917D01*
X174185Y30000D01*
X174043Y31083D01*
X173625Y32093D01*
X172959Y32959D01*
X172093Y33625D01*
X171529Y33858D01*
Y43721D01*
X171413Y44307D01*
X171081Y44803D01*
X148303Y67581D01*
X147807Y67913D01*
X147221Y68029D01*
X135433D01*
X121529Y81933D01*
Y83399D01*
X121572Y83428D01*
X122055Y84149D01*
X122224Y85000D01*
X122055Y85851D01*
X121572Y86572D01*
X120851Y87055D01*
X120078Y87208D01*
X119822Y87660D01*
X120633Y88471D01*
X123399D01*
X123427Y88428D01*
X124149Y87945D01*
X125000Y87776D01*
X125851Y87945D01*
X126573Y88428D01*
X127055Y89149D01*
X127224Y90000D01*
X127055Y90851D01*
X126573Y91572D01*
X125851Y92054D01*
X125000Y92224D01*
X124149Y92054D01*
X123427Y91572D01*
X123399Y91529D01*
X120000D01*
X119415Y91413D01*
X118919Y91081D01*
X106237Y78400D01*
X105906Y77904D01*
X105789Y77319D01*
Y69527D01*
X105328Y69336D01*
X95514Y79150D01*
Y99477D01*
X106957Y110920D01*
X107289Y111416D01*
X107405Y112002D01*
Y145242D01*
X109949Y147786D01*
X110000Y147776D01*
X110851Y147945D01*
X111573Y148427D01*
X112055Y149149D01*
X112224Y150000D01*
X112055Y150851D01*
X111573Y151573D01*
X110851Y152055D01*
X110000Y152224D01*
D02*
G37*
G36*
X42500D02*
X41649Y152055D01*
X40927Y151573D01*
X40445Y150851D01*
X40276Y150000D01*
X40445Y149149D01*
X40927Y148427D01*
X41649Y147945D01*
X42500Y147776D01*
X43351Y147945D01*
X44072Y148427D01*
X44555Y149149D01*
X44724Y150000D01*
X44555Y150851D01*
X44072Y151573D01*
X43351Y152055D01*
X42500Y152224D01*
D02*
G37*
G36*
X90500Y142124D02*
Y140500D01*
X92124D01*
X92054Y140851D01*
X91572Y141572D01*
X90851Y142054D01*
X90500Y142124D01*
D02*
G37*
G36*
X240000Y147224D02*
X239149Y147055D01*
X238427Y146572D01*
X237945Y145851D01*
X237776Y145000D01*
X237945Y144149D01*
X238427Y143428D01*
X239149Y142946D01*
X240000Y142776D01*
X240851Y142946D01*
X241572Y143428D01*
X242055Y144149D01*
X242224Y145000D01*
X242055Y145851D01*
X241572Y146572D01*
X240851Y147055D01*
X240000Y147224D01*
D02*
G37*
G36*
X256772Y151304D02*
X255787Y151175D01*
X254870Y150794D01*
X254082Y150190D01*
X253477Y149402D01*
X253097Y148485D01*
X252968Y147500D01*
X253097Y146515D01*
X253477Y145598D01*
X254082Y144810D01*
X254870Y144205D01*
X255787Y143825D01*
X256772Y143696D01*
X257756Y143825D01*
X258674Y144205D01*
X259462Y144810D01*
X260066Y145598D01*
X260446Y146515D01*
X260576Y147500D01*
X260446Y148485D01*
X260066Y149402D01*
X259462Y150190D01*
X258674Y150794D01*
X257756Y151175D01*
X256772Y151304D01*
D02*
G37*
G36*
X190000Y142224D02*
X189149Y142054D01*
X188427Y141572D01*
X187945Y140851D01*
X187776Y140000D01*
X187945Y139149D01*
X188427Y138427D01*
X189149Y137945D01*
X190000Y137776D01*
X190851Y137945D01*
X191572Y138427D01*
X192054Y139149D01*
X192224Y140000D01*
X192054Y140851D01*
X191572Y141572D01*
X190851Y142054D01*
X190000Y142224D01*
D02*
G37*
G36*
X20000Y134185D02*
X18917Y134043D01*
X17907Y133625D01*
X17041Y132959D01*
X16375Y132093D01*
X15957Y131083D01*
X15815Y130000D01*
X15957Y128917D01*
X16375Y127907D01*
X17041Y127041D01*
X17907Y126375D01*
X18917Y125957D01*
X20000Y125815D01*
X21083Y125957D01*
X22093Y126375D01*
X22960Y127041D01*
X23625Y127907D01*
X24043Y128917D01*
X24185Y130000D01*
X24043Y131083D01*
X23625Y132093D01*
X22960Y132959D01*
X22093Y133625D01*
X21083Y134043D01*
X20000Y134185D01*
D02*
G37*
G36*
X172500Y132224D02*
X171649Y132054D01*
X170928Y131572D01*
X170446Y130851D01*
X170276Y130000D01*
X170446Y129149D01*
X170928Y128428D01*
X171649Y127945D01*
X172500Y127776D01*
X173351Y127945D01*
X174073Y128428D01*
X174555Y129149D01*
X174724Y130000D01*
X174555Y130851D01*
X174073Y131572D01*
X173351Y132054D01*
X172500Y132224D01*
D02*
G37*
G36*
X190000D02*
X189149Y132054D01*
X188427Y131572D01*
X187945Y130851D01*
X187776Y130000D01*
X187945Y129149D01*
X188427Y128428D01*
X189149Y127945D01*
X190000Y127776D01*
X190851Y127945D01*
X191572Y128428D01*
X192054Y129149D01*
X192224Y130000D01*
X192054Y130851D01*
X191572Y131572D01*
X190851Y132054D01*
X190000Y132224D01*
D02*
G37*
G36*
X240000Y124724D02*
X239149Y124555D01*
X238427Y124073D01*
X237945Y123351D01*
X237776Y122500D01*
X237945Y121649D01*
X238427Y120928D01*
X239149Y120446D01*
X240000Y120276D01*
X240851Y120446D01*
X241572Y120928D01*
X242055Y121649D01*
X242224Y122500D01*
X242055Y123351D01*
X241572Y124073D01*
X240851Y124555D01*
X240000Y124724D01*
D02*
G37*
G36*
X311063Y129145D02*
X310016Y129007D01*
X309040Y128603D01*
X308202Y127960D01*
X307559Y127122D01*
X307154Y126146D01*
X307017Y125098D01*
X307154Y124051D01*
X307559Y123075D01*
X308202Y122237D01*
X309040Y121594D01*
X310016Y121190D01*
X311063Y121052D01*
X312110Y121190D01*
X313086Y121594D01*
X313924Y122237D01*
X314567Y123075D01*
X314971Y124051D01*
X315109Y125098D01*
X314971Y126146D01*
X314567Y127122D01*
X313924Y127960D01*
X313086Y128603D01*
X312110Y129007D01*
X311063Y129145D01*
D02*
G37*
G36*
X155000Y127224D02*
X154149Y127055D01*
X153428Y126573D01*
X152945Y125851D01*
X152776Y125000D01*
X152945Y124149D01*
X153428Y123427D01*
X154149Y122945D01*
X155000Y122776D01*
X155851Y122945D01*
X156572Y123427D01*
X157054Y124149D01*
X157224Y125000D01*
X157054Y125851D01*
X156572Y126573D01*
X155851Y127055D01*
X155000Y127224D01*
D02*
G37*
G36*
X256772Y141304D02*
X255787Y141175D01*
X254870Y140795D01*
X254082Y140190D01*
X253477Y139402D01*
X253097Y138485D01*
X252968Y137500D01*
X253097Y136515D01*
X253477Y135598D01*
X254082Y134810D01*
X254870Y134205D01*
X255787Y133825D01*
X256772Y133696D01*
X257756Y133825D01*
X258674Y134205D01*
X259462Y134810D01*
X260066Y135598D01*
X260446Y136515D01*
X260576Y137500D01*
X260446Y138485D01*
X260066Y139402D01*
X259462Y140190D01*
X258674Y140795D01*
X257756Y141175D01*
X256772Y141304D01*
D02*
G37*
G36*
X20000Y144185D02*
X18917Y144043D01*
X17907Y143625D01*
X17041Y142959D01*
X16375Y142093D01*
X15957Y141083D01*
X15815Y140000D01*
X15957Y138917D01*
X16375Y137907D01*
X17041Y137040D01*
X17907Y136375D01*
X18917Y135957D01*
X20000Y135815D01*
X21083Y135957D01*
X22093Y136375D01*
X22960Y137040D01*
X23625Y137907D01*
X24043Y138917D01*
X24185Y140000D01*
X24043Y141083D01*
X23625Y142093D01*
X22960Y142959D01*
X22093Y143625D01*
X21083Y144043D01*
X20000Y144185D01*
D02*
G37*
G36*
X70000D02*
X68917Y144043D01*
X67907Y143625D01*
X67040Y142959D01*
X66375Y142093D01*
X65957Y141083D01*
X65815Y140000D01*
X65957Y138917D01*
X66375Y137907D01*
X67040Y137040D01*
X67907Y136375D01*
X68917Y135957D01*
X70000Y135815D01*
X71083Y135957D01*
X72093Y136375D01*
X72960Y137040D01*
X73625Y137907D01*
X74043Y138917D01*
X74185Y140000D01*
X74043Y141083D01*
X73625Y142093D01*
X72960Y142959D01*
X72093Y143625D01*
X71083Y144043D01*
X70000Y144185D01*
D02*
G37*
G36*
X266772Y136304D02*
X265787Y136175D01*
X264869Y135794D01*
X264082Y135190D01*
X263477Y134402D01*
X263097Y133485D01*
X262967Y132500D01*
X263097Y131515D01*
X263477Y130598D01*
X264082Y129810D01*
X264869Y129206D01*
X265787Y128825D01*
X266772Y128696D01*
X267756Y128825D01*
X268674Y129206D01*
X269462Y129810D01*
X270066Y130598D01*
X270446Y131515D01*
X270576Y132500D01*
X270446Y133485D01*
X270066Y134402D01*
X269462Y135190D01*
X268674Y135794D01*
X267756Y136175D01*
X266772Y136304D01*
D02*
G37*
G36*
X148661Y130885D02*
X147810Y130716D01*
X147089Y130234D01*
X146797Y129797D01*
X146195D01*
X145903Y130234D01*
X145182Y130716D01*
X144331Y130885D01*
X143480Y130716D01*
X142758Y130234D01*
X142466Y129797D01*
X141865D01*
X141572Y130234D01*
X140851Y130716D01*
X140000Y130885D01*
X139149Y130716D01*
X138427Y130234D01*
X138135Y129797D01*
X137534D01*
X137242Y130234D01*
X136520Y130716D01*
X135669Y130885D01*
X134818Y130716D01*
X134097Y130234D01*
X133805Y129797D01*
X133203D01*
X132911Y130234D01*
X132190Y130716D01*
X131339Y130885D01*
X130488Y130716D01*
X129766Y130234D01*
X129284Y129512D01*
X129115Y128661D01*
X129284Y127810D01*
X129766Y127089D01*
X130203Y126797D01*
Y126195D01*
X129766Y125903D01*
X129284Y125182D01*
X129115Y124331D01*
X129284Y123480D01*
X129766Y122758D01*
X130203Y122466D01*
Y121865D01*
X129766Y121572D01*
X129284Y120851D01*
X129115Y120000D01*
X129284Y119149D01*
X129766Y118428D01*
X130203Y118135D01*
Y117534D01*
X129766Y117242D01*
X129284Y116520D01*
X129115Y115669D01*
X129284Y114818D01*
X129766Y114097D01*
X130203Y113805D01*
Y113203D01*
X129766Y112911D01*
X129284Y112190D01*
X129115Y111339D01*
X129284Y110488D01*
X129766Y109766D01*
X130488Y109284D01*
X131339Y109115D01*
X132190Y109284D01*
X132911Y109766D01*
X133203Y110203D01*
X133805D01*
X134097Y109766D01*
X134818Y109284D01*
X135669Y109115D01*
X136520Y109284D01*
X137242Y109766D01*
X137534Y110203D01*
X138135D01*
X138427Y109766D01*
X139149Y109284D01*
X140000Y109115D01*
X140851Y109284D01*
X141572Y109766D01*
X141865Y110203D01*
X142466D01*
X142758Y109766D01*
X143480Y109284D01*
X144331Y109115D01*
X145182Y109284D01*
X145903Y109766D01*
X146195Y110203D01*
X146797D01*
X147089Y109766D01*
X147810Y109284D01*
X148661Y109115D01*
X149512Y109284D01*
X150234Y109766D01*
X150716Y110488D01*
X150885Y111339D01*
X150716Y112190D01*
X150234Y112911D01*
X149797Y113203D01*
Y113805D01*
X150234Y114097D01*
X150716Y114818D01*
X150885Y115669D01*
X150716Y116520D01*
X150234Y117242D01*
X149797Y117534D01*
Y118135D01*
X150234Y118428D01*
X150716Y119149D01*
X150885Y120000D01*
X150716Y120851D01*
X150234Y121572D01*
X149797Y121865D01*
Y122466D01*
X150234Y122758D01*
X150716Y123480D01*
X150885Y124331D01*
X150716Y125182D01*
X150234Y125903D01*
X149797Y126195D01*
Y126797D01*
X150234Y127089D01*
X150716Y127810D01*
X150885Y128661D01*
X150716Y129512D01*
X150234Y130234D01*
X149512Y130716D01*
X148661Y130885D01*
D02*
G37*
G36*
X305079Y139145D02*
X304031Y139007D01*
X303056Y138603D01*
X302218Y137960D01*
X301574Y137122D01*
X301170Y136146D01*
X301032Y135098D01*
X301170Y134051D01*
X301574Y133075D01*
X302218Y132237D01*
X303056Y131594D01*
X304031Y131190D01*
X305079Y131052D01*
X306126Y131190D01*
X307102Y131594D01*
X307940Y132237D01*
X308583Y133075D01*
X308987Y134051D01*
X309125Y135098D01*
X308987Y136146D01*
X308583Y137122D01*
X307940Y137960D01*
X307102Y138603D01*
X306126Y139007D01*
X305079Y139145D01*
D02*
G37*
%LPD*%
D27*
Y90079D02*
Y94902D01*
X295000Y80000D02*
X305079Y90079D01*
X266000Y100000D02*
X286000Y80000D01*
X245000Y100000D02*
X266000D01*
X286000Y80000D02*
X295000D01*
X286000Y160000D02*
X295000D01*
X245000Y180000D02*
X266000D01*
X286000Y160000D01*
X320000Y40000D02*
X325000Y35000D01*
X134800Y66500D02*
X147221D01*
X170000Y43721D01*
X120000Y81300D02*
X134800Y66500D01*
X170000Y30000D02*
Y43721D01*
X134179Y65000D02*
X146600D01*
X165000Y25000D02*
Y46600D01*
X146600Y65000D02*
X165000Y46600D01*
X115000Y80000D02*
X119179D01*
X134179Y65000D01*
X120000Y81300D02*
Y85000D01*
X165000Y25000D02*
X170000Y20000D01*
X295000Y160000D02*
X305079Y170079D01*
Y174902D01*
X81081Y78919D02*
X124976Y35024D01*
X81081Y116081D02*
X95000Y130000D01*
X81081Y78919D02*
Y116081D01*
X79381Y78023D02*
X120000Y37404D01*
Y30000D02*
Y37404D01*
X79381Y78023D02*
Y119381D01*
X90000Y130000D01*
X77681Y77319D02*
X115000Y40000D01*
X77681Y127681D02*
X80000Y130000D01*
X77681Y77319D02*
Y127681D01*
X310000Y112500D02*
X317500Y120000D01*
Y172500D01*
X310000Y105000D02*
Y112500D01*
Y105000D02*
X320000Y95000D01*
Y40000D02*
Y95000D01*
X315000Y35000D02*
X317500Y37500D01*
Y92500D01*
X308760Y101240D02*
X317500Y92500D01*
X305000Y185000D02*
X317500Y172500D01*
X300000Y185000D02*
X305000D01*
X298760Y101240D02*
X308760D01*
X295000Y105000D02*
X298760Y101240D01*
X290000Y105000D02*
X295000D01*
X110000Y67500D02*
X145000Y32500D01*
Y25000D02*
Y32500D01*
X110000Y67500D02*
Y75000D01*
X107319Y77319D02*
X120000Y90000D01*
X107319Y67585D02*
Y77319D01*
Y67585D02*
X140000Y34904D01*
X145000Y25000D02*
X150000Y20000D01*
X115000Y25000D02*
X120000Y20000D01*
X115000Y25000D02*
Y40000D01*
X120000Y90000D02*
X125000D01*
X140000Y30000D02*
Y34904D01*
X134983Y75017D02*
X135000Y75000D01*
Y106000D01*
X134650Y25350D02*
X140000Y20000D01*
X93984Y78516D02*
X134650Y37851D01*
X93984Y78516D02*
Y100110D01*
X105876Y112002D02*
Y145876D01*
X134650Y25350D02*
Y37851D01*
X105876Y145876D02*
X110000Y150000D01*
X93984Y100110D02*
X105876Y112002D01*
X100000Y150000D02*
X104175Y145825D01*
Y112706D02*
Y145825D01*
X130000Y30000D02*
Y40000D01*
X92284Y77716D02*
Y100814D01*
Y77716D02*
X130000Y40000D01*
X92284Y100814D02*
X104175Y112706D01*
X95000Y130000D02*
X100000D01*
X124976Y25024D02*
X130000Y20000D01*
X124976Y25024D02*
Y35024D01*
X12500Y172500D02*
X20000Y180000D01*
X12500Y172500D02*
X12500Y57500D01*
X20000Y50000D01*
D29*
X140000Y135000D02*
X150000D01*
X135669Y139331D02*
Y155669D01*
Y139331D02*
X140000Y135000D01*
X135669Y155669D02*
X145000Y165000D01*
D34*
X242126Y13780D02*
D03*
X13780D02*
D03*
X242126Y206693D02*
D03*
X13780D02*
D03*
D35*
X20000Y180000D02*
D03*
X140000Y30000D02*
D03*
Y20000D02*
D03*
X130000Y30000D02*
D03*
Y20000D02*
D03*
X120000Y30000D02*
D03*
Y20000D02*
D03*
X150000D02*
D03*
X170000D02*
D03*
Y30000D02*
D03*
X180000Y20000D02*
D03*
Y30000D02*
D03*
X50000Y160000D02*
D03*
D37*
X279764Y101004D02*
D03*
Y38996D02*
D03*
Y181004D02*
D03*
Y118996D02*
D03*
D38*
X305079Y94902D02*
D03*
Y174902D02*
D03*
D40*
X20000Y50000D02*
D03*
D42*
X90000Y140000D02*
D03*
X245000Y100000D02*
D03*
Y180000D02*
D03*
X225000Y110000D02*
D03*
X192500Y72500D02*
D03*
X197500Y157500D02*
D03*
X150000Y135000D02*
D03*
X65000Y40000D02*
D03*
X80000Y190000D02*
D03*
X120000Y160000D02*
D03*
X145000Y55000D02*
D03*
X315000Y35000D02*
D03*
X325000D02*
D03*
X290000Y105000D02*
D03*
X310000D02*
D03*
X300000Y185000D02*
D03*
X125000Y65000D02*
D03*
X100000Y130000D02*
D03*
X135000Y106000D02*
D03*
Y75000D02*
D03*
X100000Y95000D02*
D03*
X125000Y90000D02*
D03*
X145000Y155000D02*
D03*
X100000Y150000D02*
D03*
X80000Y130000D02*
D03*
X90000D02*
D03*
X75000Y95000D02*
D03*
X115000Y80000D02*
D03*
X50000Y85000D02*
D03*
X165000Y80000D02*
D03*
X110000Y75000D02*
D03*
X120000Y85000D02*
D03*
X110000Y150000D02*
D03*
X145000Y165000D02*
D03*
M02*
