M48
;Layer_Color=6321
;FILE_FORMAT=2:5
INCH,TZ
;TYPE=PLATED
T1F00S00C0.01181
T2F00S00C0.03543
T3F00S00C0.04016
T4F00S00C0.06299
;TYPE=NON_PLATED
T5F00S00C0.10827
T6F00S00C0.12795
%
T01
X65000Y20000
Y40000
X90000Y45000
Y50000
Y55000
X110000
Y75000
X115000Y80000
X120000Y85000
X125000Y90000
Y106000
X130000
X135000
X135669Y111339
X131339
Y115669
Y120000
Y124331
Y128661
X135669
Y124331
Y120000
Y115669
X140000
X144331
Y111339
X140000
X148661
Y115669
Y120000
Y124331
X144331
X140000
Y120000
X144331
Y128661
X140000
X148661
X150000Y135000
X155000Y125000
Y120000
Y110000
X150000Y106000
Y80000
X145000
Y85000
X135000Y75000
X125000Y65000
Y60000
X145000Y55000
X155000Y50000
X110000Y95000
X100000
X75000
Y85000
X65000
X50000
Y75000
Y65000
Y55000
X85000Y115000
X90000
Y130000
X85000
X80000
X75000
X100000
Y150000
X110000
X140000
X145000Y155000
X150000Y150000
X90000Y140000
X42500Y150000
X172500Y130000
X172397Y117500
X190000Y115000
Y110000
Y130000
Y140000
X197500Y150000
X210000Y140000
X225000
X240000Y145000
Y122500
X245000Y110000
Y100000
X240000Y95000
Y72500
Y60000
X210000
Y77500
X225000
Y110000
X210000Y100000
Y122500
X197500Y87500
X192500Y72500
X172603Y82500
X165000Y80000
X160000Y72500
X165000Y55000
X172500Y92500
X260000Y105000
Y115000
X300000
Y105000
X310000
X290000
X300000Y35000
X315000
X325000
Y110000
X310000Y185000
X300000
X260000
Y195000
X245000Y180000
X240000Y157500
X210000
X197500
X172500
X187500Y180000
X145000Y165000
X135000
Y170000
X120000Y175000
X112500Y180000
X110000Y160000
X120000
X95000Y170000
X80000Y190000
X50000Y180000
T02
X20000Y50000
Y60000
Y70000
Y80000
Y90000
Y100000
Y110000
Y120000
Y130000
Y140000
Y150000
X70000Y140000
X50000Y120000
Y100000
X100000Y30000
Y20000
X110000
Y30000
X120000
Y20000
X130000
Y30000
X140000
X150000
Y20000
X140000
X160000
X170000
X180000
X190000
Y30000
X180000
X170000
X160000
X210000
Y20000
X256772Y57500
Y67500
Y77500
Y87500
X266772Y82500
Y72500
Y62500
Y52500
Y132500
Y142500
Y152500
X256772Y147500
Y137500
Y157500
Y167500
X266772Y162500
X70000Y160000
X50000
X20000
Y180000
X70000Y200000
X80000
T03
X311063Y45098
X305079Y55098
X311063Y84902
X305079Y94902
X311063Y125098
X305079Y135098
X311063Y164902
X305079Y174902
T04
X279764Y38996
Y101004
Y118996
Y181004
T05
X13780Y13780
X242126
Y206693
X13780
T06
X291772Y47500
Y92500
Y127500
Y172500
M30
