G04*
G04 #@! TF.GenerationSoftware,Altium Limited,CircuitStudio,1.5.2 (30)*
G04*
G04 Layer_Physical_Order=2*
G04 Layer_Color=16765976*
%FSLAX25Y25*%
%MOIN*%
G70*
G01*
G75*
%ADD28C,0.01600*%
%ADD31C,0.02000*%
%ADD34C,0.07874*%
%ADD35C,0.06299*%
%ADD39C,0.06024*%
%ADD40C,0.09449*%
%ADD42C,0.02362*%
G36*
X324339Y214274D02*
X325740Y213694D01*
X326943Y212770D01*
X327867Y211567D01*
X328447Y210165D01*
X328629Y208786D01*
X328617Y208661D01*
Y189539D01*
X311975D01*
X311778Y189500D01*
X311577D01*
X311408Y189466D01*
X311303Y189423D01*
X311191Y189411D01*
X310939Y189272D01*
X310673Y189162D01*
X310593Y189082D01*
X310494Y189027D01*
X310456Y188996D01*
X310444Y188988D01*
X310057Y188746D01*
X309725Y188980D01*
X309707Y188993D01*
X309706Y188993D01*
X309706Y188993D01*
X309658Y189030D01*
X309541Y189088D01*
X309365Y189234D01*
X309296Y189273D01*
X309260Y189284D01*
X309230Y189307D01*
X308988Y189373D01*
X308972Y189384D01*
X308893Y189400D01*
X308818Y189441D01*
X308801Y189446D01*
X308711Y189456D01*
X308536Y189510D01*
X308427Y189522D01*
X308323Y189513D01*
X308191Y189539D01*
X308129D01*
X308129Y189539D01*
X301671D01*
X301494Y189504D01*
X301314Y189508D01*
X301294Y189500D01*
X301274Y189500D01*
X301270Y189498D01*
X301268D01*
X301106Y189431D01*
X300929Y189399D01*
X300929Y189399D01*
X300911Y189388D01*
X300890Y189384D01*
X300889Y189383D01*
X300888Y189383D01*
X300886Y189382D01*
X300882Y189379D01*
X300881Y189379D01*
X300881Y189379D01*
X300879Y189378D01*
X300879Y189377D01*
X300876Y189376D01*
X300864Y189368D01*
X300861Y189367D01*
X300860Y189367D01*
X300857Y189366D01*
X300855Y189365D01*
X300739Y189287D01*
X300726Y189278D01*
X300573Y189218D01*
X300572Y189218D01*
X300560Y189207D01*
X300541Y189199D01*
X300539Y189196D01*
X300538Y189196D01*
X300537Y189195D01*
X300533Y189193D01*
X300529Y189190D01*
X300529Y189190D01*
X300520Y189187D01*
X300518Y189185D01*
X300515Y189183D01*
X300512Y189181D01*
X300392Y189062D01*
X300225Y188957D01*
X300096Y188872D01*
X299633Y188976D01*
X299602Y188996D01*
X299599Y188997D01*
X299597Y188999D01*
X299317Y189176D01*
X299158Y189238D01*
X298991Y189349D01*
X298981Y189353D01*
X298965Y189356D01*
X298952Y189364D01*
X298757Y189398D01*
X298592Y189466D01*
X298423Y189500D01*
X298234D01*
X298207Y189506D01*
X298195D01*
X298025Y189539D01*
X270568D01*
X270468Y189519D01*
X270464Y189520D01*
X270379Y189503D01*
X270200Y189506D01*
X270095Y189486D01*
X269895Y189407D01*
X269684Y189365D01*
X269585Y189324D01*
X269437Y189225D01*
X269356Y189193D01*
X269353Y189190D01*
X269258Y189152D01*
X268960Y188960D01*
X268949Y188949D01*
X268934Y188942D01*
X268868Y188898D01*
X268861Y188891D01*
X268857Y188890D01*
X268807Y188838D01*
X268763Y188814D01*
X268763Y188814D01*
X268712Y188751D01*
X268644Y188707D01*
X268635Y188694D01*
X268554Y188639D01*
X268460Y188497D01*
X268336Y188379D01*
X268336Y188379D01*
X268325Y188355D01*
X268310Y188340D01*
X268310Y188339D01*
X268306Y188335D01*
X268303Y188328D01*
X268298Y188323D01*
X268298Y188323D01*
X268224Y188141D01*
X268187Y188084D01*
X268116Y187979D01*
X268116Y187977D01*
X268115Y187976D01*
X268114Y187974D01*
X268114Y187973D01*
X268113Y187973D01*
X268113Y187972D01*
X268080Y187805D01*
X268013Y187652D01*
X268012Y187631D01*
X268002Y187607D01*
X268002Y187606D01*
X268002Y187603D01*
X268001Y187601D01*
X268001Y187600D01*
X268001Y187593D01*
X267998Y187586D01*
X268000Y187393D01*
X267961Y187198D01*
Y177801D01*
X267962Y177796D01*
X267962Y177794D01*
X267962Y177628D01*
X267980Y177537D01*
X267974Y177502D01*
X268007Y177366D01*
X268012Y177182D01*
X268023Y177134D01*
X268092Y176977D01*
X268119Y176848D01*
X268139Y176817D01*
X268160Y176728D01*
X268227Y176637D01*
X268238Y176613D01*
X268280Y176555D01*
X268346Y176407D01*
X268368Y176386D01*
X268374Y176373D01*
X268423Y176306D01*
X268443Y176275D01*
X268450Y176268D01*
X268482Y176190D01*
X268482Y176190D01*
X268484Y176189D01*
X268485Y176187D01*
X268492Y176179D01*
X268496Y176170D01*
X268496Y176170D01*
X268624Y176045D01*
X268730Y175887D01*
X268734Y175884D01*
X268737Y175880D01*
X268737Y175879D01*
X268738Y175879D01*
X268738Y175879D01*
X268790Y175827D01*
X268790Y175827D01*
X268791Y175825D01*
X275461Y169155D01*
Y130845D01*
X275461Y130845D01*
X268773Y124157D01*
X268773Y124157D01*
X268772Y124156D01*
X268769Y124152D01*
X268768Y124150D01*
X268756Y124133D01*
X268743Y124124D01*
X268733Y124113D01*
X268641Y123970D01*
X268638Y123969D01*
X268635Y123963D01*
X268624Y123953D01*
X268619Y123949D01*
X268605Y123933D01*
X268518Y123847D01*
X268516Y123843D01*
X268510Y123828D01*
X268497Y123816D01*
X268494Y123811D01*
X268484Y123785D01*
X268454Y123752D01*
X268436Y123723D01*
X268436Y123723D01*
X268436Y123723D01*
X268380Y123630D01*
X268379Y123629D01*
X268374Y123621D01*
X268344Y123544D01*
X268286Y123484D01*
X268242Y123374D01*
X268136Y123209D01*
X268106Y123134D01*
X268069Y122933D01*
X267994Y122744D01*
X267994Y122739D01*
X267997Y122557D01*
X267961Y122378D01*
X267961Y122201D01*
X267961Y122200D01*
X267961Y122198D01*
Y122198D01*
X267961Y122197D01*
Y113220D01*
X267961Y113220D01*
Y113180D01*
X267961Y113178D01*
Y113178D01*
X267969Y113141D01*
Y113141D01*
X267969Y113141D01*
X267969Y112982D01*
X267978Y112932D01*
X267974Y112912D01*
X267976Y112903D01*
X267974Y112888D01*
X267975Y112846D01*
X267974Y112835D01*
X267981Y112809D01*
X267981Y112808D01*
X267979Y112780D01*
X267979Y112778D01*
X268013Y112666D01*
X268009Y112624D01*
X268021Y112582D01*
X268024Y112507D01*
X268028Y112492D01*
X268028Y112492D01*
X268028Y112477D01*
X268037Y112428D01*
X268076Y112335D01*
X268011Y112161D01*
X267809Y111889D01*
X267723Y111835D01*
X246179D01*
X245851Y112055D01*
X245500Y112124D01*
Y110000D01*
Y107876D01*
X245851Y107946D01*
X246179Y108165D01*
X267741D01*
X267805Y108140D01*
X267861Y108102D01*
X267907Y108048D01*
X268102Y107665D01*
X268086Y107609D01*
X268086Y107603D01*
X268059Y107509D01*
X268052Y107422D01*
X268019Y107342D01*
X268017Y107333D01*
X268017Y107223D01*
X268017Y107223D01*
X268016Y107221D01*
Y107219D01*
X268016Y107218D01*
Y107217D01*
X268000Y107139D01*
Y107050D01*
X268000Y107049D01*
X268000Y107048D01*
Y107045D01*
X267999Y107044D01*
X267999Y107044D01*
Y107043D01*
X267977Y106934D01*
X267978Y106827D01*
X267977Y106824D01*
Y106822D01*
X267977Y106822D01*
Y106821D01*
X267977Y106821D01*
X267961Y106739D01*
X267961Y106654D01*
X267961Y106653D01*
Y106651D01*
X267961Y106651D01*
Y97801D01*
X267962Y97796D01*
X267962Y97794D01*
X267962Y97628D01*
X267980Y97537D01*
X267974Y97502D01*
X268007Y97365D01*
X268012Y97182D01*
X268023Y97134D01*
X268092Y96977D01*
X268119Y96847D01*
X268139Y96817D01*
X268160Y96728D01*
X268227Y96637D01*
X268238Y96613D01*
X268280Y96555D01*
X268346Y96407D01*
X268368Y96386D01*
X268374Y96373D01*
X268423Y96306D01*
X268443Y96275D01*
X268450Y96268D01*
X268482Y96190D01*
X268482Y96190D01*
X268484Y96188D01*
X268485Y96187D01*
X268492Y96179D01*
X268496Y96170D01*
X268496Y96170D01*
X268624Y96045D01*
X268730Y95887D01*
X268734Y95884D01*
X268737Y95880D01*
X268737Y95879D01*
X268738Y95879D01*
X268738Y95879D01*
X268790Y95827D01*
X268790Y95827D01*
X268791Y95825D01*
X275461Y89155D01*
Y50845D01*
X275461Y50845D01*
X268773Y44157D01*
X268773Y44157D01*
X268772Y44156D01*
X268769Y44152D01*
X268768Y44150D01*
X268756Y44133D01*
X268743Y44124D01*
X268733Y44113D01*
X268641Y43970D01*
X268638Y43969D01*
X268635Y43963D01*
X268624Y43953D01*
X268619Y43949D01*
X268605Y43933D01*
X268518Y43847D01*
X268516Y43843D01*
X268510Y43828D01*
X268497Y43815D01*
X268494Y43811D01*
X268484Y43785D01*
X268454Y43752D01*
X268436Y43723D01*
X268436Y43723D01*
X268436Y43723D01*
X268380Y43630D01*
X268379Y43630D01*
X268374Y43621D01*
X268344Y43544D01*
X268286Y43484D01*
X268242Y43374D01*
X268136Y43209D01*
X268106Y43134D01*
X268069Y42933D01*
X267994Y42744D01*
X267994Y42739D01*
X267997Y42557D01*
X267961Y42378D01*
X267961Y42200D01*
X267961Y42200D01*
X267961Y42199D01*
Y42198D01*
X267961Y42197D01*
Y33068D01*
X267981Y32968D01*
X267980Y32964D01*
X267997Y32879D01*
X267994Y32700D01*
X268014Y32596D01*
X268093Y32395D01*
X268135Y32184D01*
X268176Y32085D01*
X268275Y31937D01*
X268307Y31856D01*
X268310Y31853D01*
X268348Y31758D01*
X268540Y31460D01*
X268551Y31449D01*
X268558Y31434D01*
X268602Y31368D01*
X268609Y31361D01*
X268611Y31357D01*
X268662Y31307D01*
X268686Y31263D01*
X268686Y31263D01*
X268749Y31212D01*
X268793Y31144D01*
X268806Y31135D01*
X268861Y31054D01*
X269003Y30960D01*
X269121Y30836D01*
X269121Y30836D01*
X269145Y30825D01*
X269160Y30810D01*
X269161Y30810D01*
X269165Y30806D01*
X269172Y30803D01*
X269177Y30798D01*
X269177Y30798D01*
X269359Y30724D01*
X269416Y30687D01*
X269521Y30616D01*
X269523Y30616D01*
X269524Y30615D01*
X269526Y30614D01*
X269527Y30614D01*
X269527Y30613D01*
X269528Y30613D01*
X269695Y30580D01*
X269848Y30513D01*
X269869Y30512D01*
X269893Y30502D01*
X269894Y30502D01*
X269897Y30502D01*
X269899Y30501D01*
X269900Y30501D01*
X269907Y30501D01*
X269914Y30498D01*
X270107Y30500D01*
X270302Y30461D01*
X297828D01*
X297829Y30461D01*
X297830D01*
X297832Y30461D01*
X297859Y30461D01*
X297905Y30470D01*
X297992Y30468D01*
X298184Y30500D01*
X298223Y30500D01*
X298224Y30500D01*
X298224Y30500D01*
X298226D01*
X298228Y30500D01*
X298243Y30506D01*
X298458Y30507D01*
X298549Y30525D01*
X298663Y30573D01*
X298787Y30588D01*
X298856Y30611D01*
X298918Y30646D01*
X298940Y30649D01*
X298941Y30649D01*
X299068Y30725D01*
X299087Y30732D01*
X299174Y30754D01*
X299194Y30769D01*
X299245Y30787D01*
X299284Y30809D01*
X299284Y30809D01*
X299284Y30809D01*
X299331Y30837D01*
X299387Y30886D01*
X299393Y30891D01*
X299440Y30905D01*
X299443Y30907D01*
X299545Y30991D01*
X299546Y30991D01*
X299723Y31075D01*
X299764Y31105D01*
X299876Y31137D01*
X300288Y31102D01*
X300348Y31076D01*
X300358Y31067D01*
X300458Y31009D01*
X300466Y31003D01*
X300470Y31000D01*
X300474Y30999D01*
X300485Y30989D01*
X300493Y30984D01*
X300499Y30983D01*
X300499Y30982D01*
X300507Y30977D01*
X300630Y30870D01*
X300665Y30850D01*
X300669Y30848D01*
X300690Y30830D01*
X300794Y30771D01*
X300979Y30709D01*
X301048Y30670D01*
X301049Y30670D01*
X301151Y30610D01*
X301216Y30588D01*
X301349Y30571D01*
X301472Y30520D01*
X301571Y30500D01*
X301772Y30500D01*
X301773Y30500D01*
X301773Y30500D01*
X301774Y30500D01*
X301775D01*
X301969Y30461D01*
X302169Y30461D01*
X302170Y30461D01*
X312828D01*
X312829Y30461D01*
X312830D01*
X312832Y30461D01*
X312859Y30461D01*
X312905Y30470D01*
X312992Y30468D01*
X313184Y30500D01*
X313223Y30500D01*
X313224Y30500D01*
X313224Y30500D01*
X313226D01*
X313228Y30500D01*
X313243Y30506D01*
X313458Y30507D01*
X313549Y30525D01*
X313664Y30573D01*
X313787Y30588D01*
X313857Y30611D01*
X313918Y30646D01*
X313941Y30649D01*
X313941Y30649D01*
X314068Y30725D01*
X314087Y30732D01*
X314174Y30754D01*
X314194Y30769D01*
X314245Y30787D01*
X314284Y30809D01*
X314284Y30809D01*
X314284Y30809D01*
X314331Y30837D01*
X314387Y30886D01*
X314393Y30891D01*
X314440Y30905D01*
X314443Y30907D01*
X314545Y30991D01*
X314546Y30991D01*
X314723Y31075D01*
X314764Y31105D01*
X314876Y31137D01*
X315288Y31102D01*
X315348Y31076D01*
X315358Y31067D01*
X315458Y31009D01*
X315466Y31003D01*
X315470Y31000D01*
X315474Y30999D01*
X315485Y30989D01*
X315493Y30984D01*
X315499Y30983D01*
X315499Y30982D01*
X315507Y30977D01*
X315630Y30870D01*
X315666Y30850D01*
X315669Y30848D01*
X315690Y30830D01*
X315794Y30771D01*
X315979Y30709D01*
X316048Y30670D01*
X316049Y30670D01*
X316151Y30610D01*
X316216Y30588D01*
X316349Y30571D01*
X316472Y30520D01*
X316570Y30500D01*
X316772Y30500D01*
X316773Y30500D01*
X316773Y30500D01*
X316774Y30500D01*
X316775D01*
X316969Y30461D01*
X317169Y30461D01*
X317170Y30461D01*
X317823D01*
X317829Y30462D01*
X317829Y30462D01*
X317832Y30463D01*
X318022Y30462D01*
X318209Y30498D01*
X318212Y30498D01*
X318219Y30500D01*
X318219Y30500D01*
X318227Y30500D01*
X318228Y30500D01*
X318231Y30501D01*
X318432Y30502D01*
X318576Y30531D01*
X318690Y30578D01*
X318780Y30586D01*
X318800Y30597D01*
X318838Y30602D01*
X318869Y30613D01*
X319044Y30715D01*
X319235Y30781D01*
X319241Y30784D01*
X319292Y30829D01*
X319310Y30837D01*
X319319Y30846D01*
X319351Y30862D01*
X319354Y30865D01*
X319365Y30871D01*
X319377Y30880D01*
X319395Y30886D01*
X319417Y30904D01*
X319422Y30907D01*
X319439Y30920D01*
X319439Y30920D01*
X319458Y30930D01*
X319486Y30952D01*
X319486Y30953D01*
X319520Y30980D01*
X319606Y31019D01*
X319606Y31019D01*
X319628Y31041D01*
X319651Y31053D01*
X319663Y31066D01*
X319679Y31075D01*
X319682Y31077D01*
X319684Y31079D01*
X319693Y31084D01*
X319866Y31144D01*
X319915Y31144D01*
X319977Y31157D01*
X320040Y31149D01*
X320082Y31161D01*
X320089Y31161D01*
X320089Y31161D01*
X320167Y31162D01*
X320216Y31153D01*
X320253Y31138D01*
X320253Y31138D01*
X320256Y31136D01*
X320256Y31136D01*
X320257Y31135D01*
X320274Y31125D01*
X320283Y31117D01*
X320286Y31113D01*
X320287Y31113D01*
X320291Y31111D01*
X320291Y31110D01*
X320314Y31097D01*
X320315Y31097D01*
X320316Y31097D01*
X320324Y31089D01*
X320356Y31071D01*
X320356Y31071D01*
X320357Y31071D01*
X320382Y31056D01*
X320383Y31056D01*
X320404Y31038D01*
X320425Y31025D01*
X320432Y31016D01*
X320450Y31006D01*
X320465Y30988D01*
X320466Y30987D01*
X320484Y30977D01*
X320539Y30930D01*
X320567Y30914D01*
X320571Y30910D01*
X320571Y30910D01*
X320574Y30909D01*
X320576Y30907D01*
X320579Y30905D01*
X320580Y30905D01*
X320582Y30903D01*
X320590Y30898D01*
X320596Y30897D01*
X320612Y30883D01*
X320635Y30870D01*
X320663Y30860D01*
X320686Y30842D01*
X320713Y30827D01*
X320761Y30786D01*
X320764Y30784D01*
X320773Y30781D01*
X320780Y30776D01*
X320797Y30770D01*
X320801Y30768D01*
X320916Y30731D01*
X320921Y30727D01*
X320934Y30725D01*
X320972Y30712D01*
X321070Y30657D01*
X321151Y30611D01*
X321216Y30588D01*
X321348Y30571D01*
X321472Y30520D01*
X321517Y30511D01*
X321741Y30511D01*
X321772Y30500D01*
X321772Y30500D01*
X321773Y30500D01*
X321774Y30500D01*
X321852Y30500D01*
X322026Y30475D01*
X322041Y30476D01*
X322114Y30461D01*
X322169Y30461D01*
X322170Y30461D01*
X323040D01*
X323041Y30461D01*
X323041D01*
X323042Y30461D01*
X323044D01*
X323046Y30462D01*
X323237Y30461D01*
X323370Y30488D01*
X323468Y30478D01*
X323468Y30478D01*
X323576Y30511D01*
X323600Y30517D01*
X323745Y30525D01*
X323770Y30532D01*
X323770D01*
X323868Y30557D01*
X323970Y30606D01*
X324197Y30651D01*
X324244Y30682D01*
X324299Y30696D01*
X324547Y30882D01*
X324585Y30900D01*
X325038Y31010D01*
X325130Y30968D01*
X325146Y30961D01*
X325162Y30945D01*
X325192Y30925D01*
X325372Y30850D01*
X325404Y30828D01*
X325496Y30762D01*
X325527Y30748D01*
X325527Y30748D01*
X325534Y30743D01*
X325539Y30740D01*
X325546Y30736D01*
X325548Y30735D01*
X325559Y30733D01*
X325579Y30724D01*
X325600Y30718D01*
X325623Y30704D01*
X325624Y30703D01*
X325639Y30700D01*
X325651Y30692D01*
X325749Y30673D01*
X325749Y30673D01*
X325751Y30672D01*
X325752Y30672D01*
X325801Y30651D01*
X325834Y30645D01*
X325853Y30636D01*
X325867Y30633D01*
X325912Y30612D01*
X325912Y30612D01*
X325929Y30605D01*
X325936Y30603D01*
X325938Y30603D01*
X325964Y30591D01*
X326000Y30590D01*
X326034Y30576D01*
X326082Y30567D01*
X326122Y30549D01*
X326169Y30547D01*
X326215Y30536D01*
X326215D01*
X326256Y30525D01*
X326381Y30518D01*
X326446Y30501D01*
X326446Y30501D01*
X326459Y30502D01*
X326472Y30499D01*
X326528Y30496D01*
X326559Y30501D01*
X326562Y30500D01*
X326562D01*
X326582Y30496D01*
X326584Y30497D01*
X326761Y30461D01*
X326879Y30461D01*
X326879Y30461D01*
X326880Y30461D01*
X326957D01*
X326957Y30461D01*
X326958D01*
X326960Y30461D01*
X328617D01*
Y11811D01*
X328617Y11811D01*
X328617Y11811D01*
X328582Y11326D01*
X328447Y10307D01*
X327867Y8906D01*
X326943Y7702D01*
X325740Y6779D01*
X324339Y6198D01*
X323320Y6064D01*
X322835Y6029D01*
Y6029D01*
X253375D01*
X253131Y6465D01*
X253928Y7766D01*
X254723Y9686D01*
X255208Y11708D01*
X255371Y13780D01*
X255208Y15852D01*
X254723Y17873D01*
X253928Y19793D01*
X252842Y21565D01*
X251492Y23146D01*
X249911Y24495D01*
X248139Y25581D01*
X246219Y26377D01*
X244198Y26862D01*
X242126Y27025D01*
X240054Y26862D01*
X238033Y26377D01*
X236113Y25581D01*
X234340Y24495D01*
X232760Y23146D01*
X231410Y21565D01*
X230324Y19793D01*
X229529Y17873D01*
X229044Y15852D01*
X228880Y13780D01*
X229044Y11708D01*
X229529Y9686D01*
X230324Y7766D01*
X231121Y6465D01*
X230877Y6029D01*
X25028D01*
X24784Y6465D01*
X25581Y7766D01*
X26377Y9686D01*
X26862Y11708D01*
X27025Y13780D01*
X26862Y15852D01*
X26377Y17873D01*
X25581Y19793D01*
X24495Y21565D01*
X23146Y23146D01*
X21565Y24495D01*
X19793Y25581D01*
X17873Y26377D01*
X15852Y26862D01*
X13780Y27025D01*
X11708Y26862D01*
X9686Y26377D01*
X7766Y25581D01*
X6465Y24784D01*
X6029Y25028D01*
Y195444D01*
X6465Y195688D01*
X7766Y194891D01*
X9686Y194096D01*
X11708Y193610D01*
X13780Y193447D01*
X15852Y193610D01*
X17873Y194096D01*
X19793Y194891D01*
X21565Y195977D01*
X23146Y197327D01*
X24495Y198907D01*
X25581Y200680D01*
X26377Y202600D01*
X26862Y204621D01*
X27025Y206693D01*
X26862Y208765D01*
X26377Y210786D01*
X25581Y212706D01*
X24784Y214007D01*
X25028Y214443D01*
X230877D01*
X231121Y214007D01*
X230324Y212706D01*
X229529Y210786D01*
X229044Y208765D01*
X228880Y206693D01*
X229044Y204621D01*
X229529Y202600D01*
X230324Y200680D01*
X231410Y198907D01*
X232760Y197327D01*
X234340Y195977D01*
X236113Y194891D01*
X238033Y194096D01*
X240054Y193610D01*
X242126Y193447D01*
X244198Y193610D01*
X246219Y194096D01*
X248139Y194891D01*
X249911Y195977D01*
X251492Y197327D01*
X252842Y198907D01*
X253928Y200680D01*
X254723Y202600D01*
X255208Y204621D01*
X255371Y206693D01*
X255208Y208765D01*
X254723Y210786D01*
X253928Y212706D01*
X253131Y214007D01*
X253375Y214443D01*
X322835D01*
X322959Y214456D01*
X324339Y214274D01*
D02*
G37*
G36*
X325665Y106740D02*
Y63260D01*
X319338Y56934D01*
X308661D01*
X308583Y57122D01*
X307940Y57960D01*
X307102Y58603D01*
X306126Y59007D01*
X305079Y59145D01*
X304031Y59007D01*
X303056Y58603D01*
X302218Y57960D01*
X301574Y57122D01*
X301170Y56146D01*
X301032Y55098D01*
X301170Y54051D01*
X301574Y53075D01*
X302218Y52237D01*
X303056Y51594D01*
X304031Y51190D01*
X305079Y51052D01*
X306126Y51190D01*
X307102Y51594D01*
X307940Y52237D01*
X308583Y53075D01*
X308661Y53263D01*
X320098D01*
X320801Y53403D01*
X321396Y53801D01*
X328155Y60559D01*
X328617Y60368D01*
Y32500D01*
X326960D01*
X326958Y32500D01*
X326957D01*
X326957Y32500D01*
X326880D01*
X326762Y32500D01*
X326720Y32511D01*
X326720D01*
X326638Y32532D01*
X326582Y32535D01*
X326582Y32535D01*
X326582Y32535D01*
X326532Y32556D01*
X326530Y32556D01*
X326529Y32557D01*
X326431Y32576D01*
X326431D01*
X326431Y32576D01*
X326409Y32587D01*
X326402Y32588D01*
X326400Y32589D01*
X326385Y32596D01*
X326379Y32600D01*
X326348Y32614D01*
X326327Y32620D01*
X326325Y32620D01*
X326295Y32640D01*
X326294Y32641D01*
X326235Y33070D01*
X326271Y33226D01*
X326572Y33428D01*
X327055Y34149D01*
X327224Y35000D01*
X327055Y35851D01*
X326572Y36573D01*
X325851Y37055D01*
X325000Y37224D01*
X324149Y37055D01*
X323428Y36573D01*
X322945Y35851D01*
X322776Y35000D01*
X322945Y34149D01*
X323428Y33428D01*
X323743Y33217D01*
X323756Y33187D01*
X323760Y32969D01*
X323628Y32745D01*
X323418Y32535D01*
X323362Y32532D01*
X323265Y32507D01*
X323265Y32507D01*
X323239Y32501D01*
X323046Y32501D01*
X323044Y32500D01*
X323042D01*
X323041Y32500D01*
X323041D01*
X323040Y32500D01*
X322170D01*
X322169Y32500D01*
X322114Y32500D01*
X322061Y32519D01*
X322061Y32519D01*
X321915Y32511D01*
X321870Y32520D01*
X321804Y32542D01*
X321801Y32545D01*
X321779Y32558D01*
X321760Y32564D01*
X321757Y32565D01*
X321757Y32566D01*
X321741Y32585D01*
X321734Y32589D01*
X321729Y32595D01*
X321725Y32599D01*
X321701Y32611D01*
X321701Y32611D01*
X321644Y32642D01*
X321621Y32655D01*
X321618Y32657D01*
X321617Y32659D01*
X321617Y32659D01*
X321615Y32660D01*
X321609Y32666D01*
X321608Y32666D01*
X321606Y32666D01*
X321598Y32671D01*
X321597Y32672D01*
X321594Y32674D01*
X321593Y32676D01*
X321591Y32677D01*
X321551Y32700D01*
X321452Y32787D01*
X321421Y32805D01*
X321401Y32822D01*
X321376Y32837D01*
X321371Y32838D01*
X321365Y32843D01*
X321334Y32861D01*
X321326Y32868D01*
X321303Y32881D01*
X321302Y32881D01*
X321284Y32897D01*
X321283Y32897D01*
X321282Y32898D01*
X321273Y32904D01*
X321270Y32904D01*
X321267Y32908D01*
X321266Y32908D01*
X321134Y32952D01*
X321015Y33030D01*
X320977Y33045D01*
X320935Y33053D01*
X320907Y33069D01*
X320905Y33069D01*
X320901Y33072D01*
X320750Y33091D01*
X320566Y33162D01*
X320517Y33171D01*
X320334Y33166D01*
X320195Y33193D01*
X320194Y33192D01*
X320148Y33201D01*
X320069Y33200D01*
X320069Y33200D01*
X320069Y33200D01*
X319970Y33199D01*
X319895Y33184D01*
X319895Y33184D01*
X319843Y33183D01*
X319736Y33161D01*
X319689Y33161D01*
X319689Y33161D01*
X319681Y33157D01*
X319573Y33156D01*
X319498Y33140D01*
X319401Y33099D01*
X319196Y33071D01*
X319035Y33015D01*
X318906Y32940D01*
X318762Y32898D01*
X318745Y32889D01*
X318738Y32884D01*
X318635Y32831D01*
X318550Y32763D01*
X318548Y32763D01*
X318548Y32763D01*
X318520Y32741D01*
X318519Y32740D01*
X318500Y32730D01*
X318484Y32717D01*
X318457Y32704D01*
X318433Y32684D01*
X318421Y32678D01*
X318421Y32678D01*
X318415Y32675D01*
X318411Y32672D01*
X318411Y32672D01*
X318411Y32672D01*
X318376Y32654D01*
X318372Y32650D01*
X318292Y32609D01*
X318212Y32545D01*
X318205Y32541D01*
X318174Y32530D01*
X318030Y32501D01*
X317839Y32502D01*
X317837Y32502D01*
X317836Y32501D01*
X317829Y32501D01*
X317823Y32500D01*
X317170D01*
X317169Y32500D01*
X316969Y32500D01*
X316870Y32520D01*
X316805Y32542D01*
X316701Y32601D01*
X316684Y32616D01*
X316648Y32637D01*
X316647Y32638D01*
X316522Y32746D01*
X316514Y32751D01*
X316507Y32753D01*
X316505Y32755D01*
X316497Y32760D01*
X316496Y32760D01*
X316488Y32767D01*
X316484Y32769D01*
X316484Y32769D01*
X316476Y32776D01*
X316412Y33127D01*
X316435Y33313D01*
X316457Y33350D01*
X316572Y33428D01*
X317055Y34149D01*
X317224Y35000D01*
X317055Y35851D01*
X316572Y36573D01*
X315851Y37055D01*
X315000Y37224D01*
X314149Y37055D01*
X313427Y36573D01*
X312945Y35851D01*
X312776Y35000D01*
X312945Y34149D01*
X313427Y33428D01*
X313565Y33336D01*
X313604Y33156D01*
X313555Y32746D01*
X313550Y32744D01*
X313509Y32714D01*
X313481Y32705D01*
X313478Y32703D01*
X313464Y32692D01*
X313332Y32629D01*
X313330Y32628D01*
X313302Y32597D01*
X313255Y32570D01*
X313255Y32570D01*
X313255Y32570D01*
X313216Y32547D01*
X313147Y32524D01*
X313056Y32506D01*
X312889Y32511D01*
X312889Y32511D01*
X312860Y32500D01*
X312832Y32500D01*
X312830Y32500D01*
X312829D01*
X312828Y32500D01*
X302170D01*
X302169Y32500D01*
X301969Y32500D01*
X301870Y32520D01*
X301805Y32542D01*
X301701Y32601D01*
X301684Y32616D01*
X301648Y32637D01*
X301647Y32638D01*
X301522Y32746D01*
X301514Y32751D01*
X301507Y32753D01*
X301505Y32755D01*
X301497Y32760D01*
X301496Y32760D01*
X301488Y32767D01*
X301484Y32769D01*
X301484Y32769D01*
X301476Y32776D01*
X301412Y33127D01*
X301435Y33313D01*
X301457Y33350D01*
X301572Y33428D01*
X302055Y34149D01*
X302224Y35000D01*
X302055Y35851D01*
X301835Y36179D01*
Y39141D01*
X305957Y43263D01*
X307481D01*
X307559Y43075D01*
X308202Y42237D01*
X309040Y41594D01*
X310016Y41190D01*
X311063Y41052D01*
X312110Y41190D01*
X313086Y41594D01*
X313924Y42237D01*
X314567Y43075D01*
X314971Y44051D01*
X315109Y45098D01*
X314971Y46146D01*
X314567Y47122D01*
X313924Y47960D01*
X313086Y48603D01*
X312110Y49007D01*
X311063Y49145D01*
X310016Y49007D01*
X309040Y48603D01*
X308202Y47960D01*
X307559Y47122D01*
X307481Y46934D01*
X305197D01*
X304495Y46794D01*
X303899Y46396D01*
X298702Y41199D01*
X298304Y40604D01*
X298165Y39902D01*
Y36179D01*
X297945Y35851D01*
X297776Y35000D01*
X297945Y34149D01*
X298428Y33428D01*
X298565Y33336D01*
X298604Y33156D01*
X298555Y32746D01*
X298550Y32744D01*
X298509Y32714D01*
X298481Y32705D01*
X298478Y32703D01*
X298464Y32692D01*
X298332Y32629D01*
X298330Y32628D01*
X298302Y32597D01*
X298255Y32570D01*
X298255Y32570D01*
X298255Y32570D01*
X298217Y32547D01*
X298147Y32524D01*
X298056Y32506D01*
X297889Y32511D01*
X297888Y32511D01*
X297860Y32500D01*
X297832Y32500D01*
X297830Y32500D01*
X297829D01*
X297828Y32500D01*
X270302D01*
X270301Y32500D01*
X270300Y32501D01*
X270299Y32501D01*
X270299Y32501D01*
X270297Y32502D01*
X270297Y32502D01*
X270252Y32568D01*
X270252Y32568D01*
X270252Y32568D01*
X270060Y32866D01*
X270019Y32964D01*
X270000Y33068D01*
Y42197D01*
X270000Y42198D01*
Y42199D01*
X270000Y42200D01*
X270000Y42377D01*
X270001Y42382D01*
X270031Y42457D01*
X270088Y42516D01*
X270093Y42524D01*
X270104Y42550D01*
X270123Y42571D01*
X270123Y42571D01*
X270123Y42571D01*
X270179Y42665D01*
X270197Y42693D01*
X270197Y42694D01*
X270207Y42704D01*
X270210Y42708D01*
X270211Y42710D01*
X270214Y42714D01*
X270215Y42715D01*
X270215Y42715D01*
X276903Y49403D01*
X276903Y49403D01*
X277500Y50000D01*
Y90000D01*
X276903Y90597D01*
X270233Y97267D01*
X270232Y97269D01*
X270180Y97321D01*
X270179Y97321D01*
X270179Y97321D01*
X270179Y97321D01*
X270179Y97322D01*
X270171Y97329D01*
X270139Y97408D01*
X270118Y97439D01*
X270089Y97468D01*
X270072Y97505D01*
X270023Y97573D01*
X270012Y97583D01*
X270001Y97631D01*
X270001Y97798D01*
X270000Y97801D01*
Y106651D01*
X270000Y106651D01*
Y106653D01*
X270000Y106654D01*
X270000Y106741D01*
X270016Y106821D01*
Y106822D01*
X270016Y106822D01*
Y106824D01*
X270017Y106827D01*
X270017Y106936D01*
X270019Y106945D01*
X270048Y107049D01*
X270049Y107053D01*
X270049Y107053D01*
X270049Y107055D01*
X270098Y107230D01*
X270130Y107310D01*
X270595Y107500D01*
X288984D01*
X289033Y107368D01*
X289067Y107000D01*
X288427Y106572D01*
X287945Y105851D01*
X287776Y105000D01*
X287945Y104149D01*
X288427Y103428D01*
X289149Y102945D01*
X290000Y102776D01*
X290851Y102945D01*
X291572Y103428D01*
X292055Y104149D01*
X292224Y105000D01*
X292055Y105851D01*
X291572Y106572D01*
X290933Y107000D01*
X290967Y107368D01*
X291016Y107500D01*
X298984D01*
X299033Y107368D01*
X299067Y107000D01*
X298428Y106572D01*
X297945Y105851D01*
X297776Y105000D01*
X297945Y104149D01*
X298428Y103428D01*
X299149Y102945D01*
X300000Y102776D01*
X300851Y102945D01*
X301179Y103165D01*
X304240D01*
X309228Y98177D01*
Y96675D01*
X308728Y96575D01*
X308583Y96925D01*
X307940Y97763D01*
X307102Y98406D01*
X306126Y98810D01*
X305079Y98948D01*
X304031Y98810D01*
X303056Y98406D01*
X302218Y97763D01*
X301574Y96925D01*
X301170Y95949D01*
X301032Y94902D01*
X301170Y93854D01*
X301574Y92878D01*
X302218Y92040D01*
X303056Y91397D01*
X304031Y90993D01*
X305079Y90855D01*
X306126Y90993D01*
X307102Y91397D01*
X307940Y92040D01*
X308583Y92878D01*
X308728Y93228D01*
X309228Y93128D01*
Y88484D01*
X309040Y88406D01*
X308202Y87763D01*
X307559Y86925D01*
X307154Y85949D01*
X307017Y84902D01*
X307154Y83854D01*
X307559Y82878D01*
X308202Y82040D01*
X309040Y81397D01*
X310016Y80993D01*
X311063Y80855D01*
X312110Y80993D01*
X313086Y81397D01*
X313924Y82040D01*
X314567Y82878D01*
X314971Y83854D01*
X315109Y84902D01*
X314971Y85949D01*
X314567Y86925D01*
X313924Y87763D01*
X313086Y88406D01*
X312898Y88484D01*
Y98937D01*
X312759Y99639D01*
X312361Y100235D01*
X310275Y102321D01*
X310439Y102864D01*
X310851Y102945D01*
X311573Y103428D01*
X312055Y104149D01*
X312224Y105000D01*
X312055Y105851D01*
X311573Y106572D01*
X310933Y107000D01*
X310967Y107368D01*
X311016Y107500D01*
X324905D01*
X325665Y106740D01*
D02*
G37*
G36*
X328617Y129632D02*
X328155Y129441D01*
X321199Y136396D01*
X320604Y136794D01*
X319902Y136934D01*
X308661D01*
X308583Y137122D01*
X307940Y137960D01*
X307102Y138603D01*
X306126Y139007D01*
X305079Y139145D01*
X304031Y139007D01*
X303056Y138603D01*
X302218Y137960D01*
X301574Y137122D01*
X301170Y136146D01*
X301032Y135098D01*
X301170Y134051D01*
X301574Y133075D01*
X302218Y132237D01*
X303056Y131594D01*
X304031Y131190D01*
X305079Y131052D01*
X306126Y131190D01*
X307102Y131594D01*
X307940Y132237D01*
X308583Y133075D01*
X308661Y133263D01*
X319141D01*
X325665Y126740D01*
Y113260D01*
X324905Y112500D01*
X301406D01*
X301201Y113000D01*
X301368Y113165D01*
X307500D01*
X308202Y113304D01*
X308798Y113702D01*
X312361Y117265D01*
X312759Y117861D01*
X312898Y118563D01*
Y121516D01*
X313086Y121594D01*
X313924Y122237D01*
X314567Y123075D01*
X314971Y124051D01*
X315109Y125098D01*
X314971Y126146D01*
X314567Y127122D01*
X313924Y127960D01*
X313086Y128603D01*
X312110Y129007D01*
X311063Y129145D01*
X310016Y129007D01*
X309040Y128603D01*
X308202Y127960D01*
X307559Y127122D01*
X307154Y126146D01*
X307017Y125098D01*
X307154Y124051D01*
X307559Y123075D01*
X308202Y122237D01*
X309040Y121594D01*
X309228Y121516D01*
Y119323D01*
X306740Y116835D01*
X301179D01*
X300851Y117054D01*
X300000Y117224D01*
X299149Y117054D01*
X298428Y116572D01*
X297945Y115851D01*
X297776Y115000D01*
X297945Y114149D01*
X298428Y113427D01*
X299067Y113000D01*
X299033Y112632D01*
X298984Y112500D01*
X270429D01*
X270038Y112821D01*
X270029Y112870D01*
X270013Y112907D01*
X270011Y112965D01*
X270008Y112979D01*
X270008Y112979D01*
X270008Y112980D01*
X270008Y112981D01*
X270008Y113141D01*
X270008Y113141D01*
X270008Y113141D01*
Y113141D01*
X270000Y113178D01*
Y113178D01*
X270000Y113180D01*
Y113220D01*
X270000Y113220D01*
Y122197D01*
X270000Y122198D01*
Y122198D01*
X270000Y122200D01*
X270000Y122377D01*
X270001Y122382D01*
X270031Y122457D01*
X270088Y122515D01*
X270093Y122524D01*
X270104Y122550D01*
X270123Y122571D01*
X270123Y122571D01*
X270123Y122571D01*
X270179Y122665D01*
X270197Y122694D01*
X270197Y122694D01*
X270207Y122704D01*
X270210Y122708D01*
X270211Y122710D01*
X270214Y122714D01*
X270215Y122715D01*
X270215Y122715D01*
X276903Y129403D01*
X276903Y129403D01*
X277500Y130000D01*
Y170000D01*
X276903Y170597D01*
X270233Y177267D01*
X270232Y177269D01*
X270180Y177321D01*
X270179Y177321D01*
X270179Y177321D01*
X270179Y177321D01*
X270179Y177322D01*
X270171Y177329D01*
X270139Y177408D01*
X270118Y177439D01*
X270089Y177468D01*
X270072Y177505D01*
X270023Y177573D01*
X270012Y177583D01*
X270001Y177631D01*
X270001Y177797D01*
X270000Y177801D01*
Y187198D01*
X270000Y187199D01*
X270001Y187200D01*
X270001Y187201D01*
X270001Y187201D01*
X270002Y187203D01*
X270002Y187204D01*
X270068Y187248D01*
X270068Y187248D01*
X270068Y187248D01*
X270366Y187440D01*
X270464Y187481D01*
X270568Y187500D01*
X298025D01*
X298195Y187466D01*
X298207D01*
X298217Y187462D01*
X298226Y187454D01*
X298505Y187277D01*
X298508Y187276D01*
X298510Y187274D01*
X298542Y187254D01*
X298545Y187252D01*
X298626Y186826D01*
X298586Y186679D01*
X298428Y186573D01*
X297945Y185851D01*
X297776Y185000D01*
X297945Y184149D01*
X298428Y183428D01*
X299149Y182946D01*
X300000Y182776D01*
X300851Y182946D01*
X301572Y183428D01*
X302055Y184149D01*
X302224Y185000D01*
X302055Y185851D01*
X301572Y186573D01*
X301387Y186696D01*
X301346Y186928D01*
X301344Y187049D01*
X301402Y187288D01*
X301414Y187295D01*
X301424Y187301D01*
X301429Y187305D01*
X301484Y187340D01*
X301630Y187479D01*
X301640Y187483D01*
X301642Y187484D01*
X301643Y187485D01*
X301646Y187486D01*
X301647Y187486D01*
X301657Y187493D01*
X301660Y187494D01*
X301662Y187495D01*
X301663Y187496D01*
X301663Y187496D01*
X301667Y187498D01*
X301670Y187499D01*
X301670Y187500D01*
X301670Y187500D01*
X301671Y187500D01*
X308129D01*
X308129Y187500D01*
X308191D01*
X308208Y187495D01*
X308318Y187483D01*
X308318Y187483D01*
X308388Y187445D01*
X308416Y187413D01*
X308463Y187376D01*
X308525Y187346D01*
X308574Y187297D01*
X308592Y187285D01*
X308593Y187285D01*
X308643Y187162D01*
X308683Y186970D01*
X308684Y186873D01*
X308649Y186720D01*
X308428Y186573D01*
X307945Y185851D01*
X307776Y185000D01*
X307945Y184149D01*
X308428Y183428D01*
X309149Y182946D01*
X309536Y182868D01*
X313165Y179240D01*
Y169599D01*
X312298Y168732D01*
X312110Y168810D01*
X311063Y168948D01*
X310016Y168810D01*
X309040Y168406D01*
X308202Y167763D01*
X307559Y166925D01*
X307154Y165949D01*
X307017Y164902D01*
X307154Y163854D01*
X307559Y162878D01*
X308202Y162040D01*
X309040Y161397D01*
X310016Y160993D01*
X311063Y160855D01*
X312110Y160993D01*
X313086Y161397D01*
X313924Y162040D01*
X314567Y162878D01*
X314971Y163854D01*
X315109Y164902D01*
X314971Y165949D01*
X314894Y166137D01*
X316298Y167541D01*
X316696Y168136D01*
X316835Y168839D01*
Y180000D01*
X316696Y180702D01*
X316298Y181298D01*
X312132Y185464D01*
X312055Y185851D01*
X311573Y186573D01*
X311426Y186670D01*
X311425Y187146D01*
X311806Y187466D01*
X311975Y187500D01*
X328617D01*
Y129632D01*
D02*
G37*
%LPC*%
G36*
X50500Y77124D02*
Y75500D01*
X52124D01*
X52055Y75851D01*
X51573Y76573D01*
X50851Y77055D01*
X50500Y77124D01*
D02*
G37*
G36*
X49500D02*
X49149Y77055D01*
X48428Y76573D01*
X47945Y75851D01*
X47876Y75500D01*
X49500D01*
Y77124D01*
D02*
G37*
G36*
X115000Y82224D02*
X114149Y82055D01*
X113427Y81573D01*
X112945Y80851D01*
X112776Y80000D01*
X112945Y79149D01*
X113427Y78427D01*
X114149Y77946D01*
X115000Y77776D01*
X115851Y77946D01*
X116572Y78427D01*
X117054Y79149D01*
X117224Y80000D01*
X117054Y80851D01*
X116572Y81573D01*
X115851Y82055D01*
X115000Y82224D01*
D02*
G37*
G36*
X20000Y84185D02*
X18917Y84043D01*
X17907Y83625D01*
X17041Y82960D01*
X16375Y82093D01*
X15957Y81083D01*
X15815Y80000D01*
X15957Y78917D01*
X16375Y77907D01*
X17041Y77040D01*
X17907Y76375D01*
X18917Y75957D01*
X20000Y75815D01*
X21083Y75957D01*
X22093Y76375D01*
X22960Y77040D01*
X23625Y77907D01*
X24043Y78917D01*
X24185Y80000D01*
X24043Y81083D01*
X23625Y82093D01*
X22960Y82960D01*
X22093Y83625D01*
X21083Y84043D01*
X20000Y84185D01*
D02*
G37*
G36*
X210000Y79724D02*
X209149Y79554D01*
X208428Y79072D01*
X207945Y78351D01*
X207776Y77500D01*
X207945Y76649D01*
X208428Y75928D01*
X209149Y75445D01*
X210000Y75276D01*
X210851Y75445D01*
X211573Y75928D01*
X212055Y76649D01*
X212224Y77500D01*
X212055Y78351D01*
X211573Y79072D01*
X210851Y79554D01*
X210000Y79724D01*
D02*
G37*
G36*
X256772Y81304D02*
X255787Y81175D01*
X254870Y80795D01*
X254082Y80190D01*
X253477Y79402D01*
X253097Y78485D01*
X252968Y77500D01*
X253097Y76515D01*
X253477Y75598D01*
X254082Y74810D01*
X254870Y74205D01*
X255787Y73825D01*
X256772Y73696D01*
X257756Y73825D01*
X258674Y74205D01*
X259462Y74810D01*
X260066Y75598D01*
X260446Y76515D01*
X260576Y77500D01*
X260446Y78485D01*
X260066Y79402D01*
X259462Y80190D01*
X258674Y80795D01*
X257756Y81175D01*
X256772Y81304D01*
D02*
G37*
G36*
X240500Y74624D02*
Y73000D01*
X242124D01*
X242055Y73351D01*
X241572Y74072D01*
X240851Y74555D01*
X240500Y74624D01*
D02*
G37*
G36*
X225000Y79724D02*
X224149Y79554D01*
X223428Y79072D01*
X222945Y78351D01*
X222776Y77500D01*
X222945Y76649D01*
X223428Y75928D01*
X224149Y75445D01*
X225000Y75276D01*
X225851Y75445D01*
X226572Y75928D01*
X227055Y76649D01*
X227224Y77500D01*
X227055Y78351D01*
X226572Y79072D01*
X225851Y79554D01*
X225000Y79724D01*
D02*
G37*
G36*
X145000Y82224D02*
X144149Y82055D01*
X143428Y81573D01*
X142946Y80851D01*
X142776Y80000D01*
X142946Y79149D01*
X143428Y78427D01*
X144149Y77946D01*
X145000Y77776D01*
X145851Y77946D01*
X146572Y78427D01*
X147055Y79149D01*
X147224Y80000D01*
X147055Y80851D01*
X146572Y81573D01*
X145851Y82055D01*
X145000Y82224D01*
D02*
G37*
G36*
X50000Y87224D02*
X49149Y87055D01*
X48428Y86572D01*
X47945Y85851D01*
X47776Y85000D01*
X47945Y84149D01*
X48428Y83428D01*
X49149Y82946D01*
X50000Y82776D01*
X50851Y82946D01*
X51573Y83428D01*
X52055Y84149D01*
X52224Y85000D01*
X52055Y85851D01*
X51573Y86572D01*
X50851Y87055D01*
X50000Y87224D01*
D02*
G37*
G36*
X174727Y82000D02*
X173103D01*
Y80376D01*
X173454Y80445D01*
X174176Y80927D01*
X174658Y81649D01*
X174727Y82000D01*
D02*
G37*
G36*
X75000Y87224D02*
X74149Y87055D01*
X73427Y86572D01*
X72945Y85851D01*
X72776Y85000D01*
X72945Y84149D01*
X73427Y83428D01*
X74149Y82946D01*
X75000Y82776D01*
X75851Y82946D01*
X76573Y83428D01*
X77055Y84149D01*
X77224Y85000D01*
X77055Y85851D01*
X76573Y86572D01*
X75851Y87055D01*
X75000Y87224D01*
D02*
G37*
G36*
X65000D02*
X64149Y87055D01*
X63428Y86572D01*
X62945Y85851D01*
X62776Y85000D01*
X62945Y84149D01*
X63428Y83428D01*
X64149Y82946D01*
X65000Y82776D01*
X65851Y82946D01*
X66572Y83428D01*
X67054Y84149D01*
X67224Y85000D01*
X67054Y85851D01*
X66572Y86572D01*
X65851Y87055D01*
X65000Y87224D01*
D02*
G37*
G36*
X172103Y82000D02*
X170479D01*
X170549Y81649D01*
X171031Y80927D01*
X171752Y80445D01*
X172103Y80376D01*
Y82000D01*
D02*
G37*
G36*
X150000Y82224D02*
X149149Y82055D01*
X148427Y81573D01*
X147945Y80851D01*
X147776Y80000D01*
X147945Y79149D01*
X148427Y78427D01*
X149149Y77946D01*
X150000Y77776D01*
X150851Y77946D01*
X151573Y78427D01*
X152055Y79149D01*
X152224Y80000D01*
X152055Y80851D01*
X151573Y81573D01*
X150851Y82055D01*
X150000Y82224D01*
D02*
G37*
G36*
X120000Y87224D02*
X119149Y87055D01*
X118428Y86572D01*
X117946Y85851D01*
X117776Y85000D01*
X117946Y84149D01*
X118428Y83428D01*
X119149Y82946D01*
X120000Y82776D01*
X120851Y82946D01*
X121572Y83428D01*
X122055Y84149D01*
X122224Y85000D01*
X122055Y85851D01*
X121572Y86572D01*
X120851Y87055D01*
X120000Y87224D01*
D02*
G37*
G36*
X266772Y86304D02*
X265787Y86175D01*
X264869Y85795D01*
X264082Y85190D01*
X263477Y84402D01*
X263097Y83485D01*
X262967Y82500D01*
X263097Y81515D01*
X263477Y80598D01*
X264082Y79810D01*
X264869Y79206D01*
X265787Y78825D01*
X266772Y78696D01*
X267756Y78825D01*
X268674Y79206D01*
X269462Y79810D01*
X270066Y80598D01*
X270446Y81515D01*
X270576Y82500D01*
X270446Y83485D01*
X270066Y84402D01*
X269462Y85190D01*
X268674Y85795D01*
X267756Y86175D01*
X266772Y86304D01*
D02*
G37*
G36*
X165000Y82224D02*
X164149Y82055D01*
X163427Y81573D01*
X162945Y80851D01*
X162776Y80000D01*
X162945Y79149D01*
X163427Y78427D01*
X164149Y77946D01*
X165000Y77776D01*
X165851Y77946D01*
X166572Y78427D01*
X167054Y79149D01*
X167224Y80000D01*
X167054Y80851D01*
X166572Y81573D01*
X165851Y82055D01*
X165000Y82224D01*
D02*
G37*
G36*
X266772Y76304D02*
X265787Y76175D01*
X264869Y75795D01*
X264082Y75190D01*
X263477Y74402D01*
X263097Y73485D01*
X262967Y72500D01*
X263097Y71515D01*
X263477Y70598D01*
X264082Y69810D01*
X264869Y69205D01*
X265787Y68825D01*
X266772Y68696D01*
X267756Y68825D01*
X268674Y69205D01*
X269462Y69810D01*
X270066Y70598D01*
X270446Y71515D01*
X270576Y72500D01*
X270446Y73485D01*
X270066Y74402D01*
X269462Y75190D01*
X268674Y75795D01*
X267756Y76175D01*
X266772Y76304D01*
D02*
G37*
G36*
X20000Y74185D02*
X18917Y74043D01*
X17907Y73625D01*
X17041Y72960D01*
X16375Y72093D01*
X15957Y71083D01*
X15815Y70000D01*
X15957Y68917D01*
X16375Y67907D01*
X17041Y67040D01*
X17907Y66375D01*
X18917Y65957D01*
X20000Y65815D01*
X21083Y65957D01*
X22093Y66375D01*
X22960Y67040D01*
X23625Y67907D01*
X24043Y68917D01*
X24185Y70000D01*
X24043Y71083D01*
X23625Y72093D01*
X22960Y72960D01*
X22093Y73625D01*
X21083Y74043D01*
X20000Y74185D01*
D02*
G37*
G36*
X159500Y72000D02*
X157876D01*
X157946Y71649D01*
X158428Y70928D01*
X159149Y70446D01*
X159500Y70376D01*
Y72000D01*
D02*
G37*
G36*
X192500Y74724D02*
X191649Y74555D01*
X190928Y74072D01*
X190445Y73351D01*
X190276Y72500D01*
X190445Y71649D01*
X190928Y70928D01*
X191649Y70446D01*
X192500Y70276D01*
X193351Y70446D01*
X194072Y70928D01*
X194554Y71649D01*
X194724Y72500D01*
X194554Y73351D01*
X194072Y74072D01*
X193351Y74555D01*
X192500Y74724D01*
D02*
G37*
G36*
X50500Y67124D02*
Y65500D01*
X52124D01*
X52055Y65851D01*
X51573Y66572D01*
X50851Y67054D01*
X50500Y67124D01*
D02*
G37*
G36*
X52124Y64500D02*
X50500D01*
Y62876D01*
X50851Y62945D01*
X51573Y63428D01*
X52055Y64149D01*
X52124Y64500D01*
D02*
G37*
G36*
X49500D02*
X47876D01*
X47945Y64149D01*
X48428Y63428D01*
X49149Y62945D01*
X49500Y62876D01*
Y64500D01*
D02*
G37*
G36*
Y67124D02*
X49149Y67054D01*
X48428Y66572D01*
X47945Y65851D01*
X47876Y65500D01*
X49500D01*
Y67124D01*
D02*
G37*
G36*
X256772Y71304D02*
X255787Y71175D01*
X254870Y70794D01*
X254082Y70190D01*
X253477Y69402D01*
X253097Y68485D01*
X252968Y67500D01*
X253097Y66515D01*
X253477Y65598D01*
X254082Y64810D01*
X254870Y64205D01*
X255787Y63825D01*
X256772Y63696D01*
X257756Y63825D01*
X258674Y64205D01*
X259462Y64810D01*
X260066Y65598D01*
X260446Y66515D01*
X260576Y67500D01*
X260446Y68485D01*
X260066Y69402D01*
X259462Y70190D01*
X258674Y70794D01*
X257756Y71175D01*
X256772Y71304D01*
D02*
G37*
G36*
X162124Y72000D02*
X160500D01*
Y70376D01*
X160851Y70446D01*
X161573Y70928D01*
X162055Y71649D01*
X162124Y72000D01*
D02*
G37*
G36*
X159500Y74624D02*
X159149Y74555D01*
X158428Y74072D01*
X157946Y73351D01*
X157876Y73000D01*
X159500D01*
Y74624D01*
D02*
G37*
G36*
X52124Y74500D02*
X50500D01*
Y72876D01*
X50851Y72945D01*
X51573Y73427D01*
X52055Y74149D01*
X52124Y74500D01*
D02*
G37*
G36*
X239500Y74624D02*
X239149Y74555D01*
X238427Y74072D01*
X237945Y73351D01*
X237876Y73000D01*
X239500D01*
Y74624D01*
D02*
G37*
G36*
X160500D02*
Y73000D01*
X162124D01*
X162055Y73351D01*
X161573Y74072D01*
X160851Y74555D01*
X160500Y74624D01*
D02*
G37*
G36*
X49500Y74500D02*
X47876D01*
X47945Y74149D01*
X48428Y73427D01*
X49149Y72945D01*
X49500Y72876D01*
Y74500D01*
D02*
G37*
G36*
X242124Y72000D02*
X240500D01*
Y70376D01*
X240851Y70446D01*
X241572Y70928D01*
X242055Y71649D01*
X242124Y72000D01*
D02*
G37*
G36*
X239500D02*
X237876D01*
X237945Y71649D01*
X238427Y70928D01*
X239149Y70446D01*
X239500Y70376D01*
Y72000D01*
D02*
G37*
G36*
X135000Y77224D02*
X134149Y77055D01*
X133428Y76573D01*
X132946Y75851D01*
X132776Y75000D01*
X132946Y74149D01*
X133428Y73427D01*
X134149Y72945D01*
X135000Y72776D01*
X135851Y72945D01*
X136573Y73427D01*
X137055Y74149D01*
X137224Y75000D01*
X137055Y75851D01*
X136573Y76573D01*
X135851Y77055D01*
X135000Y77224D01*
D02*
G37*
G36*
X110000D02*
X109149Y77055D01*
X108428Y76573D01*
X107946Y75851D01*
X107776Y75000D01*
X107946Y74149D01*
X108428Y73427D01*
X109149Y72945D01*
X110000Y72776D01*
X110851Y72945D01*
X111573Y73427D01*
X112055Y74149D01*
X112224Y75000D01*
X112055Y75851D01*
X111573Y76573D01*
X110851Y77055D01*
X110000Y77224D01*
D02*
G37*
G36*
X278514Y106613D02*
X278269Y106581D01*
X276877Y106004D01*
X275681Y105087D01*
X274763Y103891D01*
X274187Y102498D01*
X274154Y102254D01*
X278514D01*
Y106613D01*
D02*
G37*
G36*
X245000Y102224D02*
X244149Y102055D01*
X243427Y101573D01*
X242945Y100851D01*
X242776Y100000D01*
X242945Y99149D01*
X243427Y98427D01*
X244149Y97945D01*
X245000Y97776D01*
X245851Y97945D01*
X246572Y98427D01*
X247055Y99149D01*
X247224Y100000D01*
X247055Y100851D01*
X246572Y101573D01*
X245851Y102055D01*
X245000Y102224D01*
D02*
G37*
G36*
X259500Y104500D02*
X257876D01*
X257945Y104149D01*
X258428Y103428D01*
X259149Y102945D01*
X259500Y102876D01*
Y104500D01*
D02*
G37*
G36*
X281014Y106613D02*
Y102254D01*
X285373D01*
X285341Y102498D01*
X284764Y103891D01*
X283846Y105087D01*
X282651Y106004D01*
X281258Y106581D01*
X281014Y106613D01*
D02*
G37*
G36*
X210000Y102224D02*
X209149Y102055D01*
X208428Y101573D01*
X207945Y100851D01*
X207776Y100000D01*
X207945Y99149D01*
X208428Y98427D01*
X209149Y97945D01*
X210000Y97776D01*
X210851Y97945D01*
X211573Y98427D01*
X212055Y99149D01*
X212224Y100000D01*
X212055Y100851D01*
X211573Y101573D01*
X210851Y102055D01*
X210000Y102224D01*
D02*
G37*
G36*
X240500Y97124D02*
Y95500D01*
X242124D01*
X242055Y95851D01*
X241572Y96573D01*
X240851Y97054D01*
X240500Y97124D01*
D02*
G37*
G36*
X239500D02*
X239149Y97054D01*
X238427Y96573D01*
X237945Y95851D01*
X237876Y95500D01*
X239500D01*
Y97124D01*
D02*
G37*
G36*
X50000Y104185D02*
X48917Y104043D01*
X47907Y103625D01*
X47041Y102960D01*
X46375Y102093D01*
X45957Y101083D01*
X45815Y100000D01*
X45957Y98917D01*
X46375Y97907D01*
X47041Y97040D01*
X47907Y96375D01*
X48917Y95957D01*
X50000Y95815D01*
X51083Y95957D01*
X52093Y96375D01*
X52960Y97040D01*
X53625Y97907D01*
X54043Y98917D01*
X54185Y100000D01*
X54043Y101083D01*
X53625Y102093D01*
X52960Y102960D01*
X52093Y103625D01*
X51083Y104043D01*
X50000Y104185D01*
D02*
G37*
G36*
X20000D02*
X18917Y104043D01*
X17907Y103625D01*
X17041Y102960D01*
X16375Y102093D01*
X15957Y101083D01*
X15815Y100000D01*
X15957Y98917D01*
X16375Y97907D01*
X17041Y97040D01*
X17907Y96375D01*
X18917Y95957D01*
X20000Y95815D01*
X21083Y95957D01*
X22093Y96375D01*
X22960Y97040D01*
X23625Y97907D01*
X24043Y98917D01*
X24185Y100000D01*
X24043Y101083D01*
X23625Y102093D01*
X22960Y102960D01*
X22093Y103625D01*
X21083Y104043D01*
X20000Y104185D01*
D02*
G37*
G36*
X262124Y104500D02*
X260500D01*
Y102876D01*
X260851Y102945D01*
X261573Y103428D01*
X262055Y104149D01*
X262124Y104500D01*
D02*
G37*
G36*
X260500Y107124D02*
Y105500D01*
X262124D01*
X262055Y105851D01*
X261573Y106572D01*
X260851Y107054D01*
X260500Y107124D01*
D02*
G37*
G36*
X259500D02*
X259149Y107054D01*
X258428Y106572D01*
X257945Y105851D01*
X257876Y105500D01*
X259500D01*
Y107124D01*
D02*
G37*
G36*
X129500Y108124D02*
X129149Y108054D01*
X128428Y107572D01*
X127945Y106851D01*
X127876Y106500D01*
X129500D01*
Y108124D01*
D02*
G37*
G36*
X20000Y114185D02*
X18917Y114043D01*
X17907Y113625D01*
X17041Y112960D01*
X16375Y112093D01*
X15957Y111083D01*
X15815Y110000D01*
X15957Y108917D01*
X16375Y107907D01*
X17041Y107041D01*
X17907Y106375D01*
X18917Y105957D01*
X20000Y105815D01*
X21083Y105957D01*
X22093Y106375D01*
X22960Y107041D01*
X23625Y107907D01*
X24043Y108917D01*
X24185Y110000D01*
X24043Y111083D01*
X23625Y112093D01*
X22960Y112960D01*
X22093Y113625D01*
X21083Y114043D01*
X20000Y114185D01*
D02*
G37*
G36*
X132124Y105500D02*
X130500D01*
Y103876D01*
X130851Y103946D01*
X131572Y104428D01*
X132054Y105149D01*
X132124Y105500D01*
D02*
G37*
G36*
X135000Y108224D02*
X134149Y108054D01*
X133428Y107572D01*
X132946Y106851D01*
X132776Y106000D01*
X132946Y105149D01*
X133428Y104428D01*
X134149Y103946D01*
X135000Y103776D01*
X135851Y103946D01*
X136573Y104428D01*
X137055Y105149D01*
X137224Y106000D01*
X137055Y106851D01*
X136573Y107572D01*
X135851Y108054D01*
X135000Y108224D01*
D02*
G37*
G36*
X125000D02*
X124149Y108054D01*
X123427Y107572D01*
X122945Y106851D01*
X122776Y106000D01*
X122945Y105149D01*
X123427Y104428D01*
X124149Y103946D01*
X125000Y103776D01*
X125851Y103946D01*
X126573Y104428D01*
X127055Y105149D01*
X127224Y106000D01*
X127055Y106851D01*
X126573Y107572D01*
X125851Y108054D01*
X125000Y108224D01*
D02*
G37*
G36*
X129500Y105500D02*
X127876D01*
X127945Y105149D01*
X128428Y104428D01*
X129149Y103946D01*
X129500Y103876D01*
Y105500D01*
D02*
G37*
G36*
X150000Y108224D02*
X149149Y108054D01*
X148427Y107572D01*
X147945Y106851D01*
X147776Y106000D01*
X147945Y105149D01*
X148427Y104428D01*
X149149Y103946D01*
X150000Y103776D01*
X150851Y103946D01*
X151573Y104428D01*
X152055Y105149D01*
X152224Y106000D01*
X152055Y106851D01*
X151573Y107572D01*
X150851Y108054D01*
X150000Y108224D01*
D02*
G37*
G36*
X20000Y94185D02*
X18917Y94043D01*
X17907Y93625D01*
X17041Y92959D01*
X16375Y92093D01*
X15957Y91083D01*
X15815Y90000D01*
X15957Y88917D01*
X16375Y87907D01*
X17041Y87041D01*
X17907Y86375D01*
X18917Y85957D01*
X20000Y85815D01*
X21083Y85957D01*
X22093Y86375D01*
X22960Y87041D01*
X23625Y87907D01*
X24043Y88917D01*
X24185Y90000D01*
X24043Y91083D01*
X23625Y92093D01*
X22960Y92959D01*
X22093Y93625D01*
X21083Y94043D01*
X20000Y94185D01*
D02*
G37*
G36*
X197500Y89724D02*
X196649Y89555D01*
X195928Y89073D01*
X195446Y88351D01*
X195276Y87500D01*
X195446Y86649D01*
X195928Y85927D01*
X196649Y85445D01*
X197500Y85276D01*
X198351Y85445D01*
X199073Y85927D01*
X199555Y86649D01*
X199724Y87500D01*
X199555Y88351D01*
X199073Y89073D01*
X198351Y89555D01*
X197500Y89724D01*
D02*
G37*
G36*
X172500Y94724D02*
X171649Y94555D01*
X170928Y94073D01*
X170446Y93351D01*
X170276Y92500D01*
X170446Y91649D01*
X170928Y90927D01*
X171649Y90446D01*
X172500Y90276D01*
X173351Y90446D01*
X174073Y90927D01*
X174555Y91649D01*
X174724Y92500D01*
X174555Y93351D01*
X174073Y94073D01*
X173351Y94555D01*
X172500Y94724D01*
D02*
G37*
G36*
X125000Y92224D02*
X124149Y92054D01*
X123427Y91572D01*
X122945Y90851D01*
X122776Y90000D01*
X122945Y89149D01*
X123427Y88428D01*
X124149Y87945D01*
X125000Y87776D01*
X125851Y87945D01*
X126573Y88428D01*
X127055Y89149D01*
X127224Y90000D01*
X127055Y90851D01*
X126573Y91572D01*
X125851Y92054D01*
X125000Y92224D01*
D02*
G37*
G36*
X291772Y99933D02*
X290321Y99791D01*
X288927Y99368D01*
X287642Y98681D01*
X286515Y97756D01*
X285591Y96630D01*
X284904Y95345D01*
X284481Y93950D01*
X284338Y92500D01*
X284481Y91050D01*
X284904Y89655D01*
X285591Y88370D01*
X286515Y87244D01*
X287642Y86319D01*
X288927Y85632D01*
X290321Y85209D01*
X291772Y85067D01*
X293222Y85209D01*
X294616Y85632D01*
X295901Y86319D01*
X297028Y87244D01*
X297952Y88370D01*
X298639Y89655D01*
X299062Y91050D01*
X299205Y92500D01*
X299062Y93950D01*
X298639Y95345D01*
X297952Y96630D01*
X297028Y97756D01*
X295901Y98681D01*
X294616Y99368D01*
X293222Y99791D01*
X291772Y99933D01*
D02*
G37*
G36*
X172103Y84624D02*
X171752Y84554D01*
X171031Y84073D01*
X170549Y83351D01*
X170479Y83000D01*
X172103D01*
Y84624D01*
D02*
G37*
G36*
X145000Y87224D02*
X144149Y87055D01*
X143428Y86572D01*
X142946Y85851D01*
X142776Y85000D01*
X142946Y84149D01*
X143428Y83428D01*
X144149Y82946D01*
X145000Y82776D01*
X145851Y82946D01*
X146572Y83428D01*
X147055Y84149D01*
X147224Y85000D01*
X147055Y85851D01*
X146572Y86572D01*
X145851Y87055D01*
X145000Y87224D01*
D02*
G37*
G36*
X256772Y91304D02*
X255787Y91175D01*
X254870Y90794D01*
X254082Y90190D01*
X253477Y89402D01*
X253097Y88485D01*
X252968Y87500D01*
X253097Y86515D01*
X253477Y85598D01*
X254082Y84810D01*
X254870Y84206D01*
X255787Y83825D01*
X256772Y83696D01*
X257756Y83825D01*
X258674Y84206D01*
X259462Y84810D01*
X260066Y85598D01*
X260446Y86515D01*
X260576Y87500D01*
X260446Y88485D01*
X260066Y89402D01*
X259462Y90190D01*
X258674Y90794D01*
X257756Y91175D01*
X256772Y91304D01*
D02*
G37*
G36*
X173103Y84624D02*
Y83000D01*
X174727D01*
X174658Y83351D01*
X174176Y84073D01*
X173454Y84554D01*
X173103Y84624D01*
D02*
G37*
G36*
X75000Y97224D02*
X74149Y97054D01*
X73427Y96573D01*
X72945Y95851D01*
X72776Y95000D01*
X72945Y94149D01*
X73427Y93427D01*
X74149Y92945D01*
X75000Y92776D01*
X75851Y92945D01*
X76573Y93427D01*
X77055Y94149D01*
X77224Y95000D01*
X77055Y95851D01*
X76573Y96573D01*
X75851Y97054D01*
X75000Y97224D01*
D02*
G37*
G36*
X285373Y99754D02*
X281014D01*
Y95395D01*
X281258Y95427D01*
X282651Y96004D01*
X283846Y96921D01*
X284764Y98117D01*
X285341Y99510D01*
X285373Y99754D01*
D02*
G37*
G36*
X278514D02*
X274154D01*
X274187Y99510D01*
X274763Y98117D01*
X275681Y96921D01*
X276877Y96004D01*
X278269Y95427D01*
X278514Y95395D01*
Y99754D01*
D02*
G37*
G36*
X110500Y97124D02*
Y95500D01*
X112124D01*
X112055Y95851D01*
X111573Y96573D01*
X110851Y97054D01*
X110500Y97124D01*
D02*
G37*
G36*
X109500D02*
X109149Y97054D01*
X108428Y96573D01*
X107946Y95851D01*
X107876Y95500D01*
X109500D01*
Y97124D01*
D02*
G37*
G36*
X242124Y94500D02*
X240500D01*
Y92876D01*
X240851Y92945D01*
X241572Y93427D01*
X242055Y94149D01*
X242124Y94500D01*
D02*
G37*
G36*
X109500D02*
X107876D01*
X107946Y94149D01*
X108428Y93427D01*
X109149Y92945D01*
X109500Y92876D01*
Y94500D01*
D02*
G37*
G36*
X100000Y97224D02*
X99149Y97054D01*
X98427Y96573D01*
X97945Y95851D01*
X97776Y95000D01*
X97945Y94149D01*
X98427Y93427D01*
X99149Y92945D01*
X100000Y92776D01*
X100851Y92945D01*
X101573Y93427D01*
X102055Y94149D01*
X102224Y95000D01*
X102055Y95851D01*
X101573Y96573D01*
X100851Y97054D01*
X100000Y97224D01*
D02*
G37*
G36*
X239500Y94500D02*
X237876D01*
X237945Y94149D01*
X238427Y93427D01*
X239149Y92945D01*
X239500Y92876D01*
Y94500D01*
D02*
G37*
G36*
X112124D02*
X110500D01*
Y92876D01*
X110851Y92945D01*
X111573Y93427D01*
X112055Y94149D01*
X112124Y94500D01*
D02*
G37*
G36*
X140000Y34185D02*
X138917Y34043D01*
X137907Y33625D01*
X137040Y32959D01*
X136375Y32093D01*
X135957Y31083D01*
X135815Y30000D01*
X135957Y28917D01*
X136375Y27907D01*
X137040Y27040D01*
X137907Y26375D01*
X138917Y25957D01*
X140000Y25815D01*
X141083Y25957D01*
X142093Y26375D01*
X142959Y27040D01*
X143625Y27907D01*
X144043Y28917D01*
X144185Y30000D01*
X144043Y31083D01*
X143625Y32093D01*
X142959Y32959D01*
X142093Y33625D01*
X141083Y34043D01*
X140000Y34185D01*
D02*
G37*
G36*
X130000D02*
X128917Y34043D01*
X127907Y33625D01*
X127041Y32959D01*
X126375Y32093D01*
X125957Y31083D01*
X125815Y30000D01*
X125957Y28917D01*
X126375Y27907D01*
X127041Y27040D01*
X127907Y26375D01*
X128917Y25957D01*
X130000Y25815D01*
X131083Y25957D01*
X132093Y26375D01*
X132959Y27040D01*
X133625Y27907D01*
X134043Y28917D01*
X134185Y30000D01*
X134043Y31083D01*
X133625Y32093D01*
X132959Y32959D01*
X132093Y33625D01*
X131083Y34043D01*
X130000Y34185D01*
D02*
G37*
G36*
X160000D02*
X158917Y34043D01*
X157907Y33625D01*
X157041Y32959D01*
X156375Y32093D01*
X155957Y31083D01*
X155815Y30000D01*
X155957Y28917D01*
X156375Y27907D01*
X157041Y27040D01*
X157907Y26375D01*
X158917Y25957D01*
X160000Y25815D01*
X161083Y25957D01*
X162093Y26375D01*
X162960Y27040D01*
X163625Y27907D01*
X164043Y28917D01*
X164185Y30000D01*
X164043Y31083D01*
X163625Y32093D01*
X162960Y32959D01*
X162093Y33625D01*
X161083Y34043D01*
X160000Y34185D01*
D02*
G37*
G36*
X150000D02*
X148917Y34043D01*
X147907Y33625D01*
X147040Y32959D01*
X146375Y32093D01*
X145957Y31083D01*
X145815Y30000D01*
X145957Y28917D01*
X146375Y27907D01*
X147040Y27040D01*
X147907Y26375D01*
X148917Y25957D01*
X150000Y25815D01*
X151083Y25957D01*
X152093Y26375D01*
X152960Y27040D01*
X153625Y27907D01*
X154043Y28917D01*
X154185Y30000D01*
X154043Y31083D01*
X153625Y32093D01*
X152960Y32959D01*
X152093Y33625D01*
X151083Y34043D01*
X150000Y34185D01*
D02*
G37*
G36*
X120000D02*
X118917Y34043D01*
X117907Y33625D01*
X117041Y32959D01*
X116375Y32093D01*
X115957Y31083D01*
X115815Y30000D01*
X115957Y28917D01*
X116375Y27907D01*
X117041Y27040D01*
X117907Y26375D01*
X118917Y25957D01*
X120000Y25815D01*
X121083Y25957D01*
X122093Y26375D01*
X122959Y27040D01*
X123625Y27907D01*
X124043Y28917D01*
X124185Y30000D01*
X124043Y31083D01*
X123625Y32093D01*
X122959Y32959D01*
X122093Y33625D01*
X121083Y34043D01*
X120000Y34185D01*
D02*
G37*
G36*
X211000Y24054D02*
Y21000D01*
X214054D01*
X214043Y21083D01*
X213625Y22093D01*
X212960Y22960D01*
X212093Y23625D01*
X211083Y24043D01*
X211000Y24054D01*
D02*
G37*
G36*
X191000D02*
Y21000D01*
X194054D01*
X194043Y21083D01*
X193625Y22093D01*
X192959Y22960D01*
X192093Y23625D01*
X191083Y24043D01*
X191000Y24054D01*
D02*
G37*
G36*
X110000Y34185D02*
X108917Y34043D01*
X107907Y33625D01*
X107041Y32959D01*
X106375Y32093D01*
X105957Y31083D01*
X105815Y30000D01*
X105957Y28917D01*
X106375Y27907D01*
X107041Y27040D01*
X107907Y26375D01*
X108917Y25957D01*
X110000Y25815D01*
X111083Y25957D01*
X112093Y26375D01*
X112960Y27040D01*
X113625Y27907D01*
X114043Y28917D01*
X114185Y30000D01*
X114043Y31083D01*
X113625Y32093D01*
X112960Y32959D01*
X112093Y33625D01*
X111083Y34043D01*
X110000Y34185D01*
D02*
G37*
G36*
X100000D02*
X98917Y34043D01*
X97907Y33625D01*
X97040Y32959D01*
X96375Y32093D01*
X95957Y31083D01*
X95815Y30000D01*
X95957Y28917D01*
X96375Y27907D01*
X97040Y27040D01*
X97907Y26375D01*
X98917Y25957D01*
X100000Y25815D01*
X101083Y25957D01*
X102093Y26375D01*
X102960Y27040D01*
X103625Y27907D01*
X104043Y28917D01*
X104185Y30000D01*
X104043Y31083D01*
X103625Y32093D01*
X102960Y32959D01*
X102093Y33625D01*
X101083Y34043D01*
X100000Y34185D01*
D02*
G37*
G36*
X170000D02*
X168917Y34043D01*
X167907Y33625D01*
X167041Y32959D01*
X166375Y32093D01*
X165957Y31083D01*
X165815Y30000D01*
X165957Y28917D01*
X166375Y27907D01*
X167041Y27040D01*
X167907Y26375D01*
X168917Y25957D01*
X170000Y25815D01*
X171083Y25957D01*
X172093Y26375D01*
X172959Y27040D01*
X173625Y27907D01*
X174043Y28917D01*
X174185Y30000D01*
X174043Y31083D01*
X173625Y32093D01*
X172959Y32959D01*
X172093Y33625D01*
X171083Y34043D01*
X170000Y34185D01*
D02*
G37*
G36*
X209000Y34054D02*
X208917Y34043D01*
X207907Y33625D01*
X207041Y32959D01*
X206375Y32093D01*
X205957Y31083D01*
X205946Y31000D01*
X209000D01*
Y34054D01*
D02*
G37*
G36*
X189000D02*
X188917Y34043D01*
X187907Y33625D01*
X187040Y32959D01*
X186375Y32093D01*
X185957Y31083D01*
X185946Y31000D01*
X189000D01*
Y34054D01*
D02*
G37*
G36*
X211000D02*
Y31000D01*
X214054D01*
X214043Y31083D01*
X213625Y32093D01*
X212960Y32959D01*
X212093Y33625D01*
X211083Y34043D01*
X211000Y34054D01*
D02*
G37*
G36*
X191000D02*
Y31000D01*
X194054D01*
X194043Y31083D01*
X193625Y32093D01*
X192959Y32959D01*
X192093Y33625D01*
X191083Y34043D01*
X191000Y34054D01*
D02*
G37*
G36*
X214054Y29000D02*
X211000D01*
Y25946D01*
X211083Y25957D01*
X212093Y26375D01*
X212960Y27040D01*
X213625Y27907D01*
X214043Y28917D01*
X214054Y29000D01*
D02*
G37*
G36*
X209000D02*
X205946D01*
X205957Y28917D01*
X206375Y27907D01*
X207041Y27040D01*
X207907Y26375D01*
X208917Y25957D01*
X209000Y25946D01*
Y29000D01*
D02*
G37*
G36*
X180000Y34185D02*
X178917Y34043D01*
X177907Y33625D01*
X177041Y32959D01*
X176375Y32093D01*
X175957Y31083D01*
X175815Y30000D01*
X175957Y28917D01*
X176375Y27907D01*
X177041Y27040D01*
X177907Y26375D01*
X178917Y25957D01*
X180000Y25815D01*
X181083Y25957D01*
X182093Y26375D01*
X182959Y27040D01*
X183625Y27907D01*
X184043Y28917D01*
X184185Y30000D01*
X184043Y31083D01*
X183625Y32093D01*
X182959Y32959D01*
X182093Y33625D01*
X181083Y34043D01*
X180000Y34185D01*
D02*
G37*
G36*
X194054Y29000D02*
X191000D01*
Y25946D01*
X191083Y25957D01*
X192093Y26375D01*
X192959Y27040D01*
X193625Y27907D01*
X194043Y28917D01*
X194054Y29000D01*
D02*
G37*
G36*
X189000D02*
X185946D01*
X185957Y28917D01*
X186375Y27907D01*
X187040Y27040D01*
X187907Y26375D01*
X188917Y25957D01*
X189000Y25946D01*
Y29000D01*
D02*
G37*
G36*
X170000Y24185D02*
X168917Y24043D01*
X167907Y23625D01*
X167041Y22960D01*
X166375Y22093D01*
X165957Y21083D01*
X165815Y20000D01*
X165957Y18917D01*
X166375Y17907D01*
X167041Y17041D01*
X167907Y16375D01*
X168917Y15957D01*
X170000Y15815D01*
X171083Y15957D01*
X172093Y16375D01*
X172959Y17041D01*
X173625Y17907D01*
X174043Y18917D01*
X174185Y20000D01*
X174043Y21083D01*
X173625Y22093D01*
X172959Y22960D01*
X172093Y23625D01*
X171083Y24043D01*
X170000Y24185D01*
D02*
G37*
G36*
X160000D02*
X158917Y24043D01*
X157907Y23625D01*
X157041Y22960D01*
X156375Y22093D01*
X155957Y21083D01*
X155815Y20000D01*
X155957Y18917D01*
X156375Y17907D01*
X157041Y17041D01*
X157907Y16375D01*
X158917Y15957D01*
X160000Y15815D01*
X161083Y15957D01*
X162093Y16375D01*
X162960Y17041D01*
X163625Y17907D01*
X164043Y18917D01*
X164185Y20000D01*
X164043Y21083D01*
X163625Y22093D01*
X162960Y22960D01*
X162093Y23625D01*
X161083Y24043D01*
X160000Y24185D01*
D02*
G37*
G36*
X104150Y24150D02*
X95850D01*
Y15850D01*
X104150D01*
Y24150D01*
D02*
G37*
G36*
X180000Y24185D02*
X178917Y24043D01*
X177907Y23625D01*
X177041Y22960D01*
X176375Y22093D01*
X175957Y21083D01*
X175815Y20000D01*
X175957Y18917D01*
X176375Y17907D01*
X177041Y17041D01*
X177907Y16375D01*
X178917Y15957D01*
X180000Y15815D01*
X181083Y15957D01*
X182093Y16375D01*
X182959Y17041D01*
X183625Y17907D01*
X184043Y18917D01*
X184185Y20000D01*
X184043Y21083D01*
X183625Y22093D01*
X182959Y22960D01*
X182093Y23625D01*
X181083Y24043D01*
X180000Y24185D01*
D02*
G37*
G36*
X150000D02*
X148917Y24043D01*
X147907Y23625D01*
X147040Y22960D01*
X146375Y22093D01*
X145957Y21083D01*
X145815Y20000D01*
X145957Y18917D01*
X146375Y17907D01*
X147040Y17041D01*
X147907Y16375D01*
X148917Y15957D01*
X150000Y15815D01*
X151083Y15957D01*
X152093Y16375D01*
X152960Y17041D01*
X153625Y17907D01*
X154043Y18917D01*
X154185Y20000D01*
X154043Y21083D01*
X153625Y22093D01*
X152960Y22960D01*
X152093Y23625D01*
X151083Y24043D01*
X150000Y24185D01*
D02*
G37*
G36*
X120000D02*
X118917Y24043D01*
X117907Y23625D01*
X117041Y22960D01*
X116375Y22093D01*
X115957Y21083D01*
X115815Y20000D01*
X115957Y18917D01*
X116375Y17907D01*
X117041Y17041D01*
X117907Y16375D01*
X118917Y15957D01*
X120000Y15815D01*
X121083Y15957D01*
X122093Y16375D01*
X122959Y17041D01*
X123625Y17907D01*
X124043Y18917D01*
X124185Y20000D01*
X124043Y21083D01*
X123625Y22093D01*
X122959Y22960D01*
X122093Y23625D01*
X121083Y24043D01*
X120000Y24185D01*
D02*
G37*
G36*
X110000D02*
X108917Y24043D01*
X107907Y23625D01*
X107041Y22960D01*
X106375Y22093D01*
X105957Y21083D01*
X105815Y20000D01*
X105957Y18917D01*
X106375Y17907D01*
X107041Y17041D01*
X107907Y16375D01*
X108917Y15957D01*
X110000Y15815D01*
X111083Y15957D01*
X112093Y16375D01*
X112960Y17041D01*
X113625Y17907D01*
X114043Y18917D01*
X114185Y20000D01*
X114043Y21083D01*
X113625Y22093D01*
X112960Y22960D01*
X112093Y23625D01*
X111083Y24043D01*
X110000Y24185D01*
D02*
G37*
G36*
X140000D02*
X138917Y24043D01*
X137907Y23625D01*
X137040Y22960D01*
X136375Y22093D01*
X135957Y21083D01*
X135815Y20000D01*
X135957Y18917D01*
X136375Y17907D01*
X137040Y17041D01*
X137907Y16375D01*
X138917Y15957D01*
X140000Y15815D01*
X141083Y15957D01*
X142093Y16375D01*
X142959Y17041D01*
X143625Y17907D01*
X144043Y18917D01*
X144185Y20000D01*
X144043Y21083D01*
X143625Y22093D01*
X142959Y22960D01*
X142093Y23625D01*
X141083Y24043D01*
X140000Y24185D01*
D02*
G37*
G36*
X130000D02*
X128917Y24043D01*
X127907Y23625D01*
X127041Y22960D01*
X126375Y22093D01*
X125957Y21083D01*
X125815Y20000D01*
X125957Y18917D01*
X126375Y17907D01*
X127041Y17041D01*
X127907Y16375D01*
X128917Y15957D01*
X130000Y15815D01*
X131083Y15957D01*
X132093Y16375D01*
X132959Y17041D01*
X133625Y17907D01*
X134043Y18917D01*
X134185Y20000D01*
X134043Y21083D01*
X133625Y22093D01*
X132959Y22960D01*
X132093Y23625D01*
X131083Y24043D01*
X130000Y24185D01*
D02*
G37*
G36*
X209000Y19000D02*
X205946D01*
X205957Y18917D01*
X206375Y17907D01*
X207041Y17041D01*
X207907Y16375D01*
X208917Y15957D01*
X209000Y15946D01*
Y19000D01*
D02*
G37*
G36*
X65500Y22124D02*
Y20500D01*
X67124D01*
X67054Y20851D01*
X66572Y21573D01*
X65851Y22055D01*
X65500Y22124D01*
D02*
G37*
G36*
X64500D02*
X64149Y22055D01*
X63428Y21573D01*
X62945Y20851D01*
X62876Y20500D01*
X64500D01*
Y22124D01*
D02*
G37*
G36*
X209000Y24054D02*
X208917Y24043D01*
X207907Y23625D01*
X207041Y22960D01*
X206375Y22093D01*
X205957Y21083D01*
X205946Y21000D01*
X209000D01*
Y24054D01*
D02*
G37*
G36*
X189000D02*
X188917Y24043D01*
X187907Y23625D01*
X187040Y22960D01*
X186375Y22093D01*
X185957Y21083D01*
X185946Y21000D01*
X189000D01*
Y24054D01*
D02*
G37*
G36*
X67124Y19500D02*
X65500D01*
Y17876D01*
X65851Y17945D01*
X66572Y18428D01*
X67054Y19149D01*
X67124Y19500D01*
D02*
G37*
G36*
X194054Y19000D02*
X191000D01*
Y15946D01*
X191083Y15957D01*
X192093Y16375D01*
X192959Y17041D01*
X193625Y17907D01*
X194043Y18917D01*
X194054Y19000D01*
D02*
G37*
G36*
X189000D02*
X185946D01*
X185957Y18917D01*
X186375Y17907D01*
X187040Y17041D01*
X187907Y16375D01*
X188917Y15957D01*
X189000Y15946D01*
Y19000D01*
D02*
G37*
G36*
X64500Y19500D02*
X62876D01*
X62945Y19149D01*
X63428Y18428D01*
X64149Y17945D01*
X64500Y17876D01*
Y19500D01*
D02*
G37*
G36*
X214054Y19000D02*
X211000D01*
Y15946D01*
X211083Y15957D01*
X212093Y16375D01*
X212960Y17041D01*
X213625Y17907D01*
X214043Y18917D01*
X214054Y19000D01*
D02*
G37*
G36*
X165500Y57124D02*
Y55500D01*
X167124D01*
X167054Y55851D01*
X166572Y56573D01*
X165851Y57055D01*
X165500Y57124D01*
D02*
G37*
G36*
X164500D02*
X164149Y57055D01*
X163427Y56573D01*
X162945Y55851D01*
X162876Y55500D01*
X164500D01*
Y57124D01*
D02*
G37*
G36*
X210000Y62224D02*
X209149Y62055D01*
X208428Y61572D01*
X207945Y60851D01*
X207776Y60000D01*
X207945Y59149D01*
X208428Y58428D01*
X209149Y57946D01*
X210000Y57776D01*
X210851Y57946D01*
X211573Y58428D01*
X212055Y59149D01*
X212224Y60000D01*
X212055Y60851D01*
X211573Y61572D01*
X210851Y62055D01*
X210000Y62224D01*
D02*
G37*
G36*
X20000Y64185D02*
X18917Y64043D01*
X17907Y63625D01*
X17041Y62959D01*
X16375Y62093D01*
X15957Y61083D01*
X15815Y60000D01*
X15957Y58917D01*
X16375Y57907D01*
X17041Y57041D01*
X17907Y56375D01*
X18917Y55957D01*
X20000Y55815D01*
X21083Y55957D01*
X22093Y56375D01*
X22960Y57041D01*
X23625Y57907D01*
X24043Y58917D01*
X24185Y60000D01*
X24043Y61083D01*
X23625Y62093D01*
X22960Y62959D01*
X22093Y63625D01*
X21083Y64043D01*
X20000Y64185D01*
D02*
G37*
G36*
X50500Y57124D02*
Y55500D01*
X52124D01*
X52055Y55851D01*
X51573Y56573D01*
X50851Y57055D01*
X50500Y57124D01*
D02*
G37*
G36*
X167124Y54500D02*
X165500D01*
Y52876D01*
X165851Y52946D01*
X166572Y53427D01*
X167054Y54149D01*
X167124Y54500D01*
D02*
G37*
G36*
X164500D02*
X162876D01*
X162945Y54149D01*
X163427Y53427D01*
X164149Y52946D01*
X164500Y52876D01*
Y54500D01*
D02*
G37*
G36*
X49500Y57124D02*
X49149Y57055D01*
X48428Y56573D01*
X47945Y55851D01*
X47876Y55500D01*
X49500D01*
Y57124D01*
D02*
G37*
G36*
X256772Y61304D02*
X255787Y61175D01*
X254870Y60795D01*
X254082Y60190D01*
X253477Y59402D01*
X253097Y58485D01*
X252968Y57500D01*
X253097Y56515D01*
X253477Y55598D01*
X254082Y54810D01*
X254870Y54206D01*
X255787Y53825D01*
X256772Y53696D01*
X257756Y53825D01*
X258674Y54206D01*
X259462Y54810D01*
X260066Y55598D01*
X260446Y56515D01*
X260576Y57500D01*
X260446Y58485D01*
X260066Y59402D01*
X259462Y60190D01*
X258674Y60795D01*
X257756Y61175D01*
X256772Y61304D01*
D02*
G37*
G36*
X124500Y59500D02*
X122876D01*
X122945Y59149D01*
X123427Y58428D01*
X124149Y57946D01*
X124500Y57876D01*
Y59500D01*
D02*
G37*
G36*
X239500Y62124D02*
X239149Y62055D01*
X238427Y61572D01*
X237945Y60851D01*
X237876Y60500D01*
X239500D01*
Y62124D01*
D02*
G37*
G36*
X125500D02*
Y60500D01*
X127124D01*
X127055Y60851D01*
X126573Y61572D01*
X125851Y62055D01*
X125500Y62124D01*
D02*
G37*
G36*
X125000Y67224D02*
X124149Y67054D01*
X123427Y66572D01*
X122945Y65851D01*
X122776Y65000D01*
X122945Y64149D01*
X123427Y63428D01*
X124149Y62945D01*
X125000Y62776D01*
X125851Y62945D01*
X126573Y63428D01*
X127055Y64149D01*
X127224Y65000D01*
X127055Y65851D01*
X126573Y66572D01*
X125851Y67054D01*
X125000Y67224D01*
D02*
G37*
G36*
X240500Y62124D02*
Y60500D01*
X242124D01*
X242055Y60851D01*
X241572Y61572D01*
X240851Y62055D01*
X240500Y62124D01*
D02*
G37*
G36*
X124500D02*
X124149Y62055D01*
X123427Y61572D01*
X122945Y60851D01*
X122876Y60500D01*
X124500D01*
Y62124D01*
D02*
G37*
G36*
X239500Y59500D02*
X237876D01*
X237945Y59149D01*
X238427Y58428D01*
X239149Y57946D01*
X239500Y57876D01*
Y59500D01*
D02*
G37*
G36*
X127124D02*
X125500D01*
Y57876D01*
X125851Y57946D01*
X126573Y58428D01*
X127055Y59149D01*
X127124Y59500D01*
D02*
G37*
G36*
X266772Y66304D02*
X265787Y66175D01*
X264869Y65794D01*
X264082Y65190D01*
X263477Y64402D01*
X263097Y63485D01*
X262967Y62500D01*
X263097Y61515D01*
X263477Y60598D01*
X264082Y59810D01*
X264869Y59206D01*
X265787Y58825D01*
X266772Y58696D01*
X267756Y58825D01*
X268674Y59206D01*
X269462Y59810D01*
X270066Y60598D01*
X270446Y61515D01*
X270576Y62500D01*
X270446Y63485D01*
X270066Y64402D01*
X269462Y65190D01*
X268674Y65794D01*
X267756Y66175D01*
X266772Y66304D01*
D02*
G37*
G36*
X242124Y59500D02*
X240500D01*
Y57876D01*
X240851Y57946D01*
X241572Y58428D01*
X242055Y59149D01*
X242124Y59500D01*
D02*
G37*
G36*
X90000Y47224D02*
X89149Y47055D01*
X88428Y46573D01*
X87945Y45851D01*
X87776Y45000D01*
X87945Y44149D01*
X88428Y43428D01*
X89149Y42945D01*
X90000Y42776D01*
X90851Y42945D01*
X91572Y43428D01*
X92054Y44149D01*
X92224Y45000D01*
X92054Y45851D01*
X91572Y46573D01*
X90851Y47055D01*
X90000Y47224D01*
D02*
G37*
G36*
X281014Y44605D02*
Y40246D01*
X285373D01*
X285341Y40490D01*
X284764Y41883D01*
X283846Y43079D01*
X282651Y43996D01*
X281258Y44573D01*
X281014Y44605D01*
D02*
G37*
G36*
X90000Y52224D02*
X89149Y52055D01*
X88428Y51573D01*
X87945Y50851D01*
X87776Y50000D01*
X87945Y49149D01*
X88428Y48428D01*
X89149Y47945D01*
X90000Y47776D01*
X90851Y47945D01*
X91572Y48428D01*
X92054Y49149D01*
X92224Y50000D01*
X92054Y50851D01*
X91572Y51573D01*
X90851Y52055D01*
X90000Y52224D01*
D02*
G37*
G36*
X24150Y54150D02*
X15850D01*
Y45850D01*
X24150D01*
Y54150D01*
D02*
G37*
G36*
X278514Y44605D02*
X278269Y44573D01*
X276877Y43996D01*
X275681Y43079D01*
X274763Y41883D01*
X274187Y40490D01*
X274154Y40246D01*
X278514D01*
Y44605D01*
D02*
G37*
G36*
X285373Y37746D02*
X281014D01*
Y33387D01*
X281258Y33419D01*
X282651Y33996D01*
X283846Y34913D01*
X284764Y36109D01*
X285341Y37502D01*
X285373Y37746D01*
D02*
G37*
G36*
X278514D02*
X274154D01*
X274187Y37502D01*
X274763Y36109D01*
X275681Y34913D01*
X276877Y33996D01*
X278269Y33419D01*
X278514Y33387D01*
Y37746D01*
D02*
G37*
G36*
X291772Y54933D02*
X290321Y54791D01*
X288927Y54368D01*
X287642Y53681D01*
X286515Y52756D01*
X285591Y51630D01*
X284904Y50345D01*
X284481Y48950D01*
X284338Y47500D01*
X284481Y46050D01*
X284904Y44655D01*
X285591Y43370D01*
X286515Y42244D01*
X287642Y41319D01*
X288927Y40632D01*
X290321Y40209D01*
X291772Y40067D01*
X293222Y40209D01*
X294616Y40632D01*
X295901Y41319D01*
X297028Y42244D01*
X297952Y43370D01*
X298639Y44655D01*
X299062Y46050D01*
X299205Y47500D01*
X299062Y48950D01*
X298639Y50345D01*
X297952Y51630D01*
X297028Y52756D01*
X295901Y53681D01*
X294616Y54368D01*
X293222Y54791D01*
X291772Y54933D01*
D02*
G37*
G36*
X65000Y42224D02*
X64149Y42055D01*
X63428Y41572D01*
X62945Y40851D01*
X62776Y40000D01*
X62945Y39149D01*
X63428Y38427D01*
X64149Y37945D01*
X65000Y37776D01*
X65851Y37945D01*
X66572Y38427D01*
X67054Y39149D01*
X67224Y40000D01*
X67054Y40851D01*
X66572Y41572D01*
X65851Y42055D01*
X65000Y42224D01*
D02*
G37*
G36*
X154500Y49500D02*
X152876D01*
X152945Y49149D01*
X153428Y48428D01*
X154149Y47945D01*
X154500Y47876D01*
Y49500D01*
D02*
G37*
G36*
X145000Y57224D02*
X144149Y57055D01*
X143428Y56573D01*
X142946Y55851D01*
X142776Y55000D01*
X142946Y54149D01*
X143428Y53427D01*
X144149Y52946D01*
X145000Y52776D01*
X145851Y52946D01*
X146572Y53427D01*
X147055Y54149D01*
X147224Y55000D01*
X147055Y55851D01*
X146572Y56573D01*
X145851Y57055D01*
X145000Y57224D01*
D02*
G37*
G36*
X95000Y172224D02*
X94149Y172055D01*
X93427Y171572D01*
X92945Y170851D01*
X92776Y170000D01*
X92945Y169149D01*
X92961Y169126D01*
Y120845D01*
X89176Y117060D01*
X89149Y117054D01*
X88428Y116572D01*
X87945Y115851D01*
X87776Y115000D01*
X87945Y114149D01*
X87961Y114126D01*
Y75000D01*
X88116Y74220D01*
X88558Y73558D01*
X107940Y54176D01*
X107946Y54149D01*
X108428Y53427D01*
X109149Y52946D01*
X110000Y52776D01*
X110851Y52946D01*
X111573Y53427D01*
X112055Y54149D01*
X112224Y55000D01*
X112055Y55851D01*
X111573Y56573D01*
X110851Y57055D01*
X110824Y57060D01*
X92039Y75845D01*
Y114126D01*
X92054Y114149D01*
X92060Y114176D01*
X96442Y118558D01*
X96884Y119220D01*
X97039Y120000D01*
Y169126D01*
X97054Y169149D01*
X97224Y170000D01*
X97054Y170851D01*
X96573Y171572D01*
X95851Y172055D01*
X95000Y172224D01*
D02*
G37*
G36*
X52124Y54500D02*
X50500D01*
Y52876D01*
X50851Y52946D01*
X51573Y53427D01*
X52055Y54149D01*
X52124Y54500D01*
D02*
G37*
G36*
X49500D02*
X47876D01*
X47945Y54149D01*
X48428Y53427D01*
X49149Y52946D01*
X49500Y52876D01*
Y54500D01*
D02*
G37*
G36*
X90000Y57224D02*
X89149Y57055D01*
X88428Y56573D01*
X87945Y55851D01*
X87776Y55000D01*
X87945Y54149D01*
X88428Y53427D01*
X89149Y52946D01*
X90000Y52776D01*
X90851Y52946D01*
X91572Y53427D01*
X92054Y54149D01*
X92224Y55000D01*
X92054Y55851D01*
X91572Y56573D01*
X90851Y57055D01*
X90000Y57224D01*
D02*
G37*
G36*
X266772Y56304D02*
X265787Y56175D01*
X264869Y55795D01*
X264082Y55190D01*
X263477Y54402D01*
X263097Y53485D01*
X262967Y52500D01*
X263097Y51515D01*
X263477Y50598D01*
X264082Y49810D01*
X264869Y49205D01*
X265787Y48825D01*
X266772Y48696D01*
X267756Y48825D01*
X268674Y49205D01*
X269462Y49810D01*
X270066Y50598D01*
X270446Y51515D01*
X270576Y52500D01*
X270446Y53485D01*
X270066Y54402D01*
X269462Y55190D01*
X268674Y55795D01*
X267756Y56175D01*
X266772Y56304D01*
D02*
G37*
G36*
X157124Y49500D02*
X155500D01*
Y47876D01*
X155851Y47945D01*
X156572Y48428D01*
X157054Y49149D01*
X157124Y49500D01*
D02*
G37*
G36*
X155500Y52124D02*
Y50500D01*
X157124D01*
X157054Y50851D01*
X156572Y51573D01*
X155851Y52055D01*
X155500Y52124D01*
D02*
G37*
G36*
X154500D02*
X154149Y52055D01*
X153428Y51573D01*
X152945Y50851D01*
X152876Y50500D01*
X154500D01*
Y52124D01*
D02*
G37*
G36*
X130500Y108124D02*
Y106500D01*
X132124D01*
X132054Y106851D01*
X131572Y107572D01*
X130851Y108054D01*
X130500Y108124D01*
D02*
G37*
G36*
X109500Y162124D02*
X109149Y162055D01*
X108428Y161573D01*
X107946Y160851D01*
X107876Y160500D01*
X109500D01*
Y162124D01*
D02*
G37*
G36*
X266772Y166304D02*
X265787Y166175D01*
X264869Y165795D01*
X264082Y165190D01*
X263477Y164402D01*
X263097Y163485D01*
X262967Y162500D01*
X263097Y161515D01*
X263477Y160598D01*
X264082Y159810D01*
X264869Y159205D01*
X265787Y158825D01*
X266772Y158696D01*
X267756Y158825D01*
X268674Y159205D01*
X269462Y159810D01*
X270066Y160598D01*
X270446Y161515D01*
X270576Y162500D01*
X270446Y163485D01*
X270066Y164402D01*
X269462Y165190D01*
X268674Y165795D01*
X267756Y166175D01*
X266772Y166304D01*
D02*
G37*
G36*
X19000Y164054D02*
X18917Y164043D01*
X17907Y163625D01*
X17041Y162960D01*
X16375Y162093D01*
X15957Y161083D01*
X15946Y161000D01*
X19000D01*
Y164054D01*
D02*
G37*
G36*
X110500Y162124D02*
Y160500D01*
X112124D01*
X112055Y160851D01*
X111573Y161573D01*
X110851Y162055D01*
X110500Y162124D01*
D02*
G37*
G36*
X240500Y159624D02*
Y158000D01*
X242124D01*
X242055Y158351D01*
X241572Y159072D01*
X240851Y159555D01*
X240500Y159624D01*
D02*
G37*
G36*
X172000D02*
X171649Y159555D01*
X170928Y159072D01*
X170446Y158351D01*
X170376Y158000D01*
X172000D01*
Y159624D01*
D02*
G37*
G36*
X112124Y159500D02*
X110500D01*
Y157876D01*
X110851Y157946D01*
X111573Y158428D01*
X112055Y159149D01*
X112124Y159500D01*
D02*
G37*
G36*
X239500Y159624D02*
X239149Y159555D01*
X238427Y159072D01*
X237945Y158351D01*
X237876Y158000D01*
X239500D01*
Y159624D01*
D02*
G37*
G36*
X173000D02*
Y158000D01*
X174624D01*
X174555Y158351D01*
X174073Y159072D01*
X173351Y159555D01*
X173000Y159624D01*
D02*
G37*
G36*
X21000Y164054D02*
Y161000D01*
X24054D01*
X24043Y161083D01*
X23625Y162093D01*
X22960Y162960D01*
X22093Y163625D01*
X21083Y164043D01*
X21000Y164054D01*
D02*
G37*
G36*
X135500Y167124D02*
Y165500D01*
X137124D01*
X137055Y165851D01*
X136573Y166572D01*
X135851Y167054D01*
X135500Y167124D01*
D02*
G37*
G36*
X134500D02*
X134149Y167054D01*
X133428Y166572D01*
X132946Y165851D01*
X132876Y165500D01*
X134500D01*
Y167124D01*
D02*
G37*
G36*
X305079Y178948D02*
X304031Y178810D01*
X303056Y178406D01*
X302218Y177763D01*
X301574Y176925D01*
X301170Y175949D01*
X301032Y174902D01*
X301170Y173854D01*
X301574Y172878D01*
X302218Y172040D01*
X303056Y171397D01*
X304031Y170993D01*
X305079Y170855D01*
X306126Y170993D01*
X307102Y171397D01*
X307940Y172040D01*
X308583Y172878D01*
X308987Y173854D01*
X309125Y174902D01*
X308987Y175949D01*
X308583Y176925D01*
X307940Y177763D01*
X307102Y178406D01*
X306126Y178810D01*
X305079Y178948D01*
D02*
G37*
G36*
X135000Y172224D02*
X134149Y172055D01*
X133428Y171572D01*
X132946Y170851D01*
X132776Y170000D01*
X132946Y169149D01*
X133428Y168428D01*
X134149Y167946D01*
X135000Y167776D01*
X135851Y167946D01*
X136573Y168428D01*
X137055Y169149D01*
X137224Y170000D01*
X137055Y170851D01*
X136573Y171572D01*
X135851Y172055D01*
X135000Y172224D01*
D02*
G37*
G36*
X291772Y179933D02*
X290321Y179791D01*
X288927Y179368D01*
X287642Y178681D01*
X286515Y177756D01*
X285591Y176630D01*
X284904Y175345D01*
X284481Y173950D01*
X284338Y172500D01*
X284481Y171050D01*
X284904Y169655D01*
X285591Y168370D01*
X286515Y167244D01*
X287642Y166319D01*
X288927Y165632D01*
X290321Y165209D01*
X291772Y165067D01*
X293222Y165209D01*
X294616Y165632D01*
X295901Y166319D01*
X297028Y167244D01*
X297952Y168370D01*
X298639Y169655D01*
X299062Y171050D01*
X299205Y172500D01*
X299062Y173950D01*
X298639Y175345D01*
X297952Y176630D01*
X297028Y177756D01*
X295901Y178681D01*
X294616Y179368D01*
X293222Y179791D01*
X291772Y179933D01*
D02*
G37*
G36*
X134500Y164500D02*
X132876D01*
X132946Y164149D01*
X133428Y163427D01*
X134149Y162945D01*
X134500Y162876D01*
Y164500D01*
D02*
G37*
G36*
X145000Y167224D02*
X144149Y167054D01*
X143428Y166572D01*
X142946Y165851D01*
X142776Y165000D01*
X142946Y164149D01*
X143428Y163427D01*
X144149Y162945D01*
X145000Y162776D01*
X145851Y162945D01*
X146572Y163427D01*
X147055Y164149D01*
X147224Y165000D01*
X147055Y165851D01*
X146572Y166572D01*
X145851Y167054D01*
X145000Y167224D01*
D02*
G37*
G36*
X256772Y171304D02*
X255787Y171175D01*
X254870Y170794D01*
X254082Y170190D01*
X253477Y169402D01*
X253097Y168485D01*
X252968Y167500D01*
X253097Y166515D01*
X253477Y165598D01*
X254082Y164810D01*
X254870Y164206D01*
X255787Y163825D01*
X256772Y163696D01*
X257756Y163825D01*
X258674Y164206D01*
X259462Y164810D01*
X260066Y165598D01*
X260446Y166515D01*
X260576Y167500D01*
X260446Y168485D01*
X260066Y169402D01*
X259462Y170190D01*
X258674Y170794D01*
X257756Y171175D01*
X256772Y171304D01*
D02*
G37*
G36*
X137124Y164500D02*
X135500D01*
Y162876D01*
X135851Y162945D01*
X136573Y163427D01*
X137055Y164149D01*
X137124Y164500D01*
D02*
G37*
G36*
X256772Y161304D02*
X255787Y161175D01*
X254870Y160794D01*
X254082Y160190D01*
X253477Y159402D01*
X253097Y158485D01*
X252968Y157500D01*
X253097Y156515D01*
X253477Y155598D01*
X254082Y154810D01*
X254870Y154206D01*
X255787Y153825D01*
X256772Y153696D01*
X257756Y153825D01*
X258674Y154206D01*
X259462Y154810D01*
X260066Y155598D01*
X260446Y156515D01*
X260576Y157500D01*
X260446Y158485D01*
X260066Y159402D01*
X259462Y160190D01*
X258674Y160794D01*
X257756Y161175D01*
X256772Y161304D01*
D02*
G37*
G36*
X145000Y157224D02*
X144149Y157054D01*
X143428Y156572D01*
X142946Y155851D01*
X142776Y155000D01*
X142946Y154149D01*
X143428Y153428D01*
X144149Y152945D01*
X145000Y152776D01*
X145851Y152945D01*
X146572Y153428D01*
X147055Y154149D01*
X147224Y155000D01*
X147055Y155851D01*
X146572Y156572D01*
X145851Y157054D01*
X145000Y157224D01*
D02*
G37*
G36*
X210000Y159724D02*
X209149Y159555D01*
X208428Y159072D01*
X207945Y158351D01*
X207776Y157500D01*
X207945Y156649D01*
X208428Y155928D01*
X209149Y155446D01*
X210000Y155276D01*
X210851Y155446D01*
X211573Y155928D01*
X212055Y156649D01*
X212224Y157500D01*
X212055Y158351D01*
X211573Y159072D01*
X210851Y159555D01*
X210000Y159724D01*
D02*
G37*
G36*
X197500D02*
X196649Y159555D01*
X195928Y159072D01*
X195446Y158351D01*
X195276Y157500D01*
X195446Y156649D01*
X195928Y155928D01*
X196649Y155446D01*
X197500Y155276D01*
X198351Y155446D01*
X199073Y155928D01*
X199555Y156649D01*
X199724Y157500D01*
X199555Y158351D01*
X199073Y159072D01*
X198351Y159555D01*
X197500Y159724D01*
D02*
G37*
G36*
X21000Y154054D02*
Y151000D01*
X24054D01*
X24043Y151083D01*
X23625Y152093D01*
X22960Y152960D01*
X22093Y153625D01*
X21083Y154043D01*
X21000Y154054D01*
D02*
G37*
G36*
X149500Y152124D02*
X149149Y152055D01*
X148427Y151573D01*
X147945Y150851D01*
X147876Y150500D01*
X149500D01*
Y152124D01*
D02*
G37*
G36*
X140500D02*
Y150500D01*
X142124D01*
X142054Y150851D01*
X141572Y151573D01*
X140851Y152055D01*
X140500Y152124D01*
D02*
G37*
G36*
X19000Y154054D02*
X18917Y154043D01*
X17907Y153625D01*
X17041Y152960D01*
X16375Y152093D01*
X15957Y151083D01*
X15946Y151000D01*
X19000D01*
Y154054D01*
D02*
G37*
G36*
X150500Y152124D02*
Y150500D01*
X152124D01*
X152055Y150851D01*
X151573Y151573D01*
X150851Y152055D01*
X150500Y152124D01*
D02*
G37*
G36*
X172000Y157000D02*
X170376D01*
X170446Y156649D01*
X170928Y155928D01*
X171649Y155446D01*
X172000Y155376D01*
Y157000D01*
D02*
G37*
G36*
X24054Y159000D02*
X21000D01*
Y155946D01*
X21083Y155957D01*
X22093Y156375D01*
X22960Y157041D01*
X23625Y157907D01*
X24043Y158917D01*
X24054Y159000D01*
D02*
G37*
G36*
X19000D02*
X15946D01*
X15957Y158917D01*
X16375Y157907D01*
X17041Y157041D01*
X17907Y156375D01*
X18917Y155957D01*
X19000Y155946D01*
Y159000D01*
D02*
G37*
G36*
X109500Y159500D02*
X107876D01*
X107946Y159149D01*
X108428Y158428D01*
X109149Y157946D01*
X109500Y157876D01*
Y159500D01*
D02*
G37*
G36*
X120000Y162224D02*
X119149Y162055D01*
X118428Y161573D01*
X117946Y160851D01*
X117776Y160000D01*
X117946Y159149D01*
X118428Y158428D01*
X119149Y157946D01*
X120000Y157776D01*
X120851Y157946D01*
X121572Y158428D01*
X122055Y159149D01*
X122224Y160000D01*
X122055Y160851D01*
X121572Y161573D01*
X120851Y162055D01*
X120000Y162224D01*
D02*
G37*
G36*
X70000Y164185D02*
X68917Y164043D01*
X67907Y163625D01*
X67040Y162960D01*
X66375Y162093D01*
X65957Y161083D01*
X65815Y160000D01*
X65957Y158917D01*
X66375Y157907D01*
X67040Y157041D01*
X67907Y156375D01*
X68917Y155957D01*
X70000Y155815D01*
X71083Y155957D01*
X72093Y156375D01*
X72960Y157041D01*
X73625Y157907D01*
X74043Y158917D01*
X74185Y160000D01*
X74043Y161083D01*
X73625Y162093D01*
X72960Y162960D01*
X72093Y163625D01*
X71083Y164043D01*
X70000Y164185D01*
D02*
G37*
G36*
X239500Y157000D02*
X237876D01*
X237945Y156649D01*
X238427Y155928D01*
X239149Y155446D01*
X239500Y155376D01*
Y157000D01*
D02*
G37*
G36*
X174624D02*
X173000D01*
Y155376D01*
X173351Y155446D01*
X174073Y155928D01*
X174555Y156649D01*
X174624Y157000D01*
D02*
G37*
G36*
X50000Y164185D02*
X48917Y164043D01*
X47907Y163625D01*
X47041Y162960D01*
X46375Y162093D01*
X45957Y161083D01*
X45815Y160000D01*
X45957Y158917D01*
X46375Y157907D01*
X47041Y157041D01*
X47907Y156375D01*
X48917Y155957D01*
X50000Y155815D01*
X51083Y155957D01*
X52093Y156375D01*
X52960Y157041D01*
X53625Y157907D01*
X54043Y158917D01*
X54185Y160000D01*
X54043Y161083D01*
X53625Y162093D01*
X52960Y162960D01*
X52093Y163625D01*
X51083Y164043D01*
X50000Y164185D01*
D02*
G37*
G36*
X242124Y157000D02*
X240500D01*
Y155376D01*
X240851Y155446D01*
X241572Y155928D01*
X242055Y156649D01*
X242124Y157000D01*
D02*
G37*
G36*
X80000Y192224D02*
X79149Y192054D01*
X78427Y191572D01*
X77945Y190851D01*
X77776Y190000D01*
X77945Y189149D01*
X78427Y188427D01*
X79149Y187945D01*
X80000Y187776D01*
X80851Y187945D01*
X81573Y188427D01*
X82055Y189149D01*
X82224Y190000D01*
X82055Y190851D01*
X81573Y191572D01*
X80851Y192054D01*
X80000Y192224D01*
D02*
G37*
G36*
X260500Y187124D02*
Y185500D01*
X262124D01*
X262055Y185851D01*
X261573Y186573D01*
X260851Y187055D01*
X260500Y187124D01*
D02*
G37*
G36*
X262124Y194500D02*
X260500D01*
Y192876D01*
X260851Y192946D01*
X261573Y193428D01*
X262055Y194149D01*
X262124Y194500D01*
D02*
G37*
G36*
X259500D02*
X257876D01*
X257945Y194149D01*
X258428Y193428D01*
X259149Y192946D01*
X259500Y192876D01*
Y194500D01*
D02*
G37*
G36*
Y187124D02*
X259149Y187055D01*
X258428Y186573D01*
X257945Y185851D01*
X257876Y185500D01*
X259500D01*
Y187124D01*
D02*
G37*
G36*
X281014Y186613D02*
Y182254D01*
X285373D01*
X285341Y182498D01*
X284764Y183891D01*
X283846Y185087D01*
X282651Y186004D01*
X281258Y186581D01*
X281014Y186613D01*
D02*
G37*
G36*
X278514D02*
X278269Y186581D01*
X276877Y186004D01*
X275681Y185087D01*
X274763Y183891D01*
X274187Y182498D01*
X274154Y182254D01*
X278514D01*
Y186613D01*
D02*
G37*
G36*
X262124Y184500D02*
X260500D01*
Y182876D01*
X260851Y182946D01*
X261573Y183428D01*
X262055Y184149D01*
X262124Y184500D01*
D02*
G37*
G36*
X259500D02*
X257876D01*
X257945Y184149D01*
X258428Y183428D01*
X259149Y182946D01*
X259500Y182876D01*
Y184500D01*
D02*
G37*
G36*
Y197124D02*
X259149Y197055D01*
X258428Y196572D01*
X257945Y195851D01*
X257876Y195500D01*
X259500D01*
Y197124D01*
D02*
G37*
G36*
X79000Y204054D02*
X78917Y204043D01*
X77907Y203625D01*
X77040Y202959D01*
X76375Y202093D01*
X75957Y201083D01*
X75946Y201000D01*
X79000D01*
Y204054D01*
D02*
G37*
G36*
X69000D02*
X68917Y204043D01*
X67907Y203625D01*
X67040Y202959D01*
X66375Y202093D01*
X65957Y201083D01*
X65946Y201000D01*
X69000D01*
Y204054D01*
D02*
G37*
G36*
X81000D02*
Y201000D01*
X84054D01*
X84043Y201083D01*
X83625Y202093D01*
X82960Y202959D01*
X82093Y203625D01*
X81083Y204043D01*
X81000Y204054D01*
D02*
G37*
G36*
X71000D02*
Y201000D01*
X74054D01*
X74043Y201083D01*
X73625Y202093D01*
X72960Y202959D01*
X72093Y203625D01*
X71083Y204043D01*
X71000Y204054D01*
D02*
G37*
G36*
X84054Y199000D02*
X81000D01*
Y195946D01*
X81083Y195957D01*
X82093Y196375D01*
X82960Y197040D01*
X83625Y197907D01*
X84043Y198917D01*
X84054Y199000D01*
D02*
G37*
G36*
X69000D02*
X65946D01*
X65957Y198917D01*
X66375Y197907D01*
X67040Y197040D01*
X67907Y196375D01*
X68917Y195957D01*
X69000Y195946D01*
Y199000D01*
D02*
G37*
G36*
X260500Y197124D02*
Y195500D01*
X262124D01*
X262055Y195851D01*
X261573Y196572D01*
X260851Y197055D01*
X260500Y197124D01*
D02*
G37*
G36*
X74054Y199000D02*
X71000D01*
Y195946D01*
X71083Y195957D01*
X72093Y196375D01*
X72960Y197040D01*
X73625Y197907D01*
X74043Y198917D01*
X74054Y199000D01*
D02*
G37*
G36*
X79000D02*
X75946D01*
X75957Y198917D01*
X76375Y197907D01*
X77040Y197040D01*
X77907Y196375D01*
X78917Y195957D01*
X79000Y195946D01*
Y199000D01*
D02*
G37*
G36*
X245000Y182224D02*
X244149Y182054D01*
X243427Y181572D01*
X242945Y180851D01*
X242776Y180000D01*
X242945Y179149D01*
X243427Y178428D01*
X244149Y177945D01*
X245000Y177776D01*
X245851Y177945D01*
X246572Y178428D01*
X247055Y179149D01*
X247224Y180000D01*
X247055Y180851D01*
X246572Y181572D01*
X245851Y182054D01*
X245000Y182224D01*
D02*
G37*
G36*
X20000Y184185D02*
X18917Y184043D01*
X17907Y183625D01*
X17041Y182959D01*
X16375Y182093D01*
X15957Y181083D01*
X15815Y180000D01*
X15957Y178917D01*
X16375Y177907D01*
X17041Y177041D01*
X17907Y176375D01*
X18917Y175957D01*
X20000Y175815D01*
X21083Y175957D01*
X22093Y176375D01*
X22960Y177041D01*
X23625Y177907D01*
X24043Y178917D01*
X24185Y180000D01*
X24043Y181083D01*
X23625Y182093D01*
X22960Y182959D01*
X22093Y183625D01*
X21083Y184043D01*
X20000Y184185D01*
D02*
G37*
G36*
X52124Y179500D02*
X50500D01*
Y177876D01*
X50851Y177945D01*
X51573Y178428D01*
X52055Y179149D01*
X52124Y179500D01*
D02*
G37*
G36*
X49500D02*
X47876D01*
X47945Y179149D01*
X48428Y178428D01*
X49149Y177945D01*
X49500Y177876D01*
Y179500D01*
D02*
G37*
G36*
X182500Y202500D02*
X117500D01*
Y177500D01*
X118984D01*
X119033Y177368D01*
X119067Y177000D01*
X118428Y176573D01*
X117946Y175851D01*
X117876Y175500D01*
X122124D01*
X122055Y175851D01*
X121572Y176573D01*
X120933Y177000D01*
X120967Y177368D01*
X121016Y177500D01*
X182500D01*
Y202500D01*
D02*
G37*
G36*
X122124Y174500D02*
X120500D01*
Y172876D01*
X120851Y172945D01*
X121572Y173427D01*
X122055Y174149D01*
X122124Y174500D01*
D02*
G37*
G36*
X119500D02*
X117876D01*
X117946Y174149D01*
X118428Y173427D01*
X119149Y172945D01*
X119500Y172876D01*
Y174500D01*
D02*
G37*
G36*
X285373Y179754D02*
X281014D01*
Y175395D01*
X281258Y175427D01*
X282651Y176004D01*
X283846Y176921D01*
X284764Y178117D01*
X285341Y179510D01*
X285373Y179754D01*
D02*
G37*
G36*
X278514D02*
X274154D01*
X274187Y179510D01*
X274763Y178117D01*
X275681Y176921D01*
X276877Y176004D01*
X278269Y175427D01*
X278514Y175395D01*
Y179754D01*
D02*
G37*
G36*
X112000Y179500D02*
X110376D01*
X110445Y179149D01*
X110927Y178428D01*
X111649Y177945D01*
X112000Y177876D01*
Y179500D01*
D02*
G37*
G36*
X113000Y182124D02*
Y180500D01*
X114624D01*
X114555Y180851D01*
X114073Y181572D01*
X113351Y182054D01*
X113000Y182124D01*
D02*
G37*
G36*
X112000D02*
X111649Y182054D01*
X110927Y181572D01*
X110445Y180851D01*
X110376Y180500D01*
X112000D01*
Y182124D01*
D02*
G37*
G36*
X188000D02*
Y180500D01*
X189624D01*
X189555Y180851D01*
X189073Y181572D01*
X188351Y182054D01*
X188000Y182124D01*
D02*
G37*
G36*
X187000D02*
X186649Y182054D01*
X185927Y181572D01*
X185445Y180851D01*
X185376Y180500D01*
X187000D01*
Y182124D01*
D02*
G37*
G36*
X50500D02*
Y180500D01*
X52124D01*
X52055Y180851D01*
X51573Y181572D01*
X50851Y182054D01*
X50500Y182124D01*
D02*
G37*
G36*
X187000Y179500D02*
X185376D01*
X185445Y179149D01*
X185927Y178428D01*
X186649Y177945D01*
X187000Y177876D01*
Y179500D01*
D02*
G37*
G36*
X114624D02*
X113000D01*
Y177876D01*
X113351Y177945D01*
X114073Y178428D01*
X114555Y179149D01*
X114624Y179500D01*
D02*
G37*
G36*
X49500Y182124D02*
X49149Y182054D01*
X48428Y181572D01*
X47945Y180851D01*
X47876Y180500D01*
X49500D01*
Y182124D01*
D02*
G37*
G36*
X189624Y179500D02*
X188000D01*
Y177876D01*
X188351Y177945D01*
X189073Y178428D01*
X189555Y179149D01*
X189624Y179500D01*
D02*
G37*
G36*
X281014Y124605D02*
Y120246D01*
X285373D01*
X285341Y120490D01*
X284764Y121883D01*
X283846Y123079D01*
X282651Y123996D01*
X281258Y124573D01*
X281014Y124605D01*
D02*
G37*
G36*
X278514D02*
X278269Y124573D01*
X276877Y123996D01*
X275681Y123079D01*
X274763Y121883D01*
X274187Y120490D01*
X274154Y120246D01*
X278514D01*
Y124605D01*
D02*
G37*
G36*
X239500Y122000D02*
X237876D01*
X237945Y121649D01*
X238427Y120928D01*
X239149Y120446D01*
X239500Y120376D01*
Y122000D01*
D02*
G37*
G36*
X210000Y124724D02*
X209149Y124555D01*
X208428Y124073D01*
X207945Y123351D01*
X207776Y122500D01*
X207945Y121649D01*
X208428Y120928D01*
X209149Y120446D01*
X210000Y120276D01*
X210851Y120446D01*
X211573Y120928D01*
X212055Y121649D01*
X212224Y122500D01*
X212055Y123351D01*
X211573Y124073D01*
X210851Y124555D01*
X210000Y124724D01*
D02*
G37*
G36*
X291772Y134933D02*
X290321Y134791D01*
X288927Y134368D01*
X287642Y133681D01*
X286515Y132756D01*
X285591Y131630D01*
X284904Y130345D01*
X284481Y128950D01*
X284338Y127500D01*
X284481Y126050D01*
X284904Y124655D01*
X285591Y123370D01*
X286515Y122244D01*
X287642Y121319D01*
X288927Y120632D01*
X290321Y120209D01*
X291772Y120067D01*
X293222Y120209D01*
X294616Y120632D01*
X295901Y121319D01*
X297028Y122244D01*
X297952Y123370D01*
X298639Y124655D01*
X299062Y126050D01*
X299205Y127500D01*
X299062Y128950D01*
X298639Y130345D01*
X297952Y131630D01*
X297028Y132756D01*
X295901Y133681D01*
X294616Y134368D01*
X293222Y134791D01*
X291772Y134933D01*
D02*
G37*
G36*
X20000Y124185D02*
X18917Y124043D01*
X17907Y123625D01*
X17041Y122959D01*
X16375Y122093D01*
X15957Y121083D01*
X15815Y120000D01*
X15957Y118917D01*
X16375Y117907D01*
X17041Y117041D01*
X17907Y116375D01*
X18917Y115957D01*
X20000Y115815D01*
X21083Y115957D01*
X22093Y116375D01*
X22960Y117041D01*
X23625Y117907D01*
X24043Y118917D01*
X24185Y120000D01*
X24043Y121083D01*
X23625Y122093D01*
X22960Y122959D01*
X22093Y123625D01*
X21083Y124043D01*
X20000Y124185D01*
D02*
G37*
G36*
X260500Y117124D02*
Y115500D01*
X262124D01*
X262055Y115851D01*
X261573Y116572D01*
X260851Y117054D01*
X260500Y117124D01*
D02*
G37*
G36*
X155000Y122224D02*
X154149Y122055D01*
X153428Y121572D01*
X152945Y120851D01*
X152776Y120000D01*
X152945Y119149D01*
X153428Y118428D01*
X154149Y117946D01*
X155000Y117776D01*
X155851Y117946D01*
X156572Y118428D01*
X157054Y119149D01*
X157224Y120000D01*
X157054Y120851D01*
X156572Y121572D01*
X155851Y122055D01*
X155000Y122224D01*
D02*
G37*
G36*
X50000Y124185D02*
X48917Y124043D01*
X47907Y123625D01*
X47041Y122959D01*
X46375Y122093D01*
X45957Y121083D01*
X45815Y120000D01*
X45957Y118917D01*
X46375Y117907D01*
X47041Y117041D01*
X47907Y116375D01*
X48917Y115957D01*
X50000Y115815D01*
X51083Y115957D01*
X52093Y116375D01*
X52960Y117041D01*
X53625Y117907D01*
X54043Y118917D01*
X54185Y120000D01*
X54043Y121083D01*
X53625Y122093D01*
X52960Y122959D01*
X52093Y123625D01*
X51083Y124043D01*
X50000Y124185D01*
D02*
G37*
G36*
X242124Y122000D02*
X240500D01*
Y120376D01*
X240851Y120446D01*
X241572Y120928D01*
X242055Y121649D01*
X242124Y122000D01*
D02*
G37*
G36*
X90000Y132224D02*
X89149Y132054D01*
X88428Y131572D01*
X87945Y130851D01*
X87776Y130000D01*
X87945Y129149D01*
X88428Y128428D01*
X89149Y127945D01*
X90000Y127776D01*
X90851Y127945D01*
X91572Y128428D01*
X92054Y129149D01*
X92224Y130000D01*
X92054Y130851D01*
X91572Y131572D01*
X90851Y132054D01*
X90000Y132224D01*
D02*
G37*
G36*
X80000D02*
X79149Y132054D01*
X78427Y131572D01*
X77946Y130851D01*
X77776Y130000D01*
X77946Y129149D01*
X78427Y128428D01*
X79149Y127945D01*
X80000Y127776D01*
X80851Y127945D01*
X81573Y128428D01*
X82055Y129149D01*
X82224Y130000D01*
X82055Y130851D01*
X81573Y131572D01*
X80851Y132054D01*
X80000Y132224D01*
D02*
G37*
G36*
X172500D02*
X171649Y132054D01*
X170928Y131572D01*
X170446Y130851D01*
X170276Y130000D01*
X170446Y129149D01*
X170928Y128428D01*
X171649Y127945D01*
X172500Y127776D01*
X173351Y127945D01*
X174073Y128428D01*
X174555Y129149D01*
X174724Y130000D01*
X174555Y130851D01*
X174073Y131572D01*
X173351Y132054D01*
X172500Y132224D01*
D02*
G37*
G36*
X100000D02*
X99149Y132054D01*
X98427Y131572D01*
X97945Y130851D01*
X97776Y130000D01*
X97945Y129149D01*
X98427Y128428D01*
X99149Y127945D01*
X100000Y127776D01*
X100851Y127945D01*
X101573Y128428D01*
X102055Y129149D01*
X102224Y130000D01*
X102055Y130851D01*
X101573Y131572D01*
X100851Y132054D01*
X100000Y132224D01*
D02*
G37*
G36*
X75000D02*
X74149Y132054D01*
X73427Y131572D01*
X72945Y130851D01*
X72776Y130000D01*
X72945Y129149D01*
X73427Y128428D01*
X74149Y127945D01*
X75000Y127776D01*
X75851Y127945D01*
X76573Y128428D01*
X77055Y129149D01*
X77224Y130000D01*
X77055Y130851D01*
X76573Y131572D01*
X75851Y132054D01*
X75000Y132224D01*
D02*
G37*
G36*
X239500Y124624D02*
X239149Y124555D01*
X238427Y124073D01*
X237945Y123351D01*
X237876Y123000D01*
X239500D01*
Y124624D01*
D02*
G37*
G36*
X155000Y127224D02*
X154149Y127055D01*
X153428Y126573D01*
X152945Y125851D01*
X152776Y125000D01*
X152945Y124149D01*
X153428Y123427D01*
X154149Y122945D01*
X155000Y122776D01*
X155851Y122945D01*
X156572Y123427D01*
X157054Y124149D01*
X157224Y125000D01*
X157054Y125851D01*
X156572Y126573D01*
X155851Y127055D01*
X155000Y127224D01*
D02*
G37*
G36*
X20000Y134185D02*
X18917Y134043D01*
X17907Y133625D01*
X17041Y132959D01*
X16375Y132093D01*
X15957Y131083D01*
X15815Y130000D01*
X15957Y128917D01*
X16375Y127907D01*
X17041Y127041D01*
X17907Y126375D01*
X18917Y125957D01*
X20000Y125815D01*
X21083Y125957D01*
X22093Y126375D01*
X22960Y127041D01*
X23625Y127907D01*
X24043Y128917D01*
X24185Y130000D01*
X24043Y131083D01*
X23625Y132093D01*
X22960Y132959D01*
X22093Y133625D01*
X21083Y134043D01*
X20000Y134185D01*
D02*
G37*
G36*
X240500Y124624D02*
Y123000D01*
X242124D01*
X242055Y123351D01*
X241572Y124073D01*
X240851Y124555D01*
X240500Y124624D01*
D02*
G37*
G36*
X190500Y112124D02*
Y110500D01*
X192124D01*
X192054Y110851D01*
X191572Y111573D01*
X190851Y112055D01*
X190500Y112124D01*
D02*
G37*
G36*
X189500D02*
X189149Y112055D01*
X188427Y111573D01*
X187945Y110851D01*
X187876Y110500D01*
X189500D01*
Y112124D01*
D02*
G37*
G36*
X190000Y117224D02*
X189149Y117054D01*
X188427Y116572D01*
X187945Y115851D01*
X187776Y115000D01*
X187945Y114149D01*
X188427Y113427D01*
X189149Y112945D01*
X190000Y112776D01*
X190851Y112945D01*
X191572Y113427D01*
X192054Y114149D01*
X192224Y115000D01*
X192054Y115851D01*
X191572Y116572D01*
X190851Y117054D01*
X190000Y117224D01*
D02*
G37*
G36*
X244500Y112124D02*
X244149Y112055D01*
X243427Y111573D01*
X242945Y110851D01*
X242876Y110500D01*
X244500D01*
Y112124D01*
D02*
G37*
G36*
Y109500D02*
X242876D01*
X242945Y109149D01*
X243427Y108428D01*
X244149Y107946D01*
X244500Y107876D01*
Y109500D01*
D02*
G37*
G36*
X225000Y112224D02*
X224149Y112055D01*
X223428Y111573D01*
X222945Y110851D01*
X222776Y110000D01*
X222945Y109149D01*
X223428Y108428D01*
X224149Y107946D01*
X225000Y107776D01*
X225851Y107946D01*
X226572Y108428D01*
X227055Y109149D01*
X227224Y110000D01*
X227055Y110851D01*
X226572Y111573D01*
X225851Y112055D01*
X225000Y112224D01*
D02*
G37*
G36*
X155000D02*
X154149Y112055D01*
X153428Y111573D01*
X152945Y110851D01*
X152776Y110000D01*
X152945Y109149D01*
X153428Y108428D01*
X154149Y107946D01*
X155000Y107776D01*
X155851Y107946D01*
X156572Y108428D01*
X157054Y109149D01*
X157224Y110000D01*
X157054Y110851D01*
X156572Y111573D01*
X155851Y112055D01*
X155000Y112224D01*
D02*
G37*
G36*
X192124Y109500D02*
X190500D01*
Y107876D01*
X190851Y107946D01*
X191572Y108428D01*
X192054Y109149D01*
X192124Y109500D01*
D02*
G37*
G36*
X189500D02*
X187876D01*
X187945Y109149D01*
X188427Y108428D01*
X189149Y107946D01*
X189500Y107876D01*
Y109500D01*
D02*
G37*
G36*
X84500Y114500D02*
X82876D01*
X82946Y114149D01*
X83428Y113427D01*
X84149Y112945D01*
X84500Y112876D01*
Y114500D01*
D02*
G37*
G36*
Y117124D02*
X84149Y117054D01*
X83428Y116572D01*
X82946Y115851D01*
X82876Y115500D01*
X84500D01*
Y117124D01*
D02*
G37*
G36*
X172397Y119724D02*
X171546Y119554D01*
X170824Y119072D01*
X170342Y118351D01*
X170173Y117500D01*
X170342Y116649D01*
X170824Y115928D01*
X171546Y115445D01*
X172397Y115276D01*
X173248Y115445D01*
X173969Y115928D01*
X174451Y116649D01*
X174621Y117500D01*
X174451Y118351D01*
X173969Y119072D01*
X173248Y119554D01*
X172397Y119724D01*
D02*
G37*
G36*
X259500Y117124D02*
X259149Y117054D01*
X258428Y116572D01*
X257945Y115851D01*
X257876Y115500D01*
X259500D01*
Y117124D01*
D02*
G37*
G36*
X85500D02*
Y115500D01*
X87124D01*
X87055Y115851D01*
X86572Y116572D01*
X85851Y117054D01*
X85500Y117124D01*
D02*
G37*
G36*
X285373Y117746D02*
X281014D01*
Y113387D01*
X281258Y113419D01*
X282651Y113996D01*
X283846Y114913D01*
X284764Y116109D01*
X285341Y117502D01*
X285373Y117746D01*
D02*
G37*
G36*
X259500Y114500D02*
X257876D01*
X257945Y114149D01*
X258428Y113427D01*
X259149Y112945D01*
X259500Y112876D01*
Y114500D01*
D02*
G37*
G36*
X87124D02*
X85500D01*
Y112876D01*
X85851Y112945D01*
X86572Y113427D01*
X87055Y114149D01*
X87124Y114500D01*
D02*
G37*
G36*
X278514Y117746D02*
X274154D01*
X274187Y117502D01*
X274763Y116109D01*
X275681Y114913D01*
X276877Y113996D01*
X278269Y113419D01*
X278514Y113387D01*
Y117746D01*
D02*
G37*
G36*
X262124Y114500D02*
X260500D01*
Y112876D01*
X260851Y112945D01*
X261573Y113427D01*
X262055Y114149D01*
X262124Y114500D01*
D02*
G37*
G36*
X100000Y152224D02*
X99149Y152055D01*
X98427Y151573D01*
X97945Y150851D01*
X97776Y150000D01*
X97945Y149149D01*
X98427Y148427D01*
X99149Y147945D01*
X100000Y147776D01*
X100851Y147945D01*
X101573Y148427D01*
X102055Y149149D01*
X102224Y150000D01*
X102055Y150851D01*
X101573Y151573D01*
X100851Y152055D01*
X100000Y152224D01*
D02*
G37*
G36*
X24054Y149000D02*
X21000D01*
Y145946D01*
X21083Y145957D01*
X22093Y146375D01*
X22960Y147040D01*
X23625Y147907D01*
X24043Y148917D01*
X24054Y149000D01*
D02*
G37*
G36*
X197500Y152224D02*
X196649Y152055D01*
X195928Y151573D01*
X195446Y150851D01*
X195276Y150000D01*
X195446Y149149D01*
X195928Y148427D01*
X196649Y147945D01*
X197500Y147776D01*
X198351Y147945D01*
X199073Y148427D01*
X199555Y149149D01*
X199724Y150000D01*
X199555Y150851D01*
X199073Y151573D01*
X198351Y152055D01*
X197500Y152224D01*
D02*
G37*
G36*
X110000D02*
X109149Y152055D01*
X108428Y151573D01*
X107946Y150851D01*
X107776Y150000D01*
X107946Y149149D01*
X108428Y148427D01*
X109149Y147945D01*
X110000Y147776D01*
X110851Y147945D01*
X111573Y148427D01*
X112055Y149149D01*
X112224Y150000D01*
X112055Y150851D01*
X111573Y151573D01*
X110851Y152055D01*
X110000Y152224D01*
D02*
G37*
G36*
X19000Y149000D02*
X15946D01*
X15957Y148917D01*
X16375Y147907D01*
X17041Y147040D01*
X17907Y146375D01*
X18917Y145957D01*
X19000Y145946D01*
Y149000D01*
D02*
G37*
G36*
X256772Y151304D02*
X255787Y151175D01*
X254870Y150794D01*
X254082Y150190D01*
X253477Y149402D01*
X253097Y148485D01*
X252968Y147500D01*
X253097Y146515D01*
X253477Y145598D01*
X254082Y144810D01*
X254870Y144205D01*
X255787Y143825D01*
X256772Y143696D01*
X257756Y143825D01*
X258674Y144205D01*
X259462Y144810D01*
X260066Y145598D01*
X260446Y146515D01*
X260576Y147500D01*
X260446Y148485D01*
X260066Y149402D01*
X259462Y150190D01*
X258674Y150794D01*
X257756Y151175D01*
X256772Y151304D01*
D02*
G37*
G36*
X242124Y144500D02*
X240500D01*
Y142876D01*
X240851Y142946D01*
X241572Y143428D01*
X242055Y144149D01*
X242124Y144500D01*
D02*
G37*
G36*
X240500Y147124D02*
Y145500D01*
X242124D01*
X242055Y145851D01*
X241572Y146572D01*
X240851Y147055D01*
X240500Y147124D01*
D02*
G37*
G36*
X239500D02*
X239149Y147055D01*
X238427Y146572D01*
X237945Y145851D01*
X237876Y145500D01*
X239500D01*
Y147124D01*
D02*
G37*
G36*
X42000Y149500D02*
X40376D01*
X40445Y149149D01*
X40927Y148427D01*
X41649Y147945D01*
X42000Y147876D01*
Y149500D01*
D02*
G37*
G36*
Y152124D02*
X41649Y152055D01*
X40927Y151573D01*
X40445Y150851D01*
X40376Y150500D01*
X42000D01*
Y152124D01*
D02*
G37*
G36*
X266772Y156304D02*
X265787Y156175D01*
X264869Y155795D01*
X264082Y155190D01*
X263477Y154402D01*
X263097Y153485D01*
X262967Y152500D01*
X263097Y151515D01*
X263477Y150598D01*
X264082Y149810D01*
X264869Y149206D01*
X265787Y148825D01*
X266772Y148696D01*
X267756Y148825D01*
X268674Y149206D01*
X269462Y149810D01*
X270066Y150598D01*
X270446Y151515D01*
X270576Y152500D01*
X270446Y153485D01*
X270066Y154402D01*
X269462Y155190D01*
X268674Y155795D01*
X267756Y156175D01*
X266772Y156304D01*
D02*
G37*
G36*
X139500Y152124D02*
X139149Y152055D01*
X138427Y151573D01*
X137945Y150851D01*
X137876Y150500D01*
X139500D01*
Y152124D01*
D02*
G37*
G36*
X43000D02*
Y150500D01*
X44624D01*
X44555Y150851D01*
X44072Y151573D01*
X43351Y152055D01*
X43000Y152124D01*
D02*
G37*
G36*
X152124Y149500D02*
X150500D01*
Y147876D01*
X150851Y147945D01*
X151573Y148427D01*
X152055Y149149D01*
X152124Y149500D01*
D02*
G37*
G36*
X139500D02*
X137876D01*
X137945Y149149D01*
X138427Y148427D01*
X139149Y147945D01*
X139500Y147876D01*
Y149500D01*
D02*
G37*
G36*
X44624D02*
X43000D01*
Y147876D01*
X43351Y147945D01*
X44072Y148427D01*
X44555Y149149D01*
X44624Y149500D01*
D02*
G37*
G36*
X149500D02*
X147876D01*
X147945Y149149D01*
X148427Y148427D01*
X149149Y147945D01*
X149500Y147876D01*
Y149500D01*
D02*
G37*
G36*
X142124D02*
X140500D01*
Y147876D01*
X140851Y147945D01*
X141572Y148427D01*
X142054Y149149D01*
X142124Y149500D01*
D02*
G37*
G36*
X150000Y137224D02*
X149149Y137055D01*
X148427Y136573D01*
X147945Y135851D01*
X147776Y135000D01*
X147945Y134149D01*
X148427Y133428D01*
X149149Y132946D01*
X150000Y132776D01*
X150851Y132946D01*
X151573Y133428D01*
X152055Y134149D01*
X152224Y135000D01*
X152055Y135851D01*
X151573Y136573D01*
X150851Y137055D01*
X150000Y137224D01*
D02*
G37*
G36*
X85500Y132124D02*
Y130500D01*
X87124D01*
X87055Y130851D01*
X86572Y131572D01*
X85851Y132054D01*
X85500Y132124D01*
D02*
G37*
G36*
X20000Y144185D02*
X18917Y144043D01*
X17907Y143625D01*
X17041Y142959D01*
X16375Y142093D01*
X15957Y141083D01*
X15815Y140000D01*
X15957Y138917D01*
X16375Y137907D01*
X17041Y137040D01*
X17907Y136375D01*
X18917Y135957D01*
X20000Y135815D01*
X21083Y135957D01*
X22093Y136375D01*
X22960Y137040D01*
X23625Y137907D01*
X24043Y138917D01*
X24185Y140000D01*
X24043Y141083D01*
X23625Y142093D01*
X22960Y142959D01*
X22093Y143625D01*
X21083Y144043D01*
X20000Y144185D01*
D02*
G37*
G36*
X256772Y141304D02*
X255787Y141175D01*
X254870Y140795D01*
X254082Y140190D01*
X253477Y139402D01*
X253097Y138485D01*
X252968Y137500D01*
X253097Y136515D01*
X253477Y135598D01*
X254082Y134810D01*
X254870Y134205D01*
X255787Y133825D01*
X256772Y133696D01*
X257756Y133825D01*
X258674Y134205D01*
X259462Y134810D01*
X260066Y135598D01*
X260446Y136515D01*
X260576Y137500D01*
X260446Y138485D01*
X260066Y139402D01*
X259462Y140190D01*
X258674Y140795D01*
X257756Y141175D01*
X256772Y141304D01*
D02*
G37*
G36*
X84500Y132124D02*
X84149Y132054D01*
X83428Y131572D01*
X82946Y130851D01*
X82876Y130500D01*
X84500D01*
Y132124D01*
D02*
G37*
G36*
Y129500D02*
X82876D01*
X82946Y129149D01*
X83428Y128428D01*
X84149Y127945D01*
X84500Y127876D01*
Y129500D01*
D02*
G37*
G36*
X190000Y132224D02*
X189149Y132054D01*
X188427Y131572D01*
X187945Y130851D01*
X187776Y130000D01*
X187945Y129149D01*
X188427Y128428D01*
X189149Y127945D01*
X190000Y127776D01*
X190851Y127945D01*
X191572Y128428D01*
X192054Y129149D01*
X192224Y130000D01*
X192054Y130851D01*
X191572Y131572D01*
X190851Y132054D01*
X190000Y132224D01*
D02*
G37*
G36*
X266772Y136304D02*
X265787Y136175D01*
X264869Y135794D01*
X264082Y135190D01*
X263477Y134402D01*
X263097Y133485D01*
X262967Y132500D01*
X263097Y131515D01*
X263477Y130598D01*
X264082Y129810D01*
X264869Y129206D01*
X265787Y128825D01*
X266772Y128696D01*
X267756Y128825D01*
X268674Y129206D01*
X269462Y129810D01*
X270066Y130598D01*
X270446Y131515D01*
X270576Y132500D01*
X270446Y133485D01*
X270066Y134402D01*
X269462Y135190D01*
X268674Y135794D01*
X267756Y136175D01*
X266772Y136304D01*
D02*
G37*
G36*
X87124Y129500D02*
X85500D01*
Y127876D01*
X85851Y127945D01*
X86572Y128428D01*
X87055Y129149D01*
X87124Y129500D01*
D02*
G37*
G36*
X70000Y144185D02*
X68917Y144043D01*
X67907Y143625D01*
X67040Y142959D01*
X66375Y142093D01*
X65957Y141083D01*
X65815Y140000D01*
X65957Y138917D01*
X66375Y137907D01*
X67040Y137040D01*
X67907Y136375D01*
X68917Y135957D01*
X70000Y135815D01*
X71083Y135957D01*
X72093Y136375D01*
X72960Y137040D01*
X73625Y137907D01*
X74043Y138917D01*
X74185Y140000D01*
X74043Y141083D01*
X73625Y142093D01*
X72960Y142959D01*
X72093Y143625D01*
X71083Y144043D01*
X70000Y144185D01*
D02*
G37*
G36*
X189500Y142124D02*
X189149Y142054D01*
X188427Y141572D01*
X187945Y140851D01*
X187876Y140500D01*
X189500D01*
Y142124D01*
D02*
G37*
G36*
X266772Y146304D02*
X265787Y146175D01*
X264869Y145794D01*
X264082Y145190D01*
X263477Y144402D01*
X263097Y143485D01*
X262967Y142500D01*
X263097Y141515D01*
X263477Y140598D01*
X264082Y139810D01*
X264869Y139206D01*
X265787Y138825D01*
X266772Y138696D01*
X267756Y138825D01*
X268674Y139206D01*
X269462Y139810D01*
X270066Y140598D01*
X270446Y141515D01*
X270576Y142500D01*
X270446Y143485D01*
X270066Y144402D01*
X269462Y145190D01*
X268674Y145794D01*
X267756Y146175D01*
X266772Y146304D01*
D02*
G37*
G36*
X239500Y144500D02*
X237876D01*
X237945Y144149D01*
X238427Y143428D01*
X239149Y142946D01*
X239500Y142876D01*
Y144500D01*
D02*
G37*
G36*
X190500Y142124D02*
Y140500D01*
X192124D01*
X192054Y140851D01*
X191572Y141572D01*
X190851Y142054D01*
X190500Y142124D01*
D02*
G37*
G36*
X192124Y139500D02*
X190500D01*
Y137876D01*
X190851Y137945D01*
X191572Y138427D01*
X192054Y139149D01*
X192124Y139500D01*
D02*
G37*
G36*
X210000Y142224D02*
X209149Y142054D01*
X208428Y141572D01*
X207945Y140851D01*
X207776Y140000D01*
X207945Y139149D01*
X208428Y138427D01*
X209149Y137945D01*
X210000Y137776D01*
X210851Y137945D01*
X211573Y138427D01*
X212055Y139149D01*
X212224Y140000D01*
X212055Y140851D01*
X211573Y141572D01*
X210851Y142054D01*
X210000Y142224D01*
D02*
G37*
G36*
X90000D02*
X89149Y142054D01*
X88428Y141572D01*
X87945Y140851D01*
X87776Y140000D01*
X87945Y139149D01*
X88428Y138427D01*
X89149Y137945D01*
X90000Y137776D01*
X90851Y137945D01*
X91572Y138427D01*
X92054Y139149D01*
X92224Y140000D01*
X92054Y140851D01*
X91572Y141572D01*
X90851Y142054D01*
X90000Y142224D01*
D02*
G37*
G36*
X189500Y139500D02*
X187876D01*
X187945Y139149D01*
X188427Y138427D01*
X189149Y137945D01*
X189500Y137876D01*
Y139500D01*
D02*
G37*
G36*
X225000Y142224D02*
X224149Y142054D01*
X223428Y141572D01*
X222945Y140851D01*
X222776Y140000D01*
X222945Y139149D01*
X223428Y138427D01*
X224149Y137945D01*
X225000Y137776D01*
X225851Y137945D01*
X226572Y138427D01*
X227055Y139149D01*
X227224Y140000D01*
X227055Y140851D01*
X226572Y141572D01*
X225851Y142054D01*
X225000Y142224D01*
D02*
G37*
%LPD*%
D28*
X300000Y105000D02*
X305000D01*
X311063Y98937D01*
Y84902D02*
Y98937D01*
X310000Y185000D02*
X315000Y180000D01*
Y168839D02*
Y180000D01*
X311063Y164902D02*
X315000Y168839D01*
X300000Y39902D02*
X305197Y45098D01*
X311063D01*
X300000Y35000D02*
Y39902D01*
Y115000D02*
X307500D01*
X311063Y118563D01*
Y125098D01*
X305079Y135098D02*
X319902D01*
X305079Y55098D02*
X320098D01*
X325000Y110000D02*
X327500Y112500D01*
X319902Y135098D02*
X327500Y127500D01*
Y112500D02*
Y127500D01*
X325000Y110000D02*
X327500Y107500D01*
X320098Y55098D02*
X327500Y62500D01*
Y107500D01*
X245000Y110000D02*
X325000D01*
D31*
X95000Y120000D02*
Y170000D01*
X90000Y115000D02*
X95000Y120000D01*
X90000Y75000D02*
Y115000D01*
Y75000D02*
X110000Y55000D01*
D34*
X13780Y206693D02*
D03*
X242126D02*
D03*
X13780Y13780D02*
D03*
X242126D02*
D03*
D35*
X210000Y20000D02*
D03*
Y30000D02*
D03*
X80000Y200000D02*
D03*
X70000D02*
D03*
X190000Y30000D02*
D03*
Y20000D02*
D03*
X20000Y160000D02*
D03*
Y150000D02*
D03*
D39*
X311063Y125098D02*
D03*
X305079Y135098D02*
D03*
X311063Y164902D02*
D03*
Y45098D02*
D03*
X305079Y55098D02*
D03*
X311063Y84902D02*
D03*
D40*
X279764Y118996D02*
D03*
Y181004D02*
D03*
Y38996D02*
D03*
Y101004D02*
D03*
D42*
X110000Y55000D02*
D03*
X140000Y150000D02*
D03*
X90000Y115000D02*
D03*
X95000Y170000D02*
D03*
X135000Y165000D02*
D03*
X110000Y95000D02*
D03*
X50000Y65000D02*
D03*
X85000Y130000D02*
D03*
X65000Y20000D02*
D03*
X50000Y55000D02*
D03*
X310000Y185000D02*
D03*
X300000Y105000D02*
D03*
Y35000D02*
D03*
Y115000D02*
D03*
X155000Y50000D02*
D03*
X165000Y55000D02*
D03*
X110000Y160000D02*
D03*
X190000Y140000D02*
D03*
X172500Y157500D02*
D03*
X130000Y106000D02*
D03*
X325000Y110000D02*
D03*
X260000Y115000D02*
D03*
Y195000D02*
D03*
Y185000D02*
D03*
Y105000D02*
D03*
X240000Y157500D02*
D03*
Y145000D02*
D03*
Y122500D02*
D03*
Y95000D02*
D03*
Y60000D02*
D03*
Y72500D02*
D03*
X172603Y82500D02*
D03*
X190000Y110000D02*
D03*
X112500Y180000D02*
D03*
X187500D02*
D03*
X160000Y72500D02*
D03*
X50000Y75000D02*
D03*
X85000Y115000D02*
D03*
X150000Y150000D02*
D03*
X50000Y180000D02*
D03*
X42500Y150000D02*
D03*
X125000Y60000D02*
D03*
X120000Y175000D02*
D03*
X245000Y110000D02*
D03*
X131339Y111339D02*
D03*
Y115669D02*
D03*
Y120000D02*
D03*
Y124331D02*
D03*
Y128661D02*
D03*
X135669Y111339D02*
D03*
Y115669D02*
D03*
Y120000D02*
D03*
Y124331D02*
D03*
Y128661D02*
D03*
X140000Y111339D02*
D03*
Y115669D02*
D03*
Y120000D02*
D03*
Y124331D02*
D03*
Y128661D02*
D03*
X144331Y111339D02*
D03*
Y115669D02*
D03*
Y120000D02*
D03*
Y124331D02*
D03*
Y128661D02*
D03*
X148661Y111339D02*
D03*
Y115669D02*
D03*
Y120000D02*
D03*
Y124331D02*
D03*
Y128661D02*
D03*
M02*
