G04*
G04 #@! TF.GenerationSoftware,Altium Limited,CircuitStudio,1.5.2 (30)*
G04*
G04 Layer_Color=7318015*
%FSLAX25Y25*%
%MOIN*%
G70*
G01*
G75*
%ADD26C,0.03937*%
%ADD50R,0.00781X0.05112*%
%ADD51R,0.05112X0.00781*%
%ADD52R,0.17638X0.17638*%
%ADD53R,0.03140X0.02943*%
%ADD54R,0.02943X0.03140*%
%ADD55R,0.03140X0.02943*%
%ADD56R,0.03258X0.03416*%
%ADD57R,0.02943X0.03140*%
%ADD58R,0.03416X0.03258*%
%ADD59R,0.01762X0.05306*%
%ADD60R,0.04712X0.02743*%
%ADD61R,0.19253X0.05474*%
%ADD62R,0.03534X0.01959*%
%ADD63R,0.05109X0.03731*%
D26*
X35000Y15000D02*
D03*
Y205000D02*
D03*
X300000Y15000D02*
D03*
D50*
X154764Y142441D02*
D03*
X152795D02*
D03*
X150827D02*
D03*
X148858D02*
D03*
X146890D02*
D03*
X144921D02*
D03*
X142953D02*
D03*
X140984D02*
D03*
X139016D02*
D03*
X137047D02*
D03*
X135079D02*
D03*
X133110D02*
D03*
X131142D02*
D03*
X129173D02*
D03*
X127205D02*
D03*
X125236D02*
D03*
Y97559D02*
D03*
X127205D02*
D03*
X129173D02*
D03*
X131142D02*
D03*
X133110D02*
D03*
X135079D02*
D03*
X137047D02*
D03*
X139016D02*
D03*
X140984D02*
D03*
X142953D02*
D03*
X144921D02*
D03*
X146890D02*
D03*
X148858D02*
D03*
X150827D02*
D03*
X152795D02*
D03*
X154764D02*
D03*
D51*
X117559Y134764D02*
D03*
Y132795D02*
D03*
Y130827D02*
D03*
Y128858D02*
D03*
Y126890D02*
D03*
Y124921D02*
D03*
Y122953D02*
D03*
Y120984D02*
D03*
Y119016D02*
D03*
Y117047D02*
D03*
Y115079D02*
D03*
Y113110D02*
D03*
Y111142D02*
D03*
Y109173D02*
D03*
Y107205D02*
D03*
Y105236D02*
D03*
X162441D02*
D03*
Y107205D02*
D03*
Y109173D02*
D03*
Y111142D02*
D03*
Y113110D02*
D03*
Y115079D02*
D03*
Y117047D02*
D03*
Y119016D02*
D03*
Y120984D02*
D03*
Y122953D02*
D03*
Y124921D02*
D03*
Y126890D02*
D03*
Y128858D02*
D03*
Y130827D02*
D03*
Y132795D02*
D03*
Y134764D02*
D03*
D52*
X140000Y120000D02*
D03*
D53*
X177500Y131850D02*
D03*
Y138150D02*
D03*
X185000Y84350D02*
D03*
Y90650D02*
D03*
Y131850D02*
D03*
Y138150D02*
D03*
X202500Y113150D02*
D03*
Y106850D02*
D03*
X177500Y90650D02*
D03*
Y84350D02*
D03*
Y106850D02*
D03*
Y113150D02*
D03*
X185000Y106850D02*
D03*
Y113150D02*
D03*
X177500Y149350D02*
D03*
Y155650D02*
D03*
X185000D02*
D03*
Y149350D02*
D03*
X105000Y98150D02*
D03*
Y91850D02*
D03*
X140000Y156850D02*
D03*
Y163150D02*
D03*
X150000D02*
D03*
Y156850D02*
D03*
X120000Y61850D02*
D03*
Y68150D02*
D03*
X130000Y61850D02*
D03*
Y68150D02*
D03*
X160000Y76850D02*
D03*
Y83150D02*
D03*
X187500Y193150D02*
D03*
Y186850D02*
D03*
X112500Y193150D02*
D03*
Y186850D02*
D03*
X70000Y183150D02*
D03*
Y176850D02*
D03*
D54*
X235650Y125000D02*
D03*
X229350D02*
D03*
X235650Y155000D02*
D03*
X229350D02*
D03*
Y147500D02*
D03*
X235650D02*
D03*
X229350Y85000D02*
D03*
X235650D02*
D03*
Y140000D02*
D03*
X229350D02*
D03*
X53150Y80000D02*
D03*
X46850D02*
D03*
X98150Y120000D02*
D03*
X91850D02*
D03*
Y135000D02*
D03*
X98150D02*
D03*
X229350Y77500D02*
D03*
X235650D02*
D03*
X128150Y170000D02*
D03*
X121850D02*
D03*
X123150Y155000D02*
D03*
X116850D02*
D03*
X235650Y132500D02*
D03*
X229350D02*
D03*
X235650Y62500D02*
D03*
X229350D02*
D03*
X235650Y70000D02*
D03*
X229350D02*
D03*
X235650Y92500D02*
D03*
X229350D02*
D03*
D55*
X220551Y155000D02*
D03*
X214449D02*
D03*
Y70000D02*
D03*
X220551D02*
D03*
Y92500D02*
D03*
X214449D02*
D03*
Y125000D02*
D03*
X220551D02*
D03*
X214449Y132500D02*
D03*
X220551D02*
D03*
X214449Y147500D02*
D03*
X220551D02*
D03*
Y140000D02*
D03*
X214449D02*
D03*
X58051Y40000D02*
D03*
X51949D02*
D03*
X220551Y62500D02*
D03*
X214449D02*
D03*
X220551Y85000D02*
D03*
X214449D02*
D03*
X220551Y77500D02*
D03*
X214449D02*
D03*
X78051Y40000D02*
D03*
X71949D02*
D03*
X168051Y170000D02*
D03*
X161949D02*
D03*
X46949Y90000D02*
D03*
X53051D02*
D03*
X73051D02*
D03*
X66949D02*
D03*
X301949Y30000D02*
D03*
X308051D02*
D03*
X301949Y190000D02*
D03*
X308051D02*
D03*
Y110000D02*
D03*
X301949D02*
D03*
X286949D02*
D03*
X293051D02*
D03*
D56*
X192500Y84587D02*
D03*
Y90413D02*
D03*
Y149587D02*
D03*
Y155413D02*
D03*
X210000Y112913D02*
D03*
Y107087D02*
D03*
D57*
X195000Y106949D02*
D03*
Y113051D02*
D03*
X165000Y61949D02*
D03*
Y68051D02*
D03*
X80000Y183051D02*
D03*
Y176949D02*
D03*
X147500Y68051D02*
D03*
Y61949D02*
D03*
X155000Y68051D02*
D03*
Y61949D02*
D03*
D58*
X262913Y190000D02*
D03*
X257087D02*
D03*
X142087Y170000D02*
D03*
X147913D02*
D03*
X257087Y110000D02*
D03*
X262913D02*
D03*
D59*
X57500Y49370D02*
D03*
X62500D02*
D03*
X67500D02*
D03*
X72500D02*
D03*
X57500Y70630D02*
D03*
X62500D02*
D03*
X67500D02*
D03*
X72500D02*
D03*
D60*
X55000Y21161D02*
D03*
Y28839D02*
D03*
X75000Y21161D02*
D03*
Y28839D02*
D03*
D61*
X168701Y190000D02*
D03*
X131299D02*
D03*
D62*
X58169Y175768D02*
D03*
Y184232D02*
D03*
X41831D02*
D03*
Y175768D02*
D03*
D63*
X50000Y141457D02*
D03*
Y148543D02*
D03*
M02*
