G04*
G04 #@! TF.GenerationSoftware,Altium Limited,CircuitStudio,1.5.2 (30)*
G04*
G04 Layer_Physical_Order=1*
G04 Layer_Color=11767835*
%FSLAX25Y25*%
%MOIN*%
G70*
G01*
G75*
%ADD10C,0.00693*%
%ADD11C,0.00692*%
%ADD12C,0.03937*%
%ADD13R,0.04016X0.03858*%
%ADD14R,0.05709X0.04331*%
%ADD15R,0.03543X0.03740*%
%ADD16R,0.03740X0.03543*%
%ADD17R,0.03740X0.03543*%
%ADD18R,0.03543X0.03740*%
%ADD19R,0.05512X0.03543*%
%ADD20R,0.04134X0.02559*%
%ADD21R,0.21654X0.07874*%
%ADD22R,0.02362X0.05906*%
%ADD23R,0.03858X0.04016*%
%ADD24R,0.22638X0.22638*%
%ADD25R,0.05512X0.01181*%
%ADD26R,0.01181X0.05512*%
%ADD27C,0.01000*%
%ADD28C,0.01600*%
%ADD29C,0.01200*%
%ADD30C,0.03000*%
%ADD31C,0.02000*%
%ADD32C,0.04200*%
%ADD33C,0.02400*%
%ADD34C,0.07874*%
%ADD35C,0.06299*%
%ADD36R,0.06299X0.06299*%
%ADD37R,0.06299X0.06299*%
%ADD38C,0.12795*%
%ADD39C,0.06024*%
%ADD40C,0.09449*%
%ADD41C,0.05543*%
%ADD42C,0.02362*%
D10*
X260113Y133178D02*
G03*
X260316Y133668I-490J490D01*
G01*
X247500Y143834D02*
G03*
X239500Y151834I-8000J0D01*
G01*
X231271Y153029D02*
G03*
X234157Y151834I2886J2886D01*
G01*
X260316Y133668D02*
G03*
X260113Y134158I-693J0D01*
G01*
X259348Y132861D02*
G03*
X260113Y133178I0J1083D01*
G01*
X247500Y136234D02*
G03*
X250872Y132861I3373J0D01*
G01*
X215800Y151867D02*
G03*
X218647Y153046I0J4026D01*
G01*
X207567Y151867D02*
G03*
X203000Y147300I0J-4567D01*
G01*
X199634Y143934D02*
G03*
X203000Y147300I0J3366D01*
G01*
X174200Y143934D02*
G03*
X171266Y141000I0J-2934D01*
G01*
X168561Y132795D02*
G03*
X171266Y135500I0J2705D01*
G01*
X225000Y151867D02*
G03*
X227163Y152763I0J3059D01*
G01*
X223008Y152692D02*
G03*
X225000Y151867I1992J1992D01*
G01*
X234097Y150600D02*
G03*
X231200Y149400I0J-4097D01*
G01*
X266772Y132500D02*
G03*
X266473Y132624I-298J-298D01*
G01*
X262007Y132624D02*
G03*
X260805Y132125I0J-1700D01*
G01*
X259603Y131628D02*
G03*
X260805Y132125I0J1700D01*
G01*
X246266Y143834D02*
G03*
X239500Y150600I-6766J0D01*
G01*
X246266Y136234D02*
G03*
X250872Y131628I4606J0D01*
G01*
X218647Y149454D02*
G03*
X215800Y150633I-2847J-2847D01*
G01*
X207567D02*
G03*
X204234Y147300I0J-3333D01*
G01*
X199634Y142700D02*
G03*
X204234Y147300I0J4600D01*
G01*
X174200Y142700D02*
G03*
X172500Y141000I0J-1700D01*
G01*
X167827Y130827D02*
G03*
X172500Y135500I0J4673D01*
G01*
X226869Y149783D02*
G03*
X222661Y149666I-2042J-2290D01*
G01*
X207534Y92400D02*
G03*
X197700Y102234I-9834J0D01*
G01*
X207534Y92400D02*
G03*
X210567Y89367I3033J0D01*
G01*
X170224Y115505D02*
G03*
X166500Y117047I-3724J-3724D01*
G01*
X173100Y110384D02*
G03*
X171513Y114216I-5419J0D01*
G01*
X173100Y104295D02*
G03*
X175161Y102234I2061J0D01*
G01*
X215482Y89367D02*
G03*
X218700Y90700I0J4551D01*
G01*
X223008Y90192D02*
G03*
X225000Y89367I1992J1992D01*
G01*
D02*
G03*
X227163Y90263I0J3059D01*
G01*
X250216Y84784D02*
G03*
X254200Y83134I3984J3984D01*
G01*
X262600Y78034D02*
G03*
X257500Y83134I-5100J0D01*
G01*
X262600Y68095D02*
G03*
X263882Y65000I4377J0D01*
G01*
X247664Y87336D02*
G03*
X242842Y89333I-4822J-4822D01*
G01*
X206300Y92400D02*
G03*
X197700Y101000I-8600J0D01*
G01*
X206300Y92400D02*
G03*
X210567Y88133I4267J0D01*
G01*
X170631Y113353D02*
G03*
X166464Y115079I-4166J-4166D01*
G01*
X171866Y110371D02*
G03*
X170631Y113353I-4217J0D01*
G01*
X171866Y104292D02*
G03*
X175158Y101000I3292J0D01*
G01*
X218600Y86800D02*
G03*
X215382Y88133I-3218J-3218D01*
G01*
X224902Y88133D02*
G03*
X222739Y87237I0J-3059D01*
G01*
X256772Y73428D02*
G03*
X258600Y71600I1828J0D01*
G01*
X249352Y83903D02*
G03*
X254188Y81900I4837J4837D01*
G01*
X259152Y71600D02*
G03*
X261366Y73814I0J2214D01*
G01*
Y78034D02*
G03*
X257500Y81900I-3866J0D01*
G01*
X226894Y87308D02*
G03*
X224902Y88133I-1992J-1992D01*
G01*
X246801Y86454D02*
G03*
X242828Y88099I-3972J-3972D01*
G01*
X170000Y98500D02*
G03*
X173057Y97234I3057J3057D01*
G01*
X169000Y100914D02*
G03*
X170000Y98500I3414J0D01*
G01*
X201834Y73166D02*
G03*
X208133Y66867I6299J0D01*
G01*
X216725Y66867D02*
G03*
X217505Y67190I0J1103D01*
G01*
X223008Y67692D02*
G03*
X225000Y66867I1992J1992D01*
G01*
X201834Y89900D02*
G03*
X194500Y97234I-7334J0D01*
G01*
X225000Y66867D02*
G03*
X227163Y67763I0J3059D01*
G01*
X169000Y110300D02*
G03*
X166200Y113100I-2800J0D01*
G01*
X169128Y97628D02*
G03*
X173057Y96000I3929J3929D01*
G01*
X167766Y100907D02*
G03*
X169122Y97633I4629J0D01*
G01*
X200600Y73166D02*
G03*
X208133Y65633I7533J0D01*
G01*
X218600Y64300D02*
G03*
X215382Y65633I-3218J-3218D01*
G01*
X224902Y65633D02*
G03*
X222739Y64737I0J-3059D01*
G01*
X200600Y89900D02*
G03*
X194500Y96000I-6100J0D01*
G01*
X226894Y64808D02*
G03*
X224902Y65633I-1992J-1992D01*
G01*
X167766Y109576D02*
G03*
X166200Y111142I-1566J0D01*
G01*
X270000Y128000D02*
G03*
X271500Y131621I-3621J3621D01*
G01*
X265172Y126000D02*
G03*
X270000Y128000I0J6828D01*
G01*
X245220Y127030D02*
G03*
X247707Y126000I2487J2487D01*
G01*
X261000Y153272D02*
G03*
X256772Y157500I-4228J0D01*
G01*
X271500Y132500D02*
G03*
X267234Y136766I-4266J0D01*
G01*
X261000Y140266D02*
G03*
X264500Y136766I3500J0D01*
G01*
X169353Y128146D02*
G03*
X167635Y128858I-1719J-1719D01*
G01*
X170293Y127207D02*
G03*
X172000Y126500I1707J1707D01*
G01*
X202855D02*
G03*
X205927Y127772I0J4344D01*
G01*
X209773Y129367D02*
G03*
X205930Y127775I0J-5434D01*
G01*
X215724Y129367D02*
G03*
X218701Y130600I0J4210D01*
G01*
X223008Y130192D02*
G03*
X225000Y129367I1992J1992D01*
G01*
D02*
G03*
X227163Y130263I0J3059D01*
G01*
X231201Y130599D02*
G03*
X234177Y129367I2976J2977D01*
G01*
X243567Y128683D02*
G03*
X241917Y129367I-1650J-1650D01*
G01*
X265186Y124766D02*
G03*
X270863Y127118I0J8028D01*
G01*
X244355Y126150D02*
G03*
X247696Y124766I3341J3341D01*
G01*
X270881Y127136D02*
G03*
X272734Y131610I-4474J4474D01*
G01*
X262500Y140000D02*
G03*
X264500Y138000I2000J0D01*
G01*
X264000Y147500D02*
G03*
X262500Y146000I0J-1500D01*
G01*
X266000Y147000D02*
G03*
X264793Y147500I-1207J-1207D01*
G01*
X272734Y132500D02*
G03*
X267234Y138000I-5500J0D01*
G01*
X266772Y145137D02*
G03*
X266000Y147000I-2635J0D01*
G01*
X168853Y126146D02*
G03*
X170979Y125266I2125J2125D01*
G01*
X168853Y126146D02*
G03*
X167059Y126890I-1795J-1795D01*
G01*
X202866Y125266D02*
G03*
X206792Y126892I0J5552D01*
G01*
X209777Y128133D02*
G03*
X206800Y126900I0J-4210D01*
G01*
X218701Y126900D02*
G03*
X215724Y128133I-2977J-2977D01*
G01*
X224902Y128133D02*
G03*
X222739Y127237I0J-3059D01*
G01*
X226894Y127308D02*
G03*
X224902Y128133I-1992J-1992D01*
G01*
X234177Y128133D02*
G03*
X231200Y126900I0J-4210D01*
G01*
X243056Y127450D02*
G03*
X241406Y128133I-1650J-1650D01*
G01*
X218701Y149400D02*
Y149400D01*
X218701Y149400D01*
X220551Y147500D01*
X229350D02*
X231200Y149400D01*
X218701Y153100D02*
X220551Y155000D01*
X229350D02*
X231200Y153100D01*
X247500Y136234D02*
Y143834D01*
X234157Y151834D02*
X239500D01*
X256772Y137500D02*
X260113Y134158D01*
X250872Y132861D02*
X259348D01*
X218647Y153046D02*
X218701Y153100D01*
X207567Y151867D02*
X215800D01*
X174200Y143934D02*
X199634D01*
X171266Y135500D02*
Y141000D01*
X162441Y132795D02*
X168561D01*
X227500Y153100D02*
X229350Y155000D01*
X227163Y152763D02*
X227500Y153100D01*
X220551Y155000D02*
X222500Y153200D01*
X223008Y152692D01*
X234097Y150600D02*
X239500D01*
X262007Y132624D02*
X266473D01*
X246266Y136234D02*
Y143834D01*
X250872Y131628D02*
X259603D01*
X207567Y150633D02*
X215800D01*
X218647Y149454D02*
X218701Y149400D01*
X174200Y142700D02*
X199634D01*
X172500Y135500D02*
Y141000D01*
X162441Y130827D02*
X167827D01*
X220551Y147500D02*
X222657Y149662D01*
X226869Y149783D02*
X227377Y149275D01*
X229326Y147475D01*
X170224Y115505D02*
X171513Y114216D01*
X222500Y90700D02*
X223008Y90192D01*
X220551Y92500D02*
X222500Y90700D01*
X266382Y62500D02*
X266772D01*
X227163Y90263D02*
X227500Y90600D01*
X229350Y92500D01*
X231200Y90600D01*
X218600Y86800D02*
X218600Y86800D01*
X220551Y85000D02*
X222402Y86900D01*
X222739Y87237D01*
X227402Y86800D02*
X229350Y85000D01*
X231200Y86900D01*
X226894Y87308D02*
X227402Y86800D01*
X175161Y102234D02*
X197700D01*
X162441Y117047D02*
X166500D01*
X173100Y104295D02*
Y110384D01*
X210567Y89367D02*
X215482D01*
X218700Y90700D02*
X218700Y90700D01*
X220551Y92500D01*
X254200Y83134D02*
Y83134D01*
X262600Y68095D02*
Y78034D01*
X254200Y83134D02*
X257500D01*
X263882Y65000D02*
X266382Y62500D01*
X247664Y87336D02*
X247664Y87336D01*
X250216Y84784D01*
X234200Y89333D02*
X242842D01*
X175158Y101000D02*
X197700D01*
X162441Y115079D02*
X166464D01*
X171866Y104292D02*
Y110371D01*
X210567Y88133D02*
X215382D01*
X256772Y73428D02*
Y77500D01*
X254200Y81900D02*
X257500D01*
X258600Y71600D02*
X259152D01*
X261366Y73814D02*
Y78034D01*
X246801Y86454D02*
X249352Y83903D01*
X254188Y81900D02*
X254200D01*
X234097Y88099D02*
X242828D01*
X173057Y96000D02*
X194500D01*
X222500Y68200D02*
X223008Y67692D01*
X217505Y67190D02*
X220551Y70000D01*
X222500Y68200D01*
X227163Y67763D02*
X227500Y68100D01*
X229350Y70000D01*
X231200Y68100D01*
X162441Y113110D02*
X166200D01*
X220551Y62500D02*
X222402Y64400D01*
X222739Y64737D01*
X227402Y64300D02*
X229350Y62500D01*
X231200Y64400D01*
X226894Y64808D02*
X227402Y64300D01*
X173057Y97234D02*
X194500D01*
X169000Y100914D02*
Y110300D01*
X208133Y66867D02*
X208133D01*
X216725Y66867D01*
X201834Y73166D02*
Y89900D01*
X166200Y113100D02*
Y113110D01*
X169128Y97628D02*
X169128Y97628D01*
X169122Y97633D02*
X169128Y97628D01*
X167766Y100907D02*
Y109576D01*
X208133Y65633D02*
X215382D01*
X200600Y73166D02*
Y89900D01*
X162441Y111142D02*
X166200D01*
X247707Y126000D02*
X265172D01*
X222500Y130700D02*
X223008Y130192D01*
X220551Y132500D02*
X222500Y130700D01*
X227163Y130263D02*
X227500Y130600D01*
X243567Y128683D02*
X245220Y127030D01*
X227500Y130600D02*
X229350Y132500D01*
X227402Y126800D02*
X229350Y125000D01*
X220551D02*
X222402Y126900D01*
X222739Y127237D01*
X226894Y127308D02*
X227402Y126800D01*
X243056Y127450D02*
X244355Y126150D01*
X245220Y127030D02*
X245220Y127030D01*
X261000Y140266D02*
Y153272D01*
X264500Y136766D02*
X267234D01*
X271500Y131621D02*
Y132500D01*
X162441Y128858D02*
X167635D01*
X169354Y128146D02*
X170293Y127207D01*
X172000Y126500D02*
X202855D01*
X205927Y127772D02*
X205930Y127775D01*
X209773Y129367D02*
X215724D01*
X218701Y130600D02*
X218701Y130600D01*
X220551Y132500D01*
X234177Y129367D02*
X241917D01*
X231200Y130600D02*
X231201Y130599D01*
X229350Y132500D02*
X231200Y130600D01*
X270863Y127118D02*
X270881Y127136D01*
X247696Y124766D02*
X265186D01*
X244355Y126150D02*
X244355Y126150D01*
X272734Y131610D02*
Y132500D01*
X262500Y140000D02*
Y146000D01*
X264000Y147500D02*
X264793D01*
X264500Y138000D02*
X267234D01*
X266772Y142500D02*
Y145137D01*
X170979Y125266D02*
X202866D01*
X218701Y126900D02*
X220551Y125000D01*
X162441Y126890D02*
X167059D01*
X206792Y126892D02*
X206800Y126900D01*
X209777Y128133D02*
X215724D01*
X218701Y126900D02*
X218701Y126900D01*
X229350Y125000D02*
X231200Y126900D01*
X234177Y128133D02*
X241406D01*
D11*
X231242Y90558D02*
G03*
X234200Y89333I2958J2958D01*
G01*
X234097Y88100D02*
G03*
X231200Y86900I0J-4097D01*
G01*
X262557Y57693D02*
G03*
X262760Y58182I-489J489D01*
G01*
X263429Y56821D02*
G03*
X263226Y56332I489J-489D01*
G01*
X263226D02*
G03*
X263428Y55843I692J0D01*
G01*
X245500Y64400D02*
G03*
X248318Y63233I2818J2818D01*
G01*
X263027Y59946D02*
G03*
X255091Y63233I-7936J-7936D01*
G01*
X263433Y56825D02*
G03*
X263993Y58177I-1351J1351D01*
G01*
X263993Y58191D02*
G03*
X263436Y59537I-1903J0D01*
G01*
X231242Y68058D02*
G03*
X234200Y66833I2958J2958D01*
G01*
X245483Y64417D02*
G03*
X239650Y66833I-5833J-5833D01*
G01*
X262068Y57490D02*
G03*
X262557Y57693I0J692D01*
G01*
X262158Y59071D02*
G03*
X255087Y62000I-7071J-7071D01*
G01*
X262760Y58182D02*
G03*
X262558Y58671I-692J0D01*
G01*
X234097Y65600D02*
G03*
X231200Y64400I0J-4097D01*
G01*
X244638Y63519D02*
G03*
X248304Y62000I3666J3666D01*
G01*
X244628Y63528D02*
G03*
X239626Y65600I-5002J-5002D01*
G01*
X218600Y86800D02*
X218600Y86800D01*
X218600Y86800D01*
X218600Y86800D02*
X218600Y86800D01*
X220551Y85000D01*
X218600Y64300D02*
X220551Y62500D01*
X256772Y57500D02*
X256781Y57490D01*
X263429Y56821D02*
X263433Y56825D01*
X263428Y55843D02*
X266772Y52500D01*
X263027Y59946D02*
X263436Y59537D01*
X245483Y64417D02*
X245500Y64400D01*
X248318Y63233D02*
X255091D01*
X234200Y66833D02*
X239650D01*
X218600Y64300D02*
X218600Y64300D01*
X256781Y57490D02*
X262068D01*
X262158Y59071D02*
X262558Y58671D01*
X248304Y62000D02*
X255087D01*
X234097Y65600D02*
X239626D01*
X244628Y63528D02*
X244638Y63519D01*
D12*
X300000Y15000D02*
D03*
X35000Y205000D02*
D03*
Y15000D02*
D03*
D13*
X262913Y110000D02*
D03*
X257087D02*
D03*
X147913Y170000D02*
D03*
X142087D02*
D03*
X257087Y190000D02*
D03*
X262913D02*
D03*
D14*
X50000Y148543D02*
D03*
Y141457D02*
D03*
D15*
X229350Y92500D02*
D03*
X235650D02*
D03*
X229350Y70000D02*
D03*
X235650D02*
D03*
X229350Y62500D02*
D03*
X235650D02*
D03*
X229350Y132500D02*
D03*
X235650D02*
D03*
X116850Y155000D02*
D03*
X123150D02*
D03*
X121850Y170000D02*
D03*
X128150D02*
D03*
X235650Y77500D02*
D03*
X229350D02*
D03*
X98150Y135000D02*
D03*
X91850D02*
D03*
Y120000D02*
D03*
X98150D02*
D03*
X46850Y80000D02*
D03*
X53150D02*
D03*
X229350Y140000D02*
D03*
X235650D02*
D03*
Y85000D02*
D03*
X229350D02*
D03*
X235650Y147500D02*
D03*
X229350D02*
D03*
Y155000D02*
D03*
X235650D02*
D03*
X229350Y125000D02*
D03*
X235650D02*
D03*
D16*
X293051Y110000D02*
D03*
X286949D02*
D03*
X301949D02*
D03*
X308051D02*
D03*
Y190000D02*
D03*
X301949D02*
D03*
X308051Y30000D02*
D03*
X301949D02*
D03*
X66949Y90000D02*
D03*
X73051D02*
D03*
X53051D02*
D03*
X46949D02*
D03*
X161949Y170000D02*
D03*
X168051D02*
D03*
X71949Y40000D02*
D03*
X78051D02*
D03*
X214449Y77500D02*
D03*
X220551D02*
D03*
X214449Y85000D02*
D03*
X220551D02*
D03*
X214449Y62500D02*
D03*
X220551D02*
D03*
X51949Y40000D02*
D03*
X58051D02*
D03*
X214449Y140000D02*
D03*
X220551D02*
D03*
Y147500D02*
D03*
X214449D02*
D03*
X220551Y132500D02*
D03*
X214449D02*
D03*
X220551Y125000D02*
D03*
X214449D02*
D03*
Y92500D02*
D03*
X220551D02*
D03*
Y70000D02*
D03*
X214449D02*
D03*
Y155000D02*
D03*
X220551D02*
D03*
D17*
X70000Y176850D02*
D03*
Y183150D02*
D03*
X112500Y186850D02*
D03*
Y193150D02*
D03*
X187500Y186850D02*
D03*
Y193150D02*
D03*
X160000Y83150D02*
D03*
Y76850D02*
D03*
X130000Y68150D02*
D03*
Y61850D02*
D03*
X120000Y68150D02*
D03*
Y61850D02*
D03*
X150000Y156850D02*
D03*
Y163150D02*
D03*
X140000D02*
D03*
Y156850D02*
D03*
X105000Y91850D02*
D03*
Y98150D02*
D03*
X185000Y149350D02*
D03*
Y155650D02*
D03*
X177500D02*
D03*
Y149350D02*
D03*
X185000Y113150D02*
D03*
Y106850D02*
D03*
X177500Y113150D02*
D03*
Y106850D02*
D03*
Y84350D02*
D03*
Y90650D02*
D03*
X202500Y106850D02*
D03*
Y113150D02*
D03*
X185000Y138150D02*
D03*
Y131850D02*
D03*
Y90650D02*
D03*
Y84350D02*
D03*
X177500Y138150D02*
D03*
Y131850D02*
D03*
D18*
X155000Y61949D02*
D03*
Y68051D02*
D03*
X147500Y61949D02*
D03*
Y68051D02*
D03*
X80000Y176949D02*
D03*
Y183051D02*
D03*
X165000Y68051D02*
D03*
Y61949D02*
D03*
X195000Y113051D02*
D03*
Y106949D02*
D03*
D19*
X75000Y28839D02*
D03*
Y21161D02*
D03*
X55000Y28839D02*
D03*
Y21161D02*
D03*
D20*
X41831Y175768D02*
D03*
Y184232D02*
D03*
X58169D02*
D03*
Y175768D02*
D03*
D21*
X131299Y190000D02*
D03*
X168701D02*
D03*
D22*
X72500Y70630D02*
D03*
X67500D02*
D03*
X62500D02*
D03*
X57500D02*
D03*
X72500Y49370D02*
D03*
X67500D02*
D03*
X62500D02*
D03*
X57500D02*
D03*
D23*
X210000Y107087D02*
D03*
Y112913D02*
D03*
X192500Y155413D02*
D03*
Y149587D02*
D03*
Y90413D02*
D03*
Y84587D02*
D03*
D24*
X140000Y120000D02*
D03*
D25*
X162441Y134764D02*
D03*
Y132795D02*
D03*
Y130827D02*
D03*
Y128858D02*
D03*
Y126890D02*
D03*
Y124921D02*
D03*
Y122953D02*
D03*
Y120984D02*
D03*
Y119016D02*
D03*
Y117047D02*
D03*
Y115079D02*
D03*
Y113110D02*
D03*
Y111142D02*
D03*
Y109173D02*
D03*
Y107205D02*
D03*
Y105236D02*
D03*
X117559D02*
D03*
Y107205D02*
D03*
Y109173D02*
D03*
Y111142D02*
D03*
Y113110D02*
D03*
Y115079D02*
D03*
Y117047D02*
D03*
Y119016D02*
D03*
Y120984D02*
D03*
Y122953D02*
D03*
Y124921D02*
D03*
Y126890D02*
D03*
Y128858D02*
D03*
Y130827D02*
D03*
Y132795D02*
D03*
Y134764D02*
D03*
D26*
X154764Y97559D02*
D03*
X152795D02*
D03*
X150827D02*
D03*
X148858D02*
D03*
X146890D02*
D03*
X144921D02*
D03*
X142953D02*
D03*
X140984D02*
D03*
X139016D02*
D03*
X137047D02*
D03*
X135079D02*
D03*
X133110D02*
D03*
X131142D02*
D03*
X129173D02*
D03*
X127205D02*
D03*
X125236D02*
D03*
Y142441D02*
D03*
X127205D02*
D03*
X129173D02*
D03*
X131142D02*
D03*
X133110D02*
D03*
X135079D02*
D03*
X137047D02*
D03*
X139016D02*
D03*
X140984D02*
D03*
X142953D02*
D03*
X144921D02*
D03*
X146890D02*
D03*
X148858D02*
D03*
X150827D02*
D03*
X152795D02*
D03*
X154764D02*
D03*
D27*
X142953Y138815D02*
X143658Y138110D01*
X142953Y138815D02*
Y142441D01*
X143658Y138110D02*
X145955D01*
X146890Y139045D02*
Y142441D01*
X145955Y138110D02*
X146890Y139045D01*
X131142Y142441D02*
Y152771D01*
X133110Y142441D02*
Y153207D01*
X95000Y25000D02*
X100000Y20000D01*
X150827Y90262D02*
X155000Y86089D01*
X150000Y80000D02*
Y86281D01*
X150827Y90262D02*
Y97559D01*
X146890Y89391D02*
Y97559D01*
X148858Y89827D02*
Y97559D01*
Y89827D02*
X152681Y86004D01*
X146890Y89391D02*
X150000Y86281D01*
X154764Y91142D02*
Y97559D01*
Y91142D02*
X157646Y88260D01*
X53051Y90000D02*
X60000D01*
X101396Y124921D02*
X117559D01*
X111725Y134764D02*
X117559D01*
X100960Y122953D02*
X117559D01*
X109500Y130827D02*
X117559D01*
X154764Y142441D02*
Y149764D01*
X98913Y125000D02*
X100960Y122953D01*
X84885Y125000D02*
X98913D01*
X80000Y129885D02*
X84885Y125000D01*
X80000Y129885D02*
Y130000D01*
X106673Y109173D02*
X117559D01*
X102047Y117047D02*
X117559D01*
X144921Y142441D02*
Y150079D01*
X95000Y25000D02*
Y52596D01*
X72500Y70630D02*
Y77500D01*
X75000Y80000D01*
Y85000D01*
X65000Y80000D02*
X67500Y77500D01*
Y70630D02*
Y77500D01*
X65000Y80000D02*
Y85000D01*
X66949Y90000D02*
X67047D01*
X72047Y85000D01*
X75000D01*
X50000D02*
X50261Y84739D01*
Y82987D02*
Y84739D01*
Y82987D02*
X53150Y80098D01*
Y80000D02*
Y80098D01*
X49739Y85261D02*
X50000Y85000D01*
X49739Y85261D02*
Y87308D01*
X47047Y90000D02*
X49739Y87308D01*
X46949Y90000D02*
X47047D01*
X60000D02*
X65000Y85000D01*
X144921Y85079D02*
X145000Y85000D01*
X144921Y85079D02*
Y97559D01*
X142953Y89250D02*
Y97559D01*
X141700Y83300D02*
X145000Y80000D01*
X135079Y87291D02*
Y97559D01*
X141700Y87997D02*
X142953Y89250D01*
X141700Y83300D02*
Y87997D01*
X131142Y88738D02*
Y97559D01*
X95000Y52596D02*
X131142Y88738D01*
X120000Y75000D02*
X133110Y88110D01*
Y97559D01*
X120000Y68150D02*
Y75000D01*
X130000Y82213D02*
X135079Y87291D01*
X130000Y68150D02*
Y82213D01*
X135000Y74631D02*
Y75000D01*
X152681Y77681D02*
Y86004D01*
X125236Y90236D02*
Y97559D01*
X125000Y90000D02*
X125236Y90236D01*
X105000Y100906D02*
X109331Y105236D01*
X117559D01*
X105000Y98150D02*
Y100906D01*
X107109Y107205D02*
X117559D01*
X96700Y96796D02*
X107109Y107205D01*
X96700Y93140D02*
Y96796D01*
Y93140D02*
X104840Y85000D01*
X120000D01*
X102919Y113110D02*
X117559D01*
X95000Y97500D02*
X106673Y109173D01*
X95000Y92435D02*
Y97500D01*
X106238Y111142D02*
X117559D01*
X93300Y98204D02*
X106238Y111142D01*
X93300Y91700D02*
Y98204D01*
Y91700D02*
X110000Y75000D01*
X95000Y92404D02*
Y92435D01*
X100906Y120000D02*
X101890Y120984D01*
X117559D01*
X98199Y120049D02*
X100856D01*
X100906Y120000D01*
X145000Y106000D02*
X148000Y103000D01*
X135000Y106000D02*
X145000D01*
X150000D02*
X154674D01*
X155879Y107205D01*
X162441D01*
X155000Y103000D02*
X157236Y105236D01*
X162441D01*
X148000Y103000D02*
X155000D01*
X125000Y106000D02*
X127205Y103795D01*
Y97559D02*
Y103795D01*
X125906Y155000D02*
X129173Y151732D01*
Y142441D02*
Y151732D01*
X127205Y142441D02*
Y147834D01*
X125236Y142441D02*
Y145913D01*
X125039Y150000D02*
X127205Y147834D01*
X110000Y150000D02*
X125039D01*
X123045Y148104D02*
X125236Y145913D01*
X90000Y130000D02*
X92681Y127319D01*
X98998D01*
X101396Y124921D01*
X100000Y130000D02*
X103110Y126890D01*
X117559D01*
X140098Y156850D02*
X141370Y155579D01*
X140000Y156850D02*
X140098D01*
X130000Y68150D02*
X130098D01*
X147500Y72500D02*
X152681Y77681D01*
X53150Y79902D02*
X57500Y75551D01*
X53150Y79902D02*
Y80000D01*
X57500Y70630D02*
Y75551D01*
X98150Y134902D02*
Y135000D01*
Y134902D02*
X99421Y133630D01*
X106465Y128858D02*
X117559D01*
X101694Y133630D02*
X106465Y128858D01*
X99421Y133630D02*
X101694D01*
X114212Y148104D02*
X123045D01*
X111108Y145000D02*
X114212Y148104D01*
X100000Y150000D02*
X105000Y145000D01*
X111108D01*
X168701Y170650D02*
Y190000D01*
X168051Y170000D02*
X168701Y170650D01*
X131299Y183701D02*
X140000Y175000D01*
X152795Y152033D02*
X155000Y154238D01*
X131299Y183701D02*
Y190000D01*
X152795Y142441D02*
Y152033D01*
X165000Y68150D02*
X167681Y70831D01*
X165000Y68051D02*
Y68150D01*
X152795Y90706D02*
Y97559D01*
X132319Y72681D02*
Y82003D01*
X137047Y86731D01*
Y97559D01*
X104904Y82500D02*
X112500D01*
X95000Y92404D02*
X104904Y82500D01*
X112500D02*
X115000Y80000D01*
X300000Y185000D02*
Y188051D01*
X300579Y188630D01*
Y188728D01*
X301850Y190000D01*
X301949D01*
X310000Y185000D02*
Y188051D01*
X309421Y188630D02*
X310000Y188051D01*
X309421Y188630D02*
Y188728D01*
X308150Y190000D02*
X309421Y188728D01*
X308051Y190000D02*
X308150D01*
X295000Y115000D02*
X300000D01*
X293051Y113051D02*
X295000Y115000D01*
X293051Y110000D02*
Y113051D01*
X290000Y105000D02*
Y107047D01*
X287047Y110000D02*
X290000Y107047D01*
X286949Y110000D02*
X287047D01*
X300000Y105000D02*
Y108150D01*
X301850Y110000D01*
X301949D01*
X310000Y105000D02*
Y108150D01*
X308150Y110000D02*
X310000Y108150D01*
X308051Y110000D02*
X308150D01*
X306852Y35000D02*
X308051Y33801D01*
X300000Y35000D02*
X306852D01*
X308051Y30000D02*
Y33801D01*
X315000Y28209D02*
Y35000D01*
X311791Y25000D02*
X315000Y28209D01*
X147500Y67953D02*
Y68051D01*
Y72500D01*
Y67953D02*
X150772Y64681D01*
X165000Y67953D02*
Y68051D01*
X150772Y49228D02*
Y64681D01*
X301850Y30000D02*
X301949D01*
X165000Y67953D02*
X170000Y62953D01*
X122091Y166630D02*
X135079Y153642D01*
Y142441D02*
Y153642D01*
X90319Y166630D02*
X122091D01*
X121387Y164930D02*
X133110Y153207D01*
X74930Y164930D02*
X121387D01*
X120683Y163230D02*
X131142Y152771D01*
X120000Y160000D02*
X120000Y160000D01*
X122953Y155000D02*
X123150D01*
X124528D01*
X80000Y183051D02*
Y190000D01*
Y183051D02*
X80000Y183051D01*
X104902Y98150D02*
X105000D01*
X150772Y49228D02*
X162500Y37500D01*
X237500Y42500D02*
X245000Y35000D01*
X170000Y50000D02*
Y62953D01*
X70000Y140000D02*
X75000Y145000D01*
X70000Y160000D02*
X74930Y164930D01*
X80000Y176949D02*
X90319Y166630D01*
X177500Y42500D02*
X237500D01*
X170000Y50000D02*
X177500Y42500D01*
X155000Y125000D02*
X155079Y124921D01*
X162441D01*
X202402Y113150D02*
X202500D01*
X209764D02*
X210000Y112913D01*
X202500Y113150D02*
X209764D01*
X151500Y175000D02*
X155000Y171500D01*
X140000Y175000D02*
X151500D01*
X155000Y154238D02*
Y171500D01*
X161850Y170000D02*
X161949D01*
X159000Y154000D02*
Y167150D01*
X161850Y170000D01*
X154764Y149764D02*
X159000Y154000D01*
X158000Y120000D02*
X158984Y119016D01*
X162441D01*
X155000Y120000D02*
X158000D01*
X155000Y110000D02*
X158000D01*
X158827Y109173D01*
X162441D01*
X166414Y134764D02*
X168000Y136350D01*
X162441Y134764D02*
X166414D01*
X168000Y136350D02*
Y146500D01*
X170850Y149350D01*
X177500D01*
X162441Y120984D02*
X174016D01*
X162441Y122953D02*
X175178D01*
X178131Y120000D02*
X195551D01*
X202402Y113150D01*
X175178Y122953D02*
X178131Y120000D01*
X195000Y113051D02*
Y116287D01*
X176700Y118300D02*
X192987D01*
X195000Y116287D01*
X174016Y120984D02*
X176700Y118300D01*
X70000Y176850D02*
X70098Y176949D01*
X80000D01*
X58169Y175768D02*
X58957D01*
X60039Y176850D01*
X70000D01*
X41043Y175768D02*
X41831D01*
X36811Y180000D02*
X41043Y175768D01*
X20000Y180000D02*
X36811D01*
X155000Y68051D02*
Y86089D01*
Y67953D02*
Y68051D01*
X158272Y51728D02*
Y64681D01*
X155000Y67953D02*
X158272Y64681D01*
Y51728D02*
X170000Y40000D01*
X75000Y91850D02*
Y95000D01*
X73150Y90000D02*
X75000Y91850D01*
X73051Y90000D02*
X73150D01*
X55000Y28839D02*
X55984D01*
X58051Y30906D01*
Y40000D01*
X75000Y28839D02*
X75984D01*
X78051Y30906D01*
Y40000D01*
X65000D02*
X71949D01*
X152795Y90706D02*
X160176Y83325D01*
X123150Y155000D02*
X125906D01*
X141370Y153630D02*
Y155579D01*
Y153630D02*
X144921Y150079D01*
X150000Y149631D02*
Y150000D01*
X148858Y142441D02*
Y148490D01*
X150000Y149631D01*
X137047Y146914D02*
X137633Y147500D01*
X137047Y142441D02*
Y146914D01*
X140984Y142441D02*
Y147016D01*
X140500Y147500D02*
X140984Y147016D01*
X139016Y142441D02*
Y147449D01*
X139000Y147500D02*
X140500D01*
X139000D02*
Y148631D01*
Y147465D02*
X139016Y147449D01*
X137633Y147500D02*
X139000D01*
Y147465D02*
Y147500D01*
X41831Y175768D02*
X58169D01*
X20000Y130000D02*
X25000Y135000D01*
X32500Y132500D02*
X55000D01*
X20000Y120000D02*
X32500Y132500D01*
X20000Y90000D02*
X50000Y120000D01*
X57500Y127500D02*
X70000Y140000D01*
X57500Y117500D02*
Y127500D01*
X20000Y80000D02*
X57500Y117500D01*
X20000Y70000D02*
Y70228D01*
X49772Y100000D01*
X50000D01*
X40000Y40000D02*
X51949D01*
X20000Y60000D02*
X40000Y40000D01*
X75000Y130000D02*
X87681Y142681D01*
X97646D01*
X109500Y130827D01*
X100000Y30000D02*
Y34409D01*
X139000Y148631D02*
X140000Y149631D01*
Y150000D01*
X157646Y88260D02*
X161741D01*
X167681Y70831D02*
Y82319D01*
X161741Y88260D02*
X167681Y82319D01*
X262500Y35000D02*
X270000Y27500D01*
X245000Y35000D02*
X262500D01*
X299350Y27500D02*
X301850Y30000D01*
X270000Y27500D02*
X299350D01*
X261500Y32500D02*
X269000Y25000D01*
X311791D01*
X250000Y32500D02*
X261500D01*
X260500Y30000D02*
X268000Y22500D01*
X244000Y32500D02*
X250000D01*
X236500Y40000D02*
X244000Y32500D01*
X170000Y40000D02*
X236500D01*
X235500Y37500D02*
X243000Y30000D01*
X162500Y37500D02*
X235500D01*
X243000Y30000D02*
X260500D01*
X86500Y58500D02*
Y96692D01*
X102919Y113110D01*
X86500Y58500D02*
X90000Y55000D01*
X83500Y98500D02*
X102047Y117047D01*
X83500Y51500D02*
Y98500D01*
Y51500D02*
X90000Y45000D01*
X146890Y142441D02*
Y151390D01*
X98988Y147500D02*
X111725Y134764D01*
X55000Y132500D02*
X70000Y147500D01*
X98988D01*
X268000Y22500D02*
X312500D01*
X325000Y35000D01*
X325078Y35078D01*
X150000Y154500D02*
Y156850D01*
X146890Y151390D02*
X150000Y154500D01*
X132319Y72681D02*
X137500Y67500D01*
X135000Y74631D02*
X140000Y69631D01*
X139016Y77877D02*
Y97559D01*
Y77877D02*
X142500Y74393D01*
X129500Y47500D02*
X140000Y58000D01*
Y69631D01*
X128662Y50162D02*
X137500Y59000D01*
Y67500D01*
X110000Y20000D02*
X115000Y25000D01*
Y39928D01*
X117500Y47500D02*
X129500D01*
X110000Y40000D02*
X117500Y47500D01*
X110000Y30000D02*
Y40000D01*
X115162Y50162D02*
X128662D01*
X100000Y34409D02*
Y35000D01*
X115162Y50162D01*
X85000Y55000D02*
X90000Y50000D01*
X85000Y97500D02*
X102579Y115079D01*
X85000Y55000D02*
Y97500D01*
X102579Y115079D02*
X117559D01*
X98400Y145000D02*
X110605Y132795D01*
X117559D01*
X75000Y145000D02*
X98400D01*
X142500Y57100D02*
Y74393D01*
X82730Y163230D02*
X120683D01*
X54500Y135000D02*
X82730Y163230D01*
X25000Y135000D02*
X54500D01*
X120072Y45000D02*
X130400D01*
X142500Y57100D01*
X115000Y39928D02*
X120072Y45000D01*
D28*
X146850Y156850D02*
X150000D01*
X128150Y170000D02*
X135000D01*
X142087D01*
X145000Y155000D02*
X146850Y156850D01*
X128150Y165551D02*
Y170000D01*
Y165551D02*
X136850Y156850D01*
X140000D01*
X122953Y67047D02*
X125000Y65000D01*
X121102Y67047D02*
X122953D01*
X120000Y68150D02*
X121102Y67047D01*
X160000Y83150D02*
X160098D01*
X163248Y80000D02*
X165000D01*
X160098Y83150D02*
X163248Y80000D01*
X145000Y55000D02*
X147500Y57500D01*
Y61949D01*
X128150Y193150D02*
X131299Y190000D01*
X112500Y193150D02*
X128150D01*
X168701Y190000D02*
X171850Y193150D01*
X187500D01*
X120000Y157953D02*
Y160000D01*
Y157953D02*
X122953Y155000D01*
X101752Y95000D02*
X104902Y98150D01*
X100000Y95000D02*
X101752D01*
X172500Y130000D02*
X172706D01*
X173585Y130879D01*
X176528D01*
X177500Y131850D01*
X189794Y130000D02*
X190000D01*
X188915Y130879D02*
X189794Y130000D01*
X185972Y130879D02*
X188915D01*
X185000Y131850D02*
X185972Y130879D01*
X177500Y131850D02*
X185000D01*
X177500Y113150D02*
X185000D01*
X172603Y117500D02*
X176953Y113150D01*
X172397Y117500D02*
X172603D01*
X176953Y113150D02*
X177500D01*
X172500Y92500D02*
X175551D01*
X177402Y90650D01*
X177500D01*
X185000D01*
X214449Y140000D02*
Y147500D01*
Y132500D02*
Y140000D01*
X177500Y149350D02*
X185000D01*
X185118Y149469D01*
X192382D01*
X192500Y149587D01*
X210000Y77500D02*
X214449D01*
Y70000D02*
Y77500D01*
Y85000D01*
X222087Y107087D02*
X225000Y110000D01*
X210000Y107087D02*
X222087D01*
X197354Y149854D02*
X197500Y150000D01*
X192768Y149854D02*
X197354D01*
X192500Y149587D02*
X192768Y149854D01*
X210000Y140000D02*
X214449D01*
X220551D02*
X225000D01*
X229350D01*
X220551Y77500D02*
X225000D01*
X229350D01*
X235650D02*
Y85000D01*
Y70000D02*
Y77500D01*
Y132500D02*
Y140000D01*
Y147500D01*
X239063Y77500D02*
X240000Y76563D01*
Y72500D02*
Y76563D01*
X235650Y77500D02*
X239063D01*
Y140000D02*
X240000Y140937D01*
Y145000D01*
X235650Y140000D02*
X239063D01*
X177500Y106850D02*
X185000D01*
X177500Y138150D02*
X185000D01*
X189794Y140000D02*
X190000D01*
X188915Y139121D02*
X189794Y140000D01*
X185972Y139121D02*
X188915D01*
X185000Y138150D02*
X185972Y139121D01*
X177500Y84350D02*
X185000D01*
X172603Y82500D02*
X172809D01*
X173688Y83379D01*
X176528D01*
X177500Y84350D01*
X185098Y113150D02*
X186949Y115000D01*
X185000Y113150D02*
X185098D01*
X186949Y115000D02*
X190000D01*
Y110000D02*
X190206D01*
X192187Y108019D01*
X194028D01*
X195000Y107047D01*
Y106949D02*
Y107047D01*
X189794Y110000D02*
X190000D01*
X187616Y107822D02*
X189794Y110000D01*
X185972Y107822D02*
X187616D01*
X185000Y106850D02*
X185972Y107822D01*
X177500Y155650D02*
X185000D01*
X172500Y157500D02*
X172706D01*
X173585Y156621D01*
X176528D01*
X177500Y155650D01*
X192500Y155492D02*
X194508Y157500D01*
X192500Y155413D02*
Y155492D01*
X194508Y157500D02*
X197500D01*
X195000Y106949D02*
X195049Y106900D01*
X202451D01*
X202500Y106850D01*
X160000Y72500D02*
Y76850D01*
X165000Y55000D02*
Y61949D01*
X155000Y50000D02*
Y61949D01*
X109794Y95000D02*
X110000D01*
X107616Y92822D02*
X109794Y95000D01*
X105972Y92822D02*
X107616D01*
X105000Y91850D02*
X105972Y92822D01*
X50000Y75000D02*
Y75206D01*
X47822Y77384D02*
X50000Y75206D01*
X47822Y77384D02*
Y79028D01*
X46850Y80000D02*
X47822Y79028D01*
X50000Y65000D02*
X50123Y64877D01*
X60896D01*
X62500Y66481D02*
Y70630D01*
X60896Y64877D02*
X62500Y66481D01*
X63632Y21161D02*
X64794Y20000D01*
X55000Y21161D02*
X63632D01*
X65206Y20000D02*
X66368Y21161D01*
X75000D01*
X64794Y20000D02*
X65000D01*
X65206D01*
X53130Y49370D02*
X57500D01*
X50000Y52500D02*
X53130Y49370D01*
X50000Y52500D02*
Y55000D01*
X85000Y117500D02*
X87500Y120000D01*
X91850D01*
X85000Y115000D02*
Y117500D01*
X110000Y157500D02*
X112500Y155000D01*
X116850D01*
X110000Y157500D02*
Y160000D01*
X146524Y160976D02*
X147726Y162178D01*
X149028D01*
X150000Y163150D01*
X143476Y160976D02*
X146524D01*
X142274Y162178D02*
X143476Y160976D01*
X140972Y162178D02*
X142274D01*
X140000Y163150D02*
X140972Y162178D01*
X135000Y165000D02*
X135206D01*
X136085Y164121D01*
X139028D01*
X140000Y163150D01*
X112500Y180000D02*
Y186850D01*
X187500Y180000D02*
Y186850D01*
X68917Y184232D02*
X70000Y183150D01*
X58169Y184232D02*
X68917D01*
X45768D02*
X50000Y180000D01*
X41831Y184232D02*
X45768D01*
X50000Y180000D02*
X54232Y184232D01*
X58169D01*
X85181Y132681D02*
X87500Y135000D01*
X85181Y130181D02*
Y132681D01*
X85000Y130000D02*
X85181Y130181D01*
X87500Y135000D02*
X91850D01*
X192500Y72500D02*
Y84587D01*
X185118Y90531D02*
X192382D01*
X185000Y90650D02*
X185118Y90531D01*
X197500Y87500D02*
Y87500D01*
X195606Y89394D02*
X197500Y87500D01*
X192382Y90531D02*
X193519Y89394D01*
X195606D01*
X121949Y60000D02*
X125000D01*
X120098Y61850D02*
X121949Y60000D01*
X120000Y61850D02*
X120098D01*
X125000Y60000D02*
X128051D01*
X129902Y61850D01*
X130000D01*
X98150Y135000D02*
Y138350D01*
X90000Y140000D02*
X96500D01*
X98150Y138350D01*
X120000Y175000D02*
X121850Y173150D01*
Y170000D02*
Y173150D01*
X239931Y157431D02*
X240000Y157500D01*
X237982Y157431D02*
X239931D01*
X235650Y155098D02*
X237982Y157431D01*
X235650Y155000D02*
Y155098D01*
X210000Y157500D02*
X210069Y157431D01*
X211920D01*
X214350Y155000D01*
X214449D01*
X239931Y122569D02*
X240000Y122500D01*
X237982Y122569D02*
X239931D01*
X235650Y124902D02*
X237982Y122569D01*
X235650Y124902D02*
Y125000D01*
X210000Y122500D02*
X210069Y122569D01*
X211920D01*
X214350Y125000D01*
X214449D01*
X210000Y60000D02*
X210069Y60069D01*
X211920D01*
X214350Y62500D01*
X214449D01*
X239931Y60069D02*
X240000Y60000D01*
X237982Y60069D02*
X239931D01*
X235650Y62402D02*
X237982Y60069D01*
X235650Y62402D02*
Y62500D01*
X210000Y100000D02*
X212500D01*
X214449Y98051D01*
Y92500D02*
Y98051D01*
X239931Y94931D02*
X240000Y95000D01*
X237982Y94931D02*
X239931D01*
X235650Y92598D02*
X237982Y94931D01*
X235650Y92500D02*
Y92598D01*
X57500Y54063D02*
X58437Y55000D01*
X57500Y49370D02*
Y54063D01*
X71500Y55000D02*
X72500Y54000D01*
Y49370D02*
Y54000D01*
X67500Y49370D02*
Y55000D01*
X71500D01*
X62500Y49370D02*
Y55000D01*
X58437D02*
X62500D01*
X67500D01*
X130098Y68150D02*
X135000Y63248D01*
X110000Y55000D02*
X130000D01*
X135000Y60000D01*
Y63248D01*
X145000Y165000D02*
Y165206D01*
X146705Y166912D01*
Y168871D01*
X147835Y170000D01*
X147913D01*
X95000Y115000D02*
X97178Y117178D01*
Y119028D01*
X98150Y120000D01*
X90000Y115000D02*
X95000D01*
D29*
X130000Y106000D02*
X133000Y103000D01*
X140984Y97559D02*
Y102016D01*
X140000Y103000D02*
X140984Y102016D01*
X133000Y103000D02*
X140000D01*
D30*
X270768Y190000D02*
X279764Y181004D01*
X262913Y190000D02*
X270768D01*
X262913Y110000D02*
X270768D01*
X279764Y101004D01*
D31*
X257500Y192500D02*
X260000Y195000D01*
X257500Y190413D02*
Y192500D01*
X257087Y190000D02*
X257500Y190413D01*
Y187500D02*
X260000Y185000D01*
X257500Y187500D02*
Y189587D01*
X257087Y190000D02*
X257500Y189587D01*
X257087Y110000D02*
X257500Y109587D01*
Y107500D02*
Y109587D01*
Y107500D02*
X260000Y105000D01*
X257087Y110000D02*
X257500Y110413D01*
Y112500D01*
X260000Y115000D01*
D32*
X55000Y160000D02*
X57500Y157500D01*
X50000Y160000D02*
X55000D01*
X53957Y141457D02*
X57500Y145000D01*
Y157500D01*
X43957Y141457D02*
X53957D01*
X20000Y140000D02*
X42500D01*
X43957Y141457D01*
D33*
X43957Y148543D02*
X50000D01*
X42500Y150000D02*
X43957Y148543D01*
D34*
X13780Y206693D02*
D03*
X242126D02*
D03*
X13780Y13780D02*
D03*
X242126D02*
D03*
D35*
X210000Y20000D02*
D03*
Y30000D02*
D03*
X80000Y200000D02*
D03*
X70000D02*
D03*
X50000Y160000D02*
D03*
Y100000D02*
D03*
X70000Y140000D02*
D03*
Y160000D02*
D03*
X190000Y30000D02*
D03*
Y20000D02*
D03*
X180000Y30000D02*
D03*
Y20000D02*
D03*
X170000Y30000D02*
D03*
Y20000D02*
D03*
X160000Y30000D02*
D03*
Y20000D02*
D03*
X150000Y30000D02*
D03*
Y20000D02*
D03*
X100000Y30000D02*
D03*
X110000Y20000D02*
D03*
Y30000D02*
D03*
X120000Y20000D02*
D03*
Y30000D02*
D03*
X130000Y20000D02*
D03*
Y30000D02*
D03*
X140000Y20000D02*
D03*
Y30000D02*
D03*
X20000Y160000D02*
D03*
Y150000D02*
D03*
Y60000D02*
D03*
Y70000D02*
D03*
Y80000D02*
D03*
Y90000D02*
D03*
Y100000D02*
D03*
Y110000D02*
D03*
Y120000D02*
D03*
Y130000D02*
D03*
Y140000D02*
D03*
Y180000D02*
D03*
X50000Y120000D02*
D03*
D36*
X100000Y20000D02*
D03*
D37*
X20000Y50000D02*
D03*
D38*
X291772Y127500D02*
D03*
Y172500D02*
D03*
Y47500D02*
D03*
Y92500D02*
D03*
D39*
X311063Y125098D02*
D03*
X305079Y135098D02*
D03*
X311063Y164902D02*
D03*
X305079Y174902D02*
D03*
X311063Y45098D02*
D03*
X305079Y55098D02*
D03*
X311063Y84902D02*
D03*
X305079Y94902D02*
D03*
D40*
X279764Y118996D02*
D03*
Y181004D02*
D03*
Y38996D02*
D03*
Y101004D02*
D03*
D41*
X266772Y132500D02*
D03*
X256772Y137500D02*
D03*
X266772Y142500D02*
D03*
X256772Y147500D02*
D03*
X266772Y152500D02*
D03*
X256772Y157500D02*
D03*
X266772Y162500D02*
D03*
X256772Y167500D02*
D03*
X266772Y52500D02*
D03*
X256772Y57500D02*
D03*
X266772Y62500D02*
D03*
X256772Y67500D02*
D03*
X266772Y72500D02*
D03*
X256772Y77500D02*
D03*
X266772Y82500D02*
D03*
X256772Y87500D02*
D03*
D42*
X145000Y80000D02*
D03*
X150000D02*
D03*
X145000Y85000D02*
D03*
Y165000D02*
D03*
X110000Y150000D02*
D03*
X120000Y85000D02*
D03*
X110000Y75000D02*
D03*
X90000Y50000D02*
D03*
Y45000D02*
D03*
Y55000D02*
D03*
X165000Y80000D02*
D03*
X125000Y106000D02*
D03*
X65000Y85000D02*
D03*
X50000D02*
D03*
X115000Y80000D02*
D03*
X75000Y95000D02*
D03*
X110000Y55000D02*
D03*
X90000Y130000D02*
D03*
X80000D02*
D03*
X135000Y170000D02*
D03*
X100000Y150000D02*
D03*
X140000D02*
D03*
X145000Y155000D02*
D03*
X125000Y90000D02*
D03*
X100000Y95000D02*
D03*
X75000Y85000D02*
D03*
X135000Y75000D02*
D03*
X90000Y115000D02*
D03*
X135000Y106000D02*
D03*
X150000D02*
D03*
X100000Y130000D02*
D03*
X95000Y170000D02*
D03*
X135000Y165000D02*
D03*
X110000Y95000D02*
D03*
X125000Y65000D02*
D03*
X50000D02*
D03*
X85000Y130000D02*
D03*
X75000D02*
D03*
X65000Y20000D02*
D03*
X50000Y55000D02*
D03*
X310000Y185000D02*
D03*
X300000D02*
D03*
X310000Y105000D02*
D03*
X300000D02*
D03*
Y35000D02*
D03*
Y115000D02*
D03*
X290000Y105000D02*
D03*
X325000Y35000D02*
D03*
X315000D02*
D03*
X145000Y55000D02*
D03*
X155000Y50000D02*
D03*
X165000Y55000D02*
D03*
X120000Y160000D02*
D03*
X80000Y190000D02*
D03*
X110000Y160000D02*
D03*
X65000Y40000D02*
D03*
X225000Y140000D02*
D03*
Y77500D02*
D03*
X190000Y130000D02*
D03*
X150000Y135000D02*
D03*
X172500Y130000D02*
D03*
X155000Y125000D02*
D03*
X190000Y140000D02*
D03*
X172500Y157500D02*
D03*
X172397Y117500D02*
D03*
X155000Y120000D02*
D03*
X197500Y157500D02*
D03*
X155000Y110000D02*
D03*
X172500Y92500D02*
D03*
X192500Y72500D02*
D03*
X210000Y100000D02*
D03*
Y77500D02*
D03*
X225000Y110000D02*
D03*
X210000Y122500D02*
D03*
Y140000D02*
D03*
X197500Y150000D02*
D03*
X210000Y60000D02*
D03*
Y157500D02*
D03*
X130000Y106000D02*
D03*
X245000Y180000D02*
D03*
Y100000D02*
D03*
X325000Y110000D02*
D03*
X260000Y115000D02*
D03*
Y195000D02*
D03*
Y185000D02*
D03*
Y105000D02*
D03*
X240000Y157500D02*
D03*
Y145000D02*
D03*
Y122500D02*
D03*
Y95000D02*
D03*
Y60000D02*
D03*
Y72500D02*
D03*
X172603Y82500D02*
D03*
X190000Y115000D02*
D03*
Y110000D02*
D03*
X112500Y180000D02*
D03*
X187500D02*
D03*
X160000Y72500D02*
D03*
X50000Y75000D02*
D03*
X85000Y115000D02*
D03*
X150000Y150000D02*
D03*
X50000Y180000D02*
D03*
X42500Y150000D02*
D03*
X197500Y87500D02*
D03*
X125000Y60000D02*
D03*
X90000Y140000D02*
D03*
X120000Y175000D02*
D03*
X245000Y110000D02*
D03*
X131339Y111339D02*
D03*
Y115669D02*
D03*
Y120000D02*
D03*
Y124331D02*
D03*
Y128661D02*
D03*
X135669Y111339D02*
D03*
Y115669D02*
D03*
Y120000D02*
D03*
Y124331D02*
D03*
Y128661D02*
D03*
X140000Y111339D02*
D03*
Y115669D02*
D03*
Y120000D02*
D03*
Y124331D02*
D03*
Y128661D02*
D03*
X144331Y111339D02*
D03*
Y115669D02*
D03*
Y120000D02*
D03*
Y124331D02*
D03*
Y128661D02*
D03*
X148661Y111339D02*
D03*
Y115669D02*
D03*
Y120000D02*
D03*
Y124331D02*
D03*
Y128661D02*
D03*
M02*
