G04*
G04 #@! TF.GenerationSoftware,Altium Limited,CircuitStudio,1.5.2 (30)*
G04*
G04 Layer_Color=7318015*
%FSLAX25Y25*%
%MOIN*%
G70*
G01*
G75*
%ADD12C,0.03937*%
%ADD50R,0.03416X0.03258*%
%ADD51R,0.05109X0.03731*%
%ADD52R,0.02943X0.03140*%
%ADD53R,0.03140X0.02943*%
%ADD54R,0.03140X0.02943*%
%ADD55R,0.02943X0.03140*%
%ADD56R,0.04712X0.02743*%
%ADD57R,0.03534X0.01959*%
%ADD58R,0.19253X0.05474*%
%ADD59R,0.01762X0.05306*%
%ADD60R,0.03258X0.03416*%
%ADD61R,0.17638X0.17638*%
%ADD62R,0.05112X0.00781*%
%ADD63R,0.00781X0.05112*%
D12*
X300000Y15000D02*
D03*
X35000Y205000D02*
D03*
Y15000D02*
D03*
D50*
X262913Y110000D02*
D03*
X257087D02*
D03*
X147913Y170000D02*
D03*
X142087D02*
D03*
X257087Y190000D02*
D03*
X262913D02*
D03*
D51*
X50000Y148543D02*
D03*
Y141457D02*
D03*
D52*
X229350Y92500D02*
D03*
X235650D02*
D03*
X229350Y70000D02*
D03*
X235650D02*
D03*
X229350Y62500D02*
D03*
X235650D02*
D03*
X229350Y132500D02*
D03*
X235650D02*
D03*
X116850Y155000D02*
D03*
X123150D02*
D03*
X121850Y170000D02*
D03*
X128150D02*
D03*
X235650Y77500D02*
D03*
X229350D02*
D03*
X98150Y135000D02*
D03*
X91850D02*
D03*
Y120000D02*
D03*
X98150D02*
D03*
X46850Y80000D02*
D03*
X53150D02*
D03*
X229350Y140000D02*
D03*
X235650D02*
D03*
Y85000D02*
D03*
X229350D02*
D03*
X235650Y147500D02*
D03*
X229350D02*
D03*
Y155000D02*
D03*
X235650D02*
D03*
X229350Y125000D02*
D03*
X235650D02*
D03*
D53*
X293051Y110000D02*
D03*
X286949D02*
D03*
X301949D02*
D03*
X308051D02*
D03*
Y190000D02*
D03*
X301949D02*
D03*
X308051Y30000D02*
D03*
X301949D02*
D03*
X66949Y90000D02*
D03*
X73051D02*
D03*
X53051D02*
D03*
X46949D02*
D03*
X161949Y170000D02*
D03*
X168051D02*
D03*
X71949Y40000D02*
D03*
X78051D02*
D03*
X214449Y77500D02*
D03*
X220551D02*
D03*
X214449Y85000D02*
D03*
X220551D02*
D03*
X214449Y62500D02*
D03*
X220551D02*
D03*
X51949Y40000D02*
D03*
X58051D02*
D03*
X214449Y140000D02*
D03*
X220551D02*
D03*
Y147500D02*
D03*
X214449D02*
D03*
X220551Y132500D02*
D03*
X214449D02*
D03*
X220551Y125000D02*
D03*
X214449D02*
D03*
Y92500D02*
D03*
X220551D02*
D03*
Y70000D02*
D03*
X214449D02*
D03*
Y155000D02*
D03*
X220551D02*
D03*
D54*
X70000Y176850D02*
D03*
Y183150D02*
D03*
X112500Y186850D02*
D03*
Y193150D02*
D03*
X187500Y186850D02*
D03*
Y193150D02*
D03*
X160000Y83150D02*
D03*
Y76850D02*
D03*
X130000Y68150D02*
D03*
Y61850D02*
D03*
X120000Y68150D02*
D03*
Y61850D02*
D03*
X150000Y156850D02*
D03*
Y163150D02*
D03*
X140000D02*
D03*
Y156850D02*
D03*
X105000Y91850D02*
D03*
Y98150D02*
D03*
X185000Y149350D02*
D03*
Y155650D02*
D03*
X177500D02*
D03*
Y149350D02*
D03*
X185000Y113150D02*
D03*
Y106850D02*
D03*
X177500Y113150D02*
D03*
Y106850D02*
D03*
Y84350D02*
D03*
Y90650D02*
D03*
X202500Y106850D02*
D03*
Y113150D02*
D03*
X185000Y138150D02*
D03*
Y131850D02*
D03*
Y90650D02*
D03*
Y84350D02*
D03*
X177500Y138150D02*
D03*
Y131850D02*
D03*
D55*
X155000Y61949D02*
D03*
Y68051D02*
D03*
X147500Y61949D02*
D03*
Y68051D02*
D03*
X80000Y176949D02*
D03*
Y183051D02*
D03*
X165000Y68051D02*
D03*
Y61949D02*
D03*
X195000Y113051D02*
D03*
Y106949D02*
D03*
D56*
X75000Y28839D02*
D03*
Y21161D02*
D03*
X55000Y28839D02*
D03*
Y21161D02*
D03*
D57*
X41831Y175768D02*
D03*
Y184232D02*
D03*
X58169D02*
D03*
Y175768D02*
D03*
D58*
X131299Y190000D02*
D03*
X168701D02*
D03*
D59*
X72500Y70630D02*
D03*
X67500D02*
D03*
X62500D02*
D03*
X57500D02*
D03*
X72500Y49370D02*
D03*
X67500D02*
D03*
X62500D02*
D03*
X57500D02*
D03*
D60*
X210000Y107087D02*
D03*
Y112913D02*
D03*
X192500Y155413D02*
D03*
Y149587D02*
D03*
Y90413D02*
D03*
Y84587D02*
D03*
D61*
X140000Y120000D02*
D03*
D62*
X162441Y134764D02*
D03*
Y132795D02*
D03*
Y130827D02*
D03*
Y128858D02*
D03*
Y126890D02*
D03*
Y124921D02*
D03*
Y122953D02*
D03*
Y120984D02*
D03*
Y119016D02*
D03*
Y117047D02*
D03*
Y115079D02*
D03*
Y113110D02*
D03*
Y111142D02*
D03*
Y109173D02*
D03*
Y107205D02*
D03*
Y105236D02*
D03*
X117559D02*
D03*
Y107205D02*
D03*
Y109173D02*
D03*
Y111142D02*
D03*
Y113110D02*
D03*
Y115079D02*
D03*
Y117047D02*
D03*
Y119016D02*
D03*
Y120984D02*
D03*
Y122953D02*
D03*
Y124921D02*
D03*
Y126890D02*
D03*
Y128858D02*
D03*
Y130827D02*
D03*
Y132795D02*
D03*
Y134764D02*
D03*
D63*
X154764Y97559D02*
D03*
X152795D02*
D03*
X150827D02*
D03*
X148858D02*
D03*
X146890D02*
D03*
X144921D02*
D03*
X142953D02*
D03*
X140984D02*
D03*
X139016D02*
D03*
X137047D02*
D03*
X135079D02*
D03*
X133110D02*
D03*
X131142D02*
D03*
X129173D02*
D03*
X127205D02*
D03*
X125236D02*
D03*
Y142441D02*
D03*
X127205D02*
D03*
X129173D02*
D03*
X131142D02*
D03*
X133110D02*
D03*
X135079D02*
D03*
X137047D02*
D03*
X139016D02*
D03*
X140984D02*
D03*
X142953D02*
D03*
X144921D02*
D03*
X146890D02*
D03*
X148858D02*
D03*
X150827D02*
D03*
X152795D02*
D03*
X154764D02*
D03*
M02*
