G04*
G04 #@! TF.GenerationSoftware,Altium Limited,CircuitStudio,1.5.2 (30)*
G04*
G04 Layer_Color=15065295*
%FSLAX25Y25*%
%MOIN*%
G70*
G01*
G75*
%ADD43C,0.00984*%
%ADD44C,0.02362*%
%ADD45C,0.00050*%
%ADD46C,0.00787*%
%ADD47C,0.00800*%
%ADD48C,0.00700*%
%ADD49C,0.00600*%
G36*
X91963Y109655D02*
X92701Y109384D01*
X93122Y108947D01*
X93255Y108356D01*
Y105855D01*
X93124Y105287D01*
X92708Y104859D01*
X91970Y104592D01*
X90874Y104500D01*
X89660D01*
Y104949D01*
X90367D01*
X90919Y105006D01*
X91299Y105175D01*
X91518Y105458D01*
X91589Y105855D01*
Y108356D01*
X91518Y108810D01*
X91299Y109101D01*
X90919Y109254D01*
X90367Y109300D01*
X88937D01*
X88385Y109254D01*
X88006Y109101D01*
X87786Y108810D01*
X87717Y108356D01*
Y105855D01*
X87786Y105458D01*
X88006Y105175D01*
X88385Y105006D01*
X88937Y104949D01*
X89609D01*
Y104500D01*
X88430D01*
X87336Y104592D01*
X86596Y104859D01*
X86180Y105287D01*
X86050Y105855D01*
Y108356D01*
X86183Y108947D01*
X86603Y109384D01*
X87342Y109655D01*
X88430Y109749D01*
X90874D01*
X91963Y109655D01*
D02*
G37*
G36*
X83972Y109670D02*
X84773Y109421D01*
X85224Y108984D01*
X85365Y108341D01*
X85244Y107724D01*
X84924Y107335D01*
X84467Y107116D01*
X83937Y107008D01*
X84470Y106884D01*
X84932Y106661D01*
X85258Y106284D01*
X85381Y105706D01*
Y104500D01*
X83714D01*
Y105706D01*
X83634Y106225D01*
X83391Y106556D01*
X82984Y106732D01*
X82412Y106784D01*
X81817D01*
Y107226D01*
X82445D01*
X82979Y107276D01*
X83367Y107449D01*
X83603Y107769D01*
X83682Y108267D01*
X83603Y108763D01*
X83367Y109080D01*
X82979Y109250D01*
X82445Y109300D01*
X80349D01*
Y104500D01*
X78684D01*
Y109749D01*
X82778D01*
X83972Y109670D01*
D02*
G37*
G36*
X76131Y107091D02*
Y104500D01*
X74464D01*
Y107106D01*
X72514Y109300D01*
X69374D01*
X68820Y109254D01*
X68440Y109101D01*
X68221Y108810D01*
X68151Y108356D01*
Y105855D01*
X68221Y105458D01*
X68440Y105175D01*
X68820Y105006D01*
X69374Y104949D01*
X72135D01*
Y104500D01*
X68865D01*
X67770Y104592D01*
X67032Y104859D01*
X66616Y105287D01*
X66485Y105855D01*
Y108356D01*
X66618Y108947D01*
X67038Y109384D01*
X67777Y109655D01*
X68865Y109749D01*
X73893D01*
X75655Y107690D01*
X77592Y109749D01*
X78639D01*
X76131Y107091D01*
D02*
G37*
G36*
X105855Y104500D02*
X102270D01*
Y104949D01*
X104014D01*
X102331Y109300D01*
X102236D01*
X100538Y104500D01*
X96400D01*
X95304Y104592D01*
X94566Y104859D01*
X94150Y105287D01*
X94018Y105855D01*
Y109749D01*
X95685D01*
Y105855D01*
X95756Y105458D01*
X95975Y105175D01*
X96355Y105006D01*
X96907Y104949D01*
X98978D01*
X100967Y109749D01*
X103586D01*
X105855Y104500D01*
D02*
G37*
D43*
X158012Y142441D02*
G03*
X158012Y142441I-492J0D01*
G01*
X54646Y49370D02*
G03*
X54646Y49370I-492J0D01*
G01*
D44*
X60472Y57835D02*
G03*
X60472Y57835I-1181J0D01*
G01*
D45*
X90874Y104500D02*
X91970Y104592D01*
X89660Y104500D02*
X90874D01*
X89660D02*
Y104949D01*
X89609Y104500D02*
Y104949D01*
X88430Y104500D02*
X89609D01*
X87336Y104592D02*
X88430Y104500D01*
X102270D02*
Y104949D01*
X100538Y104500D02*
X102236Y109300D01*
X97037Y104500D02*
X100538D01*
X96400D02*
X97037D01*
X95304Y104592D02*
X96400Y104500D01*
X103586Y109749D02*
X105855Y104500D01*
X102270D02*
X105855D01*
X85381D02*
Y105706D01*
X83714Y104500D02*
X85381D01*
X83714D02*
Y105706D01*
X80349Y104500D02*
Y109300D01*
X78684Y104500D02*
X80349D01*
X78684D02*
Y109749D01*
X76131Y104500D02*
Y107091D01*
X74464Y104500D02*
X76131D01*
X74464D02*
Y107106D01*
X72135Y104500D02*
Y104949D01*
X68865Y104500D02*
X72135D01*
X67770Y104592D02*
X68865Y104500D01*
X90874Y109749D02*
X91963Y109655D01*
X92701Y109384D01*
X93122Y108947D01*
X93255Y108356D01*
Y105855D02*
Y108356D01*
X93124Y105287D02*
X93255Y105855D01*
X92708Y104859D02*
X93124Y105287D01*
X91970Y104592D02*
X92708Y104859D01*
X89660Y104949D02*
X90367D01*
X90919Y105006D01*
X91299Y105175D01*
X91518Y105458D01*
X91589Y105855D01*
Y108356D01*
X91518Y108810D02*
X91589Y108356D01*
X91299Y109101D02*
X91518Y108810D01*
X90919Y109254D02*
X91299Y109101D01*
X90367Y109300D02*
X90919Y109254D01*
X88937Y109300D02*
X90367D01*
X88385Y109254D02*
X88937Y109300D01*
X88006Y109101D02*
X88385Y109254D01*
X87786Y108810D02*
X88006Y109101D01*
X87717Y108356D02*
X87786Y108810D01*
X87717Y105855D02*
Y108356D01*
Y105855D02*
X87786Y105458D01*
X88006Y105175D01*
X88385Y105006D01*
X88937Y104949D01*
X89609D01*
X86596Y104859D02*
X87336Y104592D01*
X86180Y105287D02*
X86596Y104859D01*
X86050Y105855D02*
X86180Y105287D01*
X86050Y105855D02*
Y108356D01*
X86183Y108947D01*
X86603Y109384D01*
X87342Y109655D01*
X88430Y109749D01*
X90874D01*
X102270Y104949D02*
X104014D01*
X102331Y109300D02*
X104014Y104949D01*
X102236Y109300D02*
X102331D01*
X94566Y104859D02*
X95304Y104592D01*
X94150Y105287D02*
X94566Y104859D01*
X94018Y105855D02*
X94150Y105287D01*
X94018Y105855D02*
Y106482D01*
Y109749D01*
X95685D01*
Y106482D02*
Y109749D01*
Y105855D02*
Y106482D01*
Y105855D02*
X95756Y105458D01*
X95975Y105175D01*
X96355Y105006D01*
X96907Y104949D01*
X98978D01*
X100967Y109749D01*
X103586D01*
X83937Y107008D02*
X84470Y106884D01*
X84932Y106661D01*
X85258Y106284D01*
X85381Y105706D01*
X83634Y106225D02*
X83714Y105706D01*
X83391Y106556D02*
X83634Y106225D01*
X82984Y106732D02*
X83391Y106556D01*
X82412Y106784D02*
X82984Y106732D01*
X81817Y106784D02*
X82412D01*
X81817D02*
Y107226D01*
X82445D01*
X82979Y107276D01*
X83367Y107449D01*
X83603Y107769D01*
X83682Y108267D01*
X83603Y108763D02*
X83682Y108267D01*
X83367Y109080D02*
X83603Y108763D01*
X82979Y109250D02*
X83367Y109080D01*
X82445Y109300D02*
X82979Y109250D01*
X80349Y109300D02*
X82445D01*
X78684Y109749D02*
X82778D01*
X83972Y109670D01*
X84773Y109421D01*
X85224Y108984D01*
X85365Y108341D01*
X85244Y107724D02*
X85365Y108341D01*
X84924Y107335D02*
X85244Y107724D01*
X84467Y107116D02*
X84924Y107335D01*
X83937Y107008D02*
X84467Y107116D01*
X75655Y107690D02*
X77592Y109749D01*
X78639D01*
X76131Y107091D02*
X78639Y109749D01*
X72514Y109300D02*
X74464Y107106D01*
X69374Y109300D02*
X72514D01*
X68820Y109254D02*
X69374Y109300D01*
X68440Y109101D02*
X68820Y109254D01*
X68221Y108810D02*
X68440Y109101D01*
X68151Y108356D02*
X68221Y108810D01*
X68151Y105855D02*
Y108356D01*
Y105855D02*
X68221Y105458D01*
X68440Y105175D01*
X68820Y105006D01*
X69374Y104949D01*
X72135D01*
X67032Y104859D02*
X67770Y104592D01*
X66616Y105287D02*
X67032Y104859D01*
X66485Y105855D02*
X66616Y105287D01*
X66485Y105855D02*
Y108356D01*
X66618Y108947D01*
X67038Y109384D01*
X67777Y109655D01*
X68865Y109749D01*
X73893D01*
X75655Y107690D01*
D46*
X121890Y138110D02*
X158110D01*
X121890Y101890D02*
X158110D01*
Y138110D01*
X121890Y101890D02*
Y138110D01*
X291772Y101240D02*
X323012D01*
X248661Y38760D02*
X269272D01*
X248661Y101240D02*
X269272D01*
X248661Y38760D02*
Y101240D01*
X291811Y38721D02*
X323012D01*
X291772Y181240D02*
X323012D01*
X248661Y118760D02*
X269272D01*
X248661Y181240D02*
X269272D01*
X248661Y118760D02*
Y181240D01*
X291811Y118720D02*
X323012D01*
X55354Y53898D02*
X74646D01*
X55354Y66102D02*
X74646D01*
X55354Y53898D02*
Y66102D01*
X74646Y53898D02*
Y66102D01*
X52638Y24409D02*
Y25591D01*
X57362Y24409D02*
Y25591D01*
X53000Y17500D02*
X57000D01*
X174606Y179173D02*
Y183110D01*
X125394Y179173D02*
X174606D01*
X125394Y196890D02*
Y200827D01*
X174606Y196890D02*
Y200827D01*
X125394Y179173D02*
Y183110D01*
Y200827D02*
X174606D01*
X45500Y174000D02*
X54500D01*
X45500Y186000D02*
X54500D01*
X42000Y178500D02*
Y181500D01*
X58000Y178500D02*
Y181500D01*
X72638Y24409D02*
Y25591D01*
X77362Y24409D02*
Y25591D01*
X73000Y17500D02*
X77000D01*
X15000Y165000D02*
X25000D01*
X15000Y55000D02*
X25000D01*
X15000Y45000D02*
Y165000D01*
X25000Y45000D02*
Y165000D01*
X15000Y45000D02*
X25000D01*
X45000Y125000D02*
X55000D01*
Y115000D02*
Y125000D01*
X45000Y115000D02*
X55000D01*
X45000D02*
Y125000D01*
X95000Y15000D02*
Y35000D01*
X195000D01*
Y15000D02*
Y35000D01*
X95000Y15000D02*
X195000D01*
X105000D02*
Y25000D01*
X95000D02*
X105000D01*
X65000Y165000D02*
X75000D01*
Y155000D02*
Y165000D01*
X65000Y155000D02*
X75000D01*
X65000D02*
Y165000D01*
Y145000D02*
X75000D01*
Y135000D02*
Y145000D01*
X65000Y135000D02*
X75000D01*
X65000D02*
Y145000D01*
X45000Y105000D02*
X55000D01*
Y95000D02*
Y105000D01*
X45000Y95000D02*
X55000D01*
X45000D02*
Y105000D01*
X15000Y185000D02*
X25000D01*
Y175000D02*
Y185000D01*
X15000Y175000D02*
X25000D01*
X15000D02*
Y185000D01*
X45000Y165000D02*
X55000D01*
Y155000D02*
Y165000D01*
X45000Y155000D02*
X55000D01*
X45000D02*
Y165000D01*
X85000Y195000D02*
Y205000D01*
X65000D02*
X85000D01*
X65000Y195000D02*
Y205000D01*
Y195000D02*
X85000D01*
X205000Y15000D02*
X215000D01*
Y35000D01*
X205000D02*
X215000D01*
X205000Y15000D02*
Y35000D01*
D47*
X185699Y126313D02*
X185508Y126694D01*
X185127Y127075D01*
X184747Y127266D01*
X183985D01*
X183604Y127075D01*
X183223Y126694D01*
X183033Y126313D01*
X182842Y125742D01*
Y124790D01*
X183033Y124219D01*
X183223Y123838D01*
X183604Y123457D01*
X183985Y123267D01*
X184747D01*
X185127Y123457D01*
X185508Y123838D01*
X185699Y124219D01*
X186822Y126504D02*
X187203Y126694D01*
X187775Y127266D01*
Y123267D01*
X192040Y127266D02*
X190136D01*
X189945Y125552D01*
X190136Y125742D01*
X190707Y125933D01*
X191279D01*
X191850Y125742D01*
X192231Y125361D01*
X192421Y124790D01*
Y124409D01*
X192231Y123838D01*
X191850Y123457D01*
X191279Y123267D01*
X190707D01*
X190136Y123457D01*
X189945Y123647D01*
X189755Y124028D01*
X230110Y175047D02*
X229919Y175428D01*
X229538Y175809D01*
X229158Y176000D01*
X228396D01*
X228015Y175809D01*
X227634Y175428D01*
X227444Y175047D01*
X227253Y174476D01*
Y173524D01*
X227444Y172953D01*
X227634Y172572D01*
X228015Y172191D01*
X228396Y172000D01*
X229158D01*
X229538Y172191D01*
X229919Y172572D01*
X230110Y172953D01*
X231614Y176000D02*
X233709D01*
X232566Y174476D01*
X233138D01*
X233519Y174286D01*
X233709Y174095D01*
X233899Y173524D01*
Y173143D01*
X233709Y172572D01*
X233328Y172191D01*
X232757Y172000D01*
X232186D01*
X231614Y172191D01*
X231424Y172381D01*
X231233Y172762D01*
X234794Y175238D02*
X235175Y175428D01*
X235747Y176000D01*
Y172000D01*
X230253Y169047D02*
X230062Y169428D01*
X229682Y169809D01*
X229301Y170000D01*
X228539D01*
X228158Y169809D01*
X227777Y169428D01*
X227587Y169047D01*
X227396Y168476D01*
Y167524D01*
X227587Y166953D01*
X227777Y166572D01*
X228158Y166191D01*
X228539Y166000D01*
X229301D01*
X229682Y166191D01*
X230062Y166572D01*
X230253Y166953D01*
X231757Y170000D02*
X233852D01*
X232710Y168476D01*
X233281D01*
X233662Y168286D01*
X233852Y168095D01*
X234043Y167524D01*
Y167143D01*
X233852Y166572D01*
X233471Y166191D01*
X232900Y166000D01*
X232329D01*
X231757Y166191D01*
X231567Y166381D01*
X231376Y166762D01*
X236080Y170000D02*
X235509Y169809D01*
X235128Y169238D01*
X234938Y168286D01*
Y167714D01*
X235128Y166762D01*
X235509Y166191D01*
X236080Y166000D01*
X236461D01*
X237032Y166191D01*
X237413Y166762D01*
X237604Y167714D01*
Y168286D01*
X237413Y169238D01*
X237032Y169809D01*
X236461Y170000D01*
X236080D01*
X170106Y67000D02*
Y63000D01*
Y67000D02*
X171820D01*
X172391Y66809D01*
X172582Y66619D01*
X172772Y66238D01*
Y65857D01*
X172582Y65476D01*
X172391Y65286D01*
X171820Y65095D01*
X170106D01*
X171439D02*
X172772Y63000D01*
X173857Y66047D02*
Y66238D01*
X174048Y66619D01*
X174238Y66809D01*
X174619Y67000D01*
X175381D01*
X175762Y66809D01*
X175952Y66619D01*
X176143Y66238D01*
Y65857D01*
X175952Y65476D01*
X175571Y64905D01*
X173667Y63000D01*
X176333D01*
X177418Y66047D02*
Y66238D01*
X177609Y66619D01*
X177799Y66809D01*
X178180Y67000D01*
X178942D01*
X179323Y66809D01*
X179513Y66619D01*
X179704Y66238D01*
Y65857D01*
X179513Y65476D01*
X179132Y64905D01*
X177228Y63000D01*
X179894D01*
X41291Y42000D02*
Y38000D01*
Y42000D02*
X43005D01*
X43576Y41809D01*
X43767Y41619D01*
X43957Y41238D01*
Y40857D01*
X43767Y40476D01*
X43576Y40286D01*
X43005Y40095D01*
X41291D01*
X42624D02*
X43957Y38000D01*
X46757Y42000D02*
X44852Y39334D01*
X47709D01*
X46757Y42000D02*
Y38000D01*
X108067Y66047D02*
X107877Y66428D01*
X107496Y66809D01*
X107115Y67000D01*
X106353D01*
X105972Y66809D01*
X105591Y66428D01*
X105401Y66047D01*
X105210Y65476D01*
Y64524D01*
X105401Y63953D01*
X105591Y63572D01*
X105972Y63191D01*
X106353Y63000D01*
X107115D01*
X107496Y63191D01*
X107877Y63572D01*
X108067Y63953D01*
X109191Y66238D02*
X109572Y66428D01*
X110143Y67000D01*
Y63000D01*
X113266Y67000D02*
X112695Y66809D01*
X112314Y66238D01*
X112123Y65286D01*
Y64714D01*
X112314Y63762D01*
X112695Y63191D01*
X113266Y63000D01*
X113647D01*
X114218Y63191D01*
X114599Y63762D01*
X114789Y64714D01*
Y65286D01*
X114599Y66238D01*
X114218Y66809D01*
X113647Y67000D01*
X113266D01*
X128253Y56047D02*
X128062Y56428D01*
X127682Y56809D01*
X127301Y57000D01*
X126539D01*
X126158Y56809D01*
X125777Y56428D01*
X125587Y56047D01*
X125396Y55476D01*
Y54524D01*
X125587Y53953D01*
X125777Y53572D01*
X126158Y53191D01*
X126539Y53000D01*
X127301D01*
X127682Y53191D01*
X128062Y53572D01*
X128253Y53953D01*
X129567Y56047D02*
Y56238D01*
X129757Y56619D01*
X129948Y56809D01*
X130329Y57000D01*
X131090D01*
X131471Y56809D01*
X131662Y56619D01*
X131852Y56238D01*
Y55857D01*
X131662Y55476D01*
X131281Y54905D01*
X129376Y53000D01*
X132043D01*
X134080Y57000D02*
X133509Y56809D01*
X133128Y56238D01*
X132938Y55286D01*
Y54714D01*
X133128Y53762D01*
X133509Y53191D01*
X134080Y53000D01*
X134461D01*
X135032Y53191D01*
X135413Y53762D01*
X135604Y54714D01*
Y55286D01*
X135413Y56238D01*
X135032Y56809D01*
X134461Y57000D01*
X134080D01*
X43105Y193428D02*
X42724Y193809D01*
X42153Y194000D01*
X41391D01*
X40820Y193809D01*
X40439Y193428D01*
Y193047D01*
X40630Y192666D01*
X40820Y192476D01*
X41201Y192286D01*
X42343Y191905D01*
X42724Y191714D01*
X42915Y191524D01*
X43105Y191143D01*
Y190572D01*
X42724Y190191D01*
X42153Y190000D01*
X41391D01*
X40820Y190191D01*
X40439Y190572D01*
X44000Y194000D02*
X44952Y190000D01*
X45905Y194000D02*
X44952Y190000D01*
X45905Y194000D02*
X46857Y190000D01*
X47809Y194000D02*
X46857Y190000D01*
X48609Y193238D02*
X48990Y193428D01*
X49561Y194000D01*
Y190000D01*
X158924Y90547D02*
X158734Y90928D01*
X158353Y91309D01*
X157972Y91500D01*
X157210D01*
X156829Y91309D01*
X156448Y90928D01*
X156258Y90547D01*
X156068Y89976D01*
Y89024D01*
X156258Y88453D01*
X156448Y88072D01*
X156829Y87691D01*
X157210Y87500D01*
X157972D01*
X158353Y87691D01*
X158734Y88072D01*
X158924Y88453D01*
X160048Y90738D02*
X160429Y90928D01*
X161000Y91500D01*
Y87500D01*
X162980Y90738D02*
X163361Y90928D01*
X163933Y91500D01*
Y87500D01*
X82386Y42000D02*
Y38000D01*
Y42000D02*
X84100D01*
X84672Y41809D01*
X84862Y41619D01*
X85053Y41238D01*
Y40857D01*
X84862Y40476D01*
X84672Y40286D01*
X84100Y40095D01*
X82386D01*
X83719D02*
X85053Y38000D01*
X86328Y42000D02*
X88423D01*
X87281Y40476D01*
X87852D01*
X88233Y40286D01*
X88423Y40095D01*
X88614Y39524D01*
Y39143D01*
X88423Y38572D01*
X88042Y38191D01*
X87471Y38000D01*
X86900D01*
X86328Y38191D01*
X86138Y38381D01*
X85948Y38762D01*
X104629Y87047D02*
X104438Y87428D01*
X104057Y87809D01*
X103676Y88000D01*
X102915D01*
X102534Y87809D01*
X102153Y87428D01*
X101963Y87047D01*
X101772Y86476D01*
Y85524D01*
X101963Y84953D01*
X102153Y84572D01*
X102534Y84191D01*
X102915Y84000D01*
X103676D01*
X104057Y84191D01*
X104438Y84572D01*
X104629Y84953D01*
X108228Y86667D02*
X108037Y86095D01*
X107657Y85714D01*
X107085Y85524D01*
X106895D01*
X106324Y85714D01*
X105943Y86095D01*
X105752Y86667D01*
Y86857D01*
X105943Y87428D01*
X106324Y87809D01*
X106895Y88000D01*
X107085D01*
X107657Y87809D01*
X108037Y87428D01*
X108228Y86667D01*
Y85714D01*
X108037Y84762D01*
X107657Y84191D01*
X107085Y84000D01*
X106704D01*
X106133Y84191D01*
X105943Y84572D01*
X108533Y156047D02*
X108343Y156428D01*
X107962Y156809D01*
X107581Y157000D01*
X106819D01*
X106439Y156809D01*
X106058Y156428D01*
X105867Y156047D01*
X105677Y155476D01*
Y154524D01*
X105867Y153953D01*
X106058Y153572D01*
X106439Y153191D01*
X106819Y153000D01*
X107581D01*
X107962Y153191D01*
X108343Y153572D01*
X108533Y153953D01*
X112323Y157000D02*
X110419Y153000D01*
X109657Y157000D02*
X112323D01*
X170253Y78547D02*
X170062Y78928D01*
X169682Y79309D01*
X169301Y79500D01*
X168539D01*
X168158Y79309D01*
X167777Y78928D01*
X167587Y78547D01*
X167396Y77976D01*
Y77024D01*
X167587Y76453D01*
X167777Y76072D01*
X168158Y75691D01*
X168539Y75500D01*
X169301D01*
X169682Y75691D01*
X170062Y76072D01*
X170253Y76453D01*
X171567Y78547D02*
Y78738D01*
X171757Y79119D01*
X171948Y79309D01*
X172329Y79500D01*
X173090D01*
X173471Y79309D01*
X173662Y79119D01*
X173852Y78738D01*
Y78357D01*
X173662Y77976D01*
X173281Y77405D01*
X171376Y75500D01*
X174042D01*
X175128Y78547D02*
Y78738D01*
X175318Y79119D01*
X175509Y79309D01*
X175890Y79500D01*
X176652D01*
X177032Y79309D01*
X177223Y79119D01*
X177413Y78738D01*
Y78357D01*
X177223Y77976D01*
X176842Y77405D01*
X174938Y75500D01*
X177604D01*
X183610Y78547D02*
X183419Y78928D01*
X183038Y79309D01*
X182658Y79500D01*
X181896D01*
X181515Y79309D01*
X181134Y78928D01*
X180944Y78547D01*
X180753Y77976D01*
Y77024D01*
X180944Y76453D01*
X181134Y76072D01*
X181515Y75691D01*
X181896Y75500D01*
X182658D01*
X183038Y75691D01*
X183419Y76072D01*
X183610Y76453D01*
X184924Y78547D02*
Y78738D01*
X185114Y79119D01*
X185305Y79309D01*
X185686Y79500D01*
X186447D01*
X186828Y79309D01*
X187019Y79119D01*
X187209Y78738D01*
Y78357D01*
X187019Y77976D01*
X186638Y77405D01*
X184733Y75500D01*
X187399D01*
X188294Y78738D02*
X188675Y78928D01*
X189247Y79500D01*
Y75500D01*
X192305Y79500D02*
Y75500D01*
X194591D01*
X195409Y79500D02*
X197504D01*
X196362Y77976D01*
X196933D01*
X197314Y77786D01*
X197504Y77595D01*
X197695Y77024D01*
Y76643D01*
X197504Y76072D01*
X197123Y75691D01*
X196552Y75500D01*
X195981D01*
X195409Y75691D01*
X195219Y75881D01*
X195029Y76262D01*
X170472Y101047D02*
X170281Y101428D01*
X169901Y101809D01*
X169520Y102000D01*
X168758D01*
X168377Y101809D01*
X167996Y101428D01*
X167806Y101047D01*
X167615Y100476D01*
Y99524D01*
X167806Y98953D01*
X167996Y98572D01*
X168377Y98191D01*
X168758Y98000D01*
X169520D01*
X169901Y98191D01*
X170281Y98572D01*
X170472Y98953D01*
X171595Y101238D02*
X171976Y101428D01*
X172548Y102000D01*
Y98000D01*
X176433Y102000D02*
X174528Y99334D01*
X177385D01*
X176433Y102000D02*
Y98000D01*
X183067Y101047D02*
X182877Y101428D01*
X182496Y101809D01*
X182115Y102000D01*
X181353D01*
X180972Y101809D01*
X180591Y101428D01*
X180401Y101047D01*
X180210Y100476D01*
Y99524D01*
X180401Y98953D01*
X180591Y98572D01*
X180972Y98191D01*
X181353Y98000D01*
X182115D01*
X182496Y98191D01*
X182877Y98572D01*
X183067Y98953D01*
X184191Y101238D02*
X184572Y101428D01*
X185143Y102000D01*
Y98000D01*
X187504Y102000D02*
X189599D01*
X188456Y100476D01*
X189028D01*
X189409Y100286D01*
X189599Y100095D01*
X189789Y99524D01*
Y99143D01*
X189599Y98572D01*
X189218Y98191D01*
X188647Y98000D01*
X188075D01*
X187504Y98191D01*
X187314Y98381D01*
X187123Y98762D01*
X191886Y102000D02*
Y98000D01*
Y102000D02*
X193600D01*
X194172Y101809D01*
X194362Y101619D01*
X194553Y101238D01*
Y100857D01*
X194362Y100476D01*
X194172Y100286D01*
X193600Y100095D01*
X191886D01*
X193219D02*
X194553Y98000D01*
X198114Y102000D02*
X196209Y98000D01*
X195448Y102000D02*
X198114D01*
X174337Y126313D02*
X174147Y126694D01*
X173766Y127075D01*
X173385Y127266D01*
X172623D01*
X172242Y127075D01*
X171862Y126694D01*
X171671Y126313D01*
X171481Y125742D01*
Y124790D01*
X171671Y124219D01*
X171862Y123838D01*
X172242Y123457D01*
X172623Y123267D01*
X173385D01*
X173766Y123457D01*
X174147Y123838D01*
X174337Y124219D01*
X175461Y126504D02*
X175842Y126694D01*
X176413Y127266D01*
Y123267D01*
X180679Y126694D02*
X180488Y127075D01*
X179917Y127266D01*
X179536D01*
X178965Y127075D01*
X178584Y126504D01*
X178394Y125552D01*
Y124600D01*
X178584Y123838D01*
X178965Y123457D01*
X179536Y123267D01*
X179727D01*
X180298Y123457D01*
X180679Y123838D01*
X180869Y124409D01*
Y124600D01*
X180679Y125171D01*
X180298Y125552D01*
X179727Y125742D01*
X179536D01*
X178965Y125552D01*
X178584Y125171D01*
X178394Y124600D01*
X202890Y101047D02*
X202700Y101428D01*
X202319Y101809D01*
X201938Y102000D01*
X201177D01*
X200796Y101809D01*
X200415Y101428D01*
X200224Y101047D01*
X200034Y100476D01*
Y99524D01*
X200224Y98953D01*
X200415Y98572D01*
X200796Y98191D01*
X201177Y98000D01*
X201938D01*
X202319Y98191D01*
X202700Y98572D01*
X202890Y98953D01*
X204014Y101238D02*
X204395Y101428D01*
X204966Y102000D01*
Y98000D01*
X214118Y109086D02*
Y105087D01*
X216403D01*
X217031Y108134D02*
Y108324D01*
X217222Y108705D01*
X217412Y108896D01*
X217793Y109086D01*
X218555D01*
X218936Y108896D01*
X219126Y108705D01*
X219316Y108324D01*
Y107944D01*
X219126Y107563D01*
X218745Y106991D01*
X216841Y105087D01*
X219507D01*
X192210Y164500D02*
Y160500D01*
X194495D01*
X196838Y164500D02*
X194933Y161834D01*
X197790D01*
X196838Y164500D02*
Y160500D01*
X182753Y163547D02*
X182562Y163928D01*
X182182Y164309D01*
X181801Y164500D01*
X181039D01*
X180658Y164309D01*
X180277Y163928D01*
X180087Y163547D01*
X179896Y162976D01*
Y162024D01*
X180087Y161453D01*
X180277Y161072D01*
X180658Y160691D01*
X181039Y160500D01*
X181801D01*
X182182Y160691D01*
X182562Y161072D01*
X182753Y161453D01*
X184067Y163547D02*
Y163738D01*
X184257Y164119D01*
X184448Y164309D01*
X184829Y164500D01*
X185590D01*
X185971Y164309D01*
X186162Y164119D01*
X186352Y163738D01*
Y163357D01*
X186162Y162976D01*
X185781Y162405D01*
X183876Y160500D01*
X186542D01*
X187818Y164500D02*
X189913D01*
X188771Y162976D01*
X189342D01*
X189723Y162786D01*
X189913Y162595D01*
X190104Y162024D01*
Y161643D01*
X189913Y161072D01*
X189532Y160691D01*
X188961Y160500D01*
X188390D01*
X187818Y160691D01*
X187628Y160881D01*
X187438Y161262D01*
X170158Y163547D02*
X169967Y163928D01*
X169586Y164309D01*
X169205Y164500D01*
X168444D01*
X168063Y164309D01*
X167682Y163928D01*
X167492Y163547D01*
X167301Y162976D01*
Y162024D01*
X167492Y161453D01*
X167682Y161072D01*
X168063Y160691D01*
X168444Y160500D01*
X169205D01*
X169586Y160691D01*
X169967Y161072D01*
X170158Y161453D01*
X171472Y163547D02*
Y163738D01*
X171662Y164119D01*
X171853Y164309D01*
X172233Y164500D01*
X172995D01*
X173376Y164309D01*
X173566Y164119D01*
X173757Y163738D01*
Y163357D01*
X173566Y162976D01*
X173186Y162405D01*
X171281Y160500D01*
X173947D01*
X176747Y164500D02*
X174842Y161834D01*
X177699D01*
X176747Y164500D02*
Y160500D01*
X157067Y161047D02*
X156877Y161428D01*
X156496Y161809D01*
X156115Y162000D01*
X155353D01*
X154972Y161809D01*
X154591Y161428D01*
X154401Y161047D01*
X154210Y160476D01*
Y159524D01*
X154401Y158953D01*
X154591Y158572D01*
X154972Y158191D01*
X155353Y158000D01*
X156115D01*
X156496Y158191D01*
X156877Y158572D01*
X157067Y158953D01*
X158191Y161238D02*
X158572Y161428D01*
X159143Y162000D01*
Y158000D01*
X161314Y161047D02*
Y161238D01*
X161504Y161619D01*
X161695Y161809D01*
X162075Y162000D01*
X162837D01*
X163218Y161809D01*
X163409Y161619D01*
X163599Y161238D01*
Y160857D01*
X163409Y160476D01*
X163028Y159905D01*
X161123Y158000D01*
X163789D01*
X110567Y171047D02*
X110377Y171428D01*
X109996Y171809D01*
X109615Y172000D01*
X108853D01*
X108472Y171809D01*
X108091Y171428D01*
X107901Y171047D01*
X107711Y170476D01*
Y169524D01*
X107901Y168953D01*
X108091Y168572D01*
X108472Y168191D01*
X108853Y168000D01*
X109615D01*
X109996Y168191D01*
X110377Y168572D01*
X110567Y168953D01*
X111691Y171238D02*
X112072Y171428D01*
X112643Y172000D01*
Y168000D01*
X115576Y172000D02*
X115004Y171809D01*
X114814Y171428D01*
Y171047D01*
X115004Y170667D01*
X115385Y170476D01*
X116147Y170286D01*
X116718Y170095D01*
X117099Y169714D01*
X117289Y169334D01*
Y168762D01*
X117099Y168381D01*
X116909Y168191D01*
X116337Y168000D01*
X115576D01*
X115004Y168191D01*
X114814Y168381D01*
X114623Y168762D01*
Y169334D01*
X114814Y169714D01*
X115195Y170095D01*
X115766Y170286D01*
X116528Y170476D01*
X116909Y170667D01*
X117099Y171047D01*
Y171428D01*
X116909Y171809D01*
X116337Y172000D01*
X115576D01*
X153162D02*
Y168000D01*
X155447D01*
X155886Y171238D02*
X156266Y171428D01*
X156838Y172000D01*
Y168000D01*
X128767Y161047D02*
X128577Y161428D01*
X128196Y161809D01*
X127815Y162000D01*
X127053D01*
X126672Y161809D01*
X126291Y161428D01*
X126101Y161047D01*
X125910Y160476D01*
Y159524D01*
X126101Y158953D01*
X126291Y158572D01*
X126672Y158191D01*
X127053Y158000D01*
X127815D01*
X128196Y158191D01*
X128577Y158572D01*
X128767Y158953D01*
X129891Y161238D02*
X130271Y161428D01*
X130843Y162000D01*
Y158000D01*
X135489Y162000D02*
X133585Y158000D01*
X132823Y162000D02*
X135489D01*
X150106Y57000D02*
Y53000D01*
Y57000D02*
X151820D01*
X152391Y56809D01*
X152582Y56619D01*
X152772Y56238D01*
Y55857D01*
X152582Y55476D01*
X152391Y55286D01*
X151820Y55095D01*
X150106D01*
X151439D02*
X152772Y53000D01*
X153857Y56047D02*
Y56238D01*
X154048Y56619D01*
X154238Y56809D01*
X154619Y57000D01*
X155381D01*
X155762Y56809D01*
X155952Y56619D01*
X156143Y56238D01*
Y55857D01*
X155952Y55476D01*
X155571Y54905D01*
X153667Y53000D01*
X156333D01*
X157609Y57000D02*
X159704D01*
X158561Y55476D01*
X159132D01*
X159513Y55286D01*
X159704Y55095D01*
X159894Y54524D01*
Y54143D01*
X159704Y53572D01*
X159323Y53191D01*
X158752Y53000D01*
X158180D01*
X157609Y53191D01*
X157419Y53381D01*
X157228Y53762D01*
X143963Y76500D02*
Y72500D01*
Y76500D02*
X145677D01*
X146248Y76309D01*
X146438Y76119D01*
X146629Y75738D01*
Y75357D01*
X146438Y74976D01*
X146248Y74786D01*
X145677Y74595D01*
X143963D01*
X145296D02*
X146629Y72500D01*
X147714Y75547D02*
Y75738D01*
X147905Y76119D01*
X148095Y76309D01*
X148476Y76500D01*
X149238D01*
X149619Y76309D01*
X149809Y76119D01*
X150000Y75738D01*
Y75357D01*
X149809Y74976D01*
X149428Y74405D01*
X147524Y72500D01*
X150190D01*
X151085Y75738D02*
X151466Y75928D01*
X152037Y76500D01*
Y72500D01*
X80862Y121047D02*
X80672Y121428D01*
X80291Y121809D01*
X79910Y122000D01*
X79148D01*
X78768Y121809D01*
X78387Y121428D01*
X78196Y121047D01*
X78006Y120476D01*
Y119524D01*
X78196Y118953D01*
X78387Y118572D01*
X78768Y118191D01*
X79148Y118000D01*
X79910D01*
X80291Y118191D01*
X80672Y118572D01*
X80862Y118953D01*
X81986Y121238D02*
X82367Y121428D01*
X82938Y122000D01*
Y118000D01*
X87394Y120667D02*
X87204Y120095D01*
X86823Y119714D01*
X86252Y119524D01*
X86061D01*
X85490Y119714D01*
X85109Y120095D01*
X84919Y120667D01*
Y120857D01*
X85109Y121428D01*
X85490Y121809D01*
X86061Y122000D01*
X86252D01*
X86823Y121809D01*
X87204Y121428D01*
X87394Y120667D01*
Y119714D01*
X87204Y118762D01*
X86823Y118191D01*
X86252Y118000D01*
X85871D01*
X85299Y118191D01*
X85109Y118572D01*
X96033Y142547D02*
X95843Y142928D01*
X95462Y143309D01*
X95081Y143500D01*
X94319D01*
X93939Y143309D01*
X93558Y142928D01*
X93367Y142547D01*
X93177Y141976D01*
Y141024D01*
X93367Y140453D01*
X93558Y140072D01*
X93939Y139691D01*
X94319Y139500D01*
X95081D01*
X95462Y139691D01*
X95843Y140072D01*
X96033Y140453D01*
X98109Y143500D02*
X97538Y143309D01*
X97347Y142928D01*
Y142547D01*
X97538Y142166D01*
X97919Y141976D01*
X98681Y141786D01*
X99252Y141595D01*
X99633Y141214D01*
X99823Y140833D01*
Y140262D01*
X99633Y139881D01*
X99442Y139691D01*
X98871Y139500D01*
X98109D01*
X97538Y139691D01*
X97347Y139881D01*
X97157Y140262D01*
Y140833D01*
X97347Y141214D01*
X97728Y141595D01*
X98300Y141786D01*
X99061Y141976D01*
X99442Y142166D01*
X99633Y142547D01*
Y142928D01*
X99442Y143309D01*
X98871Y143500D01*
X98109D01*
X76982Y92000D02*
Y88000D01*
Y92000D02*
X78695D01*
X79267Y91809D01*
X79457Y91619D01*
X79648Y91238D01*
Y90857D01*
X79457Y90476D01*
X79267Y90286D01*
X78695Y90095D01*
X76982D01*
X78315D02*
X79648Y88000D01*
X82828Y91428D02*
X82638Y91809D01*
X82066Y92000D01*
X81685D01*
X81114Y91809D01*
X80733Y91238D01*
X80543Y90286D01*
Y89333D01*
X80733Y88572D01*
X81114Y88191D01*
X81685Y88000D01*
X81876D01*
X82447Y88191D01*
X82828Y88572D01*
X83018Y89143D01*
Y89333D01*
X82828Y89905D01*
X82447Y90286D01*
X81876Y90476D01*
X81685D01*
X81114Y90286D01*
X80733Y89905D01*
X80543Y89333D01*
X56886Y92000D02*
Y88000D01*
Y92000D02*
X58600D01*
X59172Y91809D01*
X59362Y91619D01*
X59553Y91238D01*
Y90857D01*
X59362Y90476D01*
X59172Y90286D01*
X58600Y90095D01*
X56886D01*
X58219D02*
X59553Y88000D01*
X62733Y92000D02*
X60828D01*
X60638Y90286D01*
X60828Y90476D01*
X61400Y90667D01*
X61971D01*
X62542Y90476D01*
X62923Y90095D01*
X63114Y89524D01*
Y89143D01*
X62923Y88572D01*
X62542Y88191D01*
X61971Y88000D01*
X61400D01*
X60828Y88191D01*
X60638Y88381D01*
X60448Y88762D01*
X172743Y172000D02*
Y168000D01*
Y172000D02*
X174457D01*
X175029Y171809D01*
X175219Y171619D01*
X175409Y171238D01*
Y170857D01*
X175219Y170476D01*
X175029Y170286D01*
X174457Y170095D01*
X172743D01*
X174076D02*
X175409Y168000D01*
X176304Y171238D02*
X176685Y171428D01*
X177257Y172000D01*
Y168000D01*
X111938Y201047D02*
X111748Y201428D01*
X111367Y201809D01*
X110986Y202000D01*
X110224D01*
X109843Y201809D01*
X109463Y201428D01*
X109272Y201047D01*
X109082Y200476D01*
Y199524D01*
X109272Y198953D01*
X109463Y198572D01*
X109843Y198191D01*
X110224Y198000D01*
X110986D01*
X111367Y198191D01*
X111748Y198572D01*
X111938Y198953D01*
X114966Y202000D02*
X113062Y199334D01*
X115918D01*
X114966Y202000D02*
Y198000D01*
X187033Y201047D02*
X186843Y201428D01*
X186462Y201809D01*
X186081Y202000D01*
X185319D01*
X184939Y201809D01*
X184558Y201428D01*
X184367Y201047D01*
X184177Y200476D01*
Y199524D01*
X184367Y198953D01*
X184558Y198572D01*
X184939Y198191D01*
X185319Y198000D01*
X186081D01*
X186462Y198191D01*
X186843Y198572D01*
X187033Y198953D01*
X188347Y201047D02*
Y201238D01*
X188538Y201619D01*
X188728Y201809D01*
X189109Y202000D01*
X189871D01*
X190252Y201809D01*
X190442Y201619D01*
X190633Y201238D01*
Y200857D01*
X190442Y200476D01*
X190061Y199905D01*
X188157Y198000D01*
X190823D01*
X84386Y182000D02*
Y178000D01*
Y182000D02*
X86100D01*
X86672Y181809D01*
X86862Y181619D01*
X87053Y181238D01*
Y180857D01*
X86862Y180476D01*
X86672Y180286D01*
X86100Y180095D01*
X84386D01*
X85719D02*
X87053Y178000D01*
X88138Y181047D02*
Y181238D01*
X88328Y181619D01*
X88519Y181809D01*
X88900Y182000D01*
X89661D01*
X90042Y181809D01*
X90233Y181619D01*
X90423Y181238D01*
Y180857D01*
X90233Y180476D01*
X89852Y179905D01*
X87947Y178000D01*
X90614D01*
X69629Y190747D02*
X69438Y191128D01*
X69057Y191509D01*
X68677Y191700D01*
X67915D01*
X67534Y191509D01*
X67153Y191128D01*
X66963Y190747D01*
X66772Y190176D01*
Y189224D01*
X66963Y188653D01*
X67153Y188272D01*
X67534Y187891D01*
X67915Y187700D01*
X68677D01*
X69057Y187891D01*
X69438Y188272D01*
X69629Y188653D01*
X73037Y191128D02*
X72847Y191509D01*
X72276Y191700D01*
X71895D01*
X71324Y191509D01*
X70943Y190938D01*
X70752Y189986D01*
Y189033D01*
X70943Y188272D01*
X71324Y187891D01*
X71895Y187700D01*
X72085D01*
X72657Y187891D01*
X73037Y188272D01*
X73228Y188843D01*
Y189033D01*
X73037Y189605D01*
X72657Y189986D01*
X72085Y190176D01*
X71895D01*
X71324Y189986D01*
X70943Y189605D01*
X70752Y189033D01*
X58333Y146147D02*
X58143Y146528D01*
X57762Y146909D01*
X57381Y147100D01*
X56620D01*
X56239Y146909D01*
X55858Y146528D01*
X55667Y146147D01*
X55477Y145576D01*
Y144624D01*
X55667Y144053D01*
X55858Y143672D01*
X56239Y143291D01*
X56620Y143100D01*
X57381D01*
X57762Y143291D01*
X58143Y143672D01*
X58333Y144053D01*
X59838Y147100D02*
X61933D01*
X60790Y145576D01*
X61361D01*
X61742Y145386D01*
X61933Y145195D01*
X62123Y144624D01*
Y144243D01*
X61933Y143672D01*
X61552Y143291D01*
X60980Y143100D01*
X60409D01*
X59838Y143291D01*
X59647Y143481D01*
X59457Y143862D01*
X213982Y52500D02*
Y48500D01*
Y52500D02*
X215696D01*
X216267Y52309D01*
X216457Y52119D01*
X216648Y51738D01*
Y51357D01*
X216457Y50976D01*
X216267Y50786D01*
X215696Y50595D01*
X213982D01*
X215315D02*
X216648Y48500D01*
X220018Y51166D02*
X219828Y50595D01*
X219447Y50214D01*
X218876Y50024D01*
X218685D01*
X218114Y50214D01*
X217733Y50595D01*
X217543Y51166D01*
Y51357D01*
X217733Y51928D01*
X218114Y52309D01*
X218685Y52500D01*
X218876D01*
X219447Y52309D01*
X219828Y51928D01*
X220018Y51166D01*
Y50214D01*
X219828Y49262D01*
X219447Y48691D01*
X218876Y48500D01*
X218495D01*
X217924Y48691D01*
X217733Y49072D01*
X247901Y192000D02*
Y188000D01*
X250186D01*
X252909Y191428D02*
X252719Y191809D01*
X252147Y192000D01*
X251766D01*
X251195Y191809D01*
X250814Y191238D01*
X250624Y190286D01*
Y189333D01*
X250814Y188572D01*
X251195Y188191D01*
X251766Y188000D01*
X251957D01*
X252528Y188191D01*
X252909Y188572D01*
X253099Y189143D01*
Y189333D01*
X252909Y189905D01*
X252528Y190286D01*
X251957Y190476D01*
X251766D01*
X251195Y190286D01*
X250814Y189905D01*
X250624Y189333D01*
X247805Y112000D02*
Y108000D01*
X250091D01*
X252814Y112000D02*
X250909D01*
X250719Y110286D01*
X250909Y110476D01*
X251481Y110667D01*
X252052D01*
X252623Y110476D01*
X253004Y110095D01*
X253195Y109524D01*
Y109143D01*
X253004Y108572D01*
X252623Y108191D01*
X252052Y108000D01*
X251481D01*
X250909Y108191D01*
X250719Y108381D01*
X250529Y108762D01*
X177743Y183000D02*
X180409Y179000D01*
Y183000D02*
X177743Y179000D01*
X181305Y182238D02*
X181685Y182428D01*
X182257Y183000D01*
Y179000D01*
X76782Y62000D02*
Y59143D01*
X76972Y58572D01*
X77353Y58191D01*
X77924Y58000D01*
X78305D01*
X78876Y58191D01*
X79257Y58572D01*
X79448Y59143D01*
Y62000D01*
X80743Y61047D02*
Y61238D01*
X80933Y61619D01*
X81124Y61809D01*
X81504Y62000D01*
X82266D01*
X82647Y61809D01*
X82837Y61619D01*
X83028Y61238D01*
Y60857D01*
X82837Y60476D01*
X82457Y59905D01*
X80552Y58000D01*
X83218D01*
X112639Y97000D02*
Y94143D01*
X112829Y93572D01*
X113210Y93191D01*
X113781Y93000D01*
X114162D01*
X114733Y93191D01*
X115114Y93572D01*
X115305Y94143D01*
Y97000D01*
X116409Y96238D02*
X116790Y96428D01*
X117361Y97000D01*
Y93000D01*
X88763Y202000D02*
Y198000D01*
X87430Y202000D02*
X90096D01*
X90572Y199905D02*
X92286D01*
X92857Y200095D01*
X93048Y200286D01*
X93238Y200666D01*
Y201238D01*
X93048Y201619D01*
X92857Y201809D01*
X92286Y202000D01*
X90572D01*
Y198000D01*
X96990Y201047D02*
X96799Y201428D01*
X96418Y201809D01*
X96038Y202000D01*
X95276D01*
X94895Y201809D01*
X94514Y201428D01*
X94324Y201047D01*
X94133Y200476D01*
Y199524D01*
X94324Y198953D01*
X94514Y198572D01*
X94895Y198191D01*
X95276Y198000D01*
X96038D01*
X96418Y198191D01*
X96799Y198572D01*
X96990Y198953D01*
Y199524D01*
X96038D02*
X96990D01*
X98094Y201047D02*
Y201238D01*
X98285Y201619D01*
X98475Y201809D01*
X98856Y202000D01*
X99618D01*
X99999Y201809D01*
X100189Y201619D01*
X100380Y201238D01*
Y200857D01*
X100189Y200476D01*
X99808Y199905D01*
X97904Y198000D01*
X100570D01*
X218620Y27000D02*
Y23000D01*
X217287Y27000D02*
X219953D01*
X220429Y24905D02*
X222143D01*
X222714Y25095D01*
X222905Y25286D01*
X223095Y25666D01*
Y26238D01*
X222905Y26619D01*
X222714Y26809D01*
X222143Y27000D01*
X220429D01*
Y23000D01*
X226847Y26047D02*
X226656Y26428D01*
X226275Y26809D01*
X225895Y27000D01*
X225133D01*
X224752Y26809D01*
X224371Y26428D01*
X224181Y26047D01*
X223990Y25476D01*
Y24524D01*
X224181Y23953D01*
X224371Y23572D01*
X224752Y23191D01*
X225133Y23000D01*
X225895D01*
X226275Y23191D01*
X226656Y23572D01*
X226847Y23953D01*
Y24524D01*
X225895D02*
X226847D01*
X227761Y26238D02*
X228142Y26428D01*
X228713Y27000D01*
Y23000D01*
X66744Y152000D02*
Y148000D01*
X65411Y152000D02*
X68077D01*
X68553Y149905D02*
X70267D01*
X70838Y150095D01*
X71028Y150286D01*
X71219Y150666D01*
Y151238D01*
X71028Y151619D01*
X70838Y151809D01*
X70267Y152000D01*
X68553D01*
Y148000D01*
X74399Y151428D02*
X74209Y151809D01*
X73637Y152000D01*
X73256D01*
X72685Y151809D01*
X72304Y151238D01*
X72114Y150286D01*
Y149334D01*
X72304Y148572D01*
X72685Y148191D01*
X73256Y148000D01*
X73447D01*
X74018Y148191D01*
X74399Y148572D01*
X74590Y149143D01*
Y149334D01*
X74399Y149905D01*
X74018Y150286D01*
X73447Y150476D01*
X73256D01*
X72685Y150286D01*
X72304Y149905D01*
X72114Y149334D01*
X46648Y112000D02*
Y108000D01*
X45315Y112000D02*
X47981D01*
X48458Y109905D02*
X50171D01*
X50743Y110095D01*
X50933Y110286D01*
X51124Y110667D01*
Y111238D01*
X50933Y111619D01*
X50743Y111809D01*
X50171Y112000D01*
X48458D01*
Y108000D01*
X54304Y112000D02*
X52399D01*
X52209Y110286D01*
X52399Y110476D01*
X52971Y110667D01*
X53542D01*
X54113Y110476D01*
X54494Y110095D01*
X54685Y109524D01*
Y109143D01*
X54494Y108572D01*
X54113Y108191D01*
X53542Y108000D01*
X52971D01*
X52399Y108191D01*
X52209Y108381D01*
X52019Y108762D01*
X66553Y172000D02*
Y168000D01*
X65220Y172000D02*
X67886D01*
X68362Y169905D02*
X70076D01*
X70648Y170095D01*
X70838Y170286D01*
X71028Y170667D01*
Y171238D01*
X70838Y171619D01*
X70648Y171809D01*
X70076Y172000D01*
X68362D01*
Y168000D01*
X73828Y172000D02*
X71923Y169334D01*
X74780D01*
X73828Y172000D02*
Y168000D01*
X46648Y132000D02*
Y128000D01*
X45315Y132000D02*
X47981D01*
X48458Y129905D02*
X50171D01*
X50743Y130095D01*
X50933Y130286D01*
X51124Y130666D01*
Y131238D01*
X50933Y131619D01*
X50743Y131809D01*
X50171Y132000D01*
X48458D01*
Y128000D01*
X52399Y132000D02*
X54494D01*
X53352Y130476D01*
X53923D01*
X54304Y130286D01*
X54494Y130095D01*
X54685Y129524D01*
Y129143D01*
X54494Y128572D01*
X54113Y128191D01*
X53542Y128000D01*
X52971D01*
X52399Y128191D01*
X52209Y128381D01*
X52019Y128762D01*
X16648Y192000D02*
Y188000D01*
X15315Y192000D02*
X17981D01*
X18458Y189905D02*
X20171D01*
X20743Y190095D01*
X20933Y190286D01*
X21124Y190666D01*
Y191238D01*
X20933Y191619D01*
X20743Y191809D01*
X20171Y192000D01*
X18458D01*
Y188000D01*
X22209Y191047D02*
Y191238D01*
X22400Y191619D01*
X22590Y191809D01*
X22971Y192000D01*
X23732D01*
X24113Y191809D01*
X24304Y191619D01*
X24494Y191238D01*
Y190857D01*
X24304Y190476D01*
X23923Y189905D01*
X22019Y188000D01*
X24685D01*
X47505Y172000D02*
Y168000D01*
X46172Y172000D02*
X48838D01*
X49314Y169905D02*
X51028D01*
X51600Y170095D01*
X51790Y170286D01*
X51981Y170667D01*
Y171238D01*
X51790Y171619D01*
X51600Y171809D01*
X51028Y172000D01*
X49314D01*
Y168000D01*
X52876Y171238D02*
X53256Y171428D01*
X53828Y172000D01*
Y168000D01*
X288011Y192000D02*
Y188000D01*
Y192000D02*
X289724D01*
X290296Y191809D01*
X290486Y191619D01*
X290677Y191238D01*
Y190857D01*
X290486Y190476D01*
X290296Y190286D01*
X289724Y190095D01*
X288011D01*
X289344D02*
X290677Y188000D01*
X291762Y191047D02*
Y191238D01*
X291953Y191619D01*
X292143Y191809D01*
X292524Y192000D01*
X293286D01*
X293667Y191809D01*
X293857Y191619D01*
X294047Y191238D01*
Y190857D01*
X293857Y190476D01*
X293476Y189905D01*
X291572Y188000D01*
X294238D01*
X297037Y192000D02*
X295133Y189333D01*
X297989D01*
X297037Y192000D02*
Y188000D01*
X212606Y164000D02*
Y160000D01*
Y164000D02*
X214320D01*
X214891Y163809D01*
X215082Y163619D01*
X215272Y163238D01*
Y162857D01*
X215082Y162476D01*
X214891Y162286D01*
X214320Y162095D01*
X212606D01*
X213939D02*
X215272Y160000D01*
X216357Y163047D02*
Y163238D01*
X216548Y163619D01*
X216738Y163809D01*
X217119Y164000D01*
X217881D01*
X218262Y163809D01*
X218452Y163619D01*
X218643Y163238D01*
Y162857D01*
X218452Y162476D01*
X218071Y161905D01*
X216167Y160000D01*
X218833D01*
X220871Y164000D02*
X220299Y163809D01*
X219918Y163238D01*
X219728Y162286D01*
Y161714D01*
X219918Y160762D01*
X220299Y160191D01*
X220871Y160000D01*
X221252D01*
X221823Y160191D01*
X222204Y160762D01*
X222394Y161714D01*
Y162286D01*
X222204Y163238D01*
X221823Y163809D01*
X221252Y164000D01*
X220871D01*
X214015Y121000D02*
Y117000D01*
Y121000D02*
X215729D01*
X216301Y120809D01*
X216491Y120619D01*
X216681Y120238D01*
Y119857D01*
X216491Y119476D01*
X216301Y119286D01*
X215729Y119095D01*
X214015D01*
X215348D02*
X216681Y117000D01*
X217576Y120238D02*
X217957Y120428D01*
X218529Y121000D01*
Y117000D01*
X222985Y119667D02*
X222794Y119095D01*
X222413Y118714D01*
X221842Y118524D01*
X221652D01*
X221080Y118714D01*
X220700Y119095D01*
X220509Y119667D01*
Y119857D01*
X220700Y120428D01*
X221080Y120809D01*
X221652Y121000D01*
X221842D01*
X222413Y120809D01*
X222794Y120428D01*
X222985Y119667D01*
Y118714D01*
X222794Y117762D01*
X222413Y117191D01*
X221842Y117000D01*
X221461D01*
X220890Y117191D01*
X220700Y117572D01*
X213920Y115000D02*
Y111000D01*
Y115000D02*
X215634D01*
X216205Y114809D01*
X216396Y114619D01*
X216586Y114238D01*
Y113857D01*
X216396Y113476D01*
X216205Y113286D01*
X215634Y113095D01*
X213920D01*
X215253D02*
X216586Y111000D01*
X217481Y114238D02*
X217862Y114428D01*
X218433Y115000D01*
Y111000D01*
X221366Y115000D02*
X220795Y114809D01*
X220604Y114428D01*
Y114047D01*
X220795Y113666D01*
X221176Y113476D01*
X221937Y113286D01*
X222509Y113095D01*
X222889Y112714D01*
X223080Y112334D01*
Y111762D01*
X222889Y111381D01*
X222699Y111191D01*
X222128Y111000D01*
X221366D01*
X220795Y111191D01*
X220604Y111381D01*
X220414Y111762D01*
Y112334D01*
X220604Y112714D01*
X220985Y113095D01*
X221556Y113286D01*
X222318Y113476D01*
X222699Y113666D01*
X222889Y114047D01*
Y114428D01*
X222699Y114809D01*
X222128Y115000D01*
X221366D01*
X212920Y176000D02*
Y172000D01*
Y176000D02*
X214634D01*
X215205Y175809D01*
X215396Y175619D01*
X215586Y175238D01*
Y174857D01*
X215396Y174476D01*
X215205Y174286D01*
X214634Y174095D01*
X212920D01*
X214253D02*
X215586Y172000D01*
X216481Y175238D02*
X216862Y175428D01*
X217433Y176000D01*
Y172000D01*
X222080Y176000D02*
X220176Y172000D01*
X219414Y176000D02*
X222080D01*
X213015Y170000D02*
Y166000D01*
Y170000D02*
X214729D01*
X215300Y169809D01*
X215491Y169619D01*
X215681Y169238D01*
Y168857D01*
X215491Y168476D01*
X215300Y168286D01*
X214729Y168095D01*
X213015D01*
X214348D02*
X215681Y166000D01*
X216576Y169238D02*
X216957Y169428D01*
X217529Y170000D01*
Y166000D01*
X221794Y169428D02*
X221604Y169809D01*
X221033Y170000D01*
X220652D01*
X220080Y169809D01*
X219700Y169238D01*
X219509Y168286D01*
Y167333D01*
X219700Y166572D01*
X220080Y166191D01*
X220652Y166000D01*
X220842D01*
X221413Y166191D01*
X221794Y166572D01*
X221985Y167143D01*
Y167333D01*
X221794Y167905D01*
X221413Y168286D01*
X220842Y168476D01*
X220652D01*
X220080Y168286D01*
X219700Y167905D01*
X219509Y167333D01*
X273420Y112000D02*
Y108000D01*
Y112000D02*
X275134D01*
X275705Y111809D01*
X275896Y111619D01*
X276086Y111238D01*
Y110857D01*
X275896Y110476D01*
X275705Y110286D01*
X275134Y110095D01*
X273420D01*
X274753D02*
X276086Y108000D01*
X276981Y111238D02*
X277362Y111428D01*
X277933Y112000D01*
Y108000D01*
X282199Y112000D02*
X280295D01*
X280104Y110286D01*
X280295Y110476D01*
X280866Y110667D01*
X281437D01*
X282009Y110476D01*
X282389Y110095D01*
X282580Y109524D01*
Y109143D01*
X282389Y108572D01*
X282009Y108191D01*
X281437Y108000D01*
X280866D01*
X280295Y108191D01*
X280104Y108381D01*
X279914Y108762D01*
X312825Y112000D02*
Y108000D01*
Y112000D02*
X314539D01*
X315110Y111809D01*
X315300Y111619D01*
X315491Y111238D01*
Y110857D01*
X315300Y110476D01*
X315110Y110286D01*
X314539Y110095D01*
X312825D01*
X314158D02*
X315491Y108000D01*
X316386Y111238D02*
X316767Y111428D01*
X317338Y112000D01*
Y108000D01*
X321223Y112000D02*
X319319Y109334D01*
X322175D01*
X321223Y112000D02*
Y108000D01*
X213920Y58500D02*
Y54500D01*
Y58500D02*
X215634D01*
X216205Y58309D01*
X216396Y58119D01*
X216586Y57738D01*
Y57357D01*
X216396Y56976D01*
X216205Y56786D01*
X215634Y56595D01*
X213920D01*
X215253D02*
X216586Y54500D01*
X217481Y57738D02*
X217862Y57928D01*
X218433Y58500D01*
Y54500D01*
X220795Y58500D02*
X222889D01*
X221747Y56976D01*
X222318D01*
X222699Y56786D01*
X222889Y56595D01*
X223080Y56024D01*
Y55643D01*
X222889Y55072D01*
X222509Y54691D01*
X221937Y54500D01*
X221366D01*
X220795Y54691D01*
X220604Y54881D01*
X220414Y55262D01*
X200920Y87000D02*
Y83000D01*
Y87000D02*
X202634D01*
X203205Y86809D01*
X203396Y86619D01*
X203586Y86238D01*
Y85857D01*
X203396Y85476D01*
X203205Y85286D01*
X202634Y85095D01*
X200920D01*
X202253D02*
X203586Y83000D01*
X204481Y86238D02*
X204862Y86428D01*
X205433Y87000D01*
Y83000D01*
X207604Y86047D02*
Y86238D01*
X207795Y86619D01*
X207985Y86809D01*
X208366Y87000D01*
X209128D01*
X209509Y86809D01*
X209699Y86619D01*
X209890Y86238D01*
Y85857D01*
X209699Y85476D01*
X209318Y84905D01*
X207414Y83000D01*
X210080D01*
X213777Y100500D02*
Y96500D01*
Y100500D02*
X215491D01*
X216062Y100309D01*
X216253Y100119D01*
X216443Y99738D01*
Y99357D01*
X216253Y98976D01*
X216062Y98786D01*
X215491Y98595D01*
X213777D01*
X215110D02*
X216443Y96500D01*
X217338Y99738D02*
X217719Y99928D01*
X218290Y100500D01*
Y96500D01*
X220271Y99738D02*
X220652Y99928D01*
X221223Y100500D01*
Y96500D01*
X213920Y46500D02*
Y42500D01*
Y46500D02*
X215634D01*
X216205Y46309D01*
X216396Y46119D01*
X216586Y45738D01*
Y45357D01*
X216396Y44976D01*
X216205Y44786D01*
X215634Y44595D01*
X213920D01*
X215253D02*
X216586Y42500D01*
X217481Y45738D02*
X217862Y45928D01*
X218433Y46500D01*
Y42500D01*
X221556Y46500D02*
X220985Y46309D01*
X220604Y45738D01*
X220414Y44786D01*
Y44214D01*
X220604Y43262D01*
X220985Y42691D01*
X221556Y42500D01*
X221937D01*
X222509Y42691D01*
X222889Y43262D01*
X223080Y44214D01*
Y44786D01*
X222889Y45738D01*
X222509Y46309D01*
X221937Y46500D01*
X221556D01*
X291386Y32000D02*
Y28000D01*
Y32000D02*
X293100D01*
X293672Y31809D01*
X293862Y31619D01*
X294053Y31238D01*
Y30857D01*
X293862Y30476D01*
X293672Y30286D01*
X293100Y30095D01*
X291386D01*
X292719D02*
X294053Y28000D01*
X295900Y32000D02*
X295328Y31809D01*
X295138Y31428D01*
Y31047D01*
X295328Y30667D01*
X295709Y30476D01*
X296471Y30286D01*
X297042Y30095D01*
X297423Y29714D01*
X297614Y29333D01*
Y28762D01*
X297423Y28381D01*
X297233Y28191D01*
X296661Y28000D01*
X295900D01*
X295328Y28191D01*
X295138Y28381D01*
X294948Y28762D01*
Y29333D01*
X295138Y29714D01*
X295519Y30095D01*
X296090Y30286D01*
X296852Y30476D01*
X297233Y30667D01*
X297423Y31047D01*
Y31428D01*
X297233Y31809D01*
X296661Y32000D01*
X295900D01*
X61386Y27000D02*
Y23000D01*
Y27000D02*
X62719D01*
X63291Y26809D01*
X63672Y26428D01*
X63862Y26047D01*
X64052Y25476D01*
Y24524D01*
X63862Y23953D01*
X63672Y23572D01*
X63291Y23191D01*
X62719Y23000D01*
X61386D01*
X65138Y26047D02*
Y26238D01*
X65328Y26619D01*
X65519Y26809D01*
X65900Y27000D01*
X66661D01*
X67042Y26809D01*
X67233Y26619D01*
X67423Y26238D01*
Y25857D01*
X67233Y25476D01*
X66852Y24905D01*
X64947Y23000D01*
X67614D01*
X81243Y27000D02*
Y23000D01*
Y27000D02*
X82576D01*
X83148Y26809D01*
X83529Y26428D01*
X83719Y26047D01*
X83909Y25476D01*
Y24524D01*
X83719Y23953D01*
X83529Y23572D01*
X83148Y23191D01*
X82576Y23000D01*
X81243D01*
X84804Y26238D02*
X85185Y26428D01*
X85757Y27000D01*
Y23000D01*
X142553Y11047D02*
X142362Y11428D01*
X141982Y11809D01*
X141601Y12000D01*
X140839D01*
X140458Y11809D01*
X140077Y11428D01*
X139887Y11047D01*
X139696Y10476D01*
Y9524D01*
X139887Y8953D01*
X140077Y8572D01*
X140458Y8191D01*
X140839Y8000D01*
X141601D01*
X141982Y8191D01*
X142362Y8572D01*
X142553Y8953D01*
X143676Y12000D02*
Y8000D01*
Y12000D02*
X146343Y8000D01*
Y12000D02*
Y8000D01*
X149351Y12000D02*
X147447Y9334D01*
X150304D01*
X149351Y12000D02*
Y8000D01*
X277648Y191047D02*
X277458Y191428D01*
X277077Y191809D01*
X276696Y192000D01*
X275934D01*
X275553Y191809D01*
X275172Y191428D01*
X274982Y191047D01*
X274792Y190476D01*
Y189524D01*
X274982Y188953D01*
X275172Y188572D01*
X275553Y188191D01*
X275934Y188000D01*
X276696D01*
X277077Y188191D01*
X277458Y188572D01*
X277648Y188953D01*
X278772Y192000D02*
Y188000D01*
Y192000D02*
X281438Y188000D01*
Y192000D02*
Y188000D01*
X282923Y192000D02*
X285018D01*
X283875Y190476D01*
X284447D01*
X284827Y190286D01*
X285018Y190095D01*
X285208Y189524D01*
Y189143D01*
X285018Y188572D01*
X284637Y188191D01*
X284066Y188000D01*
X283494D01*
X282923Y188191D01*
X282733Y188381D01*
X282542Y188762D01*
X277648Y31047D02*
X277458Y31428D01*
X277077Y31809D01*
X276696Y32000D01*
X275934D01*
X275553Y31809D01*
X275172Y31428D01*
X274982Y31047D01*
X274792Y30476D01*
Y29524D01*
X274982Y28953D01*
X275172Y28572D01*
X275553Y28191D01*
X275934Y28000D01*
X276696D01*
X277077Y28191D01*
X277458Y28572D01*
X277648Y28953D01*
X278772Y32000D02*
Y28000D01*
Y32000D02*
X281438Y28000D01*
Y32000D02*
Y28000D01*
X282733Y31047D02*
Y31238D01*
X282923Y31619D01*
X283114Y31809D01*
X283494Y32000D01*
X284256D01*
X284637Y31809D01*
X284827Y31619D01*
X285018Y31238D01*
Y30857D01*
X284827Y30476D01*
X284447Y29905D01*
X282542Y28000D01*
X285208D01*
X18505Y41047D02*
X18315Y41428D01*
X17934Y41809D01*
X17553Y42000D01*
X16791D01*
X16410Y41809D01*
X16029Y41428D01*
X15839Y41047D01*
X15649Y40476D01*
Y39524D01*
X15839Y38953D01*
X16029Y38572D01*
X16410Y38191D01*
X16791Y38000D01*
X17553D01*
X17934Y38191D01*
X18315Y38572D01*
X18505Y38953D01*
X19629Y42000D02*
Y38000D01*
Y42000D02*
X22295Y38000D01*
Y42000D02*
Y38000D01*
X23399Y41238D02*
X23780Y41428D01*
X24351Y42000D01*
Y38000D01*
X230158Y163047D02*
X229967Y163428D01*
X229586Y163809D01*
X229205Y164000D01*
X228444D01*
X228063Y163809D01*
X227682Y163428D01*
X227492Y163047D01*
X227301Y162476D01*
Y161524D01*
X227492Y160953D01*
X227682Y160572D01*
X228063Y160191D01*
X228444Y160000D01*
X229205D01*
X229586Y160191D01*
X229967Y160572D01*
X230158Y160953D01*
X231662Y164000D02*
X233757D01*
X232614Y162476D01*
X233186D01*
X233566Y162286D01*
X233757Y162095D01*
X233947Y161524D01*
Y161143D01*
X233757Y160572D01*
X233376Y160191D01*
X232805Y160000D01*
X232233D01*
X231662Y160191D01*
X231472Y160381D01*
X231281Y160762D01*
X236747Y164000D02*
X234842Y161334D01*
X237699D01*
X236747Y164000D02*
Y160000D01*
X230253Y120047D02*
X230062Y120428D01*
X229682Y120809D01*
X229301Y121000D01*
X228539D01*
X228158Y120809D01*
X227777Y120428D01*
X227587Y120047D01*
X227396Y119476D01*
Y118524D01*
X227587Y117953D01*
X227777Y117572D01*
X228158Y117191D01*
X228539Y117000D01*
X229301D01*
X229682Y117191D01*
X230062Y117572D01*
X230253Y117953D01*
X231757Y121000D02*
X233852D01*
X232710Y119476D01*
X233281D01*
X233662Y119286D01*
X233852Y119095D01*
X234043Y118524D01*
Y118143D01*
X233852Y117572D01*
X233471Y117191D01*
X232900Y117000D01*
X232329D01*
X231757Y117191D01*
X231567Y117381D01*
X231376Y117762D01*
X235318Y121000D02*
X237413D01*
X236271Y119476D01*
X236842D01*
X237223Y119286D01*
X237413Y119095D01*
X237604Y118524D01*
Y118143D01*
X237413Y117572D01*
X237032Y117191D01*
X236461Y117000D01*
X235890D01*
X235318Y117191D01*
X235128Y117381D01*
X234938Y117762D01*
X230253Y114047D02*
X230062Y114428D01*
X229682Y114809D01*
X229301Y115000D01*
X228539D01*
X228158Y114809D01*
X227777Y114428D01*
X227587Y114047D01*
X227396Y113476D01*
Y112524D01*
X227587Y111953D01*
X227777Y111572D01*
X228158Y111191D01*
X228539Y111000D01*
X229301D01*
X229682Y111191D01*
X230062Y111572D01*
X230253Y111953D01*
X231757Y115000D02*
X233852D01*
X232710Y113476D01*
X233281D01*
X233662Y113286D01*
X233852Y113095D01*
X234043Y112524D01*
Y112143D01*
X233852Y111572D01*
X233471Y111191D01*
X232900Y111000D01*
X232329D01*
X231757Y111191D01*
X231567Y111381D01*
X231376Y111762D01*
X235128Y114047D02*
Y114238D01*
X235318Y114619D01*
X235509Y114809D01*
X235890Y115000D01*
X236651D01*
X237032Y114809D01*
X237223Y114619D01*
X237413Y114238D01*
Y113857D01*
X237223Y113476D01*
X236842Y112905D01*
X234938Y111000D01*
X237604D01*
X230348Y57547D02*
X230158Y57928D01*
X229777Y58309D01*
X229396Y58500D01*
X228634D01*
X228253Y58309D01*
X227872Y57928D01*
X227682Y57547D01*
X227492Y56976D01*
Y56024D01*
X227682Y55453D01*
X227872Y55072D01*
X228253Y54691D01*
X228634Y54500D01*
X229396D01*
X229777Y54691D01*
X230158Y55072D01*
X230348Y55453D01*
X231662Y57547D02*
Y57738D01*
X231853Y58119D01*
X232043Y58309D01*
X232424Y58500D01*
X233186D01*
X233566Y58309D01*
X233757Y58119D01*
X233947Y57738D01*
Y57357D01*
X233757Y56976D01*
X233376Y56405D01*
X231472Y54500D01*
X234138D01*
X237508Y57166D02*
X237318Y56595D01*
X236937Y56214D01*
X236366Y56024D01*
X236175D01*
X235604Y56214D01*
X235223Y56595D01*
X235033Y57166D01*
Y57357D01*
X235223Y57928D01*
X235604Y58309D01*
X236175Y58500D01*
X236366D01*
X236937Y58309D01*
X237318Y57928D01*
X237508Y57166D01*
Y56214D01*
X237318Y55262D01*
X236937Y54691D01*
X236366Y54500D01*
X235985D01*
X235414Y54691D01*
X235223Y55072D01*
X230253Y99547D02*
X230062Y99928D01*
X229682Y100309D01*
X229301Y100500D01*
X228539D01*
X228158Y100309D01*
X227777Y99928D01*
X227587Y99547D01*
X227396Y98976D01*
Y98024D01*
X227587Y97453D01*
X227777Y97072D01*
X228158Y96691D01*
X228539Y96500D01*
X229301D01*
X229682Y96691D01*
X230062Y97072D01*
X230253Y97453D01*
X231567Y99547D02*
Y99738D01*
X231757Y100119D01*
X231948Y100309D01*
X232329Y100500D01*
X233090D01*
X233471Y100309D01*
X233662Y100119D01*
X233852Y99738D01*
Y99357D01*
X233662Y98976D01*
X233281Y98405D01*
X231376Y96500D01*
X234043D01*
X235890Y100500D02*
X235318Y100309D01*
X235128Y99928D01*
Y99547D01*
X235318Y99167D01*
X235699Y98976D01*
X236461Y98786D01*
X237032Y98595D01*
X237413Y98214D01*
X237604Y97834D01*
Y97262D01*
X237413Y96881D01*
X237223Y96691D01*
X236651Y96500D01*
X235890D01*
X235318Y96691D01*
X235128Y96881D01*
X234938Y97262D01*
Y97834D01*
X235128Y98214D01*
X235509Y98595D01*
X236080Y98786D01*
X236842Y98976D01*
X237223Y99167D01*
X237413Y99547D01*
Y99928D01*
X237223Y100309D01*
X236651Y100500D01*
X235890D01*
X230253Y105547D02*
X230062Y105928D01*
X229682Y106309D01*
X229301Y106500D01*
X228539D01*
X228158Y106309D01*
X227777Y105928D01*
X227587Y105547D01*
X227396Y104976D01*
Y104024D01*
X227587Y103453D01*
X227777Y103072D01*
X228158Y102691D01*
X228539Y102500D01*
X229301D01*
X229682Y102691D01*
X230062Y103072D01*
X230253Y103453D01*
X231567Y105547D02*
Y105738D01*
X231757Y106119D01*
X231948Y106309D01*
X232329Y106500D01*
X233090D01*
X233471Y106309D01*
X233662Y106119D01*
X233852Y105738D01*
Y105357D01*
X233662Y104976D01*
X233281Y104405D01*
X231376Y102500D01*
X234043D01*
X237604Y106500D02*
X235699Y102500D01*
X234938Y106500D02*
X237604D01*
X230348Y45547D02*
X230158Y45928D01*
X229777Y46309D01*
X229396Y46500D01*
X228634D01*
X228253Y46309D01*
X227872Y45928D01*
X227682Y45547D01*
X227492Y44976D01*
Y44024D01*
X227682Y43453D01*
X227872Y43072D01*
X228253Y42691D01*
X228634Y42500D01*
X229396D01*
X229777Y42691D01*
X230158Y43072D01*
X230348Y43453D01*
X231662Y45547D02*
Y45738D01*
X231853Y46119D01*
X232043Y46309D01*
X232424Y46500D01*
X233186D01*
X233566Y46309D01*
X233757Y46119D01*
X233947Y45738D01*
Y45357D01*
X233757Y44976D01*
X233376Y44405D01*
X231472Y42500D01*
X234138D01*
X237318Y45928D02*
X237128Y46309D01*
X236556Y46500D01*
X236175D01*
X235604Y46309D01*
X235223Y45738D01*
X235033Y44786D01*
Y43834D01*
X235223Y43072D01*
X235604Y42691D01*
X236175Y42500D01*
X236366D01*
X236937Y42691D01*
X237318Y43072D01*
X237508Y43643D01*
Y43834D01*
X237318Y44405D01*
X236937Y44786D01*
X236366Y44976D01*
X236175D01*
X235604Y44786D01*
X235223Y44405D01*
X235033Y43834D01*
X230253Y51547D02*
X230062Y51928D01*
X229682Y52309D01*
X229301Y52500D01*
X228539D01*
X228158Y52309D01*
X227777Y51928D01*
X227587Y51547D01*
X227396Y50976D01*
Y50024D01*
X227587Y49453D01*
X227777Y49072D01*
X228158Y48691D01*
X228539Y48500D01*
X229301D01*
X229682Y48691D01*
X230062Y49072D01*
X230253Y49453D01*
X231567Y51547D02*
Y51738D01*
X231757Y52119D01*
X231948Y52309D01*
X232329Y52500D01*
X233090D01*
X233471Y52309D01*
X233662Y52119D01*
X233852Y51738D01*
Y51357D01*
X233662Y50976D01*
X233281Y50405D01*
X231376Y48500D01*
X234043D01*
X237223Y52500D02*
X235318D01*
X235128Y50786D01*
X235318Y50976D01*
X235890Y51166D01*
X236461D01*
X237032Y50976D01*
X237413Y50595D01*
X237604Y50024D01*
Y49643D01*
X237413Y49072D01*
X237032Y48691D01*
X236461Y48500D01*
X235890D01*
X235318Y48691D01*
X235128Y48881D01*
X234938Y49262D01*
X59533Y81047D02*
X59343Y81428D01*
X58962Y81809D01*
X58581Y82000D01*
X57819D01*
X57439Y81809D01*
X57058Y81428D01*
X56867Y81047D01*
X56677Y80476D01*
Y79524D01*
X56867Y78953D01*
X57058Y78572D01*
X57439Y78191D01*
X57819Y78000D01*
X58581D01*
X58962Y78191D01*
X59343Y78572D01*
X59533Y78953D01*
X62942Y82000D02*
X61038D01*
X60847Y80286D01*
X61038Y80476D01*
X61609Y80667D01*
X62181D01*
X62752Y80476D01*
X63133Y80095D01*
X63323Y79524D01*
Y79143D01*
X63133Y78572D01*
X62752Y78191D01*
X62181Y78000D01*
X61609D01*
X61038Y78191D01*
X60847Y78381D01*
X60657Y78762D01*
X25429Y187000D02*
X29999Y184334D01*
Y184067D02*
X26000D01*
X29999D02*
Y182353D01*
X29809Y181782D01*
X29618Y181591D01*
X29238Y181401D01*
X28857D01*
X28476Y181591D01*
X28285Y181782D01*
X28095Y182353D01*
Y184067D01*
Y182734D02*
X26000Y181401D01*
X29428Y177840D02*
X29809Y178221D01*
X29999Y178792D01*
Y179554D01*
X29809Y180125D01*
X29428Y180506D01*
X29047D01*
X28666Y180315D01*
X28476Y180125D01*
X28285Y179744D01*
X27905Y178602D01*
X27714Y178221D01*
X27524Y178030D01*
X27143Y177840D01*
X26572D01*
X26191Y178221D01*
X26000Y178792D01*
Y179554D01*
X26191Y180125D01*
X26572Y180506D01*
X29999Y175612D02*
X26000D01*
X29999Y176945D02*
Y174279D01*
X79428Y142334D02*
X79809Y142715D01*
X79999Y143286D01*
Y144048D01*
X79809Y144619D01*
X79428Y145000D01*
X79047D01*
X78666Y144809D01*
X78476Y144619D01*
X78285Y144238D01*
X77905Y143096D01*
X77714Y142715D01*
X77524Y142524D01*
X77143Y142334D01*
X76572D01*
X76191Y142715D01*
X76000Y143286D01*
Y144048D01*
X76191Y144619D01*
X76572Y145000D01*
X79999Y141439D02*
X78095Y139915D01*
X76000D01*
X79999Y138392D02*
X78095Y139915D01*
X79238Y137878D02*
X79428Y137497D01*
X79999Y136925D01*
X76000D01*
X57999Y206000D02*
X54000D01*
X57999D02*
Y204286D01*
X57809Y203715D01*
X57618Y203524D01*
X57237Y203334D01*
X56857D01*
X56476Y203524D01*
X56285Y203715D01*
X56095Y204286D01*
Y206000D01*
Y204667D02*
X54000Y203334D01*
X57999Y199963D02*
Y202439D01*
X54000D01*
Y199963D01*
X56095Y202439D02*
Y200915D01*
X57428Y196631D02*
X57809Y197011D01*
X57999Y197583D01*
Y198345D01*
X57809Y198916D01*
X57428Y199297D01*
X57047D01*
X56666Y199106D01*
X56476Y198916D01*
X56285Y198535D01*
X55904Y197392D01*
X55714Y197011D01*
X55524Y196821D01*
X55143Y196631D01*
X54571D01*
X54190Y197011D01*
X54000Y197583D01*
Y198345D01*
X54190Y198916D01*
X54571Y199297D01*
X57999Y193260D02*
Y195736D01*
X54000D01*
Y193260D01*
X56095Y195736D02*
Y194212D01*
X57999Y191260D02*
X54000D01*
X57999Y192593D02*
Y189927D01*
X59428Y103334D02*
X59809Y103715D01*
X59999Y104286D01*
Y105048D01*
X59809Y105619D01*
X59428Y106000D01*
X59047D01*
X58666Y105809D01*
X58476Y105619D01*
X58285Y105238D01*
X57905Y104095D01*
X57714Y103715D01*
X57524Y103524D01*
X57143Y103334D01*
X56572D01*
X56191Y103715D01*
X56000Y104286D01*
Y105048D01*
X56191Y105619D01*
X56572Y106000D01*
X59999Y102439D02*
X58095Y100915D01*
X56000D01*
X59999Y99392D02*
X58095Y100915D01*
X59999Y97735D02*
X59809Y98306D01*
X59238Y98687D01*
X58285Y98878D01*
X57714D01*
X56762Y98687D01*
X56191Y98306D01*
X56000Y97735D01*
Y97354D01*
X56191Y96783D01*
X56762Y96402D01*
X57714Y96211D01*
X58285D01*
X59238Y96402D01*
X59809Y96783D01*
X59999Y97354D01*
Y97735D01*
Y165119D02*
Y163024D01*
X58476Y164167D01*
Y163595D01*
X58285Y163215D01*
X58095Y163024D01*
X57524Y162834D01*
X57143D01*
X56572Y163024D01*
X56191Y163405D01*
X56000Y163976D01*
Y164548D01*
X56191Y165119D01*
X56381Y165309D01*
X56762Y165500D01*
X59999Y161939D02*
X56000Y160415D01*
X59999Y158892D02*
X56000Y160415D01*
X59999Y157997D02*
Y155902D01*
X58476Y157044D01*
Y156473D01*
X58285Y156092D01*
X58095Y155902D01*
X57524Y155711D01*
X57143D01*
X56572Y155902D01*
X56191Y156283D01*
X56000Y156854D01*
Y157425D01*
X56191Y157997D01*
X56381Y158187D01*
X56762Y158378D01*
X59999Y123200D02*
X56000D01*
X59999D02*
Y121486D01*
X59809Y120915D01*
X59618Y120724D01*
X59238Y120534D01*
X58857D01*
X58476Y120724D01*
X58285Y120915D01*
X58095Y121486D01*
Y123200D01*
Y121867D02*
X56000Y120534D01*
X59999Y118496D02*
X59809Y118877D01*
X59428Y119258D01*
X59047Y119448D01*
X58476Y119639D01*
X57524D01*
X56952Y119448D01*
X56572Y119258D01*
X56191Y118877D01*
X56000Y118496D01*
Y117734D01*
X56191Y117353D01*
X56572Y116973D01*
X56952Y116782D01*
X57524Y116592D01*
X58476D01*
X59047Y116782D01*
X59428Y116973D01*
X59809Y117353D01*
X59999Y117734D01*
Y118496D01*
X56762Y117925D02*
X55619Y116782D01*
X6500Y162237D02*
X6881Y162428D01*
X7452Y162999D01*
Y159000D01*
X9623Y162047D02*
Y162237D01*
X9814Y162618D01*
X10004Y162809D01*
X10385Y162999D01*
X11147D01*
X11528Y162809D01*
X11718Y162618D01*
X11908Y162237D01*
Y161856D01*
X11718Y161476D01*
X11337Y160904D01*
X9433Y159000D01*
X12099D01*
X60399Y125100D02*
X56400D01*
X79428Y163334D02*
X79809Y163715D01*
X79999Y164286D01*
Y165048D01*
X79809Y165619D01*
X79428Y166000D01*
X79047D01*
X78666Y165809D01*
X78476Y165619D01*
X78285Y165238D01*
X77905Y164095D01*
X77714Y163715D01*
X77524Y163524D01*
X77143Y163334D01*
X76572D01*
X76191Y163715D01*
X76000Y164286D01*
Y165048D01*
X76191Y165619D01*
X76572Y166000D01*
X79999Y161296D02*
X79809Y161677D01*
X79428Y162058D01*
X79047Y162248D01*
X78476Y162439D01*
X77524D01*
X76952Y162248D01*
X76572Y162058D01*
X76191Y161677D01*
X76000Y161296D01*
Y160534D01*
X76191Y160153D01*
X76572Y159773D01*
X76952Y159582D01*
X77524Y159392D01*
X78476D01*
X79047Y159582D01*
X79428Y159773D01*
X79809Y160153D01*
X79999Y160534D01*
Y161296D01*
Y158459D02*
X76000D01*
X79999D02*
Y155983D01*
X78095Y158459D02*
Y156935D01*
X317701Y25800D02*
X321700D01*
X317630Y27300D02*
X321629D01*
X317630D02*
X321629Y29966D01*
X317630D02*
X321629D01*
X317630Y31071D02*
X321629D01*
X317630Y33737D02*
X320296Y31071D01*
X319343Y32023D02*
X321629Y33737D01*
X322200Y34632D02*
X317630Y37298D01*
X317701Y22200D02*
X321700D01*
Y24485D01*
X323701Y184800D02*
X327700D01*
X323701D02*
Y186514D01*
X323891Y187085D01*
X324082Y187276D01*
X324463Y187466D01*
X324844D01*
X325224Y187276D01*
X325415Y187085D01*
X325605Y186514D01*
Y184800D01*
Y186133D02*
X327700Y187466D01*
X323701Y188361D02*
X326557D01*
X327129Y188552D01*
X327510Y188932D01*
X327700Y189504D01*
Y189885D01*
X327510Y190456D01*
X327129Y190837D01*
X326557Y191027D01*
X323701D01*
Y192132D02*
X327700D01*
X323701D02*
X327700Y194798D01*
X323701D02*
X327700D01*
Y24847D02*
X323701Y23324D01*
X327700Y21800D01*
X326367Y22371D02*
Y24276D01*
X324653Y28637D02*
X324272Y28446D01*
X323891Y28065D01*
X323701Y27684D01*
Y26923D01*
X323891Y26542D01*
X324272Y26161D01*
X324653Y25971D01*
X325224Y25780D01*
X326177D01*
X326748Y25971D01*
X327129Y26161D01*
X327510Y26542D01*
X327700Y26923D01*
Y27684D01*
X327510Y28065D01*
X327129Y28446D01*
X326748Y28637D01*
X323701Y31093D02*
X327700D01*
X323701Y29760D02*
Y32426D01*
X180966Y55561D02*
X180585Y55942D01*
X180014Y56132D01*
X179252D01*
X178681Y55942D01*
X178300Y55561D01*
Y55180D01*
X178490Y54799D01*
X178681Y54609D01*
X179062Y54418D01*
X180204Y54037D01*
X180585Y53847D01*
X180776Y53657D01*
X180966Y53276D01*
Y52704D01*
X180585Y52324D01*
X180014Y52133D01*
X179252D01*
X178681Y52324D01*
X178300Y52704D01*
X182432Y56132D02*
Y52895D01*
X182623Y52324D01*
X183004Y52133D01*
X183385D01*
X181861Y54799D02*
X183194D01*
X183956D02*
Y52133D01*
Y53657D02*
X184146Y54228D01*
X184527Y54609D01*
X184908Y54799D01*
X185479D01*
X188127D02*
Y52133D01*
Y54228D02*
X187746Y54609D01*
X187365Y54799D01*
X186793D01*
X186413Y54609D01*
X186032Y54228D01*
X185841Y53657D01*
Y53276D01*
X186032Y52704D01*
X186413Y52324D01*
X186793Y52133D01*
X187365D01*
X187746Y52324D01*
X188127Y52704D01*
X189383Y54799D02*
X190526Y52133D01*
X191669Y54799D02*
X190526Y52133D01*
X190145Y51371D01*
X189764Y50990D01*
X189383Y50800D01*
X189193D01*
X195192Y55180D02*
X195001Y55561D01*
X194620Y55942D01*
X194239Y56132D01*
X193478D01*
X193097Y55942D01*
X192716Y55561D01*
X192525Y55180D01*
X192335Y54609D01*
Y53657D01*
X192525Y53085D01*
X192716Y52704D01*
X193097Y52324D01*
X193478Y52133D01*
X194239D01*
X194620Y52324D01*
X195001Y52704D01*
X195192Y53085D01*
X199362Y52133D02*
X197839Y56132D01*
X196315Y52133D01*
X196887Y53466D02*
X198791D01*
X201628Y56132D02*
Y52133D01*
X200295Y56132D02*
X202961D01*
X261395Y205799D02*
X258300D01*
Y200800D01*
X261395D01*
X258300Y203418D02*
X260204D01*
X265798Y204609D02*
X265560Y205085D01*
X265084Y205561D01*
X264608Y205799D01*
X263656D01*
X263180Y205561D01*
X262704Y205085D01*
X262466Y204609D01*
X262228Y203895D01*
Y202704D01*
X262466Y201990D01*
X262704Y201514D01*
X263180Y201038D01*
X263656Y200800D01*
X264608D01*
X265084Y201038D01*
X265560Y201514D01*
X265798Y201990D01*
X271012Y200800D02*
X269107Y205799D01*
X267203Y200800D01*
X267917Y202466D02*
X270297D01*
X273844Y205799D02*
Y200800D01*
X272178Y205799D02*
X275511D01*
X281462D02*
X280986Y205561D01*
X280509Y205085D01*
X280272Y204609D01*
X280033Y203895D01*
Y202704D01*
X280272Y201990D01*
X280509Y201514D01*
X280986Y201038D01*
X281462Y200800D01*
X282414D01*
X282890Y201038D01*
X283366Y201514D01*
X283604Y201990D01*
X283842Y202704D01*
Y203895D01*
X283604Y204609D01*
X283366Y205085D01*
X282890Y205561D01*
X282414Y205799D01*
X281462D01*
X285009D02*
Y202228D01*
X285247Y201514D01*
X285723Y201038D01*
X286437Y200800D01*
X286913D01*
X287627Y201038D01*
X288103Y201514D01*
X288341Y202228D01*
Y205799D01*
X291388D02*
Y200800D01*
X289722Y205799D02*
X293054D01*
X261395Y23299D02*
X258300D01*
Y18300D01*
X261395D01*
X258300Y20919D02*
X260204D01*
X265798Y22109D02*
X265560Y22585D01*
X265084Y23061D01*
X264608Y23299D01*
X263656D01*
X263180Y23061D01*
X262704Y22585D01*
X262466Y22109D01*
X262228Y21395D01*
Y20204D01*
X262466Y19490D01*
X262704Y19014D01*
X263180Y18538D01*
X263656Y18300D01*
X264608D01*
X265084Y18538D01*
X265560Y19014D01*
X265798Y19490D01*
X271012Y18300D02*
X269107Y23299D01*
X267203Y18300D01*
X267917Y19966D02*
X270297D01*
X273844Y23299D02*
Y18300D01*
X272178Y23299D02*
X275511D01*
X280033D02*
Y18300D01*
X282300Y23299D02*
Y18300D01*
Y23299D02*
X285633Y18300D01*
Y23299D02*
Y18300D01*
X188800Y12037D02*
X189181Y12228D01*
X189752Y12799D01*
Y8800D01*
X194208Y11466D02*
X194018Y10895D01*
X193637Y10514D01*
X193066Y10323D01*
X192875D01*
X192304Y10514D01*
X191923Y10895D01*
X191733Y11466D01*
Y11656D01*
X191923Y12228D01*
X192304Y12609D01*
X192875Y12799D01*
X193066D01*
X193637Y12609D01*
X194018Y12228D01*
X194208Y11466D01*
Y10514D01*
X194018Y9562D01*
X193637Y8990D01*
X193066Y8800D01*
X192685D01*
X192114Y8990D01*
X191923Y9371D01*
X11300Y49537D02*
X11681Y49728D01*
X12252Y50299D01*
Y46300D01*
X31157Y161347D02*
X30966Y161728D01*
X30585Y162109D01*
X30204Y162299D01*
X29443D01*
X29062Y162109D01*
X28681Y161728D01*
X28490Y161347D01*
X28300Y160776D01*
Y159824D01*
X28490Y159252D01*
X28681Y158871D01*
X29062Y158490D01*
X29443Y158300D01*
X30204D01*
X30585Y158490D01*
X30966Y158871D01*
X31157Y159252D01*
Y159824D01*
X30204D02*
X31157D01*
X32071Y162299D02*
Y158300D01*
Y162299D02*
X34737Y158300D01*
Y162299D02*
Y158300D01*
X35841Y162299D02*
Y158300D01*
Y162299D02*
X37174D01*
X37746Y162109D01*
X38127Y161728D01*
X38317Y161347D01*
X38507Y160776D01*
Y159824D01*
X38317Y159252D01*
X38127Y158871D01*
X37746Y158490D01*
X37174Y158300D01*
X35841D01*
X31157Y151347D02*
X30966Y151728D01*
X30585Y152109D01*
X30204Y152299D01*
X29443D01*
X29062Y152109D01*
X28681Y151728D01*
X28490Y151347D01*
X28300Y150776D01*
Y149823D01*
X28490Y149252D01*
X28681Y148871D01*
X29062Y148490D01*
X29443Y148300D01*
X30204D01*
X30585Y148490D01*
X30966Y148871D01*
X31157Y149252D01*
Y149823D01*
X30204D02*
X31157D01*
X32071Y152299D02*
Y148300D01*
Y152299D02*
X34737Y148300D01*
Y152299D02*
Y148300D01*
X35841Y152299D02*
Y148300D01*
Y152299D02*
X37174D01*
X37746Y152109D01*
X38127Y151728D01*
X38317Y151347D01*
X38507Y150776D01*
Y149823D01*
X38317Y149252D01*
X38127Y148871D01*
X37746Y148490D01*
X37174Y148300D01*
X35841D01*
X28681Y142299D02*
X30776D01*
X29633Y140776D01*
X30204D01*
X30585Y140585D01*
X30776Y140395D01*
X30966Y139823D01*
Y139443D01*
X30776Y138871D01*
X30395Y138490D01*
X29823Y138300D01*
X29252D01*
X28681Y138490D01*
X28490Y138681D01*
X28300Y139062D01*
X31861Y142299D02*
X33385Y138300D01*
X34908Y142299D02*
X33385Y138300D01*
X35803Y142299D02*
X37898D01*
X36755Y140776D01*
X37327D01*
X37707Y140585D01*
X37898Y140395D01*
X38088Y139823D01*
Y139443D01*
X37898Y138871D01*
X37517Y138490D01*
X36946Y138300D01*
X36375D01*
X35803Y138490D01*
X35613Y138681D01*
X35422Y139062D01*
X28300Y132299D02*
Y128300D01*
Y132299D02*
X29823Y128300D01*
X31347Y132299D02*
X29823Y128300D01*
X31347Y132299D02*
Y128300D01*
X32490Y132299D02*
Y128300D01*
X35994Y131728D02*
X35613Y132109D01*
X35041Y132299D01*
X34280D01*
X33708Y132109D01*
X33327Y131728D01*
Y131347D01*
X33518Y130966D01*
X33708Y130776D01*
X34089Y130585D01*
X35232Y130204D01*
X35613Y130014D01*
X35803Y129824D01*
X35994Y129443D01*
Y128871D01*
X35613Y128490D01*
X35041Y128300D01*
X34280D01*
X33708Y128490D01*
X33327Y128871D01*
X38031Y132299D02*
X37650Y132109D01*
X37269Y131728D01*
X37079Y131347D01*
X36889Y130776D01*
Y129824D01*
X37079Y129252D01*
X37269Y128871D01*
X37650Y128490D01*
X38031Y128300D01*
X38793D01*
X39174Y128490D01*
X39555Y128871D01*
X39745Y129252D01*
X39936Y129824D01*
Y130776D01*
X39745Y131347D01*
X39555Y131728D01*
X39174Y132109D01*
X38793Y132299D01*
X38031D01*
X28300Y122299D02*
Y118300D01*
Y122299D02*
X29823Y118300D01*
X31347Y122299D02*
X29823Y118300D01*
X31347Y122299D02*
Y118300D01*
X33632Y122299D02*
X33251Y122109D01*
X32870Y121728D01*
X32680Y121347D01*
X32490Y120776D01*
Y119824D01*
X32680Y119252D01*
X32870Y118871D01*
X33251Y118490D01*
X33632Y118300D01*
X34394D01*
X34775Y118490D01*
X35156Y118871D01*
X35346Y119252D01*
X35537Y119824D01*
Y120776D01*
X35346Y121347D01*
X35156Y121728D01*
X34775Y122109D01*
X34394Y122299D01*
X33632D01*
X39136Y121728D02*
X38755Y122109D01*
X38184Y122299D01*
X37422D01*
X36851Y122109D01*
X36470Y121728D01*
Y121347D01*
X36660Y120966D01*
X36851Y120776D01*
X37231Y120585D01*
X38374Y120204D01*
X38755Y120014D01*
X38945Y119824D01*
X39136Y119443D01*
Y118871D01*
X38755Y118490D01*
X38184Y118300D01*
X37422D01*
X36851Y118490D01*
X36470Y118871D01*
X40031Y122299D02*
Y118300D01*
X30966Y111728D02*
X30585Y112109D01*
X30014Y112299D01*
X29252D01*
X28681Y112109D01*
X28300Y111728D01*
Y111347D01*
X28490Y110966D01*
X28681Y110776D01*
X29062Y110585D01*
X30204Y110204D01*
X30585Y110014D01*
X30776Y109824D01*
X30966Y109443D01*
Y108871D01*
X30585Y108490D01*
X30014Y108300D01*
X29252D01*
X28681Y108490D01*
X28300Y108871D01*
X34718Y111347D02*
X34527Y111728D01*
X34146Y112109D01*
X33766Y112299D01*
X33004D01*
X32623Y112109D01*
X32242Y111728D01*
X32052Y111347D01*
X31861Y110776D01*
Y109824D01*
X32052Y109252D01*
X32242Y108871D01*
X32623Y108490D01*
X33004Y108300D01*
X33766D01*
X34146Y108490D01*
X34527Y108871D01*
X34718Y109252D01*
X35841Y112299D02*
Y108300D01*
X38507Y112299D02*
X35841Y109633D01*
X36793Y110585D02*
X38507Y108300D01*
X28300Y98300D02*
X30966Y102871D01*
X33899Y102299D02*
X33518Y102680D01*
X32947Y102871D01*
X32185D01*
X31614Y102680D01*
X31233Y102299D01*
Y101918D01*
X31423Y101537D01*
X31614Y101347D01*
X31995Y101156D01*
X33137Y100776D01*
X33518Y100585D01*
X33708Y100395D01*
X33899Y100014D01*
Y99443D01*
X33518Y99062D01*
X32947Y98871D01*
X32185D01*
X31614Y99062D01*
X31233Y99443D01*
X37650Y101918D02*
X37460Y102299D01*
X37079Y102680D01*
X36698Y102871D01*
X35936D01*
X35556Y102680D01*
X35175Y102299D01*
X34984Y101918D01*
X34794Y101347D01*
Y100395D01*
X34984Y99823D01*
X35175Y99443D01*
X35556Y99062D01*
X35936Y98871D01*
X36698D01*
X37079Y99062D01*
X37460Y99443D01*
X37650Y99823D01*
X41440Y102299D02*
X41059Y102680D01*
X40488Y102871D01*
X39726D01*
X39155Y102680D01*
X38774Y102299D01*
Y101918D01*
X38964Y101537D01*
X39155Y101347D01*
X39536Y101156D01*
X40678Y100776D01*
X41059Y100585D01*
X41250Y100395D01*
X41440Y100014D01*
Y99443D01*
X41059Y99062D01*
X40488Y98871D01*
X39726D01*
X39155Y99062D01*
X38774Y99443D01*
X28300Y92680D02*
Y88681D01*
X29138Y92680D02*
Y88681D01*
Y92680D02*
X30852D01*
X31423Y92490D01*
X31614Y92299D01*
X31804Y91918D01*
Y91537D01*
X31614Y91157D01*
X31423Y90966D01*
X30852Y90776D01*
X29138D01*
X30471D02*
X31804Y88681D01*
X33842Y92680D02*
X33461Y92490D01*
X33080Y92109D01*
X32890Y91728D01*
X32699Y91157D01*
Y90204D01*
X32890Y89633D01*
X33080Y89252D01*
X33461Y88871D01*
X33842Y88681D01*
X34603D01*
X34984Y88871D01*
X35365Y89252D01*
X35556Y89633D01*
X35746Y90204D01*
Y91157D01*
X35556Y91728D01*
X35365Y92109D01*
X34984Y92490D01*
X34603Y92680D01*
X33842D01*
X34413Y89443D02*
X35556Y88300D01*
X30966Y81728D02*
X30585Y82109D01*
X30014Y82299D01*
X29252D01*
X28681Y82109D01*
X28300Y81728D01*
Y81347D01*
X28490Y80966D01*
X28681Y80776D01*
X29062Y80585D01*
X30204Y80204D01*
X30585Y80014D01*
X30776Y79823D01*
X30966Y79443D01*
Y78871D01*
X30585Y78490D01*
X30014Y78300D01*
X29252D01*
X28681Y78490D01*
X28300Y78871D01*
X31861Y82299D02*
X33385Y80395D01*
Y78300D01*
X34908Y82299D02*
X33385Y80395D01*
X35422Y81537D02*
X35803Y81728D01*
X36375Y82299D01*
Y78300D01*
X30966Y71728D02*
X30585Y72109D01*
X30014Y72299D01*
X29252D01*
X28681Y72109D01*
X28300Y71728D01*
Y71347D01*
X28490Y70966D01*
X28681Y70776D01*
X29062Y70585D01*
X30204Y70204D01*
X30585Y70014D01*
X30776Y69823D01*
X30966Y69443D01*
Y68871D01*
X30585Y68490D01*
X30014Y68300D01*
X29252D01*
X28681Y68490D01*
X28300Y68871D01*
X31861Y72299D02*
X33385Y70395D01*
Y68300D01*
X34908Y72299D02*
X33385Y70395D01*
X36565Y72299D02*
X35994Y72109D01*
X35613Y71537D01*
X35422Y70585D01*
Y70014D01*
X35613Y69062D01*
X35994Y68490D01*
X36565Y68300D01*
X36946D01*
X37517Y68490D01*
X37898Y69062D01*
X38088Y70014D01*
Y70585D01*
X37898Y71537D01*
X37517Y72109D01*
X36946Y72299D01*
X36565D01*
X30776Y62299D02*
X28300D01*
Y58300D01*
X30776D01*
X28300Y60395D02*
X29823D01*
X31442Y62299D02*
Y58300D01*
Y62299D02*
X33156D01*
X33727Y62109D01*
X33918Y61918D01*
X34108Y61537D01*
Y61156D01*
X33918Y60776D01*
X33727Y60585D01*
X33156Y60395D01*
X31442D01*
X32775D02*
X34108Y58300D01*
X35003Y62299D02*
Y58300D01*
Y62299D02*
X36717D01*
X37288Y62109D01*
X37479Y61918D01*
X37669Y61537D01*
Y61156D01*
X37479Y60776D01*
X37288Y60585D01*
X36717Y60395D01*
X35003D01*
X36336D02*
X37669Y58300D01*
X28300Y48300D02*
X30966Y52871D01*
X31233D02*
Y48871D01*
Y52871D02*
X32947D01*
X33518Y52680D01*
X33708Y52490D01*
X33899Y52109D01*
Y51728D01*
X33708Y51347D01*
X33518Y51157D01*
X32947Y50966D01*
X31233D01*
X32566D02*
X33899Y48871D01*
X37460Y52299D02*
X37079Y52680D01*
X36508Y52871D01*
X35746D01*
X35175Y52680D01*
X34794Y52299D01*
Y51918D01*
X34984Y51537D01*
X35175Y51347D01*
X35556Y51157D01*
X36698Y50776D01*
X37079Y50585D01*
X37269Y50395D01*
X37460Y50014D01*
Y49443D01*
X37079Y49062D01*
X36508Y48871D01*
X35746D01*
X35175Y49062D01*
X34794Y49443D01*
X39688Y52871D02*
Y48871D01*
X38355Y52871D02*
X41021D01*
X96490Y39847D02*
Y40037D01*
X96681Y40418D01*
X96871Y40609D01*
X97252Y40799D01*
X98014D01*
X98395Y40609D01*
X98585Y40418D01*
X98776Y40037D01*
Y39656D01*
X98585Y39276D01*
X98204Y38704D01*
X96300Y36800D01*
X98966D01*
X96800Y12037D02*
X97181Y12228D01*
X97752Y12799D01*
Y8800D01*
X187990Y39847D02*
Y40037D01*
X188181Y40418D01*
X188371Y40609D01*
X188752Y40799D01*
X189514D01*
X189895Y40609D01*
X190085Y40418D01*
X190276Y40037D01*
Y39656D01*
X190085Y39276D01*
X189704Y38704D01*
X187800Y36800D01*
X190466D01*
X192504Y40799D02*
X191932Y40609D01*
X191552Y40037D01*
X191361Y39085D01*
Y38514D01*
X191552Y37562D01*
X191932Y36990D01*
X192504Y36800D01*
X192885D01*
X193456Y36990D01*
X193837Y37562D01*
X194027Y38514D01*
Y39085D01*
X193837Y40037D01*
X193456Y40609D01*
X192885Y40799D01*
X192504D01*
X70800Y12704D02*
X72514D01*
X73085Y12895D01*
X73276Y13085D01*
X73466Y13466D01*
Y14037D01*
X73276Y14418D01*
X73085Y14609D01*
X72514Y14799D01*
X70800D01*
Y10800D01*
X74361Y14799D02*
X75313Y10800D01*
X76266Y14799D02*
X75313Y10800D01*
X76266Y14799D02*
X77218Y10800D01*
X78170Y14799D02*
X77218Y10800D01*
X78970Y14799D02*
Y10800D01*
Y14799D02*
X80684D01*
X81255Y14609D01*
X81445Y14418D01*
X81636Y14037D01*
Y13656D01*
X81445Y13276D01*
X81255Y13085D01*
X80684Y12895D01*
X78970D01*
X80303D02*
X81636Y10800D01*
X53276Y14799D02*
X50800D01*
Y10800D01*
X53276D01*
X50800Y12895D02*
X52324D01*
X53942Y14799D02*
Y10800D01*
Y14799D02*
X55656D01*
X56227Y14609D01*
X56418Y14418D01*
X56608Y14037D01*
Y13656D01*
X56418Y13276D01*
X56227Y13085D01*
X55656Y12895D01*
X53942D01*
X55275D02*
X56608Y10800D01*
X57503Y14799D02*
Y10800D01*
Y14799D02*
X59217D01*
X59789Y14609D01*
X59979Y14418D01*
X60169Y14037D01*
Y13656D01*
X59979Y13276D01*
X59789Y13085D01*
X59217Y12895D01*
X57503D01*
X58836D02*
X60169Y10800D01*
D48*
X193200Y49699D02*
Y46700D01*
Y49699D02*
X194485D01*
X194914Y49556D01*
X195057Y49414D01*
X195200Y49128D01*
Y48842D01*
X195057Y48557D01*
X194914Y48414D01*
X194485Y48271D01*
X193200D01*
X194200D02*
X195200Y46700D01*
X197728Y49699D02*
X195871D01*
Y46700D01*
X197728D01*
X195871Y48271D02*
X197013D01*
X198228Y49699D02*
X199370Y46700D01*
X200513Y49699D02*
X199370Y46700D01*
X201041Y46986D02*
X200898Y46843D01*
X201041Y46700D01*
X201184Y46843D01*
X201041Y46986D01*
X201841Y49128D02*
X202127Y49271D01*
X202555Y49699D01*
Y46700D01*
D49*
X22742Y30385D02*
X22600Y30671D01*
X22314Y30957D01*
X22028Y31099D01*
X21457D01*
X21171Y30957D01*
X20886Y30671D01*
X20743Y30385D01*
X20600Y29957D01*
Y29243D01*
X20743Y28814D01*
X20886Y28528D01*
X21171Y28243D01*
X21457Y28100D01*
X22028D01*
X22314Y28243D01*
X22600Y28528D01*
X22742Y28814D01*
X23585Y31099D02*
Y28100D01*
Y31099D02*
X24870D01*
X25299Y30957D01*
X25442Y30814D01*
X25585Y30528D01*
Y30242D01*
X25442Y29957D01*
X25299Y29814D01*
X24870Y29671D01*
X23585D01*
X24585D02*
X25585Y28100D01*
X26399Y30385D02*
Y30528D01*
X26542Y30814D01*
X26684Y30957D01*
X26970Y31099D01*
X27541D01*
X27827Y30957D01*
X27970Y30814D01*
X28113Y30528D01*
Y30242D01*
X27970Y29957D01*
X27684Y29528D01*
X26256Y28100D01*
X28256D01*
X29070Y30385D02*
Y30528D01*
X29212Y30814D01*
X29355Y30957D01*
X29641Y31099D01*
X30212D01*
X30498Y30957D01*
X30641Y30814D01*
X30784Y30528D01*
Y30242D01*
X30641Y29957D01*
X30355Y29528D01*
X28927Y28100D01*
X30926D01*
X31598Y29385D02*
X34168D01*
X35054Y30528D02*
X35340Y30671D01*
X35768Y31099D01*
Y28100D01*
X37254Y30528D02*
X37539Y30671D01*
X37968Y31099D01*
Y28100D01*
X39596Y30385D02*
Y30528D01*
X39739Y30814D01*
X39882Y30957D01*
X40167Y31099D01*
X40738D01*
X41024Y30957D01*
X41167Y30814D01*
X41310Y30528D01*
Y30242D01*
X41167Y29957D01*
X40881Y29528D01*
X39453Y28100D01*
X41453D01*
X42838Y31099D02*
X42410Y30957D01*
X42267Y30671D01*
Y30385D01*
X42410Y30100D01*
X42695Y29957D01*
X43267Y29814D01*
X43695Y29671D01*
X43981Y29385D01*
X44124Y29100D01*
Y28671D01*
X43981Y28386D01*
X43838Y28243D01*
X43409Y28100D01*
X42838D01*
X42410Y28243D01*
X42267Y28386D01*
X42124Y28671D01*
Y29100D01*
X42267Y29385D01*
X42552Y29671D01*
X42981Y29814D01*
X43552Y29957D01*
X43838Y30100D01*
X43981Y30385D01*
Y30671D01*
X43838Y30957D01*
X43409Y31099D01*
X42838D01*
M02*
