G04*
G04 #@! TF.GenerationSoftware,Altium Limited,CircuitStudio,1.5.2 (30)*
G04*
G04 Layer_Physical_Order=2*
G04 Layer_Color=16765976*
%FSLAX25Y25*%
%MOIN*%
G70*
G01*
G75*
%ADD28C,0.01600*%
%ADD31C,0.02000*%
%ADD35C,0.06299*%
%ADD39C,0.06024*%
%ADD40C,0.09449*%
%ADD42C,0.02362*%
G36*
X328617Y129632D02*
X328155Y129441D01*
X321199Y136396D01*
X320604Y136794D01*
X319902Y136934D01*
X308661D01*
X308583Y137122D01*
X307940Y137960D01*
X307102Y138603D01*
X306126Y139007D01*
X305079Y139145D01*
X304031Y139007D01*
X303056Y138603D01*
X302218Y137960D01*
X301574Y137122D01*
X301170Y136146D01*
X301032Y135098D01*
X301170Y134051D01*
X301574Y133075D01*
X302218Y132237D01*
X303056Y131594D01*
X304031Y131190D01*
X305079Y131052D01*
X306126Y131190D01*
X307102Y131594D01*
X307940Y132237D01*
X308583Y133075D01*
X308661Y133263D01*
X319141D01*
X325665Y126740D01*
Y113260D01*
X324905Y112500D01*
X301406D01*
X301201Y113000D01*
X301368Y113165D01*
X307500D01*
X308202Y113304D01*
X308798Y113702D01*
X312361Y117265D01*
X312759Y117861D01*
X312898Y118563D01*
Y121516D01*
X313086Y121594D01*
X313924Y122237D01*
X314567Y123075D01*
X314971Y124051D01*
X315109Y125098D01*
X314971Y126146D01*
X314567Y127122D01*
X313924Y127960D01*
X313086Y128603D01*
X312110Y129007D01*
X311063Y129145D01*
X310016Y129007D01*
X309040Y128603D01*
X308202Y127960D01*
X307559Y127122D01*
X307154Y126146D01*
X307017Y125098D01*
X307154Y124051D01*
X307559Y123075D01*
X308202Y122237D01*
X309040Y121594D01*
X309228Y121516D01*
Y119323D01*
X306740Y116835D01*
X301179D01*
X300851Y117054D01*
X300000Y117224D01*
X299149Y117054D01*
X298428Y116572D01*
X297945Y115851D01*
X297776Y115000D01*
X297945Y114149D01*
X298428Y113427D01*
X299067Y113000D01*
X299033Y112632D01*
X298984Y112500D01*
X270528D01*
X270060Y112624D01*
X270056Y112750D01*
X270047Y112787D01*
X270045Y112822D01*
X270008Y112979D01*
X270008Y112980D01*
X270008Y113141D01*
X270008Y113141D01*
Y113143D01*
X270001Y113177D01*
X270000Y113178D01*
Y113178D01*
X270000Y113180D01*
Y113220D01*
X270000Y113220D01*
Y122197D01*
X270000Y122198D01*
Y122198D01*
X270000Y122200D01*
X270000Y122386D01*
X270000Y122387D01*
X270001Y122387D01*
X270005Y122409D01*
Y122409D01*
X270005Y122409D01*
X270016Y122435D01*
X270033Y122453D01*
X270033Y122454D01*
X270074Y122567D01*
X270207Y122704D01*
X270210Y122708D01*
X270211Y122710D01*
X270214Y122714D01*
X270215Y122715D01*
X270215Y122715D01*
X276903Y129403D01*
X276903Y129403D01*
X277500Y130000D01*
Y170000D01*
X276903Y170597D01*
X270233Y177267D01*
X270232Y177269D01*
X270179Y177322D01*
X270150Y177390D01*
X270118Y177439D01*
X270089Y177468D01*
X270072Y177505D01*
X270023Y177573D01*
X270012Y177583D01*
X270001Y177631D01*
X270001Y177797D01*
X270000Y177801D01*
Y187198D01*
X270000Y187199D01*
Y187200D01*
X270001Y187201D01*
X270002Y187203D01*
X270002Y187204D01*
X270068Y187248D01*
X270068Y187248D01*
X270068Y187248D01*
X270392Y187457D01*
X270462Y187486D01*
X270536Y187500D01*
X298025D01*
X298195Y187466D01*
X298207D01*
X298217Y187462D01*
X298226Y187454D01*
X298505Y187277D01*
X298507Y187276D01*
X298509Y187274D01*
X298541Y187254D01*
X298545Y187252D01*
X298643Y186888D01*
X298595Y186704D01*
X298584Y186677D01*
X298428Y186573D01*
X297945Y185851D01*
X297776Y185000D01*
X297945Y184149D01*
X298428Y183428D01*
X299149Y182946D01*
X300000Y182776D01*
X300851Y182946D01*
X301572Y183428D01*
X302055Y184149D01*
X302224Y185000D01*
X302055Y185851D01*
X301572Y186573D01*
X301338Y186729D01*
X301337Y186731D01*
X301348Y187061D01*
X301405Y187286D01*
X301488Y187339D01*
X301640Y187483D01*
X301642Y187484D01*
X301654Y187489D01*
X301655Y187490D01*
X301658Y187492D01*
X301663Y187496D01*
X301665Y187497D01*
X301669Y187499D01*
X301670Y187499D01*
X301670Y187500D01*
X301671Y187500D01*
X308129D01*
X308129Y187500D01*
X308330D01*
X308330Y187500D01*
X308330Y187500D01*
X308349Y187487D01*
X308362Y187482D01*
X308362Y187482D01*
X308375Y187477D01*
X308517Y187335D01*
X308605Y187277D01*
X308643Y186916D01*
X308600Y186688D01*
X308428Y186573D01*
X307945Y185851D01*
X307776Y185000D01*
X307945Y184149D01*
X308428Y183428D01*
X309149Y182946D01*
X309536Y182868D01*
X313165Y179240D01*
Y169599D01*
X312298Y168732D01*
X312110Y168810D01*
X311063Y168948D01*
X310016Y168810D01*
X309040Y168406D01*
X308202Y167763D01*
X307559Y166925D01*
X307154Y165949D01*
X307017Y164902D01*
X307154Y163854D01*
X307559Y162878D01*
X308202Y162040D01*
X309040Y161397D01*
X310016Y160993D01*
X311063Y160855D01*
X312110Y160993D01*
X313086Y161397D01*
X313924Y162040D01*
X314567Y162878D01*
X314971Y163854D01*
X315109Y164902D01*
X314971Y165949D01*
X314894Y166137D01*
X316298Y167541D01*
X316696Y168136D01*
X316835Y168839D01*
Y180000D01*
X316696Y180702D01*
X316298Y181298D01*
X312132Y185464D01*
X312055Y185851D01*
X311573Y186573D01*
X311380Y186701D01*
X311370Y186986D01*
X311454Y187253D01*
X311462Y187256D01*
X311774Y187454D01*
X311784Y187463D01*
X311791Y187466D01*
X311792Y187466D01*
X311806D01*
X311975Y187500D01*
X328617D01*
Y129632D01*
D02*
G37*
G36*
X325665Y106740D02*
Y63260D01*
X319338Y56934D01*
X308661D01*
X308583Y57122D01*
X307940Y57960D01*
X307102Y58603D01*
X306126Y59007D01*
X305079Y59145D01*
X304031Y59007D01*
X303056Y58603D01*
X302218Y57960D01*
X301574Y57122D01*
X301170Y56146D01*
X301032Y55098D01*
X301170Y54051D01*
X301574Y53075D01*
X302218Y52237D01*
X303056Y51594D01*
X304031Y51190D01*
X305079Y51052D01*
X306126Y51190D01*
X307102Y51594D01*
X307940Y52237D01*
X308583Y53075D01*
X308661Y53263D01*
X320098D01*
X320801Y53403D01*
X321396Y53801D01*
X328155Y60559D01*
X328617Y60368D01*
Y32500D01*
X326960D01*
X326958Y32500D01*
X326762Y32500D01*
X326638Y32532D01*
X326582Y32535D01*
X326531Y32557D01*
X326431Y32576D01*
X326349Y32614D01*
X326296Y32659D01*
X326288Y33237D01*
X326572Y33428D01*
X327055Y34149D01*
X327224Y35000D01*
X327055Y35851D01*
X326572Y36573D01*
X325851Y37055D01*
X325000Y37224D01*
X324149Y37055D01*
X323428Y36573D01*
X322945Y35851D01*
X322776Y35000D01*
X322945Y34149D01*
X323428Y33428D01*
X323729Y33226D01*
X323760Y33145D01*
X323765Y33130D01*
X323734Y32688D01*
X323707Y32640D01*
X323707Y32640D01*
X323569Y32576D01*
X323569Y32576D01*
X323470Y32557D01*
X323418Y32535D01*
X323418Y32535D01*
X323362Y32532D01*
X323238Y32500D01*
X323043D01*
X323041Y32500D01*
X322170D01*
X322169Y32500D01*
X321969Y32500D01*
X321871Y32520D01*
X321790Y32547D01*
X321744Y32574D01*
X321725Y32590D01*
X321701Y32604D01*
X321701Y32604D01*
X321695Y32609D01*
X321693Y32610D01*
X321691Y32612D01*
X321674Y32622D01*
X321673Y32622D01*
X321673Y32623D01*
X321631Y32647D01*
X321631Y32647D01*
X321622Y32654D01*
X321622Y32654D01*
X321621Y32655D01*
X321612Y32664D01*
X321598Y32671D01*
X321493Y32763D01*
X321490Y32765D01*
X321458Y32776D01*
X321432Y32797D01*
X321399Y32814D01*
X321362Y32850D01*
X321334Y32868D01*
X321308Y32878D01*
X321307Y32879D01*
X321306Y32879D01*
X321305Y32879D01*
X321305Y32880D01*
X321304Y32880D01*
X321286Y32887D01*
X321276Y32895D01*
X321267Y32898D01*
X321246Y32915D01*
X321246Y32915D01*
X321141Y32947D01*
X321003Y33038D01*
X320976Y33049D01*
X320926Y33058D01*
X320922Y33060D01*
X320896Y33064D01*
X320765Y33088D01*
X320564Y33166D01*
X320535Y33171D01*
X320362Y33167D01*
X320300Y33187D01*
X320261Y33183D01*
X320194Y33196D01*
X320193Y33196D01*
X320165Y33201D01*
X320047Y33200D01*
X320047Y33200D01*
X319970Y33199D01*
X319896Y33184D01*
X319895Y33184D01*
X319793Y33182D01*
X319671Y33157D01*
X319573Y33156D01*
X319498Y33140D01*
X319449Y33119D01*
X319245Y33102D01*
X319180Y33083D01*
X319180D01*
X319179Y33083D01*
X319179Y33083D01*
X319087Y33035D01*
X319014Y33020D01*
X318910Y32948D01*
X318904Y32947D01*
X318878Y32932D01*
X318764Y32899D01*
X318632Y32831D01*
X318519Y32740D01*
X318473Y32717D01*
X318433Y32684D01*
X318302Y32617D01*
X318302Y32617D01*
X318269Y32577D01*
X318206Y32541D01*
X318206Y32541D01*
X318205Y32541D01*
X318166Y32527D01*
X318031Y32500D01*
X317830Y32500D01*
X317829Y32500D01*
X317170D01*
X317169Y32500D01*
X316969Y32500D01*
X316872Y32519D01*
X316802Y32543D01*
X316704Y32599D01*
X316684Y32616D01*
X316648Y32637D01*
X316647Y32638D01*
X316522Y32746D01*
X316514Y32751D01*
X316506Y32754D01*
X316504Y32756D01*
X316496Y32760D01*
X316488Y32767D01*
X316484Y32769D01*
X316469Y32799D01*
X316398Y33148D01*
X316443Y33335D01*
X316446Y33343D01*
X316572Y33428D01*
X317055Y34149D01*
X317224Y35000D01*
X317055Y35851D01*
X316572Y36573D01*
X315851Y37055D01*
X315000Y37224D01*
X314149Y37055D01*
X313427Y36573D01*
X312945Y35851D01*
X312776Y35000D01*
X312945Y34149D01*
X313427Y33428D01*
X313560Y33339D01*
X313600Y33186D01*
X313550Y32744D01*
X313509Y32713D01*
X313481Y32705D01*
X313464Y32696D01*
X313424Y32663D01*
X313395Y32648D01*
X313382Y32643D01*
X313382Y32643D01*
X313378Y32642D01*
X313354Y32627D01*
X313319Y32616D01*
X313319Y32616D01*
X313316Y32612D01*
X313315Y32612D01*
X313305Y32606D01*
X313284Y32588D01*
X313264Y32578D01*
X313255Y32570D01*
X313205Y32541D01*
X313165Y32527D01*
X313032Y32500D01*
X312832Y32500D01*
X312830Y32500D01*
X312830Y32500D01*
X302170D01*
X302169Y32500D01*
X301969Y32500D01*
X301871Y32519D01*
X301802Y32543D01*
X301704Y32599D01*
X301684Y32616D01*
X301648Y32637D01*
X301647Y32638D01*
X301522Y32746D01*
X301514Y32751D01*
X301506Y32754D01*
X301504Y32756D01*
X301496Y32760D01*
X301488Y32767D01*
X301484Y32769D01*
X301469Y32799D01*
X301397Y33148D01*
X301443Y33335D01*
X301446Y33343D01*
X301572Y33428D01*
X302055Y34149D01*
X302224Y35000D01*
X302055Y35851D01*
X301835Y36179D01*
Y39141D01*
X305957Y43263D01*
X307481D01*
X307559Y43075D01*
X308202Y42237D01*
X309040Y41594D01*
X310016Y41190D01*
X311063Y41052D01*
X312110Y41190D01*
X313086Y41594D01*
X313924Y42237D01*
X314567Y43075D01*
X314971Y44051D01*
X315109Y45098D01*
X314971Y46146D01*
X314567Y47122D01*
X313924Y47960D01*
X313086Y48603D01*
X312110Y49007D01*
X311063Y49145D01*
X310016Y49007D01*
X309040Y48603D01*
X308202Y47960D01*
X307559Y47122D01*
X307481Y46934D01*
X305197D01*
X304495Y46794D01*
X303899Y46396D01*
X298702Y41199D01*
X298304Y40604D01*
X298165Y39902D01*
Y36179D01*
X297945Y35851D01*
X297776Y35000D01*
X297945Y34149D01*
X298428Y33428D01*
X298560Y33339D01*
X298600Y33186D01*
X298551Y32744D01*
X298509Y32713D01*
X298481Y32705D01*
X298464Y32696D01*
X298424Y32663D01*
X298395Y32648D01*
X298382Y32643D01*
X298382Y32643D01*
X298378Y32642D01*
X298354Y32627D01*
X298320Y32616D01*
X298319Y32616D01*
X298316Y32612D01*
X298315Y32612D01*
X298305Y32606D01*
X298284Y32588D01*
X298264Y32578D01*
X298255Y32570D01*
X298205Y32541D01*
X298165Y32527D01*
X298032Y32500D01*
X297832Y32500D01*
X297830Y32500D01*
X297830Y32500D01*
X270302D01*
X270301Y32500D01*
X270300D01*
X270299Y32501D01*
X270297Y32502D01*
X270297Y32502D01*
X270252Y32568D01*
X270252Y32568D01*
X270252Y32568D01*
X270043Y32892D01*
X270014Y32962D01*
X270000Y33037D01*
Y42197D01*
X270000Y42198D01*
Y42199D01*
X270000Y42200D01*
X270000Y42386D01*
X270000Y42387D01*
X270001Y42387D01*
X270005Y42409D01*
Y42409D01*
X270005Y42409D01*
X270016Y42435D01*
X270033Y42453D01*
X270033Y42454D01*
X270074Y42567D01*
X270207Y42704D01*
X270210Y42708D01*
X270211Y42710D01*
X270214Y42714D01*
X270215Y42715D01*
X270215Y42715D01*
X276903Y49403D01*
X276903Y49403D01*
X277500Y50000D01*
Y90000D01*
X276903Y90597D01*
X270233Y97267D01*
X270232Y97269D01*
X270179Y97322D01*
X270150Y97390D01*
X270118Y97439D01*
X270089Y97468D01*
X270072Y97505D01*
X270023Y97573D01*
X270012Y97583D01*
X270001Y97631D01*
X270001Y97798D01*
X270000Y97801D01*
Y106739D01*
X270016Y106821D01*
Y106822D01*
X270017Y106823D01*
X270017Y106938D01*
X270048Y107049D01*
X270050Y107072D01*
X270179Y107370D01*
X270615Y107500D01*
X288984D01*
X289033Y107368D01*
X289067Y107000D01*
X288427Y106572D01*
X287945Y105851D01*
X287776Y105000D01*
X287945Y104149D01*
X288427Y103428D01*
X289149Y102945D01*
X290000Y102776D01*
X290851Y102945D01*
X291572Y103428D01*
X292055Y104149D01*
X292224Y105000D01*
X292055Y105851D01*
X291572Y106572D01*
X290933Y107000D01*
X290967Y107368D01*
X291016Y107500D01*
X298984D01*
X299033Y107368D01*
X299067Y107000D01*
X298428Y106572D01*
X297945Y105851D01*
X297776Y105000D01*
X297945Y104149D01*
X298428Y103428D01*
X299149Y102945D01*
X300000Y102776D01*
X300851Y102945D01*
X301179Y103165D01*
X304240D01*
X309228Y98177D01*
Y96675D01*
X308728Y96575D01*
X308583Y96925D01*
X307940Y97763D01*
X307102Y98406D01*
X306126Y98810D01*
X305079Y98948D01*
X304031Y98810D01*
X303056Y98406D01*
X302218Y97763D01*
X301574Y96925D01*
X301170Y95949D01*
X301032Y94902D01*
X301170Y93854D01*
X301574Y92878D01*
X302218Y92040D01*
X303056Y91397D01*
X304031Y90993D01*
X305079Y90855D01*
X306126Y90993D01*
X307102Y91397D01*
X307940Y92040D01*
X308583Y92878D01*
X308728Y93228D01*
X309228Y93128D01*
Y88484D01*
X309040Y88406D01*
X308202Y87763D01*
X307559Y86925D01*
X307154Y85949D01*
X307017Y84902D01*
X307154Y83854D01*
X307559Y82878D01*
X308202Y82040D01*
X309040Y81397D01*
X310016Y80993D01*
X311063Y80855D01*
X312110Y80993D01*
X313086Y81397D01*
X313924Y82040D01*
X314567Y82878D01*
X314971Y83854D01*
X315109Y84902D01*
X314971Y85949D01*
X314567Y86925D01*
X313924Y87763D01*
X313086Y88406D01*
X312898Y88484D01*
Y98937D01*
X312759Y99639D01*
X312361Y100235D01*
X310275Y102321D01*
X310439Y102864D01*
X310851Y102945D01*
X311573Y103428D01*
X312055Y104149D01*
X312224Y105000D01*
X312055Y105851D01*
X311573Y106572D01*
X310933Y107000D01*
X310967Y107368D01*
X311016Y107500D01*
X324905D01*
X325665Y106740D01*
D02*
G37*
G36*
X324339Y214274D02*
X325740Y213694D01*
X326943Y212770D01*
X327867Y211567D01*
X328447Y210165D01*
X328629Y208786D01*
X328617Y208661D01*
Y189539D01*
X311975D01*
X311806Y189506D01*
X311792D01*
X311764Y189500D01*
X311577D01*
X311408Y189466D01*
X311255Y189403D01*
X311057Y189368D01*
X311055Y189368D01*
X311053Y189366D01*
X311050Y189366D01*
X311033Y189355D01*
X311013Y189351D01*
X311006Y189348D01*
X310839Y189237D01*
X310683Y189176D01*
X310371Y188978D01*
X310082Y188910D01*
X309816Y188920D01*
X309687Y189006D01*
X309658Y189030D01*
X309576Y189120D01*
X309516Y189149D01*
X309482Y189183D01*
X309463Y189196D01*
X309341Y189246D01*
X309237Y189326D01*
X309185Y189340D01*
X309155Y189361D01*
X309154Y189361D01*
X309154Y189361D01*
X309141Y189367D01*
X309140Y189367D01*
X309129Y189371D01*
X309129Y189372D01*
X309110Y189384D01*
X308983Y189409D01*
X308867Y189467D01*
X308866Y189467D01*
X308795Y189472D01*
X308728Y189500D01*
X308596Y189500D01*
X308469Y189534D01*
X308469Y189534D01*
X308399Y189525D01*
X308330Y189539D01*
X308129D01*
X308129Y189539D01*
X301671D01*
X301494Y189504D01*
X301314Y189508D01*
X301291Y189499D01*
X301270Y189499D01*
X301096Y189427D01*
X300908Y189391D01*
X300908Y189391D01*
X300900Y189386D01*
X300890Y189384D01*
X300890Y189383D01*
X300889Y189383D01*
X300884Y189380D01*
X300882Y189379D01*
X300879Y189378D01*
X300868Y189371D01*
X300864Y189369D01*
X300731Y189280D01*
X300573Y189218D01*
X300572Y189218D01*
X300556Y189203D01*
X300535Y189194D01*
X300534Y189193D01*
X300532Y189192D01*
X300528Y189190D01*
X300520Y189187D01*
X300518Y189185D01*
X300389Y189058D01*
X300236Y188961D01*
X300066Y188823D01*
X299633Y188976D01*
X299602Y188996D01*
X299599Y188997D01*
X299597Y188999D01*
X299317Y189176D01*
X299158Y189238D01*
X298991Y189349D01*
X298981Y189353D01*
X298965Y189356D01*
X298952Y189364D01*
X298757Y189398D01*
X298592Y189466D01*
X298423Y189500D01*
X298234D01*
X298207Y189506D01*
X298195D01*
X298025Y189539D01*
X270536D01*
X270465Y189525D01*
X270462Y189525D01*
X270349Y189503D01*
X270168Y189506D01*
X270094Y189492D01*
X269893Y189412D01*
X269682Y189370D01*
X269612Y189341D01*
X269462Y189241D01*
X269354Y189198D01*
X269352Y189196D01*
X269285Y189170D01*
X268961Y188960D01*
X268949Y188949D01*
X268934Y188942D01*
X268868Y188898D01*
X268810Y188840D01*
X268763Y188814D01*
X268763Y188814D01*
X268712Y188751D01*
X268644Y188707D01*
X268634Y188693D01*
X268564Y188646D01*
X268558Y188642D01*
X268558Y188642D01*
X268553Y188638D01*
X268451Y188484D01*
X268319Y188355D01*
X268319Y188355D01*
X268314Y188344D01*
X268306Y188335D01*
X268304Y188331D01*
X268302Y188329D01*
X268302Y188328D01*
X268226Y188145D01*
X268116Y187980D01*
X268115Y187976D01*
X268114Y187974D01*
X268113Y187972D01*
X268078Y187791D01*
X268006Y187623D01*
X268006Y187613D01*
X268001Y187599D01*
X268000Y187598D01*
Y187595D01*
X267999Y187592D01*
X268000Y187394D01*
X267961Y187200D01*
Y187199D01*
X267961Y187198D01*
Y177801D01*
X267962Y177796D01*
X267962Y177794D01*
X267962Y177628D01*
X267980Y177537D01*
X267974Y177502D01*
X268007Y177366D01*
X268012Y177182D01*
X268023Y177134D01*
X268092Y176977D01*
X268119Y176848D01*
X268139Y176817D01*
X268160Y176728D01*
X268227Y176637D01*
X268237Y176613D01*
X268280Y176555D01*
X268346Y176407D01*
X268368Y176386D01*
X268374Y176373D01*
X268423Y176306D01*
X268455Y176257D01*
X268508Y176205D01*
X268536Y176135D01*
X268537Y176134D01*
X268627Y176045D01*
X268737Y175880D01*
X268737Y175880D01*
X268737Y175880D01*
X268737Y175880D01*
X268790Y175827D01*
X268790Y175827D01*
X268791Y175826D01*
X275461Y169155D01*
Y130845D01*
X275461Y130845D01*
X268773Y124157D01*
X268773Y124157D01*
X268772Y124156D01*
X268769Y124152D01*
X268768Y124150D01*
X268756Y124133D01*
X268743Y124124D01*
X268611Y123987D01*
X268595Y123963D01*
X268571Y123945D01*
X268379Y123629D01*
X268374Y123621D01*
X268346Y123594D01*
X268346Y123594D01*
X268338Y123578D01*
X268318Y123556D01*
X268318Y123556D01*
X268299Y123508D01*
X268295Y123504D01*
X268288Y123488D01*
X268179Y123319D01*
X268174Y123290D01*
X268158Y123265D01*
X268150Y123242D01*
X268132Y123215D01*
X268121Y123190D01*
X268121Y123189D01*
X268117Y123167D01*
X268116Y123167D01*
X268115Y123157D01*
X268100Y123133D01*
X268080Y123006D01*
X268019Y122869D01*
X268018Y122846D01*
X268009Y122826D01*
X268004Y122804D01*
X268004Y122785D01*
X267997Y122766D01*
X267998Y122592D01*
X267962Y122422D01*
X267965Y122404D01*
X267961Y122387D01*
X267961Y122201D01*
X267961Y122200D01*
X267961Y122198D01*
Y122198D01*
X267961Y122197D01*
Y113220D01*
X267961Y113220D01*
Y113180D01*
X267961Y113178D01*
Y113178D01*
X267969Y113141D01*
Y113141D01*
X267969Y113141D01*
X267969Y112980D01*
X267999Y112826D01*
X267999Y112787D01*
X267999Y112785D01*
X268001Y112782D01*
Y112779D01*
X268007Y112746D01*
X268007Y112585D01*
X268007Y112584D01*
X268023Y112547D01*
Y112547D01*
X268023Y112546D01*
X268024Y112507D01*
X268044Y112423D01*
X268039Y112350D01*
X268045Y112335D01*
X267724Y111835D01*
X246179D01*
X245851Y112055D01*
X245500Y112124D01*
Y110000D01*
Y107876D01*
X245851Y107946D01*
X246179Y108165D01*
X267813D01*
X268094Y107810D01*
X268100Y107796D01*
X268125Y107683D01*
X268089Y107612D01*
X268057Y107502D01*
X268042Y107325D01*
X268018Y107243D01*
X268016Y107219D01*
X268016Y107219D01*
X268016Y107219D01*
X268000Y107137D01*
Y107050D01*
X267977Y106936D01*
X267978Y106825D01*
X267977Y106822D01*
Y106821D01*
X267961Y106739D01*
Y97801D01*
X267962Y97796D01*
X267962Y97794D01*
X267962Y97628D01*
X267980Y97537D01*
X267974Y97502D01*
X268007Y97365D01*
X268012Y97182D01*
X268023Y97134D01*
X268092Y96977D01*
X268119Y96847D01*
X268139Y96817D01*
X268160Y96728D01*
X268227Y96637D01*
X268237Y96614D01*
X268280Y96555D01*
X268346Y96407D01*
X268368Y96386D01*
X268374Y96373D01*
X268423Y96306D01*
X268455Y96257D01*
X268508Y96205D01*
X268536Y96135D01*
X268537Y96134D01*
X268627Y96045D01*
X268737Y95880D01*
X268737Y95880D01*
X268737Y95880D01*
X268737Y95880D01*
X268790Y95827D01*
X268790Y95827D01*
X268791Y95825D01*
X275461Y89155D01*
Y50845D01*
X275461Y50845D01*
X268773Y44157D01*
X268773Y44157D01*
X268772Y44156D01*
X268769Y44152D01*
X268768Y44150D01*
X268756Y44133D01*
X268743Y44124D01*
X268611Y43987D01*
X268595Y43963D01*
X268571Y43945D01*
X268379Y43630D01*
X268374Y43621D01*
X268346Y43595D01*
X268346Y43594D01*
X268338Y43578D01*
X268318Y43556D01*
X268318Y43556D01*
X268299Y43508D01*
X268295Y43504D01*
X268288Y43488D01*
X268179Y43319D01*
X268174Y43290D01*
X268158Y43265D01*
X268150Y43242D01*
X268132Y43215D01*
X268121Y43190D01*
X268121Y43189D01*
X268117Y43167D01*
X268116Y43167D01*
X268115Y43157D01*
X268100Y43133D01*
X268080Y43006D01*
X268019Y42869D01*
X268018Y42847D01*
X268009Y42826D01*
X268004Y42804D01*
X268004Y42785D01*
X267997Y42766D01*
X267998Y42592D01*
X267962Y42422D01*
X267965Y42404D01*
X267961Y42387D01*
X267961Y42200D01*
X267961Y42200D01*
X267961Y42199D01*
Y42198D01*
X267961Y42197D01*
Y33037D01*
X267975Y32965D01*
X267974Y32962D01*
X267997Y32849D01*
X267994Y32668D01*
X268008Y32594D01*
X268088Y32393D01*
X268130Y32182D01*
X268159Y32112D01*
X268259Y31962D01*
X268302Y31854D01*
X268304Y31852D01*
X268330Y31785D01*
X268540Y31461D01*
X268551Y31449D01*
X268558Y31434D01*
X268602Y31368D01*
X268660Y31310D01*
X268686Y31263D01*
X268686Y31263D01*
X268749Y31212D01*
X268793Y31144D01*
X268807Y31134D01*
X268854Y31064D01*
X268858Y31058D01*
X268858Y31058D01*
X268862Y31053D01*
X269016Y30951D01*
X269145Y30819D01*
X269145Y30819D01*
X269156Y30814D01*
X269165Y30806D01*
X269169Y30804D01*
X269171Y30802D01*
X269172Y30801D01*
X269355Y30726D01*
X269520Y30616D01*
X269524Y30615D01*
X269526Y30614D01*
X269528Y30613D01*
X269709Y30578D01*
X269877Y30506D01*
X269887Y30506D01*
X269901Y30501D01*
X269902Y30500D01*
X269904D01*
X269908Y30499D01*
X270106Y30500D01*
X270300Y30461D01*
X270301D01*
X270302Y30461D01*
X297830D01*
X297832Y30461D01*
X297836Y30461D01*
X297839Y30461D01*
X297841Y30461D01*
X298030Y30461D01*
X298225Y30500D01*
X298226D01*
X298228Y30500D01*
X298229Y30500D01*
X298430Y30500D01*
X298564Y30527D01*
X298692Y30580D01*
X298830Y30599D01*
X298869Y30613D01*
X299043Y30714D01*
X299044Y30714D01*
X299048Y30716D01*
X299048Y30716D01*
X299060Y30720D01*
X299061Y30720D01*
X299234Y30780D01*
X299284Y30809D01*
X299315Y30837D01*
X299358Y30850D01*
X299387Y30865D01*
X299403Y30879D01*
X299406Y30881D01*
X299411Y30885D01*
X299421Y30889D01*
X299422Y30889D01*
X299440Y30905D01*
X299443Y30907D01*
X299546Y30991D01*
X299723Y31075D01*
X299764Y31105D01*
X299874Y31135D01*
X300021Y31130D01*
X300274Y31104D01*
X300361Y31065D01*
X300461Y31007D01*
X300466Y31003D01*
X300470Y31000D01*
X300474Y30999D01*
X300485Y30989D01*
X300493Y30984D01*
X300499Y30983D01*
X300499Y30982D01*
X300507Y30977D01*
X300630Y30870D01*
X300665Y30850D01*
X300670Y30848D01*
X300694Y30827D01*
X300793Y30771D01*
X300976Y30710D01*
X301050Y30667D01*
X301051Y30667D01*
X301148Y30611D01*
X301217Y30588D01*
X301350Y30571D01*
X301473Y30520D01*
X301571Y30500D01*
X301772Y30500D01*
X301969Y30461D01*
X302169Y30461D01*
X302170Y30461D01*
X312830D01*
X312832Y30461D01*
X312836Y30461D01*
X312839Y30461D01*
X312841Y30461D01*
X313030Y30461D01*
X313225Y30500D01*
X313226D01*
X313228Y30500D01*
X313229Y30500D01*
X313430Y30500D01*
X313564Y30527D01*
X313692Y30580D01*
X313830Y30599D01*
X313869Y30613D01*
X314043Y30714D01*
X314044Y30714D01*
X314048Y30716D01*
X314048Y30716D01*
X314060Y30720D01*
X314061Y30720D01*
X314234Y30780D01*
X314284Y30809D01*
X314315Y30837D01*
X314357Y30850D01*
X314387Y30865D01*
X314403Y30879D01*
X314406Y30881D01*
X314411Y30885D01*
X314421Y30889D01*
X314422Y30889D01*
X314440Y30905D01*
X314443Y30907D01*
X314546Y30991D01*
X314723Y31075D01*
X314764Y31105D01*
X314874Y31135D01*
X315020Y31130D01*
X315274Y31104D01*
X315361Y31065D01*
X315461Y31007D01*
X315466Y31003D01*
X315470Y31000D01*
X315474Y30999D01*
X315485Y30989D01*
X315493Y30984D01*
X315499Y30983D01*
X315499Y30982D01*
X315507Y30977D01*
X315630Y30870D01*
X315666Y30850D01*
X315670Y30848D01*
X315694Y30827D01*
X315793Y30771D01*
X315977Y30710D01*
X316050Y30667D01*
X316051Y30667D01*
X316148Y30611D01*
X316217Y30588D01*
X316350Y30571D01*
X316473Y30520D01*
X316570Y30500D01*
X316772Y30500D01*
X316969Y30461D01*
X317169Y30461D01*
X317170Y30461D01*
X317829D01*
X317830Y30461D01*
X318031Y30461D01*
X318225Y30500D01*
X318225D01*
X318226Y30500D01*
X318227Y30500D01*
X318228Y30500D01*
X318429Y30500D01*
X318564Y30527D01*
X318648Y30562D01*
X318712Y30565D01*
X318763Y30590D01*
X318830Y30599D01*
X318870Y30613D01*
X319043Y30714D01*
X319128Y30743D01*
X319202Y30764D01*
X319211Y30772D01*
X319234Y30780D01*
X319297Y30817D01*
X319348Y30862D01*
X319366Y30871D01*
X319391Y30891D01*
X319429Y30909D01*
X319429Y30909D01*
X319439Y30920D01*
X319458Y30930D01*
X319571Y31021D01*
X319703Y31089D01*
X319730Y31111D01*
X319825Y31144D01*
X319915Y31144D01*
X319990Y31160D01*
X320089Y31161D01*
X320089Y31161D01*
X320170Y31162D01*
X320214Y31154D01*
X320254Y31138D01*
X320256Y31136D01*
X320267Y31130D01*
X320284Y31114D01*
X320285Y31114D01*
X320286Y31113D01*
X320287Y31113D01*
X320291Y31110D01*
X320294Y31106D01*
X320356Y31071D01*
X320357Y31071D01*
X320382Y31056D01*
X320382Y31055D01*
X320401Y31039D01*
X320434Y31020D01*
X320440Y31015D01*
X320473Y30997D01*
X320473Y30997D01*
X320473Y30997D01*
X320476Y30996D01*
X320582Y30904D01*
X320591Y30898D01*
X320602Y30889D01*
X320603Y30888D01*
X320611Y30881D01*
X320653Y30857D01*
X320653Y30857D01*
X320670Y30847D01*
X320671Y30847D01*
X320673Y30845D01*
X320675Y30843D01*
X320677Y30843D01*
X320684Y30837D01*
X320706Y30824D01*
X320725Y30807D01*
X320771Y30781D01*
X320937Y30725D01*
X320985Y30694D01*
X320985Y30694D01*
X321005Y30691D01*
X321136Y30616D01*
X321217Y30588D01*
X321349Y30571D01*
X321473Y30520D01*
X321570Y30500D01*
X321772Y30500D01*
X321773Y30500D01*
X321773Y30500D01*
X321774Y30500D01*
X321775D01*
X321969Y30461D01*
X322169Y30461D01*
X322170Y30461D01*
X323041D01*
X323043Y30461D01*
X323238D01*
X323416Y30496D01*
X323418Y30496D01*
X323439Y30500D01*
X323439D01*
X323441Y30500D01*
X323472Y30496D01*
X323528Y30499D01*
X323599Y30517D01*
X323744Y30525D01*
X323833Y30548D01*
X323881Y30549D01*
X323882Y30549D01*
X323921Y30567D01*
X323966Y30576D01*
X324100Y30632D01*
X324199Y30651D01*
X324250Y30673D01*
X324256Y30676D01*
X324366Y30700D01*
X324366Y30700D01*
X324392Y30717D01*
X324421Y30724D01*
X324559Y30787D01*
X324670Y30867D01*
X324701Y30881D01*
X324726Y30905D01*
X324891Y30979D01*
X325299Y30881D01*
X325378Y30848D01*
X325497Y30762D01*
X325579Y30724D01*
X325669Y30702D01*
X325717Y30675D01*
X325754Y30671D01*
X325802Y30651D01*
X325900Y30632D01*
X326034Y30576D01*
X326133Y30556D01*
X326257Y30525D01*
X326402Y30517D01*
X326472Y30499D01*
X326528Y30496D01*
X326559Y30501D01*
X326582Y30496D01*
X326585Y30496D01*
X326762Y30461D01*
X326957Y30461D01*
X326957Y30461D01*
X326960Y30461D01*
X328617D01*
Y11811D01*
X328617Y11811D01*
X328617Y11811D01*
X328582Y11326D01*
X328447Y10307D01*
X327867Y8906D01*
X326943Y7702D01*
X325740Y6779D01*
X324339Y6198D01*
X323320Y6064D01*
X322835Y6029D01*
Y6029D01*
X11811D01*
X11811Y6029D01*
X11811Y6029D01*
X11326Y6064D01*
X10307Y6198D01*
X8906Y6779D01*
X7702Y7702D01*
X6779Y8906D01*
X6198Y10307D01*
X6064Y11326D01*
X6029Y11811D01*
X6029D01*
Y208661D01*
X6017Y208786D01*
X6198Y210165D01*
X6779Y211567D01*
X7702Y212770D01*
X8906Y213694D01*
X10307Y214274D01*
X11686Y214456D01*
X11811Y214443D01*
X322835D01*
X322959Y214456D01*
X324339Y214274D01*
D02*
G37*
%LPC*%
G36*
X225000Y79724D02*
X224149Y79554D01*
X223428Y79072D01*
X222945Y78351D01*
X222776Y77500D01*
X222945Y76649D01*
X223428Y75928D01*
X224149Y75445D01*
X225000Y75276D01*
X225851Y75445D01*
X226572Y75928D01*
X227055Y76649D01*
X227224Y77500D01*
X227055Y78351D01*
X226572Y79072D01*
X225851Y79554D01*
X225000Y79724D01*
D02*
G37*
G36*
X49500Y77124D02*
X49149Y77055D01*
X48428Y76573D01*
X47945Y75851D01*
X47876Y75500D01*
X49500D01*
Y77124D01*
D02*
G37*
G36*
X20000Y84185D02*
X18917Y84043D01*
X17907Y83625D01*
X17041Y82960D01*
X16375Y82093D01*
X15957Y81083D01*
X15815Y80000D01*
X15957Y78917D01*
X16375Y77907D01*
X17041Y77040D01*
X17907Y76375D01*
X18917Y75957D01*
X20000Y75815D01*
X21083Y75957D01*
X22093Y76375D01*
X22960Y77040D01*
X23625Y77907D01*
X24043Y78917D01*
X24185Y80000D01*
X24043Y81083D01*
X23625Y82093D01*
X22960Y82960D01*
X22093Y83625D01*
X21083Y84043D01*
X20000Y84185D01*
D02*
G37*
G36*
X50500Y77124D02*
Y75500D01*
X52124D01*
X52055Y75851D01*
X51573Y76573D01*
X50851Y77055D01*
X50500Y77124D01*
D02*
G37*
G36*
X240500Y74624D02*
Y73000D01*
X242124D01*
X242055Y73351D01*
X241572Y74072D01*
X240851Y74555D01*
X240500Y74624D01*
D02*
G37*
G36*
X239500D02*
X239149Y74555D01*
X238427Y74072D01*
X237945Y73351D01*
X237876Y73000D01*
X239500D01*
Y74624D01*
D02*
G37*
G36*
X210000Y79724D02*
X209149Y79554D01*
X208428Y79072D01*
X207945Y78351D01*
X207776Y77500D01*
X207945Y76649D01*
X208428Y75928D01*
X209149Y75445D01*
X210000Y75276D01*
X210851Y75445D01*
X211573Y75928D01*
X212055Y76649D01*
X212224Y77500D01*
X212055Y78351D01*
X211573Y79072D01*
X210851Y79554D01*
X210000Y79724D01*
D02*
G37*
G36*
X256772Y81304D02*
X255787Y81175D01*
X254870Y80795D01*
X254082Y80190D01*
X253477Y79402D01*
X253097Y78485D01*
X252968Y77500D01*
X253097Y76515D01*
X253477Y75598D01*
X254082Y74810D01*
X254870Y74205D01*
X255787Y73825D01*
X256772Y73696D01*
X257756Y73825D01*
X258674Y74205D01*
X259462Y74810D01*
X260066Y75598D01*
X260446Y76515D01*
X260576Y77500D01*
X260446Y78485D01*
X260066Y79402D01*
X259462Y80190D01*
X258674Y80795D01*
X257756Y81175D01*
X256772Y81304D01*
D02*
G37*
G36*
X115000Y82224D02*
X114149Y82055D01*
X113427Y81573D01*
X112945Y80851D01*
X112776Y80000D01*
X112945Y79149D01*
X113427Y78427D01*
X114149Y77946D01*
X115000Y77776D01*
X115851Y77946D01*
X116572Y78427D01*
X117054Y79149D01*
X117224Y80000D01*
X117054Y80851D01*
X116572Y81573D01*
X115851Y82055D01*
X115000Y82224D01*
D02*
G37*
G36*
X50000Y87224D02*
X49149Y87055D01*
X48428Y86572D01*
X47945Y85851D01*
X47776Y85000D01*
X47945Y84149D01*
X48428Y83428D01*
X49149Y82946D01*
X50000Y82776D01*
X50851Y82946D01*
X51573Y83428D01*
X52055Y84149D01*
X52224Y85000D01*
X52055Y85851D01*
X51573Y86572D01*
X50851Y87055D01*
X50000Y87224D01*
D02*
G37*
G36*
X174727Y82000D02*
X173103D01*
Y80376D01*
X173454Y80445D01*
X174176Y80927D01*
X174658Y81649D01*
X174727Y82000D01*
D02*
G37*
G36*
X75000Y87224D02*
X74149Y87055D01*
X73427Y86572D01*
X72945Y85851D01*
X72776Y85000D01*
X72945Y84149D01*
X73427Y83428D01*
X74149Y82946D01*
X75000Y82776D01*
X75851Y82946D01*
X76573Y83428D01*
X77055Y84149D01*
X77224Y85000D01*
X77055Y85851D01*
X76573Y86572D01*
X75851Y87055D01*
X75000Y87224D01*
D02*
G37*
G36*
X65000D02*
X64149Y87055D01*
X63428Y86572D01*
X62945Y85851D01*
X62776Y85000D01*
X62945Y84149D01*
X63428Y83428D01*
X64149Y82946D01*
X65000Y82776D01*
X65851Y82946D01*
X66572Y83428D01*
X67054Y84149D01*
X67224Y85000D01*
X67054Y85851D01*
X66572Y86572D01*
X65851Y87055D01*
X65000Y87224D01*
D02*
G37*
G36*
X172103Y82000D02*
X170479D01*
X170549Y81649D01*
X171031Y80927D01*
X171752Y80445D01*
X172103Y80376D01*
Y82000D01*
D02*
G37*
G36*
X150000Y82224D02*
X149149Y82055D01*
X148427Y81573D01*
X147945Y80851D01*
X147776Y80000D01*
X147945Y79149D01*
X148427Y78427D01*
X149149Y77946D01*
X150000Y77776D01*
X150851Y77946D01*
X151573Y78427D01*
X152055Y79149D01*
X152224Y80000D01*
X152055Y80851D01*
X151573Y81573D01*
X150851Y82055D01*
X150000Y82224D01*
D02*
G37*
G36*
X145000D02*
X144149Y82055D01*
X143428Y81573D01*
X142946Y80851D01*
X142776Y80000D01*
X142946Y79149D01*
X143428Y78427D01*
X144149Y77946D01*
X145000Y77776D01*
X145851Y77946D01*
X146572Y78427D01*
X147055Y79149D01*
X147224Y80000D01*
X147055Y80851D01*
X146572Y81573D01*
X145851Y82055D01*
X145000Y82224D01*
D02*
G37*
G36*
X266772Y86304D02*
X265787Y86175D01*
X264869Y85795D01*
X264082Y85190D01*
X263477Y84402D01*
X263097Y83485D01*
X262967Y82500D01*
X263097Y81515D01*
X263477Y80598D01*
X264082Y79810D01*
X264869Y79206D01*
X265787Y78825D01*
X266772Y78696D01*
X267756Y78825D01*
X268674Y79206D01*
X269462Y79810D01*
X270066Y80598D01*
X270446Y81515D01*
X270576Y82500D01*
X270446Y83485D01*
X270066Y84402D01*
X269462Y85190D01*
X268674Y85795D01*
X267756Y86175D01*
X266772Y86304D01*
D02*
G37*
G36*
X165000Y82224D02*
X164149Y82055D01*
X163427Y81573D01*
X162945Y80851D01*
X162776Y80000D01*
X162945Y79149D01*
X163427Y78427D01*
X164149Y77946D01*
X165000Y77776D01*
X165851Y77946D01*
X166572Y78427D01*
X167054Y79149D01*
X167224Y80000D01*
X167054Y80851D01*
X166572Y81573D01*
X165851Y82055D01*
X165000Y82224D01*
D02*
G37*
G36*
X20000Y74185D02*
X18917Y74043D01*
X17907Y73625D01*
X17041Y72960D01*
X16375Y72093D01*
X15957Y71083D01*
X15815Y70000D01*
X15957Y68917D01*
X16375Y67907D01*
X17041Y67040D01*
X17907Y66375D01*
X18917Y65957D01*
X20000Y65815D01*
X21083Y65957D01*
X22093Y66375D01*
X22960Y67040D01*
X23625Y67907D01*
X24043Y68917D01*
X24185Y70000D01*
X24043Y71083D01*
X23625Y72093D01*
X22960Y72960D01*
X22093Y73625D01*
X21083Y74043D01*
X20000Y74185D01*
D02*
G37*
G36*
X50500Y67124D02*
Y65500D01*
X52124D01*
X52055Y65851D01*
X51573Y66572D01*
X50851Y67054D01*
X50500Y67124D01*
D02*
G37*
G36*
X192500Y74724D02*
X191649Y74555D01*
X190928Y74072D01*
X190445Y73351D01*
X190276Y72500D01*
X190445Y71649D01*
X190928Y70928D01*
X191649Y70446D01*
X192500Y70276D01*
X193351Y70446D01*
X194072Y70928D01*
X194554Y71649D01*
X194724Y72500D01*
X194554Y73351D01*
X194072Y74072D01*
X193351Y74555D01*
X192500Y74724D01*
D02*
G37*
G36*
X266772Y76304D02*
X265787Y76175D01*
X264869Y75795D01*
X264082Y75190D01*
X263477Y74402D01*
X263097Y73485D01*
X262967Y72500D01*
X263097Y71515D01*
X263477Y70598D01*
X264082Y69810D01*
X264869Y69205D01*
X265787Y68825D01*
X266772Y68696D01*
X267756Y68825D01*
X268674Y69205D01*
X269462Y69810D01*
X270066Y70598D01*
X270446Y71515D01*
X270576Y72500D01*
X270446Y73485D01*
X270066Y74402D01*
X269462Y75190D01*
X268674Y75795D01*
X267756Y76175D01*
X266772Y76304D01*
D02*
G37*
G36*
X49500Y67124D02*
X49149Y67054D01*
X48428Y66572D01*
X47945Y65851D01*
X47876Y65500D01*
X49500D01*
Y67124D01*
D02*
G37*
G36*
Y64500D02*
X47876D01*
X47945Y64149D01*
X48428Y63428D01*
X49149Y62945D01*
X49500Y62876D01*
Y64500D01*
D02*
G37*
G36*
X125000Y67224D02*
X124149Y67054D01*
X123427Y66572D01*
X122945Y65851D01*
X122776Y65000D01*
X122945Y64149D01*
X123427Y63428D01*
X124149Y62945D01*
X125000Y62776D01*
X125851Y62945D01*
X126573Y63428D01*
X127055Y64149D01*
X127224Y65000D01*
X127055Y65851D01*
X126573Y66572D01*
X125851Y67054D01*
X125000Y67224D01*
D02*
G37*
G36*
X256772Y71304D02*
X255787Y71175D01*
X254870Y70794D01*
X254082Y70190D01*
X253477Y69402D01*
X253097Y68485D01*
X252968Y67500D01*
X253097Y66515D01*
X253477Y65598D01*
X254082Y64810D01*
X254870Y64205D01*
X255787Y63825D01*
X256772Y63696D01*
X257756Y63825D01*
X258674Y64205D01*
X259462Y64810D01*
X260066Y65598D01*
X260446Y66515D01*
X260576Y67500D01*
X260446Y68485D01*
X260066Y69402D01*
X259462Y70190D01*
X258674Y70794D01*
X257756Y71175D01*
X256772Y71304D01*
D02*
G37*
G36*
X52124Y64500D02*
X50500D01*
Y62876D01*
X50851Y62945D01*
X51573Y63428D01*
X52055Y64149D01*
X52124Y64500D01*
D02*
G37*
G36*
X159500Y72000D02*
X157876D01*
X157946Y71649D01*
X158428Y70928D01*
X159149Y70446D01*
X159500Y70376D01*
Y72000D01*
D02*
G37*
G36*
X52124Y74500D02*
X50500D01*
Y72876D01*
X50851Y72945D01*
X51573Y73427D01*
X52055Y74149D01*
X52124Y74500D01*
D02*
G37*
G36*
X49500D02*
X47876D01*
X47945Y74149D01*
X48428Y73427D01*
X49149Y72945D01*
X49500Y72876D01*
Y74500D01*
D02*
G37*
G36*
X160500Y74624D02*
Y73000D01*
X162124D01*
X162055Y73351D01*
X161573Y74072D01*
X160851Y74555D01*
X160500Y74624D01*
D02*
G37*
G36*
X159500D02*
X159149Y74555D01*
X158428Y74072D01*
X157946Y73351D01*
X157876Y73000D01*
X159500D01*
Y74624D01*
D02*
G37*
G36*
X135000Y77224D02*
X134149Y77055D01*
X133428Y76573D01*
X132946Y75851D01*
X132776Y75000D01*
X132946Y74149D01*
X133428Y73427D01*
X134149Y72945D01*
X135000Y72776D01*
X135851Y72945D01*
X136573Y73427D01*
X137055Y74149D01*
X137224Y75000D01*
X137055Y75851D01*
X136573Y76573D01*
X135851Y77055D01*
X135000Y77224D01*
D02*
G37*
G36*
X239500Y72000D02*
X237876D01*
X237945Y71649D01*
X238427Y70928D01*
X239149Y70446D01*
X239500Y70376D01*
Y72000D01*
D02*
G37*
G36*
X162124D02*
X160500D01*
Y70376D01*
X160851Y70446D01*
X161573Y70928D01*
X162055Y71649D01*
X162124Y72000D01*
D02*
G37*
G36*
X110000Y77224D02*
X109149Y77055D01*
X108428Y76573D01*
X107946Y75851D01*
X107776Y75000D01*
X107946Y74149D01*
X108428Y73427D01*
X109149Y72945D01*
X110000Y72776D01*
X110851Y72945D01*
X111573Y73427D01*
X112055Y74149D01*
X112224Y75000D01*
X112055Y75851D01*
X111573Y76573D01*
X110851Y77055D01*
X110000Y77224D01*
D02*
G37*
G36*
X242124Y72000D02*
X240500D01*
Y70376D01*
X240851Y70446D01*
X241572Y70928D01*
X242055Y71649D01*
X242124Y72000D01*
D02*
G37*
G36*
X120000Y87224D02*
X119149Y87055D01*
X118428Y86572D01*
X117946Y85851D01*
X117776Y85000D01*
X117946Y84149D01*
X118428Y83428D01*
X119149Y82946D01*
X120000Y82776D01*
X120851Y82946D01*
X121572Y83428D01*
X122055Y84149D01*
X122224Y85000D01*
X122055Y85851D01*
X121572Y86572D01*
X120851Y87055D01*
X120000Y87224D01*
D02*
G37*
G36*
X278514Y106613D02*
X278269Y106581D01*
X276877Y106004D01*
X275681Y105087D01*
X274763Y103891D01*
X274187Y102498D01*
X274154Y102254D01*
X278514D01*
Y106613D01*
D02*
G37*
G36*
X245000Y102224D02*
X244149Y102055D01*
X243427Y101573D01*
X242945Y100851D01*
X242776Y100000D01*
X242945Y99149D01*
X243427Y98427D01*
X244149Y97945D01*
X245000Y97776D01*
X245851Y97945D01*
X246572Y98427D01*
X247055Y99149D01*
X247224Y100000D01*
X247055Y100851D01*
X246572Y101573D01*
X245851Y102055D01*
X245000Y102224D01*
D02*
G37*
G36*
X259500Y104500D02*
X257876D01*
X257945Y104149D01*
X258428Y103428D01*
X259149Y102945D01*
X259500Y102876D01*
Y104500D01*
D02*
G37*
G36*
X281014Y106613D02*
Y102254D01*
X285373D01*
X285341Y102498D01*
X284764Y103891D01*
X283846Y105087D01*
X282651Y106004D01*
X281258Y106581D01*
X281014Y106613D01*
D02*
G37*
G36*
X210000Y102224D02*
X209149Y102055D01*
X208428Y101573D01*
X207945Y100851D01*
X207776Y100000D01*
X207945Y99149D01*
X208428Y98427D01*
X209149Y97945D01*
X210000Y97776D01*
X210851Y97945D01*
X211573Y98427D01*
X212055Y99149D01*
X212224Y100000D01*
X212055Y100851D01*
X211573Y101573D01*
X210851Y102055D01*
X210000Y102224D01*
D02*
G37*
G36*
X240500Y97124D02*
Y95500D01*
X242124D01*
X242055Y95851D01*
X241572Y96573D01*
X240851Y97054D01*
X240500Y97124D01*
D02*
G37*
G36*
X239500D02*
X239149Y97054D01*
X238427Y96573D01*
X237945Y95851D01*
X237876Y95500D01*
X239500D01*
Y97124D01*
D02*
G37*
G36*
X50000Y104185D02*
X48917Y104043D01*
X47907Y103625D01*
X47041Y102960D01*
X46375Y102093D01*
X45957Y101083D01*
X45815Y100000D01*
X45957Y98917D01*
X46375Y97907D01*
X47041Y97040D01*
X47907Y96375D01*
X48917Y95957D01*
X50000Y95815D01*
X51083Y95957D01*
X52093Y96375D01*
X52960Y97040D01*
X53625Y97907D01*
X54043Y98917D01*
X54185Y100000D01*
X54043Y101083D01*
X53625Y102093D01*
X52960Y102960D01*
X52093Y103625D01*
X51083Y104043D01*
X50000Y104185D01*
D02*
G37*
G36*
X20000D02*
X18917Y104043D01*
X17907Y103625D01*
X17041Y102960D01*
X16375Y102093D01*
X15957Y101083D01*
X15815Y100000D01*
X15957Y98917D01*
X16375Y97907D01*
X17041Y97040D01*
X17907Y96375D01*
X18917Y95957D01*
X20000Y95815D01*
X21083Y95957D01*
X22093Y96375D01*
X22960Y97040D01*
X23625Y97907D01*
X24043Y98917D01*
X24185Y100000D01*
X24043Y101083D01*
X23625Y102093D01*
X22960Y102960D01*
X22093Y103625D01*
X21083Y104043D01*
X20000Y104185D01*
D02*
G37*
G36*
X262124Y104500D02*
X260500D01*
Y102876D01*
X260851Y102945D01*
X261573Y103428D01*
X262055Y104149D01*
X262124Y104500D01*
D02*
G37*
G36*
X260500Y107124D02*
Y105500D01*
X262124D01*
X262055Y105851D01*
X261573Y106572D01*
X260851Y107054D01*
X260500Y107124D01*
D02*
G37*
G36*
X259500D02*
X259149Y107054D01*
X258428Y106572D01*
X257945Y105851D01*
X257876Y105500D01*
X259500D01*
Y107124D01*
D02*
G37*
G36*
X129500Y108124D02*
X129149Y108054D01*
X128428Y107572D01*
X127945Y106851D01*
X127876Y106500D01*
X129500D01*
Y108124D01*
D02*
G37*
G36*
X20000Y114185D02*
X18917Y114043D01*
X17907Y113625D01*
X17041Y112960D01*
X16375Y112093D01*
X15957Y111083D01*
X15815Y110000D01*
X15957Y108917D01*
X16375Y107907D01*
X17041Y107041D01*
X17907Y106375D01*
X18917Y105957D01*
X20000Y105815D01*
X21083Y105957D01*
X22093Y106375D01*
X22960Y107041D01*
X23625Y107907D01*
X24043Y108917D01*
X24185Y110000D01*
X24043Y111083D01*
X23625Y112093D01*
X22960Y112960D01*
X22093Y113625D01*
X21083Y114043D01*
X20000Y114185D01*
D02*
G37*
G36*
X132124Y105500D02*
X130500D01*
Y103876D01*
X130851Y103946D01*
X131572Y104428D01*
X132054Y105149D01*
X132124Y105500D01*
D02*
G37*
G36*
X135000Y108224D02*
X134149Y108054D01*
X133428Y107572D01*
X132946Y106851D01*
X132776Y106000D01*
X132946Y105149D01*
X133428Y104428D01*
X134149Y103946D01*
X135000Y103776D01*
X135851Y103946D01*
X136573Y104428D01*
X137055Y105149D01*
X137224Y106000D01*
X137055Y106851D01*
X136573Y107572D01*
X135851Y108054D01*
X135000Y108224D01*
D02*
G37*
G36*
X125000D02*
X124149Y108054D01*
X123427Y107572D01*
X122945Y106851D01*
X122776Y106000D01*
X122945Y105149D01*
X123427Y104428D01*
X124149Y103946D01*
X125000Y103776D01*
X125851Y103946D01*
X126573Y104428D01*
X127055Y105149D01*
X127224Y106000D01*
X127055Y106851D01*
X126573Y107572D01*
X125851Y108054D01*
X125000Y108224D01*
D02*
G37*
G36*
X129500Y105500D02*
X127876D01*
X127945Y105149D01*
X128428Y104428D01*
X129149Y103946D01*
X129500Y103876D01*
Y105500D01*
D02*
G37*
G36*
X150000Y108224D02*
X149149Y108054D01*
X148427Y107572D01*
X147945Y106851D01*
X147776Y106000D01*
X147945Y105149D01*
X148427Y104428D01*
X149149Y103946D01*
X150000Y103776D01*
X150851Y103946D01*
X151573Y104428D01*
X152055Y105149D01*
X152224Y106000D01*
X152055Y106851D01*
X151573Y107572D01*
X150851Y108054D01*
X150000Y108224D01*
D02*
G37*
G36*
X20000Y94185D02*
X18917Y94043D01*
X17907Y93625D01*
X17041Y92959D01*
X16375Y92093D01*
X15957Y91083D01*
X15815Y90000D01*
X15957Y88917D01*
X16375Y87907D01*
X17041Y87041D01*
X17907Y86375D01*
X18917Y85957D01*
X20000Y85815D01*
X21083Y85957D01*
X22093Y86375D01*
X22960Y87041D01*
X23625Y87907D01*
X24043Y88917D01*
X24185Y90000D01*
X24043Y91083D01*
X23625Y92093D01*
X22960Y92959D01*
X22093Y93625D01*
X21083Y94043D01*
X20000Y94185D01*
D02*
G37*
G36*
X197500Y89724D02*
X196649Y89555D01*
X195928Y89073D01*
X195446Y88351D01*
X195276Y87500D01*
X195446Y86649D01*
X195928Y85927D01*
X196649Y85445D01*
X197500Y85276D01*
X198351Y85445D01*
X199073Y85927D01*
X199555Y86649D01*
X199724Y87500D01*
X199555Y88351D01*
X199073Y89073D01*
X198351Y89555D01*
X197500Y89724D01*
D02*
G37*
G36*
X172500Y94724D02*
X171649Y94555D01*
X170928Y94073D01*
X170446Y93351D01*
X170276Y92500D01*
X170446Y91649D01*
X170928Y90927D01*
X171649Y90446D01*
X172500Y90276D01*
X173351Y90446D01*
X174073Y90927D01*
X174555Y91649D01*
X174724Y92500D01*
X174555Y93351D01*
X174073Y94073D01*
X173351Y94555D01*
X172500Y94724D01*
D02*
G37*
G36*
X125000Y92224D02*
X124149Y92054D01*
X123427Y91572D01*
X122945Y90851D01*
X122776Y90000D01*
X122945Y89149D01*
X123427Y88428D01*
X124149Y87945D01*
X125000Y87776D01*
X125851Y87945D01*
X126573Y88428D01*
X127055Y89149D01*
X127224Y90000D01*
X127055Y90851D01*
X126573Y91572D01*
X125851Y92054D01*
X125000Y92224D01*
D02*
G37*
G36*
X291772Y99933D02*
X290321Y99791D01*
X288927Y99368D01*
X287642Y98681D01*
X286515Y97756D01*
X285591Y96630D01*
X284904Y95345D01*
X284481Y93950D01*
X284338Y92500D01*
X284481Y91050D01*
X284904Y89655D01*
X285591Y88370D01*
X286515Y87244D01*
X287642Y86319D01*
X288927Y85632D01*
X290321Y85209D01*
X291772Y85067D01*
X293222Y85209D01*
X294616Y85632D01*
X295901Y86319D01*
X297028Y87244D01*
X297952Y88370D01*
X298639Y89655D01*
X299062Y91050D01*
X299205Y92500D01*
X299062Y93950D01*
X298639Y95345D01*
X297952Y96630D01*
X297028Y97756D01*
X295901Y98681D01*
X294616Y99368D01*
X293222Y99791D01*
X291772Y99933D01*
D02*
G37*
G36*
X172103Y84624D02*
X171752Y84554D01*
X171031Y84073D01*
X170549Y83351D01*
X170479Y83000D01*
X172103D01*
Y84624D01*
D02*
G37*
G36*
X145000Y87224D02*
X144149Y87055D01*
X143428Y86572D01*
X142946Y85851D01*
X142776Y85000D01*
X142946Y84149D01*
X143428Y83428D01*
X144149Y82946D01*
X145000Y82776D01*
X145851Y82946D01*
X146572Y83428D01*
X147055Y84149D01*
X147224Y85000D01*
X147055Y85851D01*
X146572Y86572D01*
X145851Y87055D01*
X145000Y87224D01*
D02*
G37*
G36*
X256772Y91304D02*
X255787Y91175D01*
X254870Y90794D01*
X254082Y90190D01*
X253477Y89402D01*
X253097Y88485D01*
X252968Y87500D01*
X253097Y86515D01*
X253477Y85598D01*
X254082Y84810D01*
X254870Y84206D01*
X255787Y83825D01*
X256772Y83696D01*
X257756Y83825D01*
X258674Y84206D01*
X259462Y84810D01*
X260066Y85598D01*
X260446Y86515D01*
X260576Y87500D01*
X260446Y88485D01*
X260066Y89402D01*
X259462Y90190D01*
X258674Y90794D01*
X257756Y91175D01*
X256772Y91304D01*
D02*
G37*
G36*
X173103Y84624D02*
Y83000D01*
X174727D01*
X174658Y83351D01*
X174176Y84073D01*
X173454Y84554D01*
X173103Y84624D01*
D02*
G37*
G36*
X75000Y97224D02*
X74149Y97054D01*
X73427Y96573D01*
X72945Y95851D01*
X72776Y95000D01*
X72945Y94149D01*
X73427Y93427D01*
X74149Y92945D01*
X75000Y92776D01*
X75851Y92945D01*
X76573Y93427D01*
X77055Y94149D01*
X77224Y95000D01*
X77055Y95851D01*
X76573Y96573D01*
X75851Y97054D01*
X75000Y97224D01*
D02*
G37*
G36*
X285373Y99754D02*
X281014D01*
Y95395D01*
X281258Y95427D01*
X282651Y96004D01*
X283846Y96921D01*
X284764Y98117D01*
X285341Y99510D01*
X285373Y99754D01*
D02*
G37*
G36*
X278514D02*
X274154D01*
X274187Y99510D01*
X274763Y98117D01*
X275681Y96921D01*
X276877Y96004D01*
X278269Y95427D01*
X278514Y95395D01*
Y99754D01*
D02*
G37*
G36*
X110500Y97124D02*
Y95500D01*
X112124D01*
X112055Y95851D01*
X111573Y96573D01*
X110851Y97054D01*
X110500Y97124D01*
D02*
G37*
G36*
X109500D02*
X109149Y97054D01*
X108428Y96573D01*
X107946Y95851D01*
X107876Y95500D01*
X109500D01*
Y97124D01*
D02*
G37*
G36*
X242124Y94500D02*
X240500D01*
Y92876D01*
X240851Y92945D01*
X241572Y93427D01*
X242055Y94149D01*
X242124Y94500D01*
D02*
G37*
G36*
X109500D02*
X107876D01*
X107946Y94149D01*
X108428Y93427D01*
X109149Y92945D01*
X109500Y92876D01*
Y94500D01*
D02*
G37*
G36*
X100000Y97224D02*
X99149Y97054D01*
X98427Y96573D01*
X97945Y95851D01*
X97776Y95000D01*
X97945Y94149D01*
X98427Y93427D01*
X99149Y92945D01*
X100000Y92776D01*
X100851Y92945D01*
X101573Y93427D01*
X102055Y94149D01*
X102224Y95000D01*
X102055Y95851D01*
X101573Y96573D01*
X100851Y97054D01*
X100000Y97224D01*
D02*
G37*
G36*
X239500Y94500D02*
X237876D01*
X237945Y94149D01*
X238427Y93427D01*
X239149Y92945D01*
X239500Y92876D01*
Y94500D01*
D02*
G37*
G36*
X112124D02*
X110500D01*
Y92876D01*
X110851Y92945D01*
X111573Y93427D01*
X112055Y94149D01*
X112124Y94500D01*
D02*
G37*
G36*
X120000Y34185D02*
X118917Y34043D01*
X117907Y33625D01*
X117041Y32959D01*
X116375Y32093D01*
X115957Y31083D01*
X115815Y30000D01*
X115957Y28917D01*
X116375Y27907D01*
X117041Y27040D01*
X117907Y26375D01*
X118917Y25957D01*
X120000Y25815D01*
X121083Y25957D01*
X122093Y26375D01*
X122959Y27040D01*
X123625Y27907D01*
X124043Y28917D01*
X124185Y30000D01*
X124043Y31083D01*
X123625Y32093D01*
X122959Y32959D01*
X122093Y33625D01*
X121083Y34043D01*
X120000Y34185D01*
D02*
G37*
G36*
X110000D02*
X108917Y34043D01*
X107907Y33625D01*
X107041Y32959D01*
X106375Y32093D01*
X105957Y31083D01*
X105815Y30000D01*
X105957Y28917D01*
X106375Y27907D01*
X107041Y27040D01*
X107907Y26375D01*
X108917Y25957D01*
X110000Y25815D01*
X111083Y25957D01*
X112093Y26375D01*
X112960Y27040D01*
X113625Y27907D01*
X114043Y28917D01*
X114185Y30000D01*
X114043Y31083D01*
X113625Y32093D01*
X112960Y32959D01*
X112093Y33625D01*
X111083Y34043D01*
X110000Y34185D01*
D02*
G37*
G36*
X140000D02*
X138917Y34043D01*
X137907Y33625D01*
X137040Y32959D01*
X136375Y32093D01*
X135957Y31083D01*
X135815Y30000D01*
X135957Y28917D01*
X136375Y27907D01*
X137040Y27040D01*
X137907Y26375D01*
X138917Y25957D01*
X140000Y25815D01*
X141083Y25957D01*
X142093Y26375D01*
X142959Y27040D01*
X143625Y27907D01*
X144043Y28917D01*
X144185Y30000D01*
X144043Y31083D01*
X143625Y32093D01*
X142959Y32959D01*
X142093Y33625D01*
X141083Y34043D01*
X140000Y34185D01*
D02*
G37*
G36*
X130000D02*
X128917Y34043D01*
X127907Y33625D01*
X127041Y32959D01*
X126375Y32093D01*
X125957Y31083D01*
X125815Y30000D01*
X125957Y28917D01*
X126375Y27907D01*
X127041Y27040D01*
X127907Y26375D01*
X128917Y25957D01*
X130000Y25815D01*
X131083Y25957D01*
X132093Y26375D01*
X132959Y27040D01*
X133625Y27907D01*
X134043Y28917D01*
X134185Y30000D01*
X134043Y31083D01*
X133625Y32093D01*
X132959Y32959D01*
X132093Y33625D01*
X131083Y34043D01*
X130000Y34185D01*
D02*
G37*
G36*
X100000D02*
X98917Y34043D01*
X97907Y33625D01*
X97040Y32959D01*
X96375Y32093D01*
X95957Y31083D01*
X95815Y30000D01*
X95957Y28917D01*
X96375Y27907D01*
X97040Y27040D01*
X97907Y26375D01*
X98917Y25957D01*
X100000Y25815D01*
X101083Y25957D01*
X102093Y26375D01*
X102960Y27040D01*
X103625Y27907D01*
X104043Y28917D01*
X104185Y30000D01*
X104043Y31083D01*
X103625Y32093D01*
X102960Y32959D01*
X102093Y33625D01*
X101083Y34043D01*
X100000Y34185D01*
D02*
G37*
G36*
X209000Y24054D02*
X208917Y24043D01*
X207907Y23625D01*
X207041Y22960D01*
X206375Y22093D01*
X205957Y21083D01*
X205946Y21000D01*
X209000D01*
Y24054D01*
D02*
G37*
G36*
X189000D02*
X188917Y24043D01*
X187907Y23625D01*
X187040Y22960D01*
X186375Y22093D01*
X185957Y21083D01*
X185946Y21000D01*
X189000D01*
Y24054D01*
D02*
G37*
G36*
X211000D02*
Y21000D01*
X214054D01*
X214043Y21083D01*
X213625Y22093D01*
X212960Y22960D01*
X212093Y23625D01*
X211083Y24043D01*
X211000Y24054D01*
D02*
G37*
G36*
X191000D02*
Y21000D01*
X194054D01*
X194043Y21083D01*
X193625Y22093D01*
X192959Y22960D01*
X192093Y23625D01*
X191083Y24043D01*
X191000Y24054D01*
D02*
G37*
G36*
X150000Y34185D02*
X148917Y34043D01*
X147907Y33625D01*
X147040Y32959D01*
X146375Y32093D01*
X145957Y31083D01*
X145815Y30000D01*
X145957Y28917D01*
X146375Y27907D01*
X147040Y27040D01*
X147907Y26375D01*
X148917Y25957D01*
X150000Y25815D01*
X151083Y25957D01*
X152093Y26375D01*
X152960Y27040D01*
X153625Y27907D01*
X154043Y28917D01*
X154185Y30000D01*
X154043Y31083D01*
X153625Y32093D01*
X152960Y32959D01*
X152093Y33625D01*
X151083Y34043D01*
X150000Y34185D01*
D02*
G37*
G36*
X214054Y29000D02*
X211000D01*
Y25946D01*
X211083Y25957D01*
X212093Y26375D01*
X212960Y27040D01*
X213625Y27907D01*
X214043Y28917D01*
X214054Y29000D01*
D02*
G37*
G36*
X194054D02*
X191000D01*
Y25946D01*
X191083Y25957D01*
X192093Y26375D01*
X192959Y27040D01*
X193625Y27907D01*
X194043Y28917D01*
X194054Y29000D01*
D02*
G37*
G36*
X209000Y34054D02*
X208917Y34043D01*
X207907Y33625D01*
X207041Y32959D01*
X206375Y32093D01*
X205957Y31083D01*
X205946Y31000D01*
X209000D01*
Y34054D01*
D02*
G37*
G36*
X189000D02*
X188917Y34043D01*
X187907Y33625D01*
X187040Y32959D01*
X186375Y32093D01*
X185957Y31083D01*
X185946Y31000D01*
X189000D01*
Y34054D01*
D02*
G37*
G36*
Y29000D02*
X185946D01*
X185957Y28917D01*
X186375Y27907D01*
X187040Y27040D01*
X187907Y26375D01*
X188917Y25957D01*
X189000Y25946D01*
Y29000D01*
D02*
G37*
G36*
X170000Y34185D02*
X168917Y34043D01*
X167907Y33625D01*
X167041Y32959D01*
X166375Y32093D01*
X165957Y31083D01*
X165815Y30000D01*
X165957Y28917D01*
X166375Y27907D01*
X167041Y27040D01*
X167907Y26375D01*
X168917Y25957D01*
X170000Y25815D01*
X171083Y25957D01*
X172093Y26375D01*
X172959Y27040D01*
X173625Y27907D01*
X174043Y28917D01*
X174185Y30000D01*
X174043Y31083D01*
X173625Y32093D01*
X172959Y32959D01*
X172093Y33625D01*
X171083Y34043D01*
X170000Y34185D01*
D02*
G37*
G36*
X160000D02*
X158917Y34043D01*
X157907Y33625D01*
X157041Y32959D01*
X156375Y32093D01*
X155957Y31083D01*
X155815Y30000D01*
X155957Y28917D01*
X156375Y27907D01*
X157041Y27040D01*
X157907Y26375D01*
X158917Y25957D01*
X160000Y25815D01*
X161083Y25957D01*
X162093Y26375D01*
X162960Y27040D01*
X163625Y27907D01*
X164043Y28917D01*
X164185Y30000D01*
X164043Y31083D01*
X163625Y32093D01*
X162960Y32959D01*
X162093Y33625D01*
X161083Y34043D01*
X160000Y34185D01*
D02*
G37*
G36*
X209000Y29000D02*
X205946D01*
X205957Y28917D01*
X206375Y27907D01*
X207041Y27040D01*
X207907Y26375D01*
X208917Y25957D01*
X209000Y25946D01*
Y29000D01*
D02*
G37*
G36*
X180000Y34185D02*
X178917Y34043D01*
X177907Y33625D01*
X177041Y32959D01*
X176375Y32093D01*
X175957Y31083D01*
X175815Y30000D01*
X175957Y28917D01*
X176375Y27907D01*
X177041Y27040D01*
X177907Y26375D01*
X178917Y25957D01*
X180000Y25815D01*
X181083Y25957D01*
X182093Y26375D01*
X182959Y27040D01*
X183625Y27907D01*
X184043Y28917D01*
X184185Y30000D01*
X184043Y31083D01*
X183625Y32093D01*
X182959Y32959D01*
X182093Y33625D01*
X181083Y34043D01*
X180000Y34185D01*
D02*
G37*
G36*
X150000Y24185D02*
X148917Y24043D01*
X147907Y23625D01*
X147040Y22960D01*
X146375Y22093D01*
X145957Y21083D01*
X145815Y20000D01*
X145957Y18917D01*
X146375Y17907D01*
X147040Y17041D01*
X147907Y16375D01*
X148917Y15957D01*
X150000Y15815D01*
X151083Y15957D01*
X152093Y16375D01*
X152960Y17041D01*
X153625Y17907D01*
X154043Y18917D01*
X154185Y20000D01*
X154043Y21083D01*
X153625Y22093D01*
X152960Y22960D01*
X152093Y23625D01*
X151083Y24043D01*
X150000Y24185D01*
D02*
G37*
G36*
X140000D02*
X138917Y24043D01*
X137907Y23625D01*
X137040Y22960D01*
X136375Y22093D01*
X135957Y21083D01*
X135815Y20000D01*
X135957Y18917D01*
X136375Y17907D01*
X137040Y17041D01*
X137907Y16375D01*
X138917Y15957D01*
X140000Y15815D01*
X141083Y15957D01*
X142093Y16375D01*
X142959Y17041D01*
X143625Y17907D01*
X144043Y18917D01*
X144185Y20000D01*
X144043Y21083D01*
X143625Y22093D01*
X142959Y22960D01*
X142093Y23625D01*
X141083Y24043D01*
X140000Y24185D01*
D02*
G37*
G36*
X170000D02*
X168917Y24043D01*
X167907Y23625D01*
X167041Y22960D01*
X166375Y22093D01*
X165957Y21083D01*
X165815Y20000D01*
X165957Y18917D01*
X166375Y17907D01*
X167041Y17041D01*
X167907Y16375D01*
X168917Y15957D01*
X170000Y15815D01*
X171083Y15957D01*
X172093Y16375D01*
X172959Y17041D01*
X173625Y17907D01*
X174043Y18917D01*
X174185Y20000D01*
X174043Y21083D01*
X173625Y22093D01*
X172959Y22960D01*
X172093Y23625D01*
X171083Y24043D01*
X170000Y24185D01*
D02*
G37*
G36*
X160000D02*
X158917Y24043D01*
X157907Y23625D01*
X157041Y22960D01*
X156375Y22093D01*
X155957Y21083D01*
X155815Y20000D01*
X155957Y18917D01*
X156375Y17907D01*
X157041Y17041D01*
X157907Y16375D01*
X158917Y15957D01*
X160000Y15815D01*
X161083Y15957D01*
X162093Y16375D01*
X162960Y17041D01*
X163625Y17907D01*
X164043Y18917D01*
X164185Y20000D01*
X164043Y21083D01*
X163625Y22093D01*
X162960Y22960D01*
X162093Y23625D01*
X161083Y24043D01*
X160000Y24185D01*
D02*
G37*
G36*
X130000D02*
X128917Y24043D01*
X127907Y23625D01*
X127041Y22960D01*
X126375Y22093D01*
X125957Y21083D01*
X125815Y20000D01*
X125957Y18917D01*
X126375Y17907D01*
X127041Y17041D01*
X127907Y16375D01*
X128917Y15957D01*
X130000Y15815D01*
X131083Y15957D01*
X132093Y16375D01*
X132959Y17041D01*
X133625Y17907D01*
X134043Y18917D01*
X134185Y20000D01*
X134043Y21083D01*
X133625Y22093D01*
X132959Y22960D01*
X132093Y23625D01*
X131083Y24043D01*
X130000Y24185D01*
D02*
G37*
G36*
X242126Y20224D02*
X240869Y20100D01*
X239660Y19733D01*
X238546Y19138D01*
X237569Y18336D01*
X236768Y17360D01*
X236172Y16246D01*
X235805Y15037D01*
X235682Y13780D01*
X235805Y12522D01*
X236172Y11313D01*
X236768Y10199D01*
X237569Y9223D01*
X238546Y8421D01*
X239660Y7826D01*
X240869Y7459D01*
X242126Y7335D01*
X243383Y7459D01*
X244592Y7826D01*
X245706Y8421D01*
X246683Y9223D01*
X247484Y10199D01*
X248080Y11313D01*
X248447Y12522D01*
X248570Y13780D01*
X248447Y15037D01*
X248080Y16246D01*
X247484Y17360D01*
X246683Y18336D01*
X245706Y19138D01*
X244592Y19733D01*
X243383Y20100D01*
X242126Y20224D01*
D02*
G37*
G36*
X13780D02*
X12522Y20100D01*
X11313Y19733D01*
X10199Y19138D01*
X9223Y18336D01*
X8421Y17360D01*
X7826Y16246D01*
X7459Y15037D01*
X7335Y13780D01*
X7459Y12522D01*
X7826Y11313D01*
X8421Y10199D01*
X9223Y9223D01*
X10199Y8421D01*
X11313Y7826D01*
X12522Y7459D01*
X13780Y7335D01*
X15037Y7459D01*
X16246Y7826D01*
X17360Y8421D01*
X18336Y9223D01*
X19138Y10199D01*
X19733Y11313D01*
X20100Y12522D01*
X20224Y13780D01*
X20100Y15037D01*
X19733Y16246D01*
X19138Y17360D01*
X18336Y18336D01*
X17360Y19138D01*
X16246Y19733D01*
X15037Y20100D01*
X13780Y20224D01*
D02*
G37*
G36*
X120000Y24185D02*
X118917Y24043D01*
X117907Y23625D01*
X117041Y22960D01*
X116375Y22093D01*
X115957Y21083D01*
X115815Y20000D01*
X115957Y18917D01*
X116375Y17907D01*
X117041Y17041D01*
X117907Y16375D01*
X118917Y15957D01*
X120000Y15815D01*
X121083Y15957D01*
X122093Y16375D01*
X122959Y17041D01*
X123625Y17907D01*
X124043Y18917D01*
X124185Y20000D01*
X124043Y21083D01*
X123625Y22093D01*
X122959Y22960D01*
X122093Y23625D01*
X121083Y24043D01*
X120000Y24185D01*
D02*
G37*
G36*
X110000D02*
X108917Y24043D01*
X107907Y23625D01*
X107041Y22960D01*
X106375Y22093D01*
X105957Y21083D01*
X105815Y20000D01*
X105957Y18917D01*
X106375Y17907D01*
X107041Y17041D01*
X107907Y16375D01*
X108917Y15957D01*
X110000Y15815D01*
X111083Y15957D01*
X112093Y16375D01*
X112960Y17041D01*
X113625Y17907D01*
X114043Y18917D01*
X114185Y20000D01*
X114043Y21083D01*
X113625Y22093D01*
X112960Y22960D01*
X112093Y23625D01*
X111083Y24043D01*
X110000Y24185D01*
D02*
G37*
G36*
X180000D02*
X178917Y24043D01*
X177907Y23625D01*
X177041Y22960D01*
X176375Y22093D01*
X175957Y21083D01*
X175815Y20000D01*
X175957Y18917D01*
X176375Y17907D01*
X177041Y17041D01*
X177907Y16375D01*
X178917Y15957D01*
X180000Y15815D01*
X181083Y15957D01*
X182093Y16375D01*
X182959Y17041D01*
X183625Y17907D01*
X184043Y18917D01*
X184185Y20000D01*
X184043Y21083D01*
X183625Y22093D01*
X182959Y22960D01*
X182093Y23625D01*
X181083Y24043D01*
X180000Y24185D01*
D02*
G37*
G36*
X67124Y19500D02*
X65500D01*
Y17876D01*
X65851Y17945D01*
X66572Y18428D01*
X67054Y19149D01*
X67124Y19500D01*
D02*
G37*
G36*
X64500D02*
X62876D01*
X62945Y19149D01*
X63428Y18428D01*
X64149Y17945D01*
X64500Y17876D01*
Y19500D01*
D02*
G37*
G36*
X65500Y22124D02*
Y20500D01*
X67124D01*
X67054Y20851D01*
X66572Y21573D01*
X65851Y22055D01*
X65500Y22124D01*
D02*
G37*
G36*
X64500D02*
X64149Y22055D01*
X63428Y21573D01*
X62945Y20851D01*
X62876Y20500D01*
X64500D01*
Y22124D01*
D02*
G37*
G36*
X214054Y19000D02*
X211000D01*
Y15946D01*
X211083Y15957D01*
X212093Y16375D01*
X212960Y17041D01*
X213625Y17907D01*
X214043Y18917D01*
X214054Y19000D01*
D02*
G37*
G36*
X209000D02*
X205946D01*
X205957Y18917D01*
X206375Y17907D01*
X207041Y17041D01*
X207907Y16375D01*
X208917Y15957D01*
X209000Y15946D01*
Y19000D01*
D02*
G37*
G36*
X104150Y24150D02*
X95850D01*
Y15850D01*
X104150D01*
Y24150D01*
D02*
G37*
G36*
X194054Y19000D02*
X191000D01*
Y15946D01*
X191083Y15957D01*
X192093Y16375D01*
X192959Y17041D01*
X193625Y17907D01*
X194043Y18917D01*
X194054Y19000D01*
D02*
G37*
G36*
X189000D02*
X185946D01*
X185957Y18917D01*
X186375Y17907D01*
X187040Y17041D01*
X187907Y16375D01*
X188917Y15957D01*
X189000Y15946D01*
Y19000D01*
D02*
G37*
G36*
X191000Y34054D02*
Y31000D01*
X194054D01*
X194043Y31083D01*
X193625Y32093D01*
X192959Y32959D01*
X192093Y33625D01*
X191083Y34043D01*
X191000Y34054D01*
D02*
G37*
G36*
X164500Y57124D02*
X164149Y57055D01*
X163427Y56573D01*
X162945Y55851D01*
X162876Y55500D01*
X164500D01*
Y57124D01*
D02*
G37*
G36*
X50500D02*
Y55500D01*
X52124D01*
X52055Y55851D01*
X51573Y56573D01*
X50851Y57055D01*
X50500Y57124D01*
D02*
G37*
G36*
X20000Y64185D02*
X18917Y64043D01*
X17907Y63625D01*
X17041Y62959D01*
X16375Y62093D01*
X15957Y61083D01*
X15815Y60000D01*
X15957Y58917D01*
X16375Y57907D01*
X17041Y57041D01*
X17907Y56375D01*
X18917Y55957D01*
X20000Y55815D01*
X21083Y55957D01*
X22093Y56375D01*
X22960Y57041D01*
X23625Y57907D01*
X24043Y58917D01*
X24185Y60000D01*
X24043Y61083D01*
X23625Y62093D01*
X22960Y62959D01*
X22093Y63625D01*
X21083Y64043D01*
X20000Y64185D01*
D02*
G37*
G36*
X165500Y57124D02*
Y55500D01*
X167124D01*
X167054Y55851D01*
X166572Y56573D01*
X165851Y57055D01*
X165500Y57124D01*
D02*
G37*
G36*
X49500D02*
X49149Y57055D01*
X48428Y56573D01*
X47945Y55851D01*
X47876Y55500D01*
X49500D01*
Y57124D01*
D02*
G37*
G36*
X164500Y54500D02*
X162876D01*
X162945Y54149D01*
X163427Y53427D01*
X164149Y52946D01*
X164500Y52876D01*
Y54500D01*
D02*
G37*
G36*
X52124D02*
X50500D01*
Y52876D01*
X50851Y52946D01*
X51573Y53427D01*
X52055Y54149D01*
X52124Y54500D01*
D02*
G37*
G36*
X256772Y61304D02*
X255787Y61175D01*
X254870Y60795D01*
X254082Y60190D01*
X253477Y59402D01*
X253097Y58485D01*
X252968Y57500D01*
X253097Y56515D01*
X253477Y55598D01*
X254082Y54810D01*
X254870Y54206D01*
X255787Y53825D01*
X256772Y53696D01*
X257756Y53825D01*
X258674Y54206D01*
X259462Y54810D01*
X260066Y55598D01*
X260446Y56515D01*
X260576Y57500D01*
X260446Y58485D01*
X260066Y59402D01*
X259462Y60190D01*
X258674Y60795D01*
X257756Y61175D01*
X256772Y61304D01*
D02*
G37*
G36*
X167124Y54500D02*
X165500D01*
Y52876D01*
X165851Y52946D01*
X166572Y53427D01*
X167054Y54149D01*
X167124Y54500D01*
D02*
G37*
G36*
X210000Y62224D02*
X209149Y62055D01*
X208428Y61572D01*
X207945Y60851D01*
X207776Y60000D01*
X207945Y59149D01*
X208428Y58428D01*
X209149Y57946D01*
X210000Y57776D01*
X210851Y57946D01*
X211573Y58428D01*
X212055Y59149D01*
X212224Y60000D01*
X212055Y60851D01*
X211573Y61572D01*
X210851Y62055D01*
X210000Y62224D01*
D02*
G37*
G36*
X125500Y62124D02*
Y60500D01*
X127124D01*
X127055Y60851D01*
X126573Y61572D01*
X125851Y62055D01*
X125500Y62124D01*
D02*
G37*
G36*
X124500D02*
X124149Y62055D01*
X123427Y61572D01*
X122945Y60851D01*
X122876Y60500D01*
X124500D01*
Y62124D01*
D02*
G37*
G36*
X240500D02*
Y60500D01*
X242124D01*
X242055Y60851D01*
X241572Y61572D01*
X240851Y62055D01*
X240500Y62124D01*
D02*
G37*
G36*
X239500D02*
X239149Y62055D01*
X238427Y61572D01*
X237945Y60851D01*
X237876Y60500D01*
X239500D01*
Y62124D01*
D02*
G37*
G36*
X266772Y66304D02*
X265787Y66175D01*
X264869Y65794D01*
X264082Y65190D01*
X263477Y64402D01*
X263097Y63485D01*
X262967Y62500D01*
X263097Y61515D01*
X263477Y60598D01*
X264082Y59810D01*
X264869Y59206D01*
X265787Y58825D01*
X266772Y58696D01*
X267756Y58825D01*
X268674Y59206D01*
X269462Y59810D01*
X270066Y60598D01*
X270446Y61515D01*
X270576Y62500D01*
X270446Y63485D01*
X270066Y64402D01*
X269462Y65190D01*
X268674Y65794D01*
X267756Y66175D01*
X266772Y66304D01*
D02*
G37*
G36*
X127124Y59500D02*
X125500D01*
Y57876D01*
X125851Y57946D01*
X126573Y58428D01*
X127055Y59149D01*
X127124Y59500D01*
D02*
G37*
G36*
X124500D02*
X122876D01*
X122945Y59149D01*
X123427Y58428D01*
X124149Y57946D01*
X124500Y57876D01*
Y59500D01*
D02*
G37*
G36*
X242124D02*
X240500D01*
Y57876D01*
X240851Y57946D01*
X241572Y58428D01*
X242055Y59149D01*
X242124Y59500D01*
D02*
G37*
G36*
X239500D02*
X237876D01*
X237945Y59149D01*
X238427Y58428D01*
X239149Y57946D01*
X239500Y57876D01*
Y59500D01*
D02*
G37*
G36*
X281014Y44605D02*
Y40246D01*
X285373D01*
X285341Y40490D01*
X284764Y41883D01*
X283846Y43079D01*
X282651Y43996D01*
X281258Y44573D01*
X281014Y44605D01*
D02*
G37*
G36*
X278514D02*
X278269Y44573D01*
X276877Y43996D01*
X275681Y43079D01*
X274763Y41883D01*
X274187Y40490D01*
X274154Y40246D01*
X278514D01*
Y44605D01*
D02*
G37*
G36*
X24150Y54150D02*
X15850D01*
Y45850D01*
X24150D01*
Y54150D01*
D02*
G37*
G36*
X90000Y47224D02*
X89149Y47055D01*
X88428Y46573D01*
X87945Y45851D01*
X87776Y45000D01*
X87945Y44149D01*
X88428Y43428D01*
X89149Y42945D01*
X90000Y42776D01*
X90851Y42945D01*
X91572Y43428D01*
X92054Y44149D01*
X92224Y45000D01*
X92054Y45851D01*
X91572Y46573D01*
X90851Y47055D01*
X90000Y47224D01*
D02*
G37*
G36*
X291772Y54933D02*
X290321Y54791D01*
X288927Y54368D01*
X287642Y53681D01*
X286515Y52756D01*
X285591Y51630D01*
X284904Y50345D01*
X284481Y48950D01*
X284338Y47500D01*
X284481Y46050D01*
X284904Y44655D01*
X285591Y43370D01*
X286515Y42244D01*
X287642Y41319D01*
X288927Y40632D01*
X290321Y40209D01*
X291772Y40067D01*
X293222Y40209D01*
X294616Y40632D01*
X295901Y41319D01*
X297028Y42244D01*
X297952Y43370D01*
X298639Y44655D01*
X299062Y46050D01*
X299205Y47500D01*
X299062Y48950D01*
X298639Y50345D01*
X297952Y51630D01*
X297028Y52756D01*
X295901Y53681D01*
X294616Y54368D01*
X293222Y54791D01*
X291772Y54933D01*
D02*
G37*
G36*
X278514Y37746D02*
X274154D01*
X274187Y37502D01*
X274763Y36109D01*
X275681Y34913D01*
X276877Y33996D01*
X278269Y33419D01*
X278514Y33387D01*
Y37746D01*
D02*
G37*
G36*
X211000Y34054D02*
Y31000D01*
X214054D01*
X214043Y31083D01*
X213625Y32093D01*
X212960Y32959D01*
X212093Y33625D01*
X211083Y34043D01*
X211000Y34054D01*
D02*
G37*
G36*
X65000Y42224D02*
X64149Y42055D01*
X63428Y41572D01*
X62945Y40851D01*
X62776Y40000D01*
X62945Y39149D01*
X63428Y38427D01*
X64149Y37945D01*
X65000Y37776D01*
X65851Y37945D01*
X66572Y38427D01*
X67054Y39149D01*
X67224Y40000D01*
X67054Y40851D01*
X66572Y41572D01*
X65851Y42055D01*
X65000Y42224D01*
D02*
G37*
G36*
X285373Y37746D02*
X281014D01*
Y33387D01*
X281258Y33419D01*
X282651Y33996D01*
X283846Y34913D01*
X284764Y36109D01*
X285341Y37502D01*
X285373Y37746D01*
D02*
G37*
G36*
X90000Y52224D02*
X89149Y52055D01*
X88428Y51573D01*
X87945Y50851D01*
X87776Y50000D01*
X87945Y49149D01*
X88428Y48428D01*
X89149Y47945D01*
X90000Y47776D01*
X90851Y47945D01*
X91572Y48428D01*
X92054Y49149D01*
X92224Y50000D01*
X92054Y50851D01*
X91572Y51573D01*
X90851Y52055D01*
X90000Y52224D01*
D02*
G37*
G36*
X95000Y172224D02*
X94149Y172055D01*
X93427Y171572D01*
X92945Y170851D01*
X92776Y170000D01*
X92945Y169149D01*
X92961Y169126D01*
Y120845D01*
X89176Y117060D01*
X89149Y117054D01*
X88428Y116572D01*
X87945Y115851D01*
X87776Y115000D01*
X87945Y114149D01*
X87961Y114126D01*
Y75000D01*
X88116Y74220D01*
X88558Y73558D01*
X107940Y54176D01*
X107946Y54149D01*
X108428Y53427D01*
X109149Y52946D01*
X110000Y52776D01*
X110851Y52946D01*
X111573Y53427D01*
X112055Y54149D01*
X112224Y55000D01*
X112055Y55851D01*
X111573Y56573D01*
X110851Y57055D01*
X110824Y57060D01*
X92039Y75845D01*
Y114126D01*
X92054Y114149D01*
X92060Y114176D01*
X96442Y118558D01*
X96884Y119220D01*
X97039Y120000D01*
Y169126D01*
X97054Y169149D01*
X97224Y170000D01*
X97054Y170851D01*
X96573Y171572D01*
X95851Y172055D01*
X95000Y172224D01*
D02*
G37*
G36*
X90000Y57224D02*
X89149Y57055D01*
X88428Y56573D01*
X87945Y55851D01*
X87776Y55000D01*
X87945Y54149D01*
X88428Y53427D01*
X89149Y52946D01*
X90000Y52776D01*
X90851Y52946D01*
X91572Y53427D01*
X92054Y54149D01*
X92224Y55000D01*
X92054Y55851D01*
X91572Y56573D01*
X90851Y57055D01*
X90000Y57224D01*
D02*
G37*
G36*
X49500Y54500D02*
X47876D01*
X47945Y54149D01*
X48428Y53427D01*
X49149Y52946D01*
X49500Y52876D01*
Y54500D01*
D02*
G37*
G36*
X145000Y57224D02*
X144149Y57055D01*
X143428Y56573D01*
X142946Y55851D01*
X142776Y55000D01*
X142946Y54149D01*
X143428Y53427D01*
X144149Y52946D01*
X145000Y52776D01*
X145851Y52946D01*
X146572Y53427D01*
X147055Y54149D01*
X147224Y55000D01*
X147055Y55851D01*
X146572Y56573D01*
X145851Y57055D01*
X145000Y57224D01*
D02*
G37*
G36*
X155500Y52124D02*
Y50500D01*
X157124D01*
X157054Y50851D01*
X156572Y51573D01*
X155851Y52055D01*
X155500Y52124D01*
D02*
G37*
G36*
X157124Y49500D02*
X155500D01*
Y47876D01*
X155851Y47945D01*
X156572Y48428D01*
X157054Y49149D01*
X157124Y49500D01*
D02*
G37*
G36*
X154500D02*
X152876D01*
X152945Y49149D01*
X153428Y48428D01*
X154149Y47945D01*
X154500Y47876D01*
Y49500D01*
D02*
G37*
G36*
Y52124D02*
X154149Y52055D01*
X153428Y51573D01*
X152945Y50851D01*
X152876Y50500D01*
X154500D01*
Y52124D01*
D02*
G37*
G36*
X266772Y56304D02*
X265787Y56175D01*
X264869Y55795D01*
X264082Y55190D01*
X263477Y54402D01*
X263097Y53485D01*
X262967Y52500D01*
X263097Y51515D01*
X263477Y50598D01*
X264082Y49810D01*
X264869Y49205D01*
X265787Y48825D01*
X266772Y48696D01*
X267756Y48825D01*
X268674Y49205D01*
X269462Y49810D01*
X270066Y50598D01*
X270446Y51515D01*
X270576Y52500D01*
X270446Y53485D01*
X270066Y54402D01*
X269462Y55190D01*
X268674Y55795D01*
X267756Y56175D01*
X266772Y56304D01*
D02*
G37*
G36*
X130500Y108124D02*
Y106500D01*
X132124D01*
X132054Y106851D01*
X131572Y107572D01*
X130851Y108054D01*
X130500Y108124D01*
D02*
G37*
G36*
X110500Y162124D02*
Y160500D01*
X112124D01*
X112055Y160851D01*
X111573Y161573D01*
X110851Y162055D01*
X110500Y162124D01*
D02*
G37*
G36*
X109500D02*
X109149Y162055D01*
X108428Y161573D01*
X107946Y160851D01*
X107876Y160500D01*
X109500D01*
Y162124D01*
D02*
G37*
G36*
X21000Y164054D02*
Y161000D01*
X24054D01*
X24043Y161083D01*
X23625Y162093D01*
X22960Y162960D01*
X22093Y163625D01*
X21083Y164043D01*
X21000Y164054D01*
D02*
G37*
G36*
X19000D02*
X18917Y164043D01*
X17907Y163625D01*
X17041Y162960D01*
X16375Y162093D01*
X15957Y161083D01*
X15946Y161000D01*
X19000D01*
Y164054D01*
D02*
G37*
G36*
X266772Y166304D02*
X265787Y166175D01*
X264869Y165795D01*
X264082Y165190D01*
X263477Y164402D01*
X263097Y163485D01*
X262967Y162500D01*
X263097Y161515D01*
X263477Y160598D01*
X264082Y159810D01*
X264869Y159205D01*
X265787Y158825D01*
X266772Y158696D01*
X267756Y158825D01*
X268674Y159205D01*
X269462Y159810D01*
X270066Y160598D01*
X270446Y161515D01*
X270576Y162500D01*
X270446Y163485D01*
X270066Y164402D01*
X269462Y165190D01*
X268674Y165795D01*
X267756Y166175D01*
X266772Y166304D01*
D02*
G37*
G36*
X173000Y159624D02*
Y158000D01*
X174624D01*
X174555Y158351D01*
X174073Y159072D01*
X173351Y159555D01*
X173000Y159624D01*
D02*
G37*
G36*
X172000D02*
X171649Y159555D01*
X170928Y159072D01*
X170446Y158351D01*
X170376Y158000D01*
X172000D01*
Y159624D01*
D02*
G37*
G36*
X240500D02*
Y158000D01*
X242124D01*
X242055Y158351D01*
X241572Y159072D01*
X240851Y159555D01*
X240500Y159624D01*
D02*
G37*
G36*
X239500D02*
X239149Y159555D01*
X238427Y159072D01*
X237945Y158351D01*
X237876Y158000D01*
X239500D01*
Y159624D01*
D02*
G37*
G36*
X145000Y167224D02*
X144149Y167054D01*
X143428Y166572D01*
X142946Y165851D01*
X142776Y165000D01*
X142946Y164149D01*
X143428Y163427D01*
X144149Y162945D01*
X145000Y162776D01*
X145851Y162945D01*
X146572Y163427D01*
X147055Y164149D01*
X147224Y165000D01*
X147055Y165851D01*
X146572Y166572D01*
X145851Y167054D01*
X145000Y167224D01*
D02*
G37*
G36*
X135000Y172224D02*
X134149Y172055D01*
X133428Y171572D01*
X132946Y170851D01*
X132776Y170000D01*
X132946Y169149D01*
X133428Y168428D01*
X134149Y167946D01*
X135000Y167776D01*
X135851Y167946D01*
X136573Y168428D01*
X137055Y169149D01*
X137224Y170000D01*
X137055Y170851D01*
X136573Y171572D01*
X135851Y172055D01*
X135000Y172224D01*
D02*
G37*
G36*
X135500Y167124D02*
Y165500D01*
X137124D01*
X137055Y165851D01*
X136573Y166572D01*
X135851Y167054D01*
X135500Y167124D01*
D02*
G37*
G36*
X119500Y174500D02*
X117876D01*
X117946Y174149D01*
X118428Y173427D01*
X119149Y172945D01*
X119500Y172876D01*
Y174500D01*
D02*
G37*
G36*
X305079Y178948D02*
X304031Y178810D01*
X303056Y178406D01*
X302218Y177763D01*
X301574Y176925D01*
X301170Y175949D01*
X301032Y174902D01*
X301170Y173854D01*
X301574Y172878D01*
X302218Y172040D01*
X303056Y171397D01*
X304031Y170993D01*
X305079Y170855D01*
X306126Y170993D01*
X307102Y171397D01*
X307940Y172040D01*
X308583Y172878D01*
X308987Y173854D01*
X309125Y174902D01*
X308987Y175949D01*
X308583Y176925D01*
X307940Y177763D01*
X307102Y178406D01*
X306126Y178810D01*
X305079Y178948D01*
D02*
G37*
G36*
X134500Y167124D02*
X134149Y167054D01*
X133428Y166572D01*
X132946Y165851D01*
X132876Y165500D01*
X134500D01*
Y167124D01*
D02*
G37*
G36*
X137124Y164500D02*
X135500D01*
Y162876D01*
X135851Y162945D01*
X136573Y163427D01*
X137055Y164149D01*
X137124Y164500D01*
D02*
G37*
G36*
X134500D02*
X132876D01*
X132946Y164149D01*
X133428Y163427D01*
X134149Y162945D01*
X134500Y162876D01*
Y164500D01*
D02*
G37*
G36*
X291772Y179933D02*
X290321Y179791D01*
X288927Y179368D01*
X287642Y178681D01*
X286515Y177756D01*
X285591Y176630D01*
X284904Y175345D01*
X284481Y173950D01*
X284338Y172500D01*
X284481Y171050D01*
X284904Y169655D01*
X285591Y168370D01*
X286515Y167244D01*
X287642Y166319D01*
X288927Y165632D01*
X290321Y165209D01*
X291772Y165067D01*
X293222Y165209D01*
X294616Y165632D01*
X295901Y166319D01*
X297028Y167244D01*
X297952Y168370D01*
X298639Y169655D01*
X299062Y171050D01*
X299205Y172500D01*
X299062Y173950D01*
X298639Y175345D01*
X297952Y176630D01*
X297028Y177756D01*
X295901Y178681D01*
X294616Y179368D01*
X293222Y179791D01*
X291772Y179933D01*
D02*
G37*
G36*
X256772Y171304D02*
X255787Y171175D01*
X254870Y170794D01*
X254082Y170190D01*
X253477Y169402D01*
X253097Y168485D01*
X252968Y167500D01*
X253097Y166515D01*
X253477Y165598D01*
X254082Y164810D01*
X254870Y164206D01*
X255787Y163825D01*
X256772Y163696D01*
X257756Y163825D01*
X258674Y164206D01*
X259462Y164810D01*
X260066Y165598D01*
X260446Y166515D01*
X260576Y167500D01*
X260446Y168485D01*
X260066Y169402D01*
X259462Y170190D01*
X258674Y170794D01*
X257756Y171175D01*
X256772Y171304D01*
D02*
G37*
G36*
X197500Y159724D02*
X196649Y159555D01*
X195928Y159072D01*
X195446Y158351D01*
X195276Y157500D01*
X195446Y156649D01*
X195928Y155928D01*
X196649Y155446D01*
X197500Y155276D01*
X198351Y155446D01*
X199073Y155928D01*
X199555Y156649D01*
X199724Y157500D01*
X199555Y158351D01*
X199073Y159072D01*
X198351Y159555D01*
X197500Y159724D01*
D02*
G37*
G36*
X256772Y161304D02*
X255787Y161175D01*
X254870Y160794D01*
X254082Y160190D01*
X253477Y159402D01*
X253097Y158485D01*
X252968Y157500D01*
X253097Y156515D01*
X253477Y155598D01*
X254082Y154810D01*
X254870Y154206D01*
X255787Y153825D01*
X256772Y153696D01*
X257756Y153825D01*
X258674Y154206D01*
X259462Y154810D01*
X260066Y155598D01*
X260446Y156515D01*
X260576Y157500D01*
X260446Y158485D01*
X260066Y159402D01*
X259462Y160190D01*
X258674Y160794D01*
X257756Y161175D01*
X256772Y161304D01*
D02*
G37*
G36*
X172000Y157000D02*
X170376D01*
X170446Y156649D01*
X170928Y155928D01*
X171649Y155446D01*
X172000Y155376D01*
Y157000D01*
D02*
G37*
G36*
X210000Y159724D02*
X209149Y159555D01*
X208428Y159072D01*
X207945Y158351D01*
X207776Y157500D01*
X207945Y156649D01*
X208428Y155928D01*
X209149Y155446D01*
X210000Y155276D01*
X210851Y155446D01*
X211573Y155928D01*
X212055Y156649D01*
X212224Y157500D01*
X212055Y158351D01*
X211573Y159072D01*
X210851Y159555D01*
X210000Y159724D01*
D02*
G37*
G36*
X145000Y157224D02*
X144149Y157054D01*
X143428Y156572D01*
X142946Y155851D01*
X142776Y155000D01*
X142946Y154149D01*
X143428Y153428D01*
X144149Y152945D01*
X145000Y152776D01*
X145851Y152945D01*
X146572Y153428D01*
X147055Y154149D01*
X147224Y155000D01*
X147055Y155851D01*
X146572Y156572D01*
X145851Y157054D01*
X145000Y157224D01*
D02*
G37*
G36*
X150500Y152124D02*
Y150500D01*
X152124D01*
X152055Y150851D01*
X151573Y151573D01*
X150851Y152055D01*
X150500Y152124D01*
D02*
G37*
G36*
X149500D02*
X149149Y152055D01*
X148427Y151573D01*
X147945Y150851D01*
X147876Y150500D01*
X149500D01*
Y152124D01*
D02*
G37*
G36*
X21000Y154054D02*
Y151000D01*
X24054D01*
X24043Y151083D01*
X23625Y152093D01*
X22960Y152960D01*
X22093Y153625D01*
X21083Y154043D01*
X21000Y154054D01*
D02*
G37*
G36*
X19000D02*
X18917Y154043D01*
X17907Y153625D01*
X17041Y152960D01*
X16375Y152093D01*
X15957Y151083D01*
X15946Y151000D01*
X19000D01*
Y154054D01*
D02*
G37*
G36*
X174624Y157000D02*
X173000D01*
Y155376D01*
X173351Y155446D01*
X174073Y155928D01*
X174555Y156649D01*
X174624Y157000D01*
D02*
G37*
G36*
X120000Y162224D02*
X119149Y162055D01*
X118428Y161573D01*
X117946Y160851D01*
X117776Y160000D01*
X117946Y159149D01*
X118428Y158428D01*
X119149Y157946D01*
X120000Y157776D01*
X120851Y157946D01*
X121572Y158428D01*
X122055Y159149D01*
X122224Y160000D01*
X122055Y160851D01*
X121572Y161573D01*
X120851Y162055D01*
X120000Y162224D01*
D02*
G37*
G36*
X24054Y159000D02*
X21000D01*
Y155946D01*
X21083Y155957D01*
X22093Y156375D01*
X22960Y157041D01*
X23625Y157907D01*
X24043Y158917D01*
X24054Y159000D01*
D02*
G37*
G36*
X112124Y159500D02*
X110500D01*
Y157876D01*
X110851Y157946D01*
X111573Y158428D01*
X112055Y159149D01*
X112124Y159500D01*
D02*
G37*
G36*
X109500D02*
X107876D01*
X107946Y159149D01*
X108428Y158428D01*
X109149Y157946D01*
X109500Y157876D01*
Y159500D01*
D02*
G37*
G36*
X19000Y159000D02*
X15946D01*
X15957Y158917D01*
X16375Y157907D01*
X17041Y157041D01*
X17907Y156375D01*
X18917Y155957D01*
X19000Y155946D01*
Y159000D01*
D02*
G37*
G36*
X242124Y157000D02*
X240500D01*
Y155376D01*
X240851Y155446D01*
X241572Y155928D01*
X242055Y156649D01*
X242124Y157000D01*
D02*
G37*
G36*
X239500D02*
X237876D01*
X237945Y156649D01*
X238427Y155928D01*
X239149Y155446D01*
X239500Y155376D01*
Y157000D01*
D02*
G37*
G36*
X70000Y164185D02*
X68917Y164043D01*
X67907Y163625D01*
X67040Y162960D01*
X66375Y162093D01*
X65957Y161083D01*
X65815Y160000D01*
X65957Y158917D01*
X66375Y157907D01*
X67040Y157041D01*
X67907Y156375D01*
X68917Y155957D01*
X70000Y155815D01*
X71083Y155957D01*
X72093Y156375D01*
X72960Y157041D01*
X73625Y157907D01*
X74043Y158917D01*
X74185Y160000D01*
X74043Y161083D01*
X73625Y162093D01*
X72960Y162960D01*
X72093Y163625D01*
X71083Y164043D01*
X70000Y164185D01*
D02*
G37*
G36*
X50000D02*
X48917Y164043D01*
X47907Y163625D01*
X47041Y162960D01*
X46375Y162093D01*
X45957Y161083D01*
X45815Y160000D01*
X45957Y158917D01*
X46375Y157907D01*
X47041Y157041D01*
X47907Y156375D01*
X48917Y155957D01*
X50000Y155815D01*
X51083Y155957D01*
X52093Y156375D01*
X52960Y157041D01*
X53625Y157907D01*
X54043Y158917D01*
X54185Y160000D01*
X54043Y161083D01*
X53625Y162093D01*
X52960Y162960D01*
X52093Y163625D01*
X51083Y164043D01*
X50000Y164185D01*
D02*
G37*
G36*
X122124Y174500D02*
X120500D01*
Y172876D01*
X120851Y172945D01*
X121572Y173427D01*
X122055Y174149D01*
X122124Y174500D01*
D02*
G37*
G36*
X262124Y194500D02*
X260500D01*
Y192876D01*
X260851Y192946D01*
X261573Y193428D01*
X262055Y194149D01*
X262124Y194500D01*
D02*
G37*
G36*
X259500D02*
X257876D01*
X257945Y194149D01*
X258428Y193428D01*
X259149Y192946D01*
X259500Y192876D01*
Y194500D01*
D02*
G37*
G36*
X260500Y197124D02*
Y195500D01*
X262124D01*
X262055Y195851D01*
X261573Y196572D01*
X260851Y197055D01*
X260500Y197124D01*
D02*
G37*
G36*
X259500D02*
X259149Y197055D01*
X258428Y196572D01*
X257945Y195851D01*
X257876Y195500D01*
X259500D01*
Y197124D01*
D02*
G37*
G36*
X80000Y192224D02*
X79149Y192054D01*
X78427Y191572D01*
X77945Y190851D01*
X77776Y190000D01*
X77945Y189149D01*
X78427Y188427D01*
X79149Y187945D01*
X80000Y187776D01*
X80851Y187945D01*
X81573Y188427D01*
X82055Y189149D01*
X82224Y190000D01*
X82055Y190851D01*
X81573Y191572D01*
X80851Y192054D01*
X80000Y192224D01*
D02*
G37*
G36*
X262124Y184500D02*
X260500D01*
Y182876D01*
X260851Y182946D01*
X261573Y183428D01*
X262055Y184149D01*
X262124Y184500D01*
D02*
G37*
G36*
X259500D02*
X257876D01*
X257945Y184149D01*
X258428Y183428D01*
X259149Y182946D01*
X259500Y182876D01*
Y184500D01*
D02*
G37*
G36*
X260500Y187124D02*
Y185500D01*
X262124D01*
X262055Y185851D01*
X261573Y186573D01*
X260851Y187055D01*
X260500Y187124D01*
D02*
G37*
G36*
X259500D02*
X259149Y187055D01*
X258428Y186573D01*
X257945Y185851D01*
X257876Y185500D01*
X259500D01*
Y187124D01*
D02*
G37*
G36*
X69000Y199000D02*
X65946D01*
X65957Y198917D01*
X66375Y197907D01*
X67040Y197040D01*
X67907Y196375D01*
X68917Y195957D01*
X69000Y195946D01*
Y199000D01*
D02*
G37*
G36*
X79000Y204054D02*
X78917Y204043D01*
X77907Y203625D01*
X77040Y202959D01*
X76375Y202093D01*
X75957Y201083D01*
X75946Y201000D01*
X79000D01*
Y204054D01*
D02*
G37*
G36*
X69000D02*
X68917Y204043D01*
X67907Y203625D01*
X67040Y202959D01*
X66375Y202093D01*
X65957Y201083D01*
X65946Y201000D01*
X69000D01*
Y204054D01*
D02*
G37*
G36*
X81000D02*
Y201000D01*
X84054D01*
X84043Y201083D01*
X83625Y202093D01*
X82960Y202959D01*
X82093Y203625D01*
X81083Y204043D01*
X81000Y204054D01*
D02*
G37*
G36*
X71000D02*
Y201000D01*
X74054D01*
X74043Y201083D01*
X73625Y202093D01*
X72960Y202959D01*
X72093Y203625D01*
X71083Y204043D01*
X71000Y204054D01*
D02*
G37*
G36*
X242126Y213137D02*
X240869Y213014D01*
X239660Y212647D01*
X238546Y212051D01*
X237569Y211250D01*
X236768Y210273D01*
X236172Y209159D01*
X235805Y207950D01*
X235682Y206693D01*
X235805Y205436D01*
X236172Y204227D01*
X236768Y203113D01*
X237569Y202136D01*
X238546Y201335D01*
X239660Y200739D01*
X240869Y200372D01*
X242126Y200249D01*
X243383Y200372D01*
X244592Y200739D01*
X245706Y201335D01*
X246683Y202136D01*
X247484Y203113D01*
X248080Y204227D01*
X248447Y205436D01*
X248570Y206693D01*
X248447Y207950D01*
X248080Y209159D01*
X247484Y210273D01*
X246683Y211250D01*
X245706Y212051D01*
X244592Y212647D01*
X243383Y213014D01*
X242126Y213137D01*
D02*
G37*
G36*
X74054Y199000D02*
X71000D01*
Y195946D01*
X71083Y195957D01*
X72093Y196375D01*
X72960Y197040D01*
X73625Y197907D01*
X74043Y198917D01*
X74054Y199000D01*
D02*
G37*
G36*
X79000D02*
X75946D01*
X75957Y198917D01*
X76375Y197907D01*
X77040Y197040D01*
X77907Y196375D01*
X78917Y195957D01*
X79000Y195946D01*
Y199000D01*
D02*
G37*
G36*
X13780Y213137D02*
X12522Y213014D01*
X11313Y212647D01*
X10199Y212051D01*
X9223Y211250D01*
X8421Y210273D01*
X7826Y209159D01*
X7459Y207950D01*
X7335Y206693D01*
X7459Y205436D01*
X7826Y204227D01*
X8421Y203113D01*
X9223Y202136D01*
X10199Y201335D01*
X11313Y200739D01*
X12522Y200372D01*
X13780Y200249D01*
X15037Y200372D01*
X16246Y200739D01*
X17360Y201335D01*
X18336Y202136D01*
X19138Y203113D01*
X19733Y204227D01*
X20100Y205436D01*
X20224Y206693D01*
X20100Y207950D01*
X19733Y209159D01*
X19138Y210273D01*
X18336Y211250D01*
X17360Y212051D01*
X16246Y212647D01*
X15037Y213014D01*
X13780Y213137D01*
D02*
G37*
G36*
X84054Y199000D02*
X81000D01*
Y195946D01*
X81083Y195957D01*
X82093Y196375D01*
X82960Y197040D01*
X83625Y197907D01*
X84043Y198917D01*
X84054Y199000D01*
D02*
G37*
G36*
X52124Y179500D02*
X50500D01*
Y177876D01*
X50851Y177945D01*
X51573Y178428D01*
X52055Y179149D01*
X52124Y179500D01*
D02*
G37*
G36*
X49500D02*
X47876D01*
X47945Y179149D01*
X48428Y178428D01*
X49149Y177945D01*
X49500Y177876D01*
Y179500D01*
D02*
G37*
G36*
X114624D02*
X113000D01*
Y177876D01*
X113351Y177945D01*
X114073Y178428D01*
X114555Y179149D01*
X114624Y179500D01*
D02*
G37*
G36*
X112000D02*
X110376D01*
X110445Y179149D01*
X110927Y178428D01*
X111649Y177945D01*
X112000Y177876D01*
Y179500D01*
D02*
G37*
G36*
X245000Y182224D02*
X244149Y182054D01*
X243427Y181572D01*
X242945Y180851D01*
X242776Y180000D01*
X242945Y179149D01*
X243427Y178428D01*
X244149Y177945D01*
X245000Y177776D01*
X245851Y177945D01*
X246572Y178428D01*
X247055Y179149D01*
X247224Y180000D01*
X247055Y180851D01*
X246572Y181572D01*
X245851Y182054D01*
X245000Y182224D01*
D02*
G37*
G36*
X285373Y179754D02*
X281014D01*
Y175395D01*
X281258Y175427D01*
X282651Y176004D01*
X283846Y176921D01*
X284764Y178117D01*
X285341Y179510D01*
X285373Y179754D01*
D02*
G37*
G36*
X278514D02*
X274154D01*
X274187Y179510D01*
X274763Y178117D01*
X275681Y176921D01*
X276877Y176004D01*
X278269Y175427D01*
X278514Y175395D01*
Y179754D01*
D02*
G37*
G36*
X20000Y184185D02*
X18917Y184043D01*
X17907Y183625D01*
X17041Y182959D01*
X16375Y182093D01*
X15957Y181083D01*
X15815Y180000D01*
X15957Y178917D01*
X16375Y177907D01*
X17041Y177041D01*
X17907Y176375D01*
X18917Y175957D01*
X20000Y175815D01*
X21083Y175957D01*
X22093Y176375D01*
X22960Y177041D01*
X23625Y177907D01*
X24043Y178917D01*
X24185Y180000D01*
X24043Y181083D01*
X23625Y182093D01*
X22960Y182959D01*
X22093Y183625D01*
X21083Y184043D01*
X20000Y184185D01*
D02*
G37*
G36*
X182500Y202500D02*
X117500D01*
Y177500D01*
X118984D01*
X119033Y177368D01*
X119067Y177000D01*
X118428Y176573D01*
X117946Y175851D01*
X117876Y175500D01*
X122124D01*
X122055Y175851D01*
X121572Y176573D01*
X120933Y177000D01*
X120967Y177368D01*
X121016Y177500D01*
X182500D01*
Y202500D01*
D02*
G37*
G36*
X187000Y179500D02*
X185376D01*
X185445Y179149D01*
X185927Y178428D01*
X186649Y177945D01*
X187000Y177876D01*
Y179500D01*
D02*
G37*
G36*
X188000Y182124D02*
Y180500D01*
X189624D01*
X189555Y180851D01*
X189073Y181572D01*
X188351Y182054D01*
X188000Y182124D01*
D02*
G37*
G36*
X187000D02*
X186649Y182054D01*
X185927Y181572D01*
X185445Y180851D01*
X185376Y180500D01*
X187000D01*
Y182124D01*
D02*
G37*
G36*
X281014Y186613D02*
Y182254D01*
X285373D01*
X285341Y182498D01*
X284764Y183891D01*
X283846Y185087D01*
X282651Y186004D01*
X281258Y186581D01*
X281014Y186613D01*
D02*
G37*
G36*
X278514D02*
X278269Y186581D01*
X276877Y186004D01*
X275681Y185087D01*
X274763Y183891D01*
X274187Y182498D01*
X274154Y182254D01*
X278514D01*
Y186613D01*
D02*
G37*
G36*
X113000Y182124D02*
Y180500D01*
X114624D01*
X114555Y180851D01*
X114073Y181572D01*
X113351Y182054D01*
X113000Y182124D01*
D02*
G37*
G36*
X49500D02*
X49149Y182054D01*
X48428Y181572D01*
X47945Y180851D01*
X47876Y180500D01*
X49500D01*
Y182124D01*
D02*
G37*
G36*
X189624Y179500D02*
X188000D01*
Y177876D01*
X188351Y177945D01*
X189073Y178428D01*
X189555Y179149D01*
X189624Y179500D01*
D02*
G37*
G36*
X112000Y182124D02*
X111649Y182054D01*
X110927Y181572D01*
X110445Y180851D01*
X110376Y180500D01*
X112000D01*
Y182124D01*
D02*
G37*
G36*
X50500D02*
Y180500D01*
X52124D01*
X52055Y180851D01*
X51573Y181572D01*
X50851Y182054D01*
X50500Y182124D01*
D02*
G37*
G36*
X281014Y124605D02*
Y120246D01*
X285373D01*
X285341Y120490D01*
X284764Y121883D01*
X283846Y123079D01*
X282651Y123996D01*
X281258Y124573D01*
X281014Y124605D01*
D02*
G37*
G36*
X278514D02*
X278269Y124573D01*
X276877Y123996D01*
X275681Y123079D01*
X274763Y121883D01*
X274187Y120490D01*
X274154Y120246D01*
X278514D01*
Y124605D01*
D02*
G37*
G36*
X239500Y122000D02*
X237876D01*
X237945Y121649D01*
X238427Y120928D01*
X239149Y120446D01*
X239500Y120376D01*
Y122000D01*
D02*
G37*
G36*
X210000Y124724D02*
X209149Y124555D01*
X208428Y124073D01*
X207945Y123351D01*
X207776Y122500D01*
X207945Y121649D01*
X208428Y120928D01*
X209149Y120446D01*
X210000Y120276D01*
X210851Y120446D01*
X211573Y120928D01*
X212055Y121649D01*
X212224Y122500D01*
X212055Y123351D01*
X211573Y124073D01*
X210851Y124555D01*
X210000Y124724D01*
D02*
G37*
G36*
X291772Y134933D02*
X290321Y134791D01*
X288927Y134368D01*
X287642Y133681D01*
X286515Y132756D01*
X285591Y131630D01*
X284904Y130345D01*
X284481Y128950D01*
X284338Y127500D01*
X284481Y126050D01*
X284904Y124655D01*
X285591Y123370D01*
X286515Y122244D01*
X287642Y121319D01*
X288927Y120632D01*
X290321Y120209D01*
X291772Y120067D01*
X293222Y120209D01*
X294616Y120632D01*
X295901Y121319D01*
X297028Y122244D01*
X297952Y123370D01*
X298639Y124655D01*
X299062Y126050D01*
X299205Y127500D01*
X299062Y128950D01*
X298639Y130345D01*
X297952Y131630D01*
X297028Y132756D01*
X295901Y133681D01*
X294616Y134368D01*
X293222Y134791D01*
X291772Y134933D01*
D02*
G37*
G36*
X20000Y124185D02*
X18917Y124043D01*
X17907Y123625D01*
X17041Y122959D01*
X16375Y122093D01*
X15957Y121083D01*
X15815Y120000D01*
X15957Y118917D01*
X16375Y117907D01*
X17041Y117041D01*
X17907Y116375D01*
X18917Y115957D01*
X20000Y115815D01*
X21083Y115957D01*
X22093Y116375D01*
X22960Y117041D01*
X23625Y117907D01*
X24043Y118917D01*
X24185Y120000D01*
X24043Y121083D01*
X23625Y122093D01*
X22960Y122959D01*
X22093Y123625D01*
X21083Y124043D01*
X20000Y124185D01*
D02*
G37*
G36*
X260500Y117124D02*
Y115500D01*
X262124D01*
X262055Y115851D01*
X261573Y116572D01*
X260851Y117054D01*
X260500Y117124D01*
D02*
G37*
G36*
X155000Y122224D02*
X154149Y122055D01*
X153428Y121572D01*
X152945Y120851D01*
X152776Y120000D01*
X152945Y119149D01*
X153428Y118428D01*
X154149Y117946D01*
X155000Y117776D01*
X155851Y117946D01*
X156572Y118428D01*
X157054Y119149D01*
X157224Y120000D01*
X157054Y120851D01*
X156572Y121572D01*
X155851Y122055D01*
X155000Y122224D01*
D02*
G37*
G36*
X50000Y124185D02*
X48917Y124043D01*
X47907Y123625D01*
X47041Y122959D01*
X46375Y122093D01*
X45957Y121083D01*
X45815Y120000D01*
X45957Y118917D01*
X46375Y117907D01*
X47041Y117041D01*
X47907Y116375D01*
X48917Y115957D01*
X50000Y115815D01*
X51083Y115957D01*
X52093Y116375D01*
X52960Y117041D01*
X53625Y117907D01*
X54043Y118917D01*
X54185Y120000D01*
X54043Y121083D01*
X53625Y122093D01*
X52960Y122959D01*
X52093Y123625D01*
X51083Y124043D01*
X50000Y124185D01*
D02*
G37*
G36*
X242124Y122000D02*
X240500D01*
Y120376D01*
X240851Y120446D01*
X241572Y120928D01*
X242055Y121649D01*
X242124Y122000D01*
D02*
G37*
G36*
X90000Y132224D02*
X89149Y132054D01*
X88428Y131572D01*
X87945Y130851D01*
X87776Y130000D01*
X87945Y129149D01*
X88428Y128428D01*
X89149Y127945D01*
X90000Y127776D01*
X90851Y127945D01*
X91572Y128428D01*
X92054Y129149D01*
X92224Y130000D01*
X92054Y130851D01*
X91572Y131572D01*
X90851Y132054D01*
X90000Y132224D01*
D02*
G37*
G36*
X80000D02*
X79149Y132054D01*
X78427Y131572D01*
X77946Y130851D01*
X77776Y130000D01*
X77946Y129149D01*
X78427Y128428D01*
X79149Y127945D01*
X80000Y127776D01*
X80851Y127945D01*
X81573Y128428D01*
X82055Y129149D01*
X82224Y130000D01*
X82055Y130851D01*
X81573Y131572D01*
X80851Y132054D01*
X80000Y132224D01*
D02*
G37*
G36*
X172500D02*
X171649Y132054D01*
X170928Y131572D01*
X170446Y130851D01*
X170276Y130000D01*
X170446Y129149D01*
X170928Y128428D01*
X171649Y127945D01*
X172500Y127776D01*
X173351Y127945D01*
X174073Y128428D01*
X174555Y129149D01*
X174724Y130000D01*
X174555Y130851D01*
X174073Y131572D01*
X173351Y132054D01*
X172500Y132224D01*
D02*
G37*
G36*
X100000D02*
X99149Y132054D01*
X98427Y131572D01*
X97945Y130851D01*
X97776Y130000D01*
X97945Y129149D01*
X98427Y128428D01*
X99149Y127945D01*
X100000Y127776D01*
X100851Y127945D01*
X101573Y128428D01*
X102055Y129149D01*
X102224Y130000D01*
X102055Y130851D01*
X101573Y131572D01*
X100851Y132054D01*
X100000Y132224D01*
D02*
G37*
G36*
X75000D02*
X74149Y132054D01*
X73427Y131572D01*
X72945Y130851D01*
X72776Y130000D01*
X72945Y129149D01*
X73427Y128428D01*
X74149Y127945D01*
X75000Y127776D01*
X75851Y127945D01*
X76573Y128428D01*
X77055Y129149D01*
X77224Y130000D01*
X77055Y130851D01*
X76573Y131572D01*
X75851Y132054D01*
X75000Y132224D01*
D02*
G37*
G36*
X239500Y124624D02*
X239149Y124555D01*
X238427Y124073D01*
X237945Y123351D01*
X237876Y123000D01*
X239500D01*
Y124624D01*
D02*
G37*
G36*
X155000Y127224D02*
X154149Y127055D01*
X153428Y126573D01*
X152945Y125851D01*
X152776Y125000D01*
X152945Y124149D01*
X153428Y123427D01*
X154149Y122945D01*
X155000Y122776D01*
X155851Y122945D01*
X156572Y123427D01*
X157054Y124149D01*
X157224Y125000D01*
X157054Y125851D01*
X156572Y126573D01*
X155851Y127055D01*
X155000Y127224D01*
D02*
G37*
G36*
X20000Y134185D02*
X18917Y134043D01*
X17907Y133625D01*
X17041Y132959D01*
X16375Y132093D01*
X15957Y131083D01*
X15815Y130000D01*
X15957Y128917D01*
X16375Y127907D01*
X17041Y127041D01*
X17907Y126375D01*
X18917Y125957D01*
X20000Y125815D01*
X21083Y125957D01*
X22093Y126375D01*
X22960Y127041D01*
X23625Y127907D01*
X24043Y128917D01*
X24185Y130000D01*
X24043Y131083D01*
X23625Y132093D01*
X22960Y132959D01*
X22093Y133625D01*
X21083Y134043D01*
X20000Y134185D01*
D02*
G37*
G36*
X240500Y124624D02*
Y123000D01*
X242124D01*
X242055Y123351D01*
X241572Y124073D01*
X240851Y124555D01*
X240500Y124624D01*
D02*
G37*
G36*
X190500Y112124D02*
Y110500D01*
X192124D01*
X192054Y110851D01*
X191572Y111573D01*
X190851Y112055D01*
X190500Y112124D01*
D02*
G37*
G36*
X189500D02*
X189149Y112055D01*
X188427Y111573D01*
X187945Y110851D01*
X187876Y110500D01*
X189500D01*
Y112124D01*
D02*
G37*
G36*
X190000Y117224D02*
X189149Y117054D01*
X188427Y116572D01*
X187945Y115851D01*
X187776Y115000D01*
X187945Y114149D01*
X188427Y113427D01*
X189149Y112945D01*
X190000Y112776D01*
X190851Y112945D01*
X191572Y113427D01*
X192054Y114149D01*
X192224Y115000D01*
X192054Y115851D01*
X191572Y116572D01*
X190851Y117054D01*
X190000Y117224D01*
D02*
G37*
G36*
X244500Y112124D02*
X244149Y112055D01*
X243427Y111573D01*
X242945Y110851D01*
X242876Y110500D01*
X244500D01*
Y112124D01*
D02*
G37*
G36*
Y109500D02*
X242876D01*
X242945Y109149D01*
X243427Y108428D01*
X244149Y107946D01*
X244500Y107876D01*
Y109500D01*
D02*
G37*
G36*
X225000Y112224D02*
X224149Y112055D01*
X223428Y111573D01*
X222945Y110851D01*
X222776Y110000D01*
X222945Y109149D01*
X223428Y108428D01*
X224149Y107946D01*
X225000Y107776D01*
X225851Y107946D01*
X226572Y108428D01*
X227055Y109149D01*
X227224Y110000D01*
X227055Y110851D01*
X226572Y111573D01*
X225851Y112055D01*
X225000Y112224D01*
D02*
G37*
G36*
X155000D02*
X154149Y112055D01*
X153428Y111573D01*
X152945Y110851D01*
X152776Y110000D01*
X152945Y109149D01*
X153428Y108428D01*
X154149Y107946D01*
X155000Y107776D01*
X155851Y107946D01*
X156572Y108428D01*
X157054Y109149D01*
X157224Y110000D01*
X157054Y110851D01*
X156572Y111573D01*
X155851Y112055D01*
X155000Y112224D01*
D02*
G37*
G36*
X192124Y109500D02*
X190500D01*
Y107876D01*
X190851Y107946D01*
X191572Y108428D01*
X192054Y109149D01*
X192124Y109500D01*
D02*
G37*
G36*
X189500D02*
X187876D01*
X187945Y109149D01*
X188427Y108428D01*
X189149Y107946D01*
X189500Y107876D01*
Y109500D01*
D02*
G37*
G36*
X84500Y114500D02*
X82876D01*
X82946Y114149D01*
X83428Y113427D01*
X84149Y112945D01*
X84500Y112876D01*
Y114500D01*
D02*
G37*
G36*
Y117124D02*
X84149Y117054D01*
X83428Y116572D01*
X82946Y115851D01*
X82876Y115500D01*
X84500D01*
Y117124D01*
D02*
G37*
G36*
X172397Y119724D02*
X171546Y119554D01*
X170824Y119072D01*
X170342Y118351D01*
X170173Y117500D01*
X170342Y116649D01*
X170824Y115928D01*
X171546Y115445D01*
X172397Y115276D01*
X173248Y115445D01*
X173969Y115928D01*
X174451Y116649D01*
X174621Y117500D01*
X174451Y118351D01*
X173969Y119072D01*
X173248Y119554D01*
X172397Y119724D01*
D02*
G37*
G36*
X259500Y117124D02*
X259149Y117054D01*
X258428Y116572D01*
X257945Y115851D01*
X257876Y115500D01*
X259500D01*
Y117124D01*
D02*
G37*
G36*
X85500D02*
Y115500D01*
X87124D01*
X87055Y115851D01*
X86572Y116572D01*
X85851Y117054D01*
X85500Y117124D01*
D02*
G37*
G36*
X285373Y117746D02*
X281014D01*
Y113387D01*
X281258Y113419D01*
X282651Y113996D01*
X283846Y114913D01*
X284764Y116109D01*
X285341Y117502D01*
X285373Y117746D01*
D02*
G37*
G36*
X259500Y114500D02*
X257876D01*
X257945Y114149D01*
X258428Y113427D01*
X259149Y112945D01*
X259500Y112876D01*
Y114500D01*
D02*
G37*
G36*
X87124D02*
X85500D01*
Y112876D01*
X85851Y112945D01*
X86572Y113427D01*
X87055Y114149D01*
X87124Y114500D01*
D02*
G37*
G36*
X278514Y117746D02*
X274154D01*
X274187Y117502D01*
X274763Y116109D01*
X275681Y114913D01*
X276877Y113996D01*
X278269Y113419D01*
X278514Y113387D01*
Y117746D01*
D02*
G37*
G36*
X262124Y114500D02*
X260500D01*
Y112876D01*
X260851Y112945D01*
X261573Y113427D01*
X262055Y114149D01*
X262124Y114500D01*
D02*
G37*
G36*
X190000Y132224D02*
X189149Y132054D01*
X188427Y131572D01*
X187945Y130851D01*
X187776Y130000D01*
X187945Y129149D01*
X188427Y128428D01*
X189149Y127945D01*
X190000Y127776D01*
X190851Y127945D01*
X191572Y128428D01*
X192054Y129149D01*
X192224Y130000D01*
X192054Y130851D01*
X191572Y131572D01*
X190851Y132054D01*
X190000Y132224D01*
D02*
G37*
G36*
X110000Y152224D02*
X109149Y152055D01*
X108428Y151573D01*
X107946Y150851D01*
X107776Y150000D01*
X107946Y149149D01*
X108428Y148427D01*
X109149Y147945D01*
X110000Y147776D01*
X110851Y147945D01*
X111573Y148427D01*
X112055Y149149D01*
X112224Y150000D01*
X112055Y150851D01*
X111573Y151573D01*
X110851Y152055D01*
X110000Y152224D01*
D02*
G37*
G36*
X100000D02*
X99149Y152055D01*
X98427Y151573D01*
X97945Y150851D01*
X97776Y150000D01*
X97945Y149149D01*
X98427Y148427D01*
X99149Y147945D01*
X100000Y147776D01*
X100851Y147945D01*
X101573Y148427D01*
X102055Y149149D01*
X102224Y150000D01*
X102055Y150851D01*
X101573Y151573D01*
X100851Y152055D01*
X100000Y152224D01*
D02*
G37*
G36*
X42000Y149500D02*
X40376D01*
X40445Y149149D01*
X40927Y148427D01*
X41649Y147945D01*
X42000Y147876D01*
Y149500D01*
D02*
G37*
G36*
X197500Y152224D02*
X196649Y152055D01*
X195928Y151573D01*
X195446Y150851D01*
X195276Y150000D01*
X195446Y149149D01*
X195928Y148427D01*
X196649Y147945D01*
X197500Y147776D01*
X198351Y147945D01*
X199073Y148427D01*
X199555Y149149D01*
X199724Y150000D01*
X199555Y150851D01*
X199073Y151573D01*
X198351Y152055D01*
X197500Y152224D01*
D02*
G37*
G36*
X24054Y149000D02*
X21000D01*
Y145946D01*
X21083Y145957D01*
X22093Y146375D01*
X22960Y147040D01*
X23625Y147907D01*
X24043Y148917D01*
X24054Y149000D01*
D02*
G37*
G36*
X239500Y147124D02*
X239149Y147055D01*
X238427Y146572D01*
X237945Y145851D01*
X237876Y145500D01*
X239500D01*
Y147124D01*
D02*
G37*
G36*
X256772Y151304D02*
X255787Y151175D01*
X254870Y150794D01*
X254082Y150190D01*
X253477Y149402D01*
X253097Y148485D01*
X252968Y147500D01*
X253097Y146515D01*
X253477Y145598D01*
X254082Y144810D01*
X254870Y144205D01*
X255787Y143825D01*
X256772Y143696D01*
X257756Y143825D01*
X258674Y144205D01*
X259462Y144810D01*
X260066Y145598D01*
X260446Y146515D01*
X260576Y147500D01*
X260446Y148485D01*
X260066Y149402D01*
X259462Y150190D01*
X258674Y150794D01*
X257756Y151175D01*
X256772Y151304D01*
D02*
G37*
G36*
X19000Y149000D02*
X15946D01*
X15957Y148917D01*
X16375Y147907D01*
X17041Y147040D01*
X17907Y146375D01*
X18917Y145957D01*
X19000Y145946D01*
Y149000D01*
D02*
G37*
G36*
X240500Y147124D02*
Y145500D01*
X242124D01*
X242055Y145851D01*
X241572Y146572D01*
X240851Y147055D01*
X240500Y147124D01*
D02*
G37*
G36*
X44624Y149500D02*
X43000D01*
Y147876D01*
X43351Y147945D01*
X44072Y148427D01*
X44555Y149149D01*
X44624Y149500D01*
D02*
G37*
G36*
X43000Y152124D02*
Y150500D01*
X44624D01*
X44555Y150851D01*
X44072Y151573D01*
X43351Y152055D01*
X43000Y152124D01*
D02*
G37*
G36*
X42000D02*
X41649Y152055D01*
X40927Y151573D01*
X40445Y150851D01*
X40376Y150500D01*
X42000D01*
Y152124D01*
D02*
G37*
G36*
X140500D02*
Y150500D01*
X142124D01*
X142054Y150851D01*
X141572Y151573D01*
X140851Y152055D01*
X140500Y152124D01*
D02*
G37*
G36*
X139500D02*
X139149Y152055D01*
X138427Y151573D01*
X137945Y150851D01*
X137876Y150500D01*
X139500D01*
Y152124D01*
D02*
G37*
G36*
X266772Y156304D02*
X265787Y156175D01*
X264869Y155795D01*
X264082Y155190D01*
X263477Y154402D01*
X263097Y153485D01*
X262967Y152500D01*
X263097Y151515D01*
X263477Y150598D01*
X264082Y149810D01*
X264869Y149206D01*
X265787Y148825D01*
X266772Y148696D01*
X267756Y148825D01*
X268674Y149206D01*
X269462Y149810D01*
X270066Y150598D01*
X270446Y151515D01*
X270576Y152500D01*
X270446Y153485D01*
X270066Y154402D01*
X269462Y155190D01*
X268674Y155795D01*
X267756Y156175D01*
X266772Y156304D01*
D02*
G37*
G36*
X142124Y149500D02*
X140500D01*
Y147876D01*
X140851Y147945D01*
X141572Y148427D01*
X142054Y149149D01*
X142124Y149500D01*
D02*
G37*
G36*
X139500D02*
X137876D01*
X137945Y149149D01*
X138427Y148427D01*
X139149Y147945D01*
X139500Y147876D01*
Y149500D01*
D02*
G37*
G36*
X152124D02*
X150500D01*
Y147876D01*
X150851Y147945D01*
X151573Y148427D01*
X152055Y149149D01*
X152124Y149500D01*
D02*
G37*
G36*
X149500D02*
X147876D01*
X147945Y149149D01*
X148427Y148427D01*
X149149Y147945D01*
X149500Y147876D01*
Y149500D01*
D02*
G37*
G36*
X256772Y141304D02*
X255787Y141175D01*
X254870Y140795D01*
X254082Y140190D01*
X253477Y139402D01*
X253097Y138485D01*
X252968Y137500D01*
X253097Y136515D01*
X253477Y135598D01*
X254082Y134810D01*
X254870Y134205D01*
X255787Y133825D01*
X256772Y133696D01*
X257756Y133825D01*
X258674Y134205D01*
X259462Y134810D01*
X260066Y135598D01*
X260446Y136515D01*
X260576Y137500D01*
X260446Y138485D01*
X260066Y139402D01*
X259462Y140190D01*
X258674Y140795D01*
X257756Y141175D01*
X256772Y141304D01*
D02*
G37*
G36*
X150000Y137224D02*
X149149Y137055D01*
X148427Y136573D01*
X147945Y135851D01*
X147776Y135000D01*
X147945Y134149D01*
X148427Y133428D01*
X149149Y132946D01*
X150000Y132776D01*
X150851Y132946D01*
X151573Y133428D01*
X152055Y134149D01*
X152224Y135000D01*
X152055Y135851D01*
X151573Y136573D01*
X150851Y137055D01*
X150000Y137224D01*
D02*
G37*
G36*
X70000Y144185D02*
X68917Y144043D01*
X67907Y143625D01*
X67040Y142959D01*
X66375Y142093D01*
X65957Y141083D01*
X65815Y140000D01*
X65957Y138917D01*
X66375Y137907D01*
X67040Y137040D01*
X67907Y136375D01*
X68917Y135957D01*
X70000Y135815D01*
X71083Y135957D01*
X72093Y136375D01*
X72960Y137040D01*
X73625Y137907D01*
X74043Y138917D01*
X74185Y140000D01*
X74043Y141083D01*
X73625Y142093D01*
X72960Y142959D01*
X72093Y143625D01*
X71083Y144043D01*
X70000Y144185D01*
D02*
G37*
G36*
X20000D02*
X18917Y144043D01*
X17907Y143625D01*
X17041Y142959D01*
X16375Y142093D01*
X15957Y141083D01*
X15815Y140000D01*
X15957Y138917D01*
X16375Y137907D01*
X17041Y137040D01*
X17907Y136375D01*
X18917Y135957D01*
X20000Y135815D01*
X21083Y135957D01*
X22093Y136375D01*
X22960Y137040D01*
X23625Y137907D01*
X24043Y138917D01*
X24185Y140000D01*
X24043Y141083D01*
X23625Y142093D01*
X22960Y142959D01*
X22093Y143625D01*
X21083Y144043D01*
X20000Y144185D01*
D02*
G37*
G36*
X85500Y132124D02*
Y130500D01*
X87124D01*
X87055Y130851D01*
X86572Y131572D01*
X85851Y132054D01*
X85500Y132124D01*
D02*
G37*
G36*
X87124Y129500D02*
X85500D01*
Y127876D01*
X85851Y127945D01*
X86572Y128428D01*
X87055Y129149D01*
X87124Y129500D01*
D02*
G37*
G36*
X84500D02*
X82876D01*
X82946Y129149D01*
X83428Y128428D01*
X84149Y127945D01*
X84500Y127876D01*
Y129500D01*
D02*
G37*
G36*
Y132124D02*
X84149Y132054D01*
X83428Y131572D01*
X82946Y130851D01*
X82876Y130500D01*
X84500D01*
Y132124D01*
D02*
G37*
G36*
X266772Y136304D02*
X265787Y136175D01*
X264869Y135794D01*
X264082Y135190D01*
X263477Y134402D01*
X263097Y133485D01*
X262967Y132500D01*
X263097Y131515D01*
X263477Y130598D01*
X264082Y129810D01*
X264869Y129206D01*
X265787Y128825D01*
X266772Y128696D01*
X267756Y128825D01*
X268674Y129206D01*
X269462Y129810D01*
X270066Y130598D01*
X270446Y131515D01*
X270576Y132500D01*
X270446Y133485D01*
X270066Y134402D01*
X269462Y135190D01*
X268674Y135794D01*
X267756Y136175D01*
X266772Y136304D01*
D02*
G37*
G36*
X90000Y142224D02*
X89149Y142054D01*
X88428Y141572D01*
X87945Y140851D01*
X87776Y140000D01*
X87945Y139149D01*
X88428Y138427D01*
X89149Y137945D01*
X90000Y137776D01*
X90851Y137945D01*
X91572Y138427D01*
X92054Y139149D01*
X92224Y140000D01*
X92054Y140851D01*
X91572Y141572D01*
X90851Y142054D01*
X90000Y142224D01*
D02*
G37*
G36*
X190500Y142124D02*
Y140500D01*
X192124D01*
X192054Y140851D01*
X191572Y141572D01*
X190851Y142054D01*
X190500Y142124D01*
D02*
G37*
G36*
X189500D02*
X189149Y142054D01*
X188427Y141572D01*
X187945Y140851D01*
X187876Y140500D01*
X189500D01*
Y142124D01*
D02*
G37*
G36*
X242124Y144500D02*
X240500D01*
Y142876D01*
X240851Y142946D01*
X241572Y143428D01*
X242055Y144149D01*
X242124Y144500D01*
D02*
G37*
G36*
X239500D02*
X237876D01*
X237945Y144149D01*
X238427Y143428D01*
X239149Y142946D01*
X239500Y142876D01*
Y144500D01*
D02*
G37*
G36*
X266772Y146304D02*
X265787Y146175D01*
X264869Y145794D01*
X264082Y145190D01*
X263477Y144402D01*
X263097Y143485D01*
X262967Y142500D01*
X263097Y141515D01*
X263477Y140598D01*
X264082Y139810D01*
X264869Y139206D01*
X265787Y138825D01*
X266772Y138696D01*
X267756Y138825D01*
X268674Y139206D01*
X269462Y139810D01*
X270066Y140598D01*
X270446Y141515D01*
X270576Y142500D01*
X270446Y143485D01*
X270066Y144402D01*
X269462Y145190D01*
X268674Y145794D01*
X267756Y146175D01*
X266772Y146304D01*
D02*
G37*
G36*
X225000Y142224D02*
X224149Y142054D01*
X223428Y141572D01*
X222945Y140851D01*
X222776Y140000D01*
X222945Y139149D01*
X223428Y138427D01*
X224149Y137945D01*
X225000Y137776D01*
X225851Y137945D01*
X226572Y138427D01*
X227055Y139149D01*
X227224Y140000D01*
X227055Y140851D01*
X226572Y141572D01*
X225851Y142054D01*
X225000Y142224D01*
D02*
G37*
G36*
X210000D02*
X209149Y142054D01*
X208428Y141572D01*
X207945Y140851D01*
X207776Y140000D01*
X207945Y139149D01*
X208428Y138427D01*
X209149Y137945D01*
X210000Y137776D01*
X210851Y137945D01*
X211573Y138427D01*
X212055Y139149D01*
X212224Y140000D01*
X212055Y140851D01*
X211573Y141572D01*
X210851Y142054D01*
X210000Y142224D01*
D02*
G37*
G36*
X192124Y139500D02*
X190500D01*
Y137876D01*
X190851Y137945D01*
X191572Y138427D01*
X192054Y139149D01*
X192124Y139500D01*
D02*
G37*
G36*
X189500D02*
X187876D01*
X187945Y139149D01*
X188427Y138427D01*
X189149Y137945D01*
X189500Y137876D01*
Y139500D01*
D02*
G37*
%LPD*%
D28*
X300000Y105000D02*
X305000D01*
X311063Y98937D01*
Y84902D02*
Y98937D01*
X310000Y185000D02*
X315000Y180000D01*
Y168839D02*
Y180000D01*
X311063Y164902D02*
X315000Y168839D01*
X300000Y39902D02*
X305197Y45098D01*
X311063D01*
X300000Y35000D02*
Y39902D01*
Y115000D02*
X307500D01*
X311063Y118563D01*
Y125098D01*
X305079Y135098D02*
X319902D01*
X305079Y55098D02*
X320098D01*
X325000Y110000D02*
X327500Y112500D01*
X319902Y135098D02*
X327500Y127500D01*
Y112500D02*
Y127500D01*
X325000Y110000D02*
X327500Y107500D01*
X320098Y55098D02*
X327500Y62500D01*
Y107500D01*
X245000Y110000D02*
X325000D01*
D31*
X95000Y120000D02*
Y170000D01*
X90000Y115000D02*
X95000Y120000D01*
X90000Y75000D02*
Y115000D01*
Y75000D02*
X110000Y55000D01*
D35*
X210000Y20000D02*
D03*
Y30000D02*
D03*
X80000Y200000D02*
D03*
X70000D02*
D03*
X190000Y30000D02*
D03*
Y20000D02*
D03*
X20000Y160000D02*
D03*
Y150000D02*
D03*
D39*
X311063Y125098D02*
D03*
X305079Y135098D02*
D03*
X311063Y164902D02*
D03*
Y45098D02*
D03*
X305079Y55098D02*
D03*
X311063Y84902D02*
D03*
D40*
X279764Y118996D02*
D03*
Y181004D02*
D03*
Y38996D02*
D03*
Y101004D02*
D03*
D42*
X110000Y55000D02*
D03*
X140000Y150000D02*
D03*
X90000Y115000D02*
D03*
X95000Y170000D02*
D03*
X135000Y165000D02*
D03*
X110000Y95000D02*
D03*
X50000Y65000D02*
D03*
X85000Y130000D02*
D03*
X65000Y20000D02*
D03*
X50000Y55000D02*
D03*
X310000Y185000D02*
D03*
X300000Y105000D02*
D03*
Y35000D02*
D03*
Y115000D02*
D03*
X155000Y50000D02*
D03*
X165000Y55000D02*
D03*
X110000Y160000D02*
D03*
X190000Y140000D02*
D03*
X172500Y157500D02*
D03*
X130000Y106000D02*
D03*
X325000Y110000D02*
D03*
X260000Y115000D02*
D03*
Y195000D02*
D03*
Y185000D02*
D03*
Y105000D02*
D03*
X240000Y157500D02*
D03*
Y145000D02*
D03*
Y122500D02*
D03*
Y95000D02*
D03*
Y60000D02*
D03*
Y72500D02*
D03*
X172603Y82500D02*
D03*
X190000Y110000D02*
D03*
X112500Y180000D02*
D03*
X187500D02*
D03*
X160000Y72500D02*
D03*
X50000Y75000D02*
D03*
X85000Y115000D02*
D03*
X150000Y150000D02*
D03*
X50000Y180000D02*
D03*
X42500Y150000D02*
D03*
X125000Y60000D02*
D03*
X120000Y175000D02*
D03*
X245000Y110000D02*
D03*
X131339Y111339D02*
D03*
Y115669D02*
D03*
Y120000D02*
D03*
Y124331D02*
D03*
Y128661D02*
D03*
X135669Y111339D02*
D03*
Y115669D02*
D03*
Y120000D02*
D03*
Y124331D02*
D03*
Y128661D02*
D03*
X140000Y111339D02*
D03*
Y115669D02*
D03*
Y120000D02*
D03*
Y124331D02*
D03*
Y128661D02*
D03*
X144331Y111339D02*
D03*
Y115669D02*
D03*
Y120000D02*
D03*
Y124331D02*
D03*
Y128661D02*
D03*
X148661Y111339D02*
D03*
Y115669D02*
D03*
Y120000D02*
D03*
Y124331D02*
D03*
Y128661D02*
D03*
M02*
