G04*
G04 #@! TF.GenerationSoftware,Altium Limited,CircuitStudio,1.5.2 (30)*
G04*
G04 Layer_Color=20142*
%FSLAX25Y25*%
%MOIN*%
G70*
G01*
G75*
%ADD64R,0.01981X0.06312*%
%ADD65R,0.06312X0.01981*%
%ADD66R,0.23438X0.23438*%
%ADD67R,0.04540X0.04343*%
%ADD68R,0.04343X0.04540*%
%ADD69R,0.04540X0.04343*%
%ADD70R,0.04658X0.04816*%
%ADD71R,0.04343X0.04540*%
%ADD72R,0.04816X0.04658*%
%ADD73R,0.03162X0.06706*%
%ADD74R,0.06312X0.04343*%
%ADD75R,0.22453X0.08674*%
%ADD76R,0.04934X0.03359*%
%ADD77R,0.06509X0.05131*%
%ADD78C,0.11811*%
%ADD79C,0.21457*%
%ADD80C,0.07099*%
%ADD81C,0.06343*%
%ADD82C,0.10249*%
%ADD83C,0.06824*%
%ADD84C,0.13595*%
%ADD85R,0.07099X0.07099*%
%ADD86R,0.07099X0.07099*%
%ADD87C,0.03162*%
D64*
X154764Y142441D02*
D03*
X152795D02*
D03*
X150827D02*
D03*
X148858D02*
D03*
X146890D02*
D03*
X144921D02*
D03*
X142953D02*
D03*
X140984D02*
D03*
X139016D02*
D03*
X137047D02*
D03*
X135079D02*
D03*
X133110D02*
D03*
X131142D02*
D03*
X129173D02*
D03*
X127205D02*
D03*
X125236D02*
D03*
Y97559D02*
D03*
X127205D02*
D03*
X129173D02*
D03*
X131142D02*
D03*
X133110D02*
D03*
X135079D02*
D03*
X137047D02*
D03*
X139016D02*
D03*
X140984D02*
D03*
X142953D02*
D03*
X144921D02*
D03*
X146890D02*
D03*
X148858D02*
D03*
X150827D02*
D03*
X152795D02*
D03*
X154764D02*
D03*
D65*
X117559Y134764D02*
D03*
Y132795D02*
D03*
Y130827D02*
D03*
Y128858D02*
D03*
Y126890D02*
D03*
Y124921D02*
D03*
Y122953D02*
D03*
Y120984D02*
D03*
Y119016D02*
D03*
Y117047D02*
D03*
Y115079D02*
D03*
Y113110D02*
D03*
Y111142D02*
D03*
Y109173D02*
D03*
Y107205D02*
D03*
Y105236D02*
D03*
X162441D02*
D03*
Y107205D02*
D03*
Y109173D02*
D03*
Y111142D02*
D03*
Y113110D02*
D03*
Y115079D02*
D03*
Y117047D02*
D03*
Y119016D02*
D03*
Y120984D02*
D03*
Y122953D02*
D03*
Y124921D02*
D03*
Y126890D02*
D03*
Y128858D02*
D03*
Y130827D02*
D03*
Y132795D02*
D03*
Y134764D02*
D03*
D66*
X140000Y120000D02*
D03*
D67*
X177500Y131850D02*
D03*
Y138150D02*
D03*
X185000Y84350D02*
D03*
Y90650D02*
D03*
Y131850D02*
D03*
Y138150D02*
D03*
X202500Y113150D02*
D03*
Y106850D02*
D03*
X177500Y90650D02*
D03*
Y84350D02*
D03*
Y106850D02*
D03*
Y113150D02*
D03*
X185000Y106850D02*
D03*
Y113150D02*
D03*
X177500Y149350D02*
D03*
Y155650D02*
D03*
X185000D02*
D03*
Y149350D02*
D03*
X105000Y98150D02*
D03*
Y91850D02*
D03*
X140000Y156850D02*
D03*
Y163150D02*
D03*
X150000D02*
D03*
Y156850D02*
D03*
X120000Y61850D02*
D03*
Y68150D02*
D03*
X130000Y61850D02*
D03*
Y68150D02*
D03*
X160000Y76850D02*
D03*
Y83150D02*
D03*
X187500Y193150D02*
D03*
Y186850D02*
D03*
X112500Y193150D02*
D03*
Y186850D02*
D03*
X70000Y183150D02*
D03*
Y176850D02*
D03*
D68*
X235650Y125000D02*
D03*
X229350D02*
D03*
X235650Y155000D02*
D03*
X229350D02*
D03*
Y147500D02*
D03*
X235650D02*
D03*
X229350Y85000D02*
D03*
X235650D02*
D03*
Y140000D02*
D03*
X229350D02*
D03*
X53150Y80000D02*
D03*
X46850D02*
D03*
X98150Y120000D02*
D03*
X91850D02*
D03*
Y135000D02*
D03*
X98150D02*
D03*
X229350Y77500D02*
D03*
X235650D02*
D03*
X128150Y170000D02*
D03*
X121850D02*
D03*
X123150Y155000D02*
D03*
X116850D02*
D03*
X235650Y132500D02*
D03*
X229350D02*
D03*
X235650Y62500D02*
D03*
X229350D02*
D03*
X235650Y70000D02*
D03*
X229350D02*
D03*
X235650Y92500D02*
D03*
X229350D02*
D03*
D69*
X220551Y155000D02*
D03*
X214449D02*
D03*
Y70000D02*
D03*
X220551D02*
D03*
Y92500D02*
D03*
X214449D02*
D03*
Y125000D02*
D03*
X220551D02*
D03*
X214449Y132500D02*
D03*
X220551D02*
D03*
X214449Y147500D02*
D03*
X220551D02*
D03*
Y140000D02*
D03*
X214449D02*
D03*
X58051Y40000D02*
D03*
X51949D02*
D03*
X220551Y62500D02*
D03*
X214449D02*
D03*
X220551Y85000D02*
D03*
X214449D02*
D03*
X220551Y77500D02*
D03*
X214449D02*
D03*
X78051Y40000D02*
D03*
X71949D02*
D03*
X168051Y170000D02*
D03*
X161949D02*
D03*
X46949Y90000D02*
D03*
X53051D02*
D03*
X73051D02*
D03*
X66949D02*
D03*
X301949Y30000D02*
D03*
X308051D02*
D03*
X301949Y190000D02*
D03*
X308051D02*
D03*
Y110000D02*
D03*
X301949D02*
D03*
X286949D02*
D03*
X293051D02*
D03*
D70*
X192500Y84587D02*
D03*
Y90413D02*
D03*
Y149587D02*
D03*
Y155413D02*
D03*
X210000Y112913D02*
D03*
Y107087D02*
D03*
D71*
X195000Y106949D02*
D03*
Y113051D02*
D03*
X165000Y61949D02*
D03*
Y68051D02*
D03*
X80000Y183051D02*
D03*
Y176949D02*
D03*
X147500Y68051D02*
D03*
Y61949D02*
D03*
X155000Y68051D02*
D03*
Y61949D02*
D03*
D72*
X262913Y190000D02*
D03*
X257087D02*
D03*
X142087Y170000D02*
D03*
X147913D02*
D03*
X257087Y110000D02*
D03*
X262913D02*
D03*
D73*
X57500Y49370D02*
D03*
X62500D02*
D03*
X67500D02*
D03*
X72500D02*
D03*
X57500Y70630D02*
D03*
X62500D02*
D03*
X67500D02*
D03*
X72500D02*
D03*
D74*
X55000Y21161D02*
D03*
Y28839D02*
D03*
X75000Y21161D02*
D03*
Y28839D02*
D03*
D75*
X168701Y190000D02*
D03*
X131299D02*
D03*
D76*
X58169Y175768D02*
D03*
Y184232D02*
D03*
X41831D02*
D03*
Y175768D02*
D03*
D77*
X50000Y141457D02*
D03*
Y148543D02*
D03*
D78*
X35000Y15000D02*
D03*
Y205000D02*
D03*
X300000Y15000D02*
D03*
D79*
X242126Y13780D02*
D03*
X13780D02*
D03*
X242126Y206693D02*
D03*
X13780D02*
D03*
D80*
X50000Y120000D02*
D03*
X20000Y180000D02*
D03*
Y140000D02*
D03*
Y130000D02*
D03*
Y120000D02*
D03*
Y110000D02*
D03*
Y100000D02*
D03*
Y90000D02*
D03*
Y80000D02*
D03*
Y70000D02*
D03*
Y60000D02*
D03*
Y150000D02*
D03*
Y160000D02*
D03*
X140000Y30000D02*
D03*
Y20000D02*
D03*
X130000Y30000D02*
D03*
Y20000D02*
D03*
X120000Y30000D02*
D03*
Y20000D02*
D03*
X110000Y30000D02*
D03*
Y20000D02*
D03*
X100000Y30000D02*
D03*
X150000Y20000D02*
D03*
Y30000D02*
D03*
X160000Y20000D02*
D03*
Y30000D02*
D03*
X170000Y20000D02*
D03*
Y30000D02*
D03*
X180000Y20000D02*
D03*
Y30000D02*
D03*
X190000Y20000D02*
D03*
Y30000D02*
D03*
X70000Y160000D02*
D03*
Y140000D02*
D03*
X50000Y100000D02*
D03*
Y160000D02*
D03*
X70000Y200000D02*
D03*
X80000D02*
D03*
X210000Y30000D02*
D03*
Y20000D02*
D03*
D81*
X256772Y87500D02*
D03*
X266772Y82500D02*
D03*
X256772Y77500D02*
D03*
X266772Y72500D02*
D03*
X256772Y67500D02*
D03*
X266772Y62500D02*
D03*
X256772Y57500D02*
D03*
X266772Y52500D02*
D03*
X256772Y167500D02*
D03*
X266772Y162500D02*
D03*
X256772Y157500D02*
D03*
X266772Y152500D02*
D03*
X256772Y147500D02*
D03*
X266772Y142500D02*
D03*
X256772Y137500D02*
D03*
X266772Y132500D02*
D03*
D82*
X279764Y101004D02*
D03*
Y38996D02*
D03*
Y181004D02*
D03*
Y118996D02*
D03*
D83*
X305079Y94902D02*
D03*
X311063Y84902D02*
D03*
X305079Y55098D02*
D03*
X311063Y45098D02*
D03*
X305079Y174902D02*
D03*
X311063Y164902D02*
D03*
X305079Y135098D02*
D03*
X311063Y125098D02*
D03*
D84*
X291772Y92500D02*
D03*
Y47500D02*
D03*
Y172500D02*
D03*
Y127500D02*
D03*
D85*
X20000Y50000D02*
D03*
D86*
X100000Y20000D02*
D03*
D87*
X148661Y128661D02*
D03*
Y124331D02*
D03*
Y120000D02*
D03*
Y115669D02*
D03*
Y111339D02*
D03*
X144331Y128661D02*
D03*
Y124331D02*
D03*
Y120000D02*
D03*
Y115669D02*
D03*
Y111339D02*
D03*
X140000Y128661D02*
D03*
Y124331D02*
D03*
Y120000D02*
D03*
Y115669D02*
D03*
Y111339D02*
D03*
X135669Y128661D02*
D03*
Y124331D02*
D03*
Y120000D02*
D03*
Y115669D02*
D03*
Y111339D02*
D03*
X131339Y128661D02*
D03*
Y124331D02*
D03*
Y120000D02*
D03*
Y115669D02*
D03*
Y111339D02*
D03*
X245000Y110000D02*
D03*
X120000Y175000D02*
D03*
X90000Y140000D02*
D03*
X125000Y60000D02*
D03*
X197500Y87500D02*
D03*
X42500Y150000D02*
D03*
X50000Y180000D02*
D03*
X150000Y150000D02*
D03*
X85000Y115000D02*
D03*
X50000Y75000D02*
D03*
X160000Y72500D02*
D03*
X187500Y180000D02*
D03*
X112500D02*
D03*
X190000Y110000D02*
D03*
Y115000D02*
D03*
X172603Y82500D02*
D03*
X240000Y72500D02*
D03*
Y60000D02*
D03*
Y95000D02*
D03*
Y122500D02*
D03*
Y145000D02*
D03*
Y157500D02*
D03*
X260000Y105000D02*
D03*
Y185000D02*
D03*
Y195000D02*
D03*
Y115000D02*
D03*
X325000Y110000D02*
D03*
X245000Y100000D02*
D03*
Y180000D02*
D03*
X210000Y157500D02*
D03*
Y60000D02*
D03*
X197500Y150000D02*
D03*
X210000Y140000D02*
D03*
Y122500D02*
D03*
X225000Y110000D02*
D03*
X210000Y77500D02*
D03*
Y100000D02*
D03*
X192500Y72500D02*
D03*
X172500Y92500D02*
D03*
X197500Y157500D02*
D03*
X172397Y117500D02*
D03*
X172500Y157500D02*
D03*
X190000Y140000D02*
D03*
X172500Y130000D02*
D03*
X190000D02*
D03*
X225000Y77500D02*
D03*
Y140000D02*
D03*
X65000Y40000D02*
D03*
X110000Y160000D02*
D03*
X80000Y190000D02*
D03*
X120000Y160000D02*
D03*
X165000Y55000D02*
D03*
X155000Y50000D02*
D03*
X145000Y55000D02*
D03*
X315000Y35000D02*
D03*
X325000D02*
D03*
X290000Y105000D02*
D03*
X300000Y115000D02*
D03*
Y35000D02*
D03*
Y105000D02*
D03*
X310000D02*
D03*
X300000Y185000D02*
D03*
X310000D02*
D03*
X50000Y55000D02*
D03*
X65000Y20000D02*
D03*
X75000Y130000D02*
D03*
X85000D02*
D03*
X50000Y65000D02*
D03*
X125000D02*
D03*
X110000Y95000D02*
D03*
X135000Y165000D02*
D03*
X95000Y170000D02*
D03*
X100000Y130000D02*
D03*
X90000Y115000D02*
D03*
X135000Y75000D02*
D03*
X75000Y85000D02*
D03*
X100000Y95000D02*
D03*
X125000Y90000D02*
D03*
X145000Y155000D02*
D03*
X140000Y150000D02*
D03*
X100000D02*
D03*
X135000Y170000D02*
D03*
X80000Y130000D02*
D03*
X90000D02*
D03*
X110000Y55000D02*
D03*
X75000Y95000D02*
D03*
X115000Y80000D02*
D03*
X50000Y85000D02*
D03*
X65000D02*
D03*
X165000Y80000D02*
D03*
X90000Y55000D02*
D03*
Y45000D02*
D03*
Y50000D02*
D03*
X110000Y75000D02*
D03*
X120000Y85000D02*
D03*
X110000Y150000D02*
D03*
X145000Y165000D02*
D03*
Y85000D02*
D03*
X150000Y80000D02*
D03*
X145000D02*
D03*
M02*
